<svg width="200" height="201" viewBox="0 0 200 201" fill="none" xmlns="http://www.w3.org/2000/svg">
<g clip-path="url(#clip0_2357_5678)">
<path d="M109.155 58.3428C108.459 58.3999 113.93 43.8067 96.2868 46.9903C49.6476 55.4069 16.6865 86.4712 9.74731 95.3644C2.80813 104.258 -18.4479 141.346 37.7232 137.009C93.9039 132.672 124.94 100.435 129.257 94.497C146.1 71.287 139.504 55.9026 109.155 58.3523V58.3428ZM97.6594 50.7554C97.6594 50.7554 108.688 48.2199 104.17 59.1434C104.17 59.1434 76.6989 61.7456 38.3809 84.4504C38.3809 84.4504 58.3311 56.7605 97.6689 50.7649L97.6594 50.7554ZM83.0376 122.244C56.3961 132.176 31.0986 130.318 26.5233 118.069C21.9576 105.821 39.8488 87.8438 66.4808 77.9021C93.1223 67.9604 118.42 69.8286 122.985 82.077C127.561 94.3254 109.66 112.312 83.028 122.254L83.0376 122.244Z" fill="#DF134C"/>
<path d="M138.465 154.7L150.275 87.7485H167.69L166.422 94.8878C169.367 91.8758 171.941 89.8359 174.143 88.7684C177.107 87.3386 180.243 86.6237 183.532 86.6237C190.032 86.6237 194.617 89.102 197.286 94.0681C199.965 99.0342 200.66 105.173 199.374 112.493C197.953 120.567 194.922 126.734 190.299 130.985C185.676 135.236 180.415 137.362 174.496 137.362C171.626 137.362 169.091 136.866 166.908 135.894C164.716 134.922 162.857 133.463 161.342 131.528L157.252 154.7H138.465ZM164.63 112.083C163.953 115.906 164.268 118.756 165.555 120.614C166.841 122.473 168.719 123.398 171.197 123.398C173.361 123.398 175.325 122.511 177.107 120.729C178.89 118.946 180.148 115.934 180.901 111.673C181.587 107.746 181.33 104.877 180.138 103.028C178.937 101.188 177.241 100.273 175.048 100.273C172.665 100.273 170.521 101.207 168.614 103.057C166.698 104.906 165.374 107.918 164.64 112.083H164.63Z" fill="#0060A9"/>
<path d="M65.5276 87.7199H83.3998L85.859 117.802L100.948 87.7199H117.524L122.385 118.05L135.51 87.7199H153.278L127.027 135.903H110.594L105.943 106.907L91.397 135.903H74.8974L65.5276 87.7199Z" fill="#0060A9"/>
</g>
<defs>
<clipPath id="clip0_2357_5678">
<rect width="200" height="108.164" fill="white" transform="translate(0 46.536)"/>
</clipPath>
</defs>
</svg>
