<svg width="48" height="48" viewBox="0 0 48 48" fill="none" xmlns="http://www.w3.org/2000/svg">
<g clip-path="url(#clip0_133_21538)">
<g clip-path="url(#clip1_133_21538)">
<path d="M24 48C37.2548 48 48 37.2548 48 24C48 10.7452 37.2548 0 24 0C10.7452 0 0 10.7452 0 24C0 37.2548 10.7452 48 24 48Z" fill="#1D2E79"/>
<path d="M24.0002 44.6896C35.4268 44.6896 44.6899 35.4265 44.6899 24C44.6899 12.5734 35.4268 3.3103 24.0002 3.3103C12.5736 3.3103 3.31055 12.5734 3.31055 24C3.31055 35.4265 12.5736 44.6896 24.0002 44.6896Z" fill="#ECF0F1"/>
<path d="M41.867 13.5808C33.7513 8.84208 23.461 10.1712 16.8157 16.8165C10.1705 23.4617 8.84135 33.7521 13.5801 41.8677C6.08376 37.4998 2.10975 28.918 3.62768 20.3758C5.1456 11.8336 11.8329 5.14633 20.3751 3.62841C28.9173 2.11048 37.499 6.08449 41.867 13.5808Z" fill="white"/>
<path d="M23.9998 27.3104C25.8281 27.3104 27.3101 25.8283 27.3101 24C27.3101 22.1718 25.8281 20.6897 23.9998 20.6897C22.1715 20.6897 20.6895 22.1718 20.6895 24C20.6895 25.8283 22.1715 27.3104 23.9998 27.3104Z" fill="#464F5D"/>
<path d="M10.7585 24.8277H6.62055C6.16349 24.8277 5.79297 24.4572 5.79297 24.0001C5.79297 23.543 6.16349 23.1725 6.62055 23.1725H10.7585C11.2155 23.1725 11.5861 23.543 11.5861 24.0001C11.5861 24.4572 11.2155 24.8277 10.7585 24.8277Z" fill="#1D2E79"/>
<path d="M14.6382 15.4651C14.4185 15.4653 14.2077 15.378 14.0523 15.2226L11.126 12.2954C10.9108 12.0876 10.8245 11.7799 10.9003 11.4906C10.976 11.2012 11.202 10.9753 11.4913 10.8995C11.7807 10.8238 12.0884 10.9101 12.2962 11.1252L15.2233 14.0516C15.4605 14.2882 15.5317 14.6445 15.4036 14.954C15.2754 15.2636 14.9733 15.4653 14.6382 15.4651Z" fill="#1D2E79"/>
<path d="M23.9997 11.5863C23.5426 11.5863 23.1721 11.2158 23.1721 10.7587V6.62081C23.1721 6.16375 23.5426 5.79322 23.9997 5.79322C24.4568 5.79322 24.8273 6.16375 24.8273 6.62081V10.7587C24.8273 11.2158 24.4568 11.5863 23.9997 11.5863Z" fill="#1D2E79"/>
<path d="M33.3622 15.4652C33.0272 15.4655 32.725 15.2637 32.5969 14.9542C32.4687 14.6446 32.5399 14.2883 32.7771 14.0517L35.7043 11.1254C35.9121 10.9102 36.2198 10.8239 36.5091 10.8997C36.7985 10.9754 37.0244 11.2014 37.1002 11.4907C37.1759 11.7801 37.0896 12.0878 36.8745 12.2956L33.9481 15.2227C33.7928 15.3782 33.582 15.4654 33.3622 15.4652Z" fill="#1D2E79"/>
<path d="M41.3798 24.8276H37.2419C36.7848 24.8276 36.4143 24.4571 36.4143 24.0001C36.4143 23.543 36.7848 23.1725 37.2419 23.1725H41.3798C41.8369 23.1725 42.2074 23.543 42.2074 24.0001C42.2074 24.4571 41.8369 24.8276 41.3798 24.8276Z" fill="#1D2E79"/>
<path d="M17.9826 10.3003C18.4397 10.3003 18.8102 9.92974 18.8102 9.47268C18.8102 9.01561 18.4397 8.64509 17.9826 8.64509C17.5256 8.64509 17.155 9.01561 17.155 9.47268C17.155 9.92974 17.5256 10.3003 17.9826 10.3003Z" fill="#1D2E79"/>
<path d="M9.47285 18.8104C9.92991 18.8104 10.3004 18.4399 10.3004 17.9828C10.3004 17.5258 9.92991 17.1553 9.47285 17.1553C9.01579 17.1553 8.64526 17.5258 8.64526 17.9828C8.64526 18.4399 9.01579 18.8104 9.47285 18.8104Z" fill="#1D2E79"/>
<path d="M30.0173 10.3003C30.4743 10.3003 30.8449 9.92974 30.8449 9.47268C30.8449 9.01561 30.4743 8.64509 30.0173 8.64509C29.5602 8.64509 29.1897 9.01561 29.1897 9.47268C29.1897 9.92974 29.5602 10.3003 30.0173 10.3003Z" fill="#1D2E79"/>
<path d="M38.528 18.8104C38.9851 18.8104 39.3556 18.4399 39.3556 17.9828C39.3556 17.5258 38.9851 17.1553 38.528 17.1553C38.071 17.1553 37.7004 17.5258 37.7004 17.9828C37.7004 18.4399 38.071 18.8104 38.528 18.8104Z" fill="#1D2E79"/>
<path d="M24.0004 28.9656C23.5434 28.9656 23.1729 28.5951 23.1729 28.138V14.069C23.1729 13.612 23.5434 13.2415 24.0004 13.2415C24.4575 13.2415 24.828 13.612 24.828 14.069V28.138C24.828 28.5951 24.4575 28.9656 24.0004 28.9656Z" fill="#E64C3C"/>
<path d="M23.9997 45.5172C12.116 45.5172 2.48242 35.8836 2.48242 23.9999C2.48242 12.1163 12.116 2.48267 23.9997 2.48267C35.8833 2.48267 45.5169 12.1163 45.5169 23.9999C45.5037 35.8781 35.8778 45.5039 23.9997 45.5172ZM23.9997 4.13784C13.0301 4.13784 4.13759 13.0304 4.13759 23.9999C4.13759 34.9694 13.0301 43.862 23.9997 43.862C34.9692 43.862 43.8617 34.9694 43.8617 23.9999C43.849 13.0357 34.9639 4.15061 23.9997 4.13784Z" fill="#BDC3C7"/>
<path d="M32.3327 32.6667H14.9993C14.263 32.6667 13.666 33.2637 13.666 34.0001V38.0001C13.666 38.7365 14.263 39.3334 14.9993 39.3334H32.3327C33.0691 39.3334 33.666 38.7365 33.666 38.0001V34.0001C33.666 33.2637 33.0691 32.6667 32.3327 32.6667Z" fill="white"/>
<path d="M19.667 32.6667H21.0003V39.3334H19.667V32.6667Z" fill="#00457A"/>
<path d="M16.9997 37.3334C16.6315 37.3334 16.333 37.0349 16.333 36.6667V35.3334C16.333 34.9652 16.6315 34.6667 16.9997 34.6667C17.3679 34.6667 17.6663 34.9652 17.6663 35.3334V36.6667C17.6663 37.0349 17.3679 37.3334 16.9997 37.3334Z" fill="#2D3B58"/>
<path d="M23.6667 37.3335C23.2985 37.3335 23 37.035 23 36.6668V35.3335C23 34.9653 23.2985 34.6668 23.6667 34.6668C24.0349 34.6668 24.3333 34.9653 24.3333 35.3335V36.6668C24.3333 37.035 24.0349 37.3335 23.6667 37.3335Z" fill="#2D3B58"/>
<path d="M30.3337 37.3334C29.9655 37.3334 29.667 37.0349 29.667 36.6667V35.3334C29.667 34.9652 29.9655 34.6667 30.3337 34.6667C30.7018 34.6667 31.0003 34.9652 31.0003 35.3334V36.6667C31.0003 37.0349 30.7018 37.3334 30.3337 37.3334Z" fill="#2D3B58"/>
<path d="M26.3333 32.6667H27.6666V39.3334H26.3333V32.6667Z" fill="#00457A"/>
<path d="M32.3333 40H15C13.8954 40 13 39.1046 13 38V34C13 32.8954 13.8954 32 15 32H32.3333C33.4379 32 34.3333 32.8954 34.3333 34V38C34.3333 39.1046 33.4379 40 32.3333 40ZM15 33.3333C14.6318 33.3333 14.3333 33.6318 14.3333 34V38C14.3333 38.3682 14.6318 38.6667 15 38.6667H32.3333C32.7015 38.6667 33 38.3682 33 38V34C33 33.6318 32.7015 33.3333 32.3333 33.3333H15Z" fill="#00457A"/>
</g>
</g>
<defs>
<clipPath id="clip0_133_21538">
<rect width="48" height="48" fill="white"/>
</clipPath>
<clipPath id="clip1_133_21538">
<rect width="48" height="48" fill="white"/>
</clipPath>
</defs>
</svg>
