<svg width="48" height="48" viewBox="0 0 48 48" fill="none" xmlns="http://www.w3.org/2000/svg">
<g clip-path="url(#clip0_133_21782)">
<g clip-path="url(#clip1_133_21782)">
<path d="M22.9689 2.06213C10.2835 2.06213 0 12.3457 0 25.0311C0 31.8486 2.97122 37.9711 7.68816 42.1777L19.7918 39.5046L28.9581 47.2095C38.7389 44.5747 45.9379 35.6443 45.9379 25.0311C45.9379 12.3457 35.6543 2.06213 22.9689 2.06213Z" fill="#1D2E79"/>
<path d="M23.782 34.192V20.9838L18.7746 6.47175C14.4618 6.51356 11.018 10.0924 11.018 14.4053V33.8512C11.018 34.2517 10.8716 34.6392 10.6021 34.9354C8.80539 36.9104 7.75905 39.4882 7.68799 42.1777C9.49849 43.7923 11.5667 45.1237 13.8225 46.1046L18.4792 43.6296L21.7401 47.9665C22.1471 47.988 22.5566 48.0001 22.9688 48.0001C25.0409 48.0001 27.0483 47.7241 28.9579 47.2096C29.4516 46.1614 29.786 45.0277 29.934 43.8426L23.782 34.192Z" fill="#ADE9F7"/>
<path d="M18.7746 11.4213L19.7917 39.5046L25.071 42.4603C25.071 42.4603 26.5241 45.6445 29.9341 43.8425C29.9907 43.3886 30.0209 42.9275 30.0209 42.4603C30.0209 39.6375 28.9744 36.9747 27.1032 34.9317C26.8323 34.6359 26.686 34.247 26.686 33.8459V14.3056C26.686 9.96009 23.1296 6.42956 18.7746 6.47184C18.7746 6.47175 16.0034 9.56747 18.7746 11.4213Z" fill="#E8F8FC"/>
<path d="M21.7361 17.9677L18.811 16.9364L15.9678 17.9677V24L18.811 25.6875L21.7361 24V17.9677Z" fill="#E51E82"/>
<path d="M22.7276 37.598C22.1048 37.1012 21.7362 36.3528 21.7362 35.5561V30.0323L18.8111 28.7198L15.9679 30.0323V35.5478C15.9679 36.3349 15.6211 37.0894 15.0032 37.5768C13.5005 38.7622 12.5576 40.6255 12.6378 42.706C12.6865 43.9694 13.1201 45.1399 13.8222 46.1047C16.2699 47.1685 18.9385 47.8194 21.7407 47.9671L20.7527 42.2232L22.7276 37.598Z" fill="#FD77A6"/>
<path d="M18.8519 11.4213C17.259 11.4213 15.9678 12.7126 15.9678 14.3055V17.9677H21.7361V14.3055C21.7361 12.7126 20.4448 11.4213 18.8519 11.4213Z" fill="#02C0FC"/>
<path d="M15.9678 24H21.7361V30.0323H15.9678V24Z" fill="#FE3D97"/>
<path d="M43.0421 11.6753C42.2679 13.5307 40.4367 14.835 38.3006 14.835C35.4641 14.835 33.1646 12.5355 33.1646 9.69891C33.1646 6.91463 35.3803 4.64953 38.1445 4.56675L41.7751 7.02741L43.0421 11.6753Z" fill="#FFC242"/>
<path d="M38.3007 16.2205C37.6589 16.2205 37.1387 16.7408 37.1387 17.3826V18.2358C37.1387 18.8775 37.6589 19.3978 38.3007 19.3978C38.9424 19.3978 39.4627 18.8776 39.4627 18.2358V17.3826C39.4627 16.7408 38.9425 16.2205 38.3007 16.2205Z" fill="#FFC242"/>
<path d="M31.4426 2.84064C30.9888 3.29439 30.9889 4.03014 31.4426 4.48398L32.0459 5.08726C32.4997 5.54101 33.2354 5.54101 33.6893 5.08726C34.1431 4.63351 34.1431 3.89776 33.6893 3.44392L33.086 2.84064C32.6321 2.38689 31.8964 2.38689 31.4426 2.84064Z" fill="#FFC242"/>
<path d="M42.9124 14.3104C42.4585 14.7641 42.4586 15.4999 42.9124 15.9537L43.5157 16.557C43.9694 17.0108 44.7052 17.0108 45.159 16.557C45.6128 16.1032 45.6127 15.3674 45.159 14.9137L44.5557 14.3104C44.1019 13.8565 43.3662 13.8565 42.9124 14.3104Z" fill="#FFC242"/>
<path d="M28.6018 9.69882C28.6018 10.3406 29.122 10.8609 29.7638 10.8609H30.617C31.2587 10.8609 31.779 10.3406 31.779 9.69882C31.779 9.05701 31.2588 8.53679 30.617 8.53679H29.7638C29.1221 8.53679 28.6018 9.05701 28.6018 9.69882Z" fill="#FFC242"/>
<path d="M31.4427 16.557C31.8965 17.0108 32.6322 17.0108 33.086 16.557L33.6893 15.9537C34.1431 15.5 34.1431 14.7642 33.6893 14.3104C33.2356 13.8565 32.4998 13.8566 32.046 14.3104L31.4427 14.9137C30.9888 15.3674 30.9888 16.1032 31.4427 16.557Z" fill="#FFC242"/>
<path d="M38.3012 0C37.6595 0 37.1392 0.520219 37.1392 1.16203V2.01525C37.1392 2.65697 37.6594 3.17728 38.3012 3.17728C38.9429 3.17728 39.4632 2.65706 39.4632 2.01525V1.16203C39.4632 0.520219 38.943 0 38.3012 0Z" fill="#FEF156"/>
<path d="M44.8228 9.69891C44.8228 10.3407 45.343 10.8609 45.9848 10.8609H46.8379C47.4796 10.8609 47.9999 10.3407 47.9999 9.69891C47.9999 9.0571 47.4797 8.53688 46.8379 8.53688H45.9848C45.343 8.53688 44.8228 9.0571 44.8228 9.69891Z" fill="#FEF156"/>
<path d="M42.9126 5.08734C43.3665 5.54119 44.1021 5.54109 44.556 5.08734L45.1592 4.48406C45.613 4.03031 45.613 3.29456 45.1592 2.84072C44.7055 2.38687 43.9697 2.38697 43.5159 2.84072L42.9126 3.444C42.4589 3.89784 42.4588 4.6335 42.9126 5.08734Z" fill="#FEF156"/>
<path d="M38.145 4.56666C35.8292 8.0236 38.9299 12.6129 43.0427 11.6753C44.4682 8.25928 41.8995 4.45472 38.145 4.56666Z" fill="#FEF156"/>
<path d="M27.6034 16.8056H25.162C24.5202 16.8056 24 17.3258 24 17.9677C24 18.6094 24.5202 19.1297 25.162 19.1297H27.6034C28.2452 19.1297 28.7654 18.6095 28.7654 17.9677C28.7654 17.3258 28.2452 16.8056 27.6034 16.8056Z" fill="#6AD9FB"/>
<path d="M27.6034 22.838H25.162C24.5202 22.838 24 23.3582 24 24C24 24.6417 24.5202 25.162 25.162 25.162H27.6034C28.2452 25.162 28.7654 24.6418 28.7654 24C28.7654 23.3582 28.2452 22.838 27.6034 22.838Z" fill="#6AD9FB"/>
<path d="M27.6034 28.8703H25.162C24.5202 28.8703 24 29.3905 24 30.0323C24 30.6741 24.5202 31.1944 25.162 31.1944H27.6034C28.2452 31.1944 28.7654 30.6742 28.7654 30.0323C28.7654 29.3906 28.2452 28.8703 27.6034 28.8703Z" fill="#6AD9FB"/>
<path d="M25.0711 42.4603C25.0711 40.4915 24.1557 38.7371 22.7277 37.598C22.7277 37.598 19.1826 38.8013 19.1826 42.7857C19.1826 46.7701 21.741 47.9671 21.741 47.9671C23.7203 46.9266 25.0711 44.8519 25.0711 42.4603Z" fill="#FEA2C8"/>
</g>
</g>
<defs>
<clipPath id="clip0_133_21782">
<rect width="48" height="48" fill="white"/>
</clipPath>
<clipPath id="clip1_133_21782">
<rect width="48" height="48" fill="white"/>
</clipPath>
</defs>
</svg>
