<svg width="48" height="48" viewBox="0 0 48 48" fill="none" xmlns="http://www.w3.org/2000/svg">
<g clip-path="url(#clip0_133_21299)">
<g clip-path="url(#clip1_133_21299)">
<path d="M48 24C48 37.2548 37.2548 48 24 48C10.7452 48 0 37.2548 0 24C0 10.7452 10.7452 0 24 0C37.2548 0 48 10.7452 48 24Z" fill="#0A66EA"/>
<path d="M44.642 20.5482C44.642 30.4642 36.6035 38.5027 26.6876 38.5027C16.7717 38.5027 8.73315 30.4642 8.73315 20.5482C8.73315 10.6323 16.7716 2.59378 26.6876 2.59378C36.6036 2.59378 44.642 10.6322 44.642 20.5482Z" fill="#2476ED"/>
<path d="M9.95588 38.1702C5.87466 34.089 5.41997 27.6262 8.88966 23.0138C8.88966 23.0138 15.1251 14.7247 17.2035 11.9617C17.6763 11.3333 18.6195 11.3333 19.0922 11.9617C21.1706 14.7247 27.406 23.0138 27.406 23.0138C30.8756 27.6262 30.421 34.089 26.3398 38.1701C21.8155 42.6945 14.4802 42.6945 9.95588 38.1702Z" fill="#D5F1FE"/>
<path d="M27.8653 36.2888C27.4313 36.9563 26.9225 37.5876 26.3399 38.1702C21.8156 42.6945 14.4802 42.6945 9.95584 38.1702C5.87462 34.089 5.42003 27.6262 8.88962 23.0139C8.88962 23.0139 10.4254 20.9723 12.2267 18.5777C10.8018 23.357 12.0193 28.6961 15.7247 32.4015C19.0292 35.706 23.5819 37.0017 27.8653 36.2888Z" fill="#B4E7FD"/>
<path d="M27.0652 18.2297C24.2766 15.4411 23.9659 11.0252 26.3367 7.87369C26.3367 7.87369 30.5971 2.20997 32.0174 0.322031C32.3403 -0.107344 32.9849 -0.107344 33.3079 0.322031C34.728 2.20997 38.9886 7.87369 38.9886 7.87369C41.3594 11.0252 41.0487 15.4411 38.2601 18.2297C35.1686 21.321 30.1565 21.321 27.0652 18.2297Z" fill="#B9D3FD"/>
<path d="M39.3023 16.9441C39.0057 17.4002 38.6581 17.8315 38.2599 18.2297C35.1686 21.321 30.1566 21.321 27.0652 18.2297C24.2766 15.4411 23.966 11.0253 26.3366 7.87369C26.3366 7.87369 27.386 6.47869 28.6167 4.84257C27.6432 8.10816 28.4751 11.7563 31.0068 14.288C33.2648 16.5459 36.3756 17.4313 39.3023 16.9441Z" fill="#97BFFD"/>
<path d="M38.5885 9.70585C39.3474 10.9929 39.5312 12.2905 38.9989 12.6044C38.4667 12.9183 37.42 12.1294 36.6611 10.8425C35.9022 9.55548 35.7184 8.25779 36.2507 7.94391C36.783 7.62995 37.8296 8.41885 38.5885 9.70585Z" fill="#D5F1FE"/>
<path d="M26.7544 25.1464C27.8058 26.9294 28.1762 28.659 27.5816 29.0096C26.9869 29.3602 25.6527 28.1991 24.6012 26.4161C23.5497 24.6332 23.1793 22.9035 23.774 22.5529C24.3687 22.2022 25.703 23.3633 26.7544 25.1464Z" fill="#FFF5F5"/>
<path d="M34.3807 29.3692C33.5006 28.489 33.4025 27.0952 34.1508 26.1005C34.1508 26.1005 35.4955 24.3128 35.9437 23.717C36.0457 23.5814 36.2491 23.5814 36.3511 23.717C36.7993 24.3128 38.144 26.1005 38.144 26.1005C38.8924 27.0952 38.7943 28.489 37.9141 29.3692C36.9385 30.3448 35.3565 30.3448 34.3807 29.3692Z" fill="#0A4499"/>
<path d="M10.4208 12.2249C9.54058 11.3447 9.44261 9.95091 10.1908 8.95622C10.1908 8.95622 11.5356 7.16859 11.9838 6.57272C12.0858 6.43716 12.2891 6.43716 12.3911 6.57272C12.8394 7.16859 14.1841 8.95622 14.1841 8.95622C14.9324 9.95091 14.8344 11.3448 13.9541 12.2249C12.9785 13.2006 11.3965 13.2006 10.4208 12.2249ZM33.3943 39.5912C32.5141 38.7111 32.4161 37.3172 33.1644 36.3225C33.1644 36.3225 34.5091 34.5349 34.9573 33.939C35.0592 33.8034 35.2627 33.8034 35.3647 33.939C35.8129 34.5349 37.1576 36.3225 37.1576 36.3225C37.906 37.3172 37.8079 38.7111 36.9277 39.5912C35.952 40.5669 34.3701 40.5669 33.3943 39.5912Z" fill="#5596FB"/>
<path d="M38.2431 28.9633C38.1496 29.1073 38.0398 29.2434 37.9142 29.3691C36.9384 30.3448 35.3565 30.3448 34.3807 29.3691C33.5006 28.4889 33.4025 27.0951 34.1508 26.1004C34.1508 26.1004 34.482 25.66 34.8705 25.1437C34.5632 26.1743 34.8258 27.3259 35.6249 28.1249C36.3376 28.8377 37.3194 29.1172 38.2431 28.9633Z" fill="#0A3575"/>
<path d="M20.854 24.395L15.7176 34.8853C15.5952 35.1353 15.3123 35.2859 15.0146 35.2859C14.9162 35.2859 14.8163 35.2696 14.72 35.2349C14.332 35.0953 14.1494 34.7124 14.3121 34.3798L19.4485 23.8895C19.6115 23.5568 20.0582 23.4003 20.4461 23.5399C20.8342 23.6795 21.0168 24.0623 20.854 24.395ZM14.0316 28.8275C12.36 28.8275 11 27.5204 11 25.9137C11 24.3071 12.36 22.9999 14.0316 22.9999C15.7032 22.9999 17.0632 24.3071 17.0632 25.9137C17.0632 27.5204 15.7032 28.8275 14.0316 28.8275ZM15.539 25.9137C15.539 25.0274 14.8628 24.3064 14.0316 24.3064C13.2004 24.3064 12.5242 25.0274 12.5242 25.9137C12.5242 26.8 13.2004 27.5211 14.0316 27.5211C14.8628 27.5211 15.539 26.8 15.539 25.9137ZM24 33.0862C24 34.6928 22.64 35.9999 20.9684 35.9999C19.2968 35.9999 17.9368 34.6928 17.9368 33.0862C17.9368 31.4795 19.2968 30.1725 20.9684 30.1725C22.64 30.1725 24 31.4796 24 33.0862ZM22.4758 33.0862C22.4758 32.1999 21.7996 31.4789 20.9684 31.4789C20.1372 31.4789 19.461 32.1999 19.461 33.0862C19.461 33.9724 20.1372 34.6935 20.9684 34.6935C21.7996 34.6935 22.4758 33.9724 22.4758 33.0862Z" fill="#0A3575"/>
</g>
</g>
<defs>
<clipPath id="clip0_133_21299">
<rect width="48" height="48" fill="white"/>
</clipPath>
<clipPath id="clip1_133_21299">
<rect width="48" height="48" fill="white"/>
</clipPath>
</defs>
</svg>
