<svg width="57" height="56" viewBox="0 0 57 56" fill="none" xmlns="http://www.w3.org/2000/svg">
<path d="M28.8467 55.9998C43.6656 55.9998 55.6787 43.9867 55.6787 29.1677C55.6787 14.3488 43.6656 2.33569 28.8467 2.33569C14.0278 2.33569 2.01465 14.3488 2.01465 29.1677C2.01465 43.9867 14.0278 55.9998 28.8467 55.9998Z" fill="#E2DEE2"/>
<path d="M28.8466 52.9882C42.0022 52.9882 52.6669 42.3235 52.6669 29.1679C52.6669 16.0124 42.0022 5.34766 28.8466 5.34766C15.6911 5.34766 5.02637 16.0124 5.02637 29.1679C5.02637 42.3235 15.6911 52.9882 28.8466 52.9882Z" fill="#F3F0F3"/>
<path d="M9.07071 22.34L9.09754 22.2625L9.03063 22.215C6.28314 20.2642 4.64288 17.0906 4.64288 13.7257C4.64288 7.98883 9.31023 3.32148 15.0471 3.32148C18.8324 3.32148 22.3233 5.38174 24.1577 8.69829L24.1973 8.76992L24.2772 8.75206C25.3848 8.50532 26.5153 8.34914 27.6512 8.28442C25.5443 3.41084 20.6943 0 15.0471 0C7.46659 0 1.32129 6.1453 1.32129 13.7258C1.32129 18.8237 4.10054 23.2722 8.22632 25.6395C8.4171 24.5202 8.69857 23.4178 9.07071 22.34Z" fill="#FEE97D"/>
<path d="M28.8464 8.14038C27.2275 8.14038 25.6514 8.32382 24.1375 8.67012C24.9738 10.1679 25.4513 11.8919 25.4513 13.7258C25.4513 19.4627 20.784 24.1301 15.0471 24.1301C12.796 24.1301 10.7098 23.4113 9.00548 22.1914C8.23776 24.3746 7.81885 26.7222 7.81885 29.1679C7.81885 33.3295 9.02815 37.2086 11.114 40.4734C11.2875 37.2901 13.9316 34.7534 17.1575 34.7534H40.5354C43.7613 34.7534 46.4054 37.2901 46.5789 40.4734C48.6648 37.2086 49.874 33.3296 49.874 29.1679C49.874 17.5547 40.4595 8.14038 28.8464 8.14038Z" fill="#2ED1E2"/>
<path d="M17.4771 46.8594C20.755 48.9702 24.6574 50.1954 28.8462 50.1954C33.0349 50.1954 36.9373 48.9702 40.2153 46.8594H17.4771Z" fill="#2ED1E2"/>
<path d="M28.8462 12.3018C27.6639 12.3018 26.5102 12.424 25.3965 12.6554C25.4326 13.0073 25.4512 13.3642 25.4512 13.7255C25.4512 19.4624 20.7839 24.1298 15.047 24.1298C14.2841 24.1298 13.5405 24.0465 12.8239 23.8899C12.2773 25.5503 11.9805 27.3242 11.9805 29.1676C11.9805 31.6136 12.5019 33.9376 13.4384 36.0355C14.4654 35.2331 15.756 34.7531 17.1573 34.7531H40.5352C41.9365 34.7531 43.2271 35.2331 44.2542 36.0355C45.1908 33.9376 45.7121 31.6136 45.7121 29.1676C45.7121 19.8528 38.1609 12.3018 28.8462 12.3018Z" fill="white"/>
<path d="M25.4511 13.7253C25.4511 14.08 25.4332 14.4306 25.3983 14.7762C27.2365 13.6505 29.3064 12.8661 31.5204 12.5133C30.6493 12.3746 29.7564 12.3015 28.8462 12.3015C27.6638 12.3015 26.5102 12.4237 25.3965 12.6551C25.4325 13.007 25.4511 13.364 25.4511 13.7253Z" fill="#F3F0F3"/>
<path d="M18.2631 23.6204C17.2498 23.9506 16.169 24.1298 15.047 24.1298C14.2841 24.1298 13.5405 24.0466 12.8239 23.89C12.2773 25.5504 11.9805 27.3243 11.9805 29.1677C11.9805 31.6137 12.5018 33.9377 13.4384 36.0356C14.4654 35.2332 15.756 34.7531 17.1573 34.7531H18.2761C17.6627 33.005 17.3288 31.1254 17.3288 29.1677C17.3288 27.2241 17.6582 25.3577 18.2631 23.6204Z" fill="#F3F0F3"/>
<path d="M29.5771 20.9878L31.582 28.8191C31.7999 29.6704 31.6159 30.557 31.077 31.2512C30.5382 31.9455 29.725 32.3437 28.8462 32.3437C27.9673 32.3437 27.1543 31.9455 26.6153 31.2512C26.0765 30.557 25.8924 29.6704 26.1103 28.8191L28.1152 20.9878C23.9215 21.358 20.6323 24.8777 20.6323 29.1675C20.6323 31.325 21.4653 33.2872 22.8259 34.753H34.8664C36.2269 33.2872 37.06 31.325 37.06 29.1675C37.06 24.8777 33.7708 21.358 29.5771 20.9878Z" fill="#FEE97D"/>
<path d="M31.5401 30.3706C31.4405 30.684 31.2857 30.9822 31.0769 31.2511C30.5381 31.9454 29.7249 32.3436 28.8462 32.3436C27.9673 32.3436 27.1542 31.9454 26.6153 31.2511C26.4065 30.9822 26.2517 30.6842 26.1521 30.3706L20.4741 34.7529H37.2181L31.5401 30.3706Z" fill="#FED402"/>
<path d="M13.6449 24.0353C13.092 23.9605 12.5528 23.8421 12.0307 23.6836C11.4659 25.411 11.1592 27.2542 11.1592 29.168C11.1592 31.8244 11.749 34.3454 12.8027 36.6085C13.1947 36.2021 13.6426 35.8506 14.1343 35.5658C13.278 33.6047 12.802 31.441 12.802 29.168C12.802 27.3736 13.099 25.6476 13.6449 24.0353Z" fill="#A6E7F0"/>
<path d="M28.8461 11.4805C27.6248 11.4805 26.432 11.605 25.2798 11.8419C25.378 12.3771 25.4354 12.9263 25.4481 13.4865C26.2849 13.3054 27.1454 13.1886 28.0249 13.1441V14.4413C28.0249 14.8949 28.3926 15.2627 28.8463 15.2627C29.2999 15.2627 29.6676 14.8949 29.6676 14.4413V13.1441C31.9904 13.2618 34.1845 13.8757 36.1457 14.8819L35.4981 16.0036C35.2713 16.3964 35.4059 16.8988 35.7987 17.1256C36.1916 17.3524 36.6939 17.2178 36.9207 16.825L37.5666 15.7063C39.4592 16.9367 41.0773 18.5547 42.3075 20.4473L41.1889 21.0931C40.796 21.3199 40.6614 21.8223 40.8883 22.2151C41.1151 22.608 41.6174 22.7426 42.0103 22.5158L43.132 21.8682C44.256 24.0591 44.8906 26.5407 44.8906 29.1677C44.8906 31.4408 44.4144 33.6044 43.5583 35.5656C44.0499 35.8503 44.4979 36.2019 44.8898 36.6083C45.9436 34.3452 46.5335 31.8242 46.5335 29.1677C46.5334 19.4149 38.5989 11.4805 28.8461 11.4805Z" fill="#A6E7F0"/>
<path d="M17.8401 26.1287H14.7735C14.3199 26.1287 13.9521 26.4964 13.9521 26.9501V31.3858C13.9521 31.8394 14.3199 32.2072 14.7735 32.2072H17.8401C18.0215 32.2072 18.1686 32.0601 18.1686 31.8786V30.8929C18.1686 30.7115 18.0215 30.5644 17.8401 30.5644H15.5949V29.9893H17.8401C18.0215 29.9893 18.1686 29.8422 18.1686 29.6607V28.6751C18.1686 28.4936 18.0215 28.3465 17.8401 28.3465H15.5949V27.7714H17.8401C18.0215 27.7714 18.1686 27.6244 18.1686 27.4429V26.4572C18.1686 26.2757 18.0215 26.1287 17.8401 26.1287Z" fill="#FD5426"/>
<path d="M43.4128 27.7714C43.5943 27.7714 43.7414 27.6244 43.7414 27.4429V26.4572C43.7414 26.2757 43.5943 26.1287 43.4128 26.1287H40.3463C39.8927 26.1287 39.5249 26.4964 39.5249 26.9501V31.8786C39.5249 32.0601 39.672 32.2072 39.8535 32.2072H40.8391C41.0206 32.2072 41.1677 32.0601 41.1677 31.8786V29.9893H43.4128C43.5943 29.9893 43.7414 29.8422 43.7414 29.6607V28.6751C43.7414 28.4936 43.5943 28.3465 43.4128 28.3465H41.1677V27.7714H43.4128Z" fill="#02C7DD"/>
<path d="M28.5035 19.0318L26.0048 28.7925C25.5298 30.6479 26.9314 32.4537 28.8468 32.4537C30.7621 32.4537 32.1638 30.648 31.6888 28.7925L29.19 19.0318C29.099 18.6766 28.5944 18.6766 28.5035 19.0318Z" fill="#FD5426"/>
<path d="M28.7208 28.7923L30.2048 22.9957L29.19 19.0316C29.0991 18.6763 28.5944 18.6763 28.5035 19.0316L26.0048 28.7923C25.5298 30.6478 26.9314 32.4534 28.8468 32.4534C29.3418 32.4534 29.802 32.3321 30.2048 32.1211C29.0488 31.5161 28.3686 30.1683 28.7208 28.7923Z" fill="#EF4424"/>
<path d="M15.0475 24.2395C20.8541 24.2395 25.5612 19.5323 25.5612 13.7257C25.5612 7.91909 20.8541 3.21191 15.0475 3.21191C9.24087 3.21191 4.53369 7.91909 4.53369 13.7257C4.53369 19.5323 9.24087 24.2395 15.0475 24.2395Z" fill="#FED402"/>
<path d="M9.99538 13.7257C9.99538 8.86395 13.2961 4.77485 17.7783 3.57223C16.9072 3.33852 15.9923 3.21191 15.0475 3.21191C9.24091 3.21191 4.53369 7.91913 4.53369 13.7257C4.53369 19.5323 9.24091 24.2395 15.0475 24.2395C15.9923 24.2395 16.9072 24.1129 17.7783 23.8792C13.2961 22.6764 9.99538 18.5874 9.99538 13.7257Z" fill="#FAC600"/>
<path d="M18.9928 12.7055H16.9593C16.7502 12.7055 16.599 12.5054 16.6562 12.3042L18.3115 6.4823C18.4039 6.15714 17.9889 5.93438 17.769 6.1912L10.8606 14.2579C10.6855 14.4624 10.8308 14.778 11.0999 14.778H13.1343C13.344 14.778 13.4953 14.9792 13.437 15.1807L11.7634 20.9678C11.6695 21.2927 12.0839 21.5173 12.3048 21.2611L19.2313 13.2265C19.4075 13.0221 19.2624 12.7055 18.9928 12.7055Z" fill="#7A6D79"/>
<path d="M17.769 6.1912L10.8606 14.2579C10.6855 14.4624 10.8308 14.778 11.0999 14.778H12.5055C12.2527 14.778 12.1162 14.4814 12.2807 14.2893L17.9857 7.62775L18.3115 6.4823C18.4039 6.15714 17.9889 5.93438 17.769 6.1912Z" fill="#685E68"/>
<path d="M13.9528 14.7781H13.1598C13.3569 14.7781 13.499 14.967 13.4442 15.1564L11.7636 20.9677C11.6697 21.2927 12.0841 21.5172 12.305 21.261L13.5403 19.8282L14.7096 15.7847C14.8552 15.2809 14.4773 14.7781 13.9528 14.7781Z" fill="#685E68"/>
<path d="M40.5355 46.969H17.1576C13.7682 46.969 10.9951 44.1959 10.9951 40.8065C10.9951 37.4172 13.7682 34.644 17.1576 34.644H40.5355C43.9249 34.644 46.698 37.4172 46.698 40.8065C46.6982 44.1958 43.9249 46.969 40.5355 46.969Z" fill="#FE7D43"/>
<path d="M17.1282 40.8066C17.1282 37.4173 19.9013 34.644 23.2907 34.644H17.1576C13.7682 34.644 10.9951 37.4172 10.9951 40.8066C10.9951 44.196 13.7682 46.9693 17.1576 46.9693H23.2907C19.9013 46.9693 17.1282 44.196 17.1282 40.8066Z" fill="#FD5426"/>
<path d="M16.1379 44.1675H18.2562C18.5462 44.1675 18.7814 43.9323 18.7814 43.6423V37.9707C18.7814 37.6807 18.5462 37.4456 18.2562 37.4456H16.1379C15.8479 37.4456 15.6128 37.6807 15.6128 37.9707V43.6423C15.6128 43.9323 15.8479 44.1675 16.1379 44.1675Z" fill="white"/>
<path d="M20.7976 44.1672H22.9159C23.2059 44.1672 23.4411 43.9321 23.4411 43.6421V37.9705C23.4411 37.6804 23.2059 37.4453 22.9159 37.4453H20.7976C20.5076 37.4453 20.2725 37.6804 20.2725 37.9705V43.6421C20.2725 43.9321 20.5076 44.1672 20.7976 44.1672Z" fill="white"/>
<path d="M25.4573 44.1672H27.5756C27.8656 44.1672 28.1007 43.9321 28.1007 43.6421V37.9705C28.1007 37.6804 27.8656 37.4453 27.5756 37.4453H25.4573C25.1673 37.4453 24.9321 37.6804 24.9321 37.9705V43.6421C24.932 43.9321 25.1672 44.1672 25.4573 44.1672Z" fill="white"/>
<path d="M30.1169 44.1672H32.2352C32.5253 44.1672 32.7604 43.9321 32.7604 43.6421V37.9705C32.7604 37.6804 32.5253 37.4453 32.2352 37.4453H30.1169C29.8269 37.4453 29.5918 37.6804 29.5918 37.9705V43.6421C29.5918 43.9321 29.8269 44.1672 30.1169 44.1672Z" fill="#EF4424"/>
<path d="M34.7771 44.1672H36.8954C37.1854 44.1672 37.4205 43.9321 37.4205 43.6421V37.9705C37.4205 37.6804 37.1854 37.4453 36.8954 37.4453H34.7771C34.4871 37.4453 34.252 37.6804 34.252 37.9705V43.6421C34.252 43.9321 34.4871 44.1672 34.7771 44.1672Z" fill="#EF4424"/>
<path d="M38.9111 37.9702V43.6418C38.9111 43.9319 39.1463 44.167 39.4363 44.167H41.5546C41.8446 44.167 42.0797 43.9319 42.0797 43.6418V37.9702C42.0797 37.6802 41.8446 37.4451 41.5546 37.4451H39.4363C39.1463 37.4451 38.9111 37.6802 38.9111 37.9702Z" fill="#EF4424"/>
</svg>
