<svg width="32" height="32" viewBox="0 0 32 32" fill="none" xmlns="http://www.w3.org/2000/svg">
<g clip-path="url(#clip0_149_3641)">
<path d="M32.0002 16C32.0002 24.8367 24.8369 32 16.0002 32C7.16357 32 0.000244141 24.8367 0.000244141 16C0.000244141 7.16333 7.16357 0 16.0002 0C24.8369 0 32.0002 7.16333 32.0002 16Z" fill="#633E5D"/>
<path d="M16 2.94287C10.7004 2.94287 6.40454 7.23901 6.40454 12.5386V23.6958H25.5955V12.5386C25.5955 7.23901 21.2996 2.94287 16 2.94287Z" fill="#FF5A5A"/>
<path d="M17.6609 3.08667C17.1213 2.99243 16.5664 2.94287 16 2.94287C10.7004 2.94287 6.40454 7.23901 6.40454 12.5386V23.6958H12.0679V12.5386C12.0679 7.80566 14.4834 3.87329 17.6609 3.08667Z" fill="#F2164A"/>
<path d="M21.4374 12.4558L17.444 14.4587C16.4233 14.9705 16.4233 15.947 17.444 16.4587L21.4374 18.4617C21.7177 18.6021 22.0478 18.3984 22.0478 18.085V12.8325C22.0478 12.519 21.7177 12.3152 21.4374 12.4558Z" fill="#F2164A"/>
<path d="M10.5286 12.4558L14.522 14.4587C15.5427 14.9704 15.5427 15.947 14.522 16.4587L10.5286 18.4616C10.2483 18.602 9.91821 18.3984 9.91821 18.0849V12.8325C9.91821 12.519 10.2483 12.3151 10.5286 12.4558Z" fill="#F2164A"/>
<path d="M21.4374 15.9734L17.444 14.7939C17.3168 14.7566 17.2055 14.7148 17.11 14.6697C16.4391 15.2065 16.5505 16.0107 17.444 16.4587L21.4374 18.4617C21.7177 18.6021 22.0478 18.3984 22.0478 18.085V15.7515C22.0478 15.936 21.7177 16.0562 21.4374 15.9734Z" fill="#DC0B3D"/>
<path d="M14.856 14.6696C14.7605 14.7145 14.6492 14.7565 14.522 14.7939L10.5283 15.9733C10.2483 16.0561 9.91821 15.936 9.91821 15.7514V18.0849C9.91821 18.3984 10.2483 18.602 10.5283 18.4616L14.522 16.4587C15.4155 16.0107 15.5269 15.2065 14.856 14.6696Z" fill="#DC0B3D"/>
<path d="M16.6873 16.3911H15.3132L13.8057 23.6958C14.5271 23.6958 17.6516 23.6958 18.1951 23.6958L16.6873 16.3911Z" fill="#F2164A"/>
<path d="M15.9915 16.3911H15.3132L13.8057 23.6958H15.5474L16.2395 16.3911H15.9915Z" fill="#DC0B3D"/>
<path d="M17.3624 14.6618C16.9225 13.8998 15.9484 13.6389 15.1864 14.0788C14.4244 14.5187 14.1634 15.4929 14.6034 16.2548C15.0433 17.0165 16.0174 17.2775 16.7794 16.8378C17.5411 16.3979 17.8021 15.4235 17.3624 14.6618Z" fill="#DC0B3D"/>
<path d="M15.9828 15.4587C15.6881 14.9482 15.7084 14.3425 15.983 13.8659C15.7123 13.8656 15.4376 13.934 15.1864 14.079C14.4244 14.519 14.1634 15.4933 14.6034 16.2551C15.0431 17.017 16.0174 17.278 16.7794 16.8381C17.0306 16.693 17.2272 16.4897 17.3622 16.2548C16.8121 16.2543 16.2775 15.9692 15.9828 15.4587Z" fill="#C6002F"/>
<path d="M3.31035 8.90208L1.89165 8.52195C1.57841 8.43796 1.39238 8.11594 1.47612 7.80247C1.56035 7.48899 1.88261 7.3032 2.19585 7.38694L3.61455 7.76707C3.92802 7.85105 4.11381 8.17332 4.03007 8.48655C3.94585 8.80027 3.62358 8.98606 3.31035 8.90208Z" fill="#F2164A"/>
<path d="M27.9704 8.48679C27.8864 8.17332 28.0722 7.85105 28.3859 7.76707L29.8044 7.38694C30.1178 7.3032 30.4401 7.48899 30.5241 7.80247C30.6078 8.11594 30.422 8.43821 30.1086 8.52219L28.6899 8.90232C28.3766 8.98606 28.0544 8.80051 27.9704 8.48679Z" fill="#F2164A"/>
<path d="M1.6791 14.282C1.59511 13.9685 1.78115 13.6462 2.09463 13.5623L3.51308 13.1821C3.82656 13.0984 4.14883 13.2842 4.23281 13.5977C4.31679 13.9111 4.13076 14.2334 3.81728 14.3174L2.39858 14.6975C2.08511 14.7812 1.76308 14.5955 1.6791 14.282Z" fill="#F2164A"/>
<path d="M25.2393 4.16187C25.0098 3.93237 25.0098 3.5603 25.2393 3.33105L26.2778 2.29248C26.5073 2.06299 26.8794 2.06299 27.1086 2.29248C27.3381 2.52197 27.3381 2.89404 27.1086 3.12329L26.0703 4.16187C25.8408 4.39136 25.4688 4.39136 25.2393 4.16187Z" fill="#F2164A"/>
<path d="M5.93018 4.16187L4.89185 3.12329C4.66235 2.89404 4.66235 2.52197 4.89185 2.29248C5.12134 2.06299 5.49341 2.06299 5.72266 2.29248L6.76123 3.33105C6.99072 3.5603 6.99072 3.93237 6.76123 4.16187C6.53174 4.39136 6.15967 4.39136 5.93018 4.16187Z" fill="#F2164A"/>
<path d="M29.602 14.6975L28.1832 14.3174C27.8698 14.2334 27.6837 13.9111 27.7677 13.5976C27.8517 13.2842 28.1742 13.0986 28.4874 13.1821L29.9059 13.5622C30.2194 13.6462 30.4054 13.9685 30.3214 14.282C30.2374 14.5954 29.9152 14.7815 29.602 14.6975Z" fill="#F2164A"/>
<path d="M6.40479 23.5391L5.24048 25.811C6.48218 25.811 26.0037 25.811 26.7256 25.811L25.5959 23.5391C24.7322 23.5391 7.76562 23.5391 6.40479 23.5391Z" fill="#B5C9F4"/>
<path d="M6.40479 23.5391L5.24048 25.811C5.64063 25.811 7.93994 25.811 10.8967 25.811L12.061 23.5391C9.18896 23.5391 6.87305 23.5391 6.40479 23.5391Z" fill="#9AB0E3"/>
<path d="M7.77881 29.728C10.1816 31.1702 12.9939 32 16.0002 32C19.0066 32 21.8188 31.1702 24.2217 29.728H7.77881Z" fill="#B5C9F4"/>
<path d="M11.6404 31.3982L10.9858 29.8848L10.5942 29.728H7.77881C8.97363 30.4451 10.2698 31.0107 11.6404 31.3982Z" fill="#9AB0E3"/>
<path d="M5.24048 25.6543C4.65356 25.6543 4.12305 25.8933 3.73975 26.2791C4.948 27.7188 6.40454 28.9431 8.04443 29.8848H23.9561C25.5886 28.9473 27.0393 27.7297 28.2444 26.2983C27.8599 25.9016 27.3218 25.6543 26.7253 25.6543H5.24048Z" fill="#DEE9FC"/>
<path d="M21.728 7.75945C21.5927 7.04192 20.9015 6.57 20.184 6.70525C19.4667 6.84051 18.9948 7.53191 19.1301 8.2492C19.2653 8.96673 19.9565 9.43865 20.674 9.3034C21.3915 9.16814 21.8635 8.47674 21.728 7.75945Z" fill="#FC7C7C"/>
<path d="M18.8336 9.4228C18.7587 9.02485 18.3754 8.76338 17.9777 8.83833C17.5797 8.91328 17.3182 9.29658 17.3932 9.69429C17.4681 10.0922 17.8514 10.3537 18.2491 10.2788C18.6471 10.2038 18.9086 9.82051 18.8336 9.4228Z" fill="#FC7C7C"/>
<path d="M10.9858 25.6543H5.24048C4.65356 25.6543 4.12305 25.8933 3.73975 26.2791C4.948 27.7188 6.40454 28.9431 8.04443 29.8848H10.9858C9.03271 29.1545 9.03467 26.384 10.9858 25.6543Z" fill="#B5C9F4"/>
</g>
<defs>
<clipPath id="clip0_149_3641">
<rect width="32" height="32" fill="white"/>
</clipPath>
</defs>
</svg>
