<svg width="32" height="33" viewBox="0 0 32 33" fill="none" xmlns="http://www.w3.org/2000/svg">
<g clip-path="url(#clip0_133_20384)">
<path d="M15.9999 1.87468C7.54294 1.87468 0.687256 8.73036 0.687256 17.1873C0.687256 21.5565 2.51738 25.4982 5.45263 28.288L21.5768 31.4522C27.2759 29.2224 31.3125 23.6764 31.3125 17.1873C31.3125 8.73036 24.4568 1.87468 15.9999 1.87468Z" fill="#FEF156"/>
<path d="M13.5154 0.5C12.4154 0.5 11.5154 1.4 11.5154 2.5H15.5154C15.5154 1.4 14.6154 0.5 13.5154 0.5Z" fill="#6AD9FB"/>
<path d="M18.5413 2.43066H13.5151C12.9632 2.43066 12.5117 2.88223 12.5117 3.43404V4.02398H19.5447V3.43404C19.5447 2.88216 19.0931 2.43066 18.5413 2.43066Z" fill="#E8F8FC"/>
<path d="M13.6399 2.43066H8.48775C7.93588 2.43066 7.48438 2.88223 7.48438 3.43404V4.02398H12.6366V3.43404C12.6366 2.88216 13.0881 2.43066 13.6399 2.43066Z" fill="#ADE9F7"/>
<path d="M21.4837 27.929C21.4837 28.8055 20.7706 29.5186 19.8941 29.5186C19.0176 29.5186 18.3044 28.8055 18.3044 27.929V15.777H11.0779V15.8395H11.1091V29.63C11.1091 30.6478 11.6247 31.5439 12.4079 32.0752C13.5603 32.3523 14.7631 32.4999 16.0006 32.4999C17.9684 32.4999 19.8493 32.1283 21.5775 31.4521V27.929H21.4837Z" fill="#3F57A0"/>
<path d="M11.1695 29.5676V15.7771H5.45117V28.288C7.42792 30.1667 9.9058 31.523 12.6637 32.1356C11.7715 31.6272 11.1695 30.668 11.1695 29.5676Z" fill="#2A428B"/>
<path d="M18.2732 3.80892H12.091C12.0183 3.83073 11.9429 3.85711 11.8669 3.89036C11.3508 4.11642 11.0779 4.52279 11.0779 5.06548V15.902H18.2732V3.80892Z" fill="#FD77A6"/>
<path d="M18.2107 27.929C18.2107 28.8548 18.9682 29.6123 19.8941 29.6123C20.8199 29.6123 21.5774 28.8548 21.5774 27.929V15.777H18.2107V27.929Z" fill="#5071B7"/>
<path d="M20.2575 3.80884H18.209V15.902H21.5757V5.12703C21.5757 4.40203 20.9825 3.80884 20.2575 3.80884Z" fill="#FEA2C8"/>
<path d="M5.45239 5.12727V15.9022H11.1708V5.06558C11.1708 3.83639 12.6366 3.80908 12.6366 3.80908H6.77064C6.04558 3.80908 5.45239 4.40227 5.45239 5.12727Z" fill="#FE3D97"/>
<path d="M20.5881 10.1411C20.5185 10.6309 20.7305 11.1341 21.2184 11.6374V15.9589L23.4098 18.2657C23.4223 18.5196 23.5228 19.5202 24.325 20.1215C24.7735 20.4577 25.356 20.6036 26.0631 20.561C27.2847 19.384 28.0458 17.7325 28.0458 15.9022C28.0458 12.3288 25.149 9.43188 21.5755 9.43188C21.3395 9.43188 21.1067 9.44532 20.8772 9.46995C20.7407 9.65214 20.6257 9.87682 20.5881 10.1411Z" fill="#02C0FC"/>
<path d="M21.5758 22.3726C23.3978 22.3726 25.0427 21.6185 26.2186 20.4066C23.5548 20.6711 23.5504 18.2072 23.5504 18.2072L21.3607 15.9023V11.5793C20.4012 10.6198 20.7008 9.88102 21.075 9.45308C17.7358 9.70896 15.1055 12.4975 15.1055 15.9023C15.1055 19.4757 18.0023 22.3726 21.5758 22.3726Z" fill="#27A6FF"/>
<path d="M23.5028 15.3189H22.0993C21.9754 15.3189 21.8692 15.2441 21.8227 15.1373L21.8194 15.1451C21.6638 15.196 21.298 15.3475 21.1132 15.69C20.9917 15.9153 20.9715 16.1762 21.0527 16.4669L21.0158 16.4855H21.0537C21.2204 16.4855 21.3555 16.6206 21.3555 16.7873V20.4407C21.3555 20.8848 21.9448 21.0402 22.1638 20.6539L24.3572 16.7854C24.7284 16.1307 24.2555 15.3189 23.5028 15.3189Z" fill="#FEF156"/>
<path d="M21.9247 15.2622C21.8482 15.2074 21.7979 15.1183 21.7979 15.0171V11.3637C21.7979 10.9196 21.2086 10.7642 20.9896 11.1505L18.7962 15.019C18.425 15.6737 18.898 16.4855 19.6506 16.4855H21.0541C21.1178 16.4855 21.1767 16.5055 21.2254 16.5392L21.2255 16.5391C20.8525 15.5157 21.9245 15.2625 21.9245 15.2625L21.9247 15.2622Z" fill="#FFC242"/>
<path d="M15.0623 8.70459H11.9685C11.5303 8.70459 11.1716 8.34596 11.1716 7.90771C11.1716 7.46946 11.5303 7.11084 11.9685 7.11084H15.0623C15.5005 7.11084 15.8591 7.46946 15.8591 7.90771C15.8591 8.34596 15.5006 8.70459 15.0623 8.70459Z" fill="#E51E82"/>
<path d="M15.0623 30.3644H11.9685C11.5303 30.3644 11.1716 30.0058 11.1716 29.5675C11.1716 29.1292 11.5303 28.7707 11.9685 28.7707H15.0623C15.5005 28.7707 15.8591 29.1292 15.8591 29.5675C15.8591 30.0059 15.5006 30.3644 15.0623 30.3644Z" fill="#1D2E79"/>
<path d="M14.3123 6.36084V9.45459C14.3123 9.89284 13.9536 10.2515 13.5154 10.2515C13.0771 10.2515 12.7185 9.89284 12.7185 9.45459V6.36084C12.7185 5.92259 13.0771 5.56396 13.5154 5.56396C13.9537 5.56396 14.3123 5.92259 14.3123 6.36084Z" fill="#FF0363"/>
</g>
<defs>
<clipPath id="clip0_133_20384">
<rect width="32" height="32" fill="white" transform="translate(0 0.5)"/>
</clipPath>
</defs>
</svg>
