<svg width="36" height="37" viewBox="0 0 36 37" fill="none" xmlns="http://www.w3.org/2000/svg">
<g clip-path="url(#clip0_130_9045)">
<path d="M5.03137 27.331H30.9689C32.4533 24.9721 33.3128 22.1802 33.3128 19.1874C33.3128 13.5447 30.2602 8.61569 25.7168 5.9595H10.2834C5.74006 8.61569 2.6875 13.5447 2.6875 19.1874C2.6875 22.1802 3.547 24.9721 5.03137 27.331Z" fill="#FE3D97"/>
<path d="M24.3414 12.3717H18.0177C16.3906 12.3717 15.0669 11.048 15.0669 9.42094V4.15738C13.7004 4.42282 12.3983 4.86863 11.1875 5.47113V15.0239H24.8126V12.1773C24.6915 12.2974 24.525 12.3717 24.3414 12.3717Z" fill="#1D2E79"/>
<path d="M14.9734 4.17536V9.42086C14.9734 11.0954 16.3434 12.4654 18.0179 12.4654H24.3416C24.5191 12.4654 24.6827 12.4034 24.8128 12.3007V5.47105C22.7608 4.44993 20.4479 3.87468 18.0003 3.87468C16.9638 3.87468 15.952 3.97886 14.9734 4.17536Z" fill="#2A428B"/>
<path d="M18.6876 4.83637V3.18744C18.6876 2.80781 18.3799 2.5 18.0002 2.5C17.6205 2.5 17.3127 2.80781 17.3127 3.18744V4.83637H18.6876Z" fill="#6AD9FB"/>
<path d="M26.1876 4.83637V3.18744C26.1876 2.80781 25.8799 2.5 25.5002 2.5C25.1205 2.5 24.8127 2.80781 24.8127 3.18744V4.83637H26.1876Z" fill="#6AD9FB"/>
<path d="M11.1876 4.83637V3.18744C11.1876 2.80781 10.8799 2.5 10.5002 2.5C10.1205 2.5 9.81274 2.80781 9.81274 3.18744V4.83637H11.1876Z" fill="#02C0FC"/>
<path d="M10.5005 3.66813C9.83078 3.66813 9.28784 4.21107 9.28784 4.88082V4.93007H11.7132V4.88082C11.7132 4.21107 11.1703 3.66813 10.5005 3.66813Z" fill="#ADE9F7"/>
<path d="M18.0005 3.66813C17.3308 3.66813 16.7878 4.21107 16.7878 4.88082V4.93007H19.2132V4.88082C19.2132 4.21107 18.6703 3.66813 18.0005 3.66813Z" fill="#E8F8FC"/>
<path d="M25.5005 3.66813C24.8308 3.66813 24.2878 4.21107 24.2878 4.88082V4.93007H26.7132V4.88082C26.7132 4.21107 26.1703 3.66813 25.5005 3.66813Z" fill="#E8F8FC"/>
<path d="M15.1736 16.6489C15.0675 16.7335 14.4851 17.2278 14.4863 17.8853C14.4871 18.2771 14.6946 18.6436 15.1036 18.9756C14.9606 19.1261 14.6827 19.4752 14.7156 19.8861C14.7408 20.2015 14.942 20.4807 15.3136 20.7161L16.4858 22.7061C16.3318 22.7333 16.0905 22.8076 15.8853 23.0106C15.6406 23.2529 15.5166 23.6078 15.5166 24.0655L15.5167 30.1024C15.5165 30.1061 15.5116 30.2366 15.5493 30.4159H28.4099L28.41 30.416C29.391 29.5059 30.2527 28.4689 30.9688 27.331V16.6489H15.1736Z" fill="#2A428B"/>
<path d="M15.2459 16.7114L15.2834 16.6489H5.03125V27.331C5.74731 28.4689 6.609 29.5059 7.59 30.4159L7.59006 30.4159H15.6431C15.6038 30.2379 15.6103 30.1072 15.6103 30.1072C15.6103 30.1072 15.6103 25.3572 15.6103 24.0655C15.6103 22.7738 16.6406 22.7843 16.6406 22.7843L15.3827 20.6488C14.1718 19.8988 15.2459 18.9676 15.2459 18.9676C13.7478 17.8438 15.2459 16.7114 15.2459 16.7114Z" fill="#1D2E79"/>
<path d="M10.2495 16.6489H12.3827V19.0778H10.2495V16.6489Z" fill="#2A428B"/>
<path d="M23.6179 16.6489H25.7511V19.0778H23.6179V16.6489Z" fill="#3F57A0"/>
<path d="M16.9336 16.6489H19.0668V19.0778H16.9336V16.6489Z" fill="#3F57A0"/>
<path d="M15.9268 13.4523H20.0726V14.8988H15.9268V13.4523Z" fill="#FEA53D"/>
<path d="M16.9451 10.2633H19.0544V11.2697H16.9451V10.2633Z" fill="#FEA53D"/>
<path d="M16.9451 7.04663H19.0544V8.05294H16.9451V7.04663Z" fill="#FEA53D"/>
<path d="M18.5158 5.27468C18.8155 5.03136 19.1681 4.86661 19.542 4.79074C19.3955 4.75899 19.2451 4.74268 19.0934 4.74268C18.1675 4.74268 17.833 4.74268 16.9071 4.74268C16.421 4.74268 15.9497 4.90986 15.5723 5.21618L14.9281 5.73905C14.3512 6.2073 14.6823 7.14055 15.4253 7.14055H19.1777C18.1885 7.14049 17.7478 5.89799 18.5158 5.27468Z" fill="#FFD402"/>
<path d="M20.5754 10.3572H19.1777C18.1885 10.3572 17.7478 9.11468 18.5158 8.49131H18.5158C18.8156 8.248 19.1682 8.08331 19.542 8.00737C19.3955 7.97562 19.2451 7.95931 19.0934 7.95931C18.1675 7.95931 17.833 7.95931 16.9071 7.95931C16.421 7.95931 15.9497 8.1265 15.5723 8.43281L14.9281 8.95568C14.3512 9.42387 14.6823 10.3572 15.4253 10.3572H20.5753H20.5754Z" fill="#FFD402"/>
<path d="M18.5157 11.7079C18.8155 11.4646 19.1681 11.2999 19.5419 11.224C19.3955 11.1923 19.2452 11.1759 19.0934 11.1759C18.1675 11.1759 17.833 11.1759 16.9072 11.1759C16.421 11.1759 15.9497 11.3431 15.5723 11.6494L14.9281 12.1723C14.3512 12.6406 14.6823 13.5738 15.4253 13.5738H19.1776C18.1885 13.5738 17.7477 12.3313 18.5157 11.7079Z" fill="#FFD402"/>
<path d="M21.0722 5.739L20.428 5.21613C20.1518 4.99188 19.8251 4.84263 19.4792 4.77844C19.0822 4.84806 18.707 5.01769 18.3905 5.27456C17.6225 5.89794 18.0633 7.14038 19.0523 7.14044H20.575C21.318 7.1405 21.6491 6.20725 21.0722 5.739Z" fill="#FEF156"/>
<path d="M21.0722 8.95569L20.428 8.43281C20.1518 8.20856 19.8251 8.05925 19.4792 7.99512C19.0822 8.06475 18.707 8.23438 18.3906 8.49125H18.3905C17.6225 9.11462 18.0633 10.3571 19.0524 10.3571H20.5751C21.318 10.3571 21.649 9.42394 21.0722 8.95569Z" fill="#FEF156"/>
<path d="M21.0722 12.1724L20.428 11.6495C20.1518 11.4253 19.8251 11.2759 19.4792 11.2119C19.0822 11.2815 18.707 11.4511 18.3906 11.708H18.3905C17.6225 12.3314 18.0633 13.5738 19.0523 13.5739H20.575C21.318 13.5739 21.6491 12.6406 21.0722 12.1724Z" fill="#FEF156"/>
<path d="M23.4272 13.4524H27.5731V14.8989H23.4272V13.4524Z" fill="#FEA53D"/>
<path d="M24.4453 10.2634H26.5546V11.2698H24.4453V10.2634Z" fill="#FEA53D"/>
<path d="M24.4453 7.04675H26.5546V8.05306H24.4453V7.04675Z" fill="#FEA53D"/>
<path d="M26.0158 5.27468C26.3155 5.03136 26.6681 4.86661 27.042 4.79074C26.8955 4.75899 26.7452 4.74268 26.5934 4.74268C25.6675 4.74268 25.333 4.74268 24.4072 4.74268C23.921 4.74268 23.4497 4.90986 23.0723 5.21618L22.4281 5.73905C21.8512 6.2073 22.1823 7.14055 22.9253 7.14055H26.6777C25.6885 7.14049 25.2478 5.89799 26.0158 5.27468Z" fill="#FFD402"/>
<path d="M28.0754 10.3572H26.6777C25.6885 10.3572 25.2478 9.11468 26.0158 8.49131H26.0158C26.3156 8.248 26.6682 8.08331 27.042 8.00737C26.8955 7.97562 26.7451 7.95931 26.5934 7.95931C25.6675 7.95931 25.333 7.95931 24.4072 7.95931C23.921 7.95931 23.4497 8.1265 23.0723 8.43281L22.4281 8.95568C21.8512 9.42387 22.1823 10.3572 22.9253 10.3572H28.0753H28.0754Z" fill="#FFD402"/>
<path d="M26.0157 11.7079C26.3155 11.4646 26.6681 11.2999 27.0419 11.224C26.8955 11.1923 26.7452 11.1759 26.5934 11.1759C25.6675 11.1759 25.333 11.1759 24.4071 11.1759C23.921 11.1759 23.4497 11.3431 23.0723 11.6494L22.4281 12.1723C21.8512 12.6406 22.1823 13.5738 22.9253 13.5738H26.6776C25.6885 13.5738 25.2477 12.3313 26.0157 11.7079Z" fill="#FFD402"/>
<path d="M28.5722 5.739L27.928 5.21613C27.6518 4.99188 27.3251 4.84263 26.9792 4.77844C26.5822 4.84806 26.207 5.01769 25.8905 5.27456C25.1225 5.89794 25.5633 7.14038 26.5523 7.14044H28.075C28.818 7.1405 29.1491 6.20725 28.5722 5.739Z" fill="#FEF156"/>
<path d="M28.5722 8.95569L27.928 8.43281C27.6518 8.20856 27.3251 8.05925 26.9792 7.99512C26.5822 8.06475 26.207 8.23438 25.8906 8.49125H25.8905C25.1225 9.11462 25.5633 10.3571 26.5524 10.3571H28.0751C28.818 10.3571 29.149 9.42394 28.5722 8.95569Z" fill="#FEF156"/>
<path d="M28.5722 12.1724L27.928 11.6495C27.6518 11.4253 27.3251 11.2759 26.9792 11.2119C26.5822 11.2815 26.207 11.4511 25.8906 11.708H25.8905C25.1225 12.3314 25.5633 13.5738 26.5523 13.5739H28.075C28.818 13.5739 29.1491 12.6406 28.5722 12.1724Z" fill="#FEF156"/>
<path d="M8.42725 13.4524H12.5731V14.8989H8.42725V13.4524Z" fill="#FC753F"/>
<path d="M9.44531 10.2634H11.5546V11.2698H9.44531V10.2634Z" fill="#FC753F"/>
<path d="M9.44531 7.04675H11.5546V8.05306H9.44531V7.04675Z" fill="#FC753F"/>
<path d="M11.0158 5.27468C11.3155 5.03136 11.6682 4.86661 12.042 4.79074C11.8955 4.75899 11.7452 4.74268 11.5934 4.74268C10.6675 4.74268 10.333 4.74268 9.40715 4.74268C8.92103 4.74268 8.44971 4.90986 8.07228 5.21618L7.42809 5.73905C6.85121 6.2073 7.18228 7.14055 7.92528 7.14055H11.6776C10.6885 7.14049 10.2478 5.89799 11.0158 5.27468Z" fill="#FEA53D"/>
<path d="M13.0753 10.3572H11.6777C10.6885 10.3572 10.2477 9.11468 11.0157 8.49131C11.3155 8.248 11.6682 8.08331 12.042 8.00737C11.8955 7.97562 11.7452 7.95931 11.5934 7.95931C10.6675 7.95931 10.333 7.95931 9.40715 7.95931C8.92103 7.95931 8.44971 8.1265 8.07228 8.43281L7.42809 8.95568C6.85121 9.42387 7.18228 10.3572 7.92528 10.3572H13.0753Z" fill="#FEA53D"/>
<path d="M11.0157 11.7079C11.3155 11.4646 11.6681 11.2999 12.0419 11.224C11.8955 11.1923 11.7452 11.1759 11.5934 11.1759C10.6675 11.1759 10.333 11.1759 9.40715 11.1759C8.92103 11.1759 8.44971 11.3431 8.07228 11.6494L7.42809 12.1723C6.85121 12.6406 7.18228 13.5738 7.92528 13.5738H11.6777C10.6885 13.5738 10.2477 12.3313 11.0157 11.7079Z" fill="#FEA53D"/>
<path d="M13.5722 5.739L12.928 5.21613C12.6518 4.99188 12.3251 4.84263 11.9792 4.77844C11.5822 4.84806 11.2069 5.01769 10.8905 5.27456C10.1225 5.89794 10.5633 7.14038 11.5523 7.14044H13.075C13.818 7.1405 14.1491 6.20725 13.5722 5.739Z" fill="#FFD402"/>
<path d="M13.5723 8.95568L12.9281 8.43281C12.6518 8.20856 12.3251 8.05924 11.9793 7.99512C11.5823 8.06474 11.2071 8.23437 10.8906 8.49124H10.8905C10.1225 9.11462 10.5633 10.3571 11.5524 10.3571H13.0751C13.8181 10.3571 14.1491 9.42393 13.5723 8.95568Z" fill="#FFD402"/>
<path d="M13.5722 12.1724L12.928 11.6495C12.6518 11.4253 12.3251 11.2759 11.9792 11.2119C11.5822 11.2815 11.207 11.4511 10.8906 11.708C10.1226 12.3314 10.5633 13.5738 11.5523 13.5739H13.075C13.818 13.5739 14.1491 12.6406 13.5722 12.1724Z" fill="#FFD402"/>
<path d="M25.6251 15.7426C25.6251 15.2098 26.061 14.7739 26.5938 14.7739H12.3984C11.8656 14.7739 11.4297 15.2098 11.4297 15.7426C11.4297 16.2754 11.8656 16.7114 12.3984 16.7114H26.5938C26.061 16.7114 25.6251 16.2754 25.6251 15.7426Z" fill="#5071B7"/>
<path d="M32.4341 15.7426C32.4341 15.2098 31.9981 14.7739 31.4653 14.7739H26.4688C25.9359 14.7739 25.5 15.2098 25.5 15.7426C25.5 16.2754 25.9359 16.7114 26.4688 16.7114H31.4653C31.9981 16.7114 32.4341 16.2754 32.4341 15.7426Z" fill="#6289CD"/>
<path d="M11.5546 15.7427C11.5546 15.2099 11.9905 14.7739 12.5234 14.7739H4.53467C4.00186 14.7739 3.56592 15.2099 3.56592 15.7427C3.56592 16.2755 4.00186 16.7114 4.53467 16.7114H12.5234C11.9906 16.7114 11.5546 16.2755 11.5546 15.7427Z" fill="#3F57A0"/>
<path d="M26.8481 18.9676H15.0942C15.0974 18.9702 15.1004 18.9729 15.1036 18.9756C14.9606 19.1261 14.6827 19.4752 14.7156 19.8861C14.7408 20.2015 14.942 20.4807 15.3136 20.7161L16.4858 22.7061C16.3318 22.7333 16.0904 22.8076 15.8853 23.0106C15.6406 23.2529 15.5166 23.6078 15.5166 24.0655L15.5167 30.1024C15.5162 30.1123 15.4791 31.062 16.3715 31.3804L16.2323 31.7732H26.7215C27.3162 31.3602 27.8806 30.9067 28.4099 30.4158V20.5294C28.4099 19.6682 27.7093 18.9676 26.8481 18.9676Z" fill="#5071B7"/>
<path d="M15.2464 18.9676H9.15233C8.2912 18.9676 7.59058 19.6682 7.59058 20.5294V30.4159C8.11983 30.9068 8.68426 31.3603 9.27895 31.7732H16.3323L16.4927 31.3207C15.563 31.0551 15.6109 30.1072 15.6109 30.1072C15.6109 30.1072 15.6109 25.3572 15.6109 24.0655C15.6109 22.7738 16.6411 22.7842 16.6411 22.7842L15.3833 20.6488C14.1723 19.8989 15.2464 18.9676 15.2464 18.9676Z" fill="#3F57A0"/>
<path d="M15.2234 20.6551C15.2525 20.6757 15.2823 20.6962 15.3139 20.7162L16.486 22.7062C16.332 22.7334 16.0907 22.8077 15.8856 23.0107C15.6409 23.2529 15.5168 23.6079 15.5168 24.0656L15.517 30.1025C15.5165 30.1124 15.4793 31.0621 16.3718 31.3805L15.3491 34.2653L16.9337 34.4624L16.9346 34.4627C17.2868 34.487 17.642 34.5 18.0003 34.5C18.359 34.5 18.7145 34.4869 19.067 34.4627L19.0668 34.4624L20.7496 34.2531C21.4845 34.1198 22.2012 33.9342 22.8955 33.7L24.5654 33.0237C25.3204 32.6647 26.0417 32.2461 26.7226 31.7732V20.6551H15.2234Z" fill="#2A428B"/>
<path d="M9.27808 31.7732C9.95901 32.246 10.6803 32.6647 11.4353 33.0237L13.1051 33.7C13.7995 33.9342 14.5162 34.1198 15.2511 34.2531L15.4446 34.2772L16.4927 31.3207C15.563 31.0551 15.6109 30.1072 15.6109 30.1072C15.6109 30.1072 15.6109 25.3572 15.6109 24.0655C15.6109 22.7738 16.6411 22.7842 16.6411 22.7842L15.387 20.6551H9.27808V31.7732Z" fill="#1D2E79"/>
<path d="M23.7312 19.7801C23.2652 19.7801 22.8875 20.1579 22.8875 20.6239V33.7032C23.4663 33.5084 24.0294 33.2796 24.575 33.0198V20.6239C24.575 20.1579 24.1972 19.7801 23.7312 19.7801Z" fill="#6289CD"/>
<path d="M13.1128 33.7032V20.6239C13.1128 20.1579 12.735 19.7801 12.269 19.7801C11.803 19.7801 11.4253 20.1579 11.4253 20.6239V33.0198C11.9709 33.2796 12.534 33.5084 13.1128 33.7032Z" fill="#5071B7"/>
<path d="M19.9104 19.7801C19.4444 19.7801 19.0667 20.1579 19.0667 20.6239V34.4624C19.6383 34.4231 20.2015 34.3529 20.7542 34.2524V20.6239C20.7542 20.1579 20.3764 19.7801 19.9104 19.7801Z" fill="#6289CD"/>
<path d="M16.9336 20.6239C16.9336 20.1579 16.5558 19.7801 16.0898 19.7801C15.6238 19.7801 15.2461 20.1579 15.2461 20.6239V34.2525C15.7988 34.3529 16.362 34.4231 16.9336 34.4624V20.6239Z" fill="#6289CD"/>
<path d="M21.347 30.2874V23.8105C21.347 23.2841 21.7738 22.8573 22.3003 22.8573H16.0844C16.0172 22.898 15.9499 22.9475 15.886 23.0108C15.6413 23.253 15.5173 23.608 15.5173 24.0656L15.5174 30.1026C15.517 30.1113 15.4885 30.8468 16.0888 31.2406H22.3003C21.7738 31.2406 21.347 30.8138 21.347 30.2874Z" fill="#FEF156"/>
<path d="M24.5749 30.2873V23.8104C24.5749 23.284 24.1481 22.8572 23.6216 22.8572H22.1747C21.6482 22.8572 21.2214 23.2839 21.2214 23.8104V30.2873C21.2214 30.8137 21.6482 31.2406 22.1747 31.2406H23.6216C24.1481 31.2405 24.5749 30.8137 24.5749 30.2873Z" fill="#FFFBB3"/>
<path d="M15.6104 24.0655C15.6104 23.2764 15.9948 22.9736 16.2941 22.8572H12.3829C11.8565 22.8572 11.4297 23.2839 11.4297 23.8104V30.2873C11.4297 30.8138 11.8564 31.2406 12.3829 31.2406H16.2798C15.5708 30.9031 15.6104 30.1073 15.6104 30.1073C15.6104 30.1073 15.6104 25.3572 15.6104 24.0655Z" fill="#FFC242"/>
<path d="M16.9067 26.65H15.947C15.8623 26.65 15.7897 26.5989 15.7579 26.5259L15.7556 26.5313C15.6492 26.566 15.399 26.6696 15.2727 26.9038C15.1896 27.0578 15.1759 27.2363 15.2314 27.4351L15.2061 27.4478H15.232C15.346 27.4478 15.4384 27.5402 15.4384 27.6542V30.1524C15.4384 30.456 15.8414 30.5623 15.9911 30.2982L17.4909 27.6529C17.7448 27.2051 17.4214 26.65 16.9067 26.65Z" fill="#5071B7"/>
<path d="M15.8279 26.6112C15.7756 26.5738 15.7412 26.5129 15.7412 26.4437V23.9455C15.7412 23.6419 15.3382 23.5356 15.1885 23.7997L13.6887 26.4449C13.4349 26.8926 13.7582 27.4478 14.2729 27.4478H15.2326C15.2762 27.4478 15.3164 27.4614 15.3497 27.4845L15.3499 27.4844C15.0948 26.7846 15.8278 26.6115 15.8278 26.6115L15.8279 26.6112Z" fill="#2A428B"/>
<path d="M19.0667 29.2512C19.0667 29.5978 19.3503 29.8814 19.697 29.8814H22.2571C22.6038 29.8814 22.8873 29.5978 22.8873 29.2512C22.8873 28.9045 22.6037 28.6209 22.2571 28.6209H19.697C19.3503 28.6209 19.0667 28.9045 19.0667 29.2512Z" fill="#FFC242"/>
<path d="M19.0667 27.0489C19.0667 27.3955 19.3503 27.6791 19.697 27.6791H22.2571C22.6038 27.6791 22.8873 27.3955 22.8873 27.0489C22.8873 26.7023 22.6037 26.4186 22.2571 26.4186H19.697C19.3503 26.4186 19.0667 26.7022 19.0667 27.0489Z" fill="#FFC242"/>
<path d="M19.0667 24.8466C19.0667 25.1932 19.3503 25.4769 19.697 25.4769H22.2571C22.6038 25.4769 22.8873 25.1932 22.8873 24.8466C22.8873 24.4999 22.6037 24.2163 22.2571 24.2163H19.697C19.3503 24.2162 19.0667 24.4999 19.0667 24.8466Z" fill="#FFC242"/>
</g>
<defs>
<clipPath id="clip0_130_9045">
<rect width="32" height="32" fill="white" transform="translate(2 2.5)"/>
</clipPath>
</defs>
</svg>
