<svg width="33" height="33" viewBox="0 0 33 33" fill="none" xmlns="http://www.w3.org/2000/svg">
<g clip-path="url(#clip0_4306_16394)">
<path d="M32.5003 16.5C32.5003 7.66342 25.3369 0.5 16.5003 0.5C10.3431 0.5 6.55018 3.97307 6.5397 3.9789C6.5397 3.9789 6.38202 4.17573 6.35253 4.30656C6.11297 5.36996 5.88916 6.79522 5.88916 7.83522C5.88916 16.6718 13.341 23.8335 22.1775 23.8335C25.5803 23.8335 29.3661 22.2026 31.8998 20.2417C31.9565 20.1979 32.1363 19.9032 32.1363 19.9032C32.1475 19.835 32.5003 18.4302 32.5003 16.5Z" fill="#AFE6FF"/>
<path d="M6.17738 7.3818C6.17738 6.2138 6.30331 5.07573 6.54099 3.97888C3.75385 6.19931 1.72549 9.33123 0.904785 12.923L7.19705 13.0113C6.53854 11.26 6.17738 9.36323 6.17738 7.3818Z" fill="#9DC6FB"/>
<path d="M26.6494 22.7475V28.8684C29.3754 26.631 31.3569 23.5049 32.1372 19.9032C30.5309 21.1827 28.6728 22.1593 26.6494 22.7475Z" fill="#9DC6FB"/>
<path d="M23.8408 30.1288H10.205L8.46875 30.34C10.8293 31.713 13.5729 32.5 16.5006 32.5C19.4155 32.5 22.162 31.7158 24.5298 30.3398L23.8408 30.1288Z" fill="#6E64C3"/>
<path d="M23.7764 10.5668C23.0545 10.5668 22.4112 10.1255 22.1356 9.45825C22.1326 9.45097 22.1296 9.44363 22.1265 9.43636C21.8486 8.76831 21.9896 7.99974 22.5013 7.48806L23.0251 6.96426L19.8914 3.83058L19.3676 4.35444C18.856 4.86607 18.0874 5.00712 17.4193 4.72916C17.4121 4.72614 17.4048 4.72313 17.3975 4.72012C16.7302 4.44461 16.2889 3.80128 16.2889 3.07934V2.33838H11.8573V3.07927C11.8573 3.80122 11.416 4.44454 10.7487 4.72006C10.7414 4.72307 10.7341 4.72608 10.7268 4.72909C10.0588 5.00705 9.29016 4.86607 8.77853 4.35438L8.25474 3.83058L6.73267 9.22453L8.147 18.7458L19.585 19.6095L23.0251 18.601L22.5013 18.0772C21.9896 17.5655 21.8486 16.7969 22.1265 16.1289C22.1296 16.1216 22.1326 16.1143 22.1356 16.107C22.4111 15.4397 23.0544 14.9984 23.7764 14.9984H24.5173V10.5668L23.7764 10.5668ZM14.856 16.8807L14.3681 17.0179C11.3711 17.8606 8.73875 14.8469 9.97678 11.9904C10.3573 10.0115 12.1361 8.53 14.2448 8.61465C16.4036 8.7013 18.156 10.455 18.2412 12.6138C18.3244 14.7246 16.8386 16.5043 14.856 16.8807Z" fill="#528ECB"/>
<path d="M14.0726 6.22766C11.8585 6.22766 9.90101 7.32545 8.71438 9.00645L8.46948 11.0656L9.97762 11.9908C10.3478 10.0659 12.0398 8.61135 14.0727 8.61135C16.3765 8.61135 18.2441 10.479 18.2441 12.7828C18.2441 14.819 16.7848 16.5132 14.8553 16.8796L15.8819 18.3081L17.8363 18.15C19.5245 16.9642 20.6278 15.0024 20.6278 12.7828C20.6277 9.1625 17.6929 6.22766 14.0726 6.22766Z" fill="#4A80AA"/>
<path d="M21.5247 18.6676C19.0948 18.6676 16.817 18.0165 14.8558 16.8798C11.9559 17.4304 9.42103 14.8861 9.97777 11.9907C8.8508 10.0356 8.20591 7.76757 8.20591 5.34887C8.20591 4.84703 8.23465 4.35204 8.28867 3.86463L8.25473 3.83069L5.12111 6.96437L5.64491 7.48816C6.15659 7.99979 6.29758 8.76841 6.01962 9.43646C6.01661 9.44374 6.0136 9.45102 6.01058 9.4583C5.73507 10.1256 5.09175 10.5669 4.3698 10.5669H3.62891V14.9985H4.3698C5.09175 14.9985 5.73507 15.4398 6.01058 16.1071C6.0136 16.1144 6.01661 16.1216 6.01962 16.129C6.29758 16.797 6.15653 17.5656 5.64491 18.0773L5.12111 18.6011L8.25473 21.7348L8.77858 21.2109C9.29027 20.6993 10.0588 20.5582 10.7269 20.8362C10.7342 20.8392 10.7414 20.8423 10.7488 20.8453C11.4161 21.1208 11.8574 21.7641 11.8574 22.4861V23.227H16.289V22.4861C16.289 21.7641 16.7303 21.1208 17.3976 20.8453L17.4194 20.8362C18.0874 20.5583 18.856 20.6993 19.3677 21.211L19.8915 21.7348L23.0251 18.6011L23.0089 18.5848C22.5215 18.6389 22.0265 18.6676 21.5247 18.6676Z" fill="#4A80AA"/>
<path d="M14.8556 16.8797C14.8555 16.8797 14.8553 16.8798 14.8552 16.8798C11.959 17.4295 9.42063 14.888 9.97749 11.9908L9.97756 11.9906C9.44159 11.0609 9.01492 10.0602 8.71456 9.00623C7.9608 10.0738 7.51782 11.3764 7.51782 12.7827C7.51782 16.4029 10.4527 19.3378 14.0729 19.3378C15.4736 19.3378 16.7714 18.8982 17.8366 18.1499C16.7836 17.847 15.7841 17.4179 14.8556 16.8797Z" fill="#407093"/>
<path d="M14.0721 12.9229L12.7947 23.8334L14.0721 30.3388H24.5286C24.9129 30.1155 25.2872 29.8766 25.6506 29.6229L27.5384 14.1778L14.0721 12.9229Z" fill="#FFC305"/>
<path d="M0.628174 18.5365C1.2619 23.5247 4.2064 27.86 8.46836 30.3389H14.0719V12.923L0.628174 18.5365Z" fill="#FFA50A"/>
<path d="M30.2055 18.5363H16.6309L14.0723 12.9229H27.6468L30.2055 18.5363Z" fill="#FFD23C"/>
<path d="M14.0722 12.9229H0.902761C0.639984 14.073 0.5 15.27 0.5 16.4999C0.5 17.1898 0.544173 17.8694 0.628878 18.5363H11.7451L14.0722 12.9229Z" fill="#FFC305"/>
<path d="M22.8329 13.232C22.6791 13.0783 22.4598 13.0096 22.2458 13.0483L17.7829 13.8548C17.5087 13.9044 17.2948 14.1199 17.2472 14.3945L17.0735 15.3976L27.2181 26.1186L30.9446 21.3438L22.8329 13.232ZM19.4921 16.0694C19.178 16.413 18.5927 16.3879 18.2742 16.0694C17.9328 15.728 17.959 15.1962 18.2742 14.8515C18.5883 14.5079 19.1735 14.533 19.4921 14.8515C19.8335 15.1929 19.8072 15.7247 19.4921 16.0694Z" fill="#DF134C"/>
<path d="M27.5386 28.0795V26.056L27.4816 26.1131C27.2225 26.3722 26.8024 26.3722 26.5434 26.1131L17.1039 16.6736L16.5127 20.0872C16.4758 20.2998 16.5447 20.517 16.6973 20.6696L25.6513 29.6235C26.3192 29.1573 26.9498 28.6405 27.5386 28.0795Z" fill="#FFA50A"/>
<path d="M30.9447 21.3437L27.4514 24.8371C27.1923 25.0962 26.7722 25.0962 26.5131 24.8371L17.0736 15.3976L16.4824 18.8112C16.4456 19.0238 16.5145 19.241 16.667 19.3936L26.142 28.8686C26.4011 29.1277 26.8212 29.1277 27.0802 28.8686L32.3058 23.643C32.5648 23.384 32.5648 22.9639 32.3058 22.7048L30.9447 21.3437Z" fill="#B30435"/>
<path d="M18.4123 15.4403C18.2915 15.4403 18.1707 15.3945 18.0781 15.3027L15.9802 13.2238C15.794 13.0392 15.7925 12.7386 15.9772 12.5523C16.1618 12.3661 16.4624 12.3647 16.6487 12.5493L18.7466 14.6282C18.9328 14.8128 18.9342 15.1134 18.7496 15.2997C18.6568 15.3933 18.5345 15.4403 18.4123 15.4403Z" fill="#A55A3C"/>
</g>
<defs>
<clipPath id="clip0_4306_16394">
<rect width="32" height="32" fill="white" transform="translate(0.5 0.5)"/>
</clipPath>
</defs>
</svg>
