<svg width="32" height="32" viewBox="0 0 32 32" fill="none" xmlns="http://www.w3.org/2000/svg">
<g clip-path="url(#clip0_2098_1130)">
<path d="M1.99575 22.6445C0.93919 20.5647 0.343628 18.2113 0.343628 15.7187C0.343628 7.26183 7.19925 0.406204 15.6561 0.406204C24.113 0.406204 30.9686 7.26183 30.9686 15.7187C30.9686 19.3828 29.6816 22.7464 27.5351 25.382C24.8703 20.8735 19.9601 17.8497 14.3436 17.8497C9.55088 17.8498 2.14319 22.9348 1.99575 22.6445Z" fill="#0396FD"/>
<path d="M25.0824 4.37495V16.4195C25.0824 16.7646 24.8026 17.0445 24.4574 17.0445H6.14928V25.625H4.23303C4.2161 25.605 4.19922 25.5851 4.18241 25.5651C4.17397 25.5551 3.91247 25.5451 3.90403 25.535C3.16447 24.6506 2.52291 23.6816 1.99597 22.6443V4.37495C1.99597 4.02977 2.27578 3.74995 2.62097 3.74995H24.4574C24.8026 3.74995 25.0824 4.02977 25.0824 4.37495Z" fill="#00429C"/>
<path d="M6.31585 17.0445H6.14928V25.625H4.23303C4.2161 25.605 4.19922 25.5851 4.18241 25.5651C4.17397 25.5551 3.91247 25.5451 3.90403 25.535C3.16447 24.6506 2.52291 23.6816 1.99597 22.6443V4.37495C1.99597 4.02977 2.27578 3.74995 2.62097 3.74995H6.31585V17.0445Z" fill="#003278"/>
<path d="M28.49 6.87495V24.0741C25.7575 28.2627 21.03 31.0312 15.6558 31.0312C11.8257 31.0312 8.32408 29.625 5.63896 27.3006C5.57421 27.2446 5.50996 26.6412 5.44621 26.5841C5.31865 26.4699 5.19308 26.3536 5.06946 26.2353V6.87495C5.06946 6.52977 5.34927 6.24995 5.69446 6.24995H27.865C28.2101 6.24995 28.49 6.52977 28.49 6.87495Z" fill="#FFF5F5"/>
<path d="M6.31569 6.24995C5.9705 6.24995 5.69069 6.52977 5.69069 6.87495V27.3453C5.04625 26.7924 4.44825 26.1869 3.90344 25.5354V6.87495C3.90344 6.52977 4.18325 6.24995 4.52844 6.24995H6.31569Z" fill="#C9F0FF"/>
<path d="M18.2499 5.84614V1.7187C18.2499 0.771017 17.4789 -4.57764e-05 16.5311 -4.57764e-05H12.1561C11.2084 -4.57764e-05 10.4374 0.771017 10.4374 1.7187V5.84614C9.71675 6.05064 9.18738 6.71464 9.18738 7.49995V8.74995C9.18738 9.69764 9.95838 10.4687 10.9061 10.4687H17.7811C18.7289 10.4687 19.4999 9.69764 19.4999 8.74995V7.49995C19.4999 6.7147 18.9705 6.0507 18.2499 5.84614ZM18.5624 8.74995C18.5624 9.18077 18.2119 9.5312 17.7811 9.5312H10.9061C10.4753 9.5312 10.1249 9.18077 10.1249 8.74995V7.49995C10.1249 7.06914 10.4753 6.7187 10.9061 6.7187C11.165 6.7187 11.3749 6.50889 11.3749 6.24995V1.7187C11.3749 1.28789 11.7253 0.937454 12.1561 0.937454H16.5311C16.9619 0.937454 17.3124 1.28789 17.3124 1.7187V6.24995C17.3124 6.50889 17.5223 6.7187 17.7811 6.7187C18.2119 6.7187 18.5624 7.06914 18.5624 7.49995V8.74995Z" fill="#003278"/>
<path d="M11.3758 7.04456H9.41602C9.07083 7.04456 8.79102 6.76469 8.79102 6.41956V3.75C8.79102 3.40481 9.07083 3.125 9.41602 3.125H11.3758C11.0306 3.125 10.7508 3.40481 10.7508 3.75V6.41956C10.7508 6.76469 11.0306 7.04456 11.3758 7.04456Z" fill="#9AE7FD"/>
<path d="M19.2706 7.04452H11.3331C10.9879 7.04452 10.7081 6.7647 10.7081 6.41952V3.74995C10.7081 3.40477 10.9879 3.12495 11.3331 3.12495H19.2706C19.6158 3.12495 19.8956 3.40477 19.8956 3.74995V6.41952C19.8956 6.76464 19.6158 7.04452 19.2706 7.04452Z" fill="#C9F0FF"/>
<path d="M12.6059 10.866H11.1847C10.8395 10.866 10.5597 10.5862 10.5597 10.241V9.92851C10.5597 9.58333 10.8395 9.30351 11.1847 9.30351H12.6059C12.9511 9.30351 13.2309 9.58333 13.2309 9.92851V10.241C13.2309 10.5862 12.9511 10.866 12.6059 10.866Z" fill="#0066ED"/>
<path d="M17.5017 10.866H12.4902C12.145 10.866 11.8652 10.5862 11.8652 10.241V9.92847C11.8652 9.58328 12.145 9.30347 12.4902 9.30347H17.5017C17.8469 9.30347 18.1267 9.58328 18.1267 9.92847V10.241C18.1267 10.5862 17.8469 10.866 17.5017 10.866Z" fill="#0396FD"/>
<path d="M23.3762 15.2812C23.3762 14.9361 23.0964 14.6562 22.7512 14.6562H15.3105C14.9654 14.6562 14.6855 14.9361 14.6855 15.2812C14.6855 15.6264 14.9654 15.9062 15.3105 15.9062H22.7512C23.0964 15.9062 23.3762 15.6264 23.3762 15.2812ZM20.6523 17.7812C20.6523 17.4361 20.3725 17.1562 20.0273 17.1562H15.3105C14.9654 17.1562 14.6855 17.4361 14.6855 17.7812C14.6855 18.1264 14.9654 18.4062 15.3105 18.4062H20.0273C20.3725 18.4062 20.6523 18.1264 20.6523 17.7812ZM23.3762 20.9062C23.3762 20.5611 23.0964 20.2812 22.7512 20.2812H15.3105C14.9654 20.2812 14.6855 20.5611 14.6855 20.9062C14.6855 21.2514 14.9654 21.5312 15.3105 21.5312H22.7512C23.0964 21.5312 23.3762 21.2514 23.3762 20.9062ZM20.6523 23.4062C20.6523 23.0611 20.3725 22.7812 20.0273 22.7812H15.3105C14.9654 22.7812 14.6855 23.0611 14.6855 23.4062C14.6855 23.7514 14.9654 24.0312 15.3105 24.0312H20.0273C20.3725 24.0312 20.6523 23.7514 20.6523 23.4062Z" fill="#83BFFF"/>
<path d="M11.5311 19.0312H8.40613C8.06094 19.0312 7.78113 18.7514 7.78113 18.4062V15.2812C7.78113 14.936 8.06094 14.6562 8.40613 14.6562H11.5311C11.8763 14.6562 12.1561 14.936 12.1561 15.2812V18.4062C12.1561 18.7514 11.8763 19.0312 11.5311 19.0312ZM12.1561 24.0312V20.9062C12.1561 20.561 11.8763 20.2812 11.5311 20.2812H8.40613C8.06094 20.2812 7.78113 20.561 7.78113 20.9062V24.0312C7.78113 24.3764 8.06094 24.6562 8.40613 24.6562H11.5311C11.8763 24.6562 12.1561 24.3764 12.1561 24.0312Z" fill="#9AE7FD"/>
<path d="M11.2186 4.99995C11.2186 5.34514 10.9388 5.62495 10.5936 5.62495C10.2484 5.62495 9.96863 5.34514 9.96863 4.99995C9.96863 4.65477 10.2484 4.37495 10.5936 4.37495C10.9388 4.37495 11.2186 4.65477 11.2186 4.99995ZM18.0936 4.37495C17.7484 4.37495 17.4686 4.65477 17.4686 4.99995C17.4686 5.34514 17.7484 5.62495 18.0936 5.62495C18.4388 5.62495 18.7186 5.34514 18.7186 4.99995C18.7186 4.65477 18.4388 4.37495 18.0936 4.37495Z" fill="#00D1FC"/>
<path d="M16.5311 4.99995C16.5311 5.34514 16.2513 5.62495 15.9061 5.62495H12.7811C12.4359 5.62495 12.1561 5.34514 12.1561 4.99995C12.1561 4.65477 12.4359 4.37495 12.7811 4.37495H15.9061C16.2513 4.37495 16.5311 4.65477 16.5311 4.99995Z" fill="#64DCFC"/>
<path d="M8.69967 16.9162C8.51661 16.7331 8.51661 16.4363 8.69967 16.2533C8.88274 16.0703 9.17955 16.0703 9.36255 16.2533L10.2275 17.1183L11.6638 15.682C11.8469 15.499 12.1437 15.499 12.3267 15.682C12.5097 15.8651 12.5097 16.1618 12.3267 16.3449L10.5589 18.1127C10.471 18.2005 10.3518 18.2499 10.2275 18.2499C10.1032 18.2499 9.98392 18.2005 9.89605 18.1126L8.69967 16.9162ZM11.6638 21.1997L10.2275 22.636L9.36255 21.771C9.17949 21.588 8.88267 21.588 8.69967 21.771C8.51661 21.9542 8.51661 22.2509 8.69967 22.434L9.89605 23.6303C9.98755 23.7218 10.1075 23.7676 10.2275 23.7676C10.3474 23.7676 10.4674 23.7218 10.5589 23.6303L12.3267 21.8626C12.5097 21.6795 12.5097 21.3827 12.3267 21.1997C12.1437 21.0167 11.8469 21.0167 11.6638 21.1997Z" fill="#0396FD"/>
<path d="M30.7573 23.1952C30.6497 23.1952 30.5464 23.2142 30.4508 23.2488C30.3063 22.6944 30.0868 22.1702 29.8037 21.6879C29.8961 21.6448 29.9826 21.5852 30.0588 21.5089C30.4097 21.158 30.4097 20.5892 30.0588 20.2383L29.0424 19.2219C28.6915 18.871 28.1226 18.871 27.7718 19.2219C27.6956 19.2982 27.6359 19.3847 27.5928 19.477C27.1104 19.194 26.5863 18.9744 26.0319 18.8299C26.0666 18.7343 26.0855 18.631 26.0855 18.5234C26.0855 18.0272 25.6833 17.625 25.1871 17.625H23.7496C23.2534 17.625 22.8511 18.0272 22.8511 18.5234C22.8511 18.631 22.8701 18.7343 22.9048 18.8299C20.2476 19.5224 18.2863 21.9384 18.2863 24.8125C18.2863 27.6865 20.2476 30.1025 22.9048 30.795C22.8701 30.8907 22.8511 30.9939 22.8511 31.1015C22.8511 31.5977 23.2534 32 23.7496 32H25.1871C25.6833 32 26.0855 31.5977 26.0855 31.1015C26.0855 30.9939 26.0666 30.8907 26.0319 30.795C26.5863 30.6505 27.1105 30.431 27.5928 30.1479C27.6359 30.2403 27.6956 30.3268 27.7718 30.403C28.1227 30.7539 28.6916 30.7539 29.0424 30.403L30.0588 29.3866C30.4097 29.0357 30.4097 28.4668 30.0588 28.116C29.9826 28.0398 29.8961 27.9802 29.8037 27.937C30.0868 27.4547 30.3063 26.9305 30.4508 26.3761C30.5464 26.4108 30.6497 26.4297 30.7573 26.4297C31.2535 26.4297 31.6558 26.0275 31.6558 25.5313V24.0938C31.6558 23.5975 31.2535 23.1952 30.7573 23.1952ZM24.4683 28.3445C22.5175 28.3445 20.9361 26.7631 20.9361 24.8124C20.9361 22.8617 22.5175 21.2803 24.4683 21.2803C26.419 21.2803 28.0003 22.8617 28.0003 24.8124C28.0003 26.7632 26.419 28.3445 24.4683 28.3445Z" fill="#FFC143"/>
<path d="M22.7711 30.7596C22.2661 30.6158 21.7874 30.4092 21.3441 30.149C21.3009 30.2414 21.2413 30.3279 21.1651 30.4041C20.8142 30.755 20.2453 30.755 19.8945 30.4041L18.8781 29.3877C18.5272 29.0368 18.5272 28.468 18.8781 28.1171C18.9543 28.0409 19.0408 27.9813 19.1332 27.9381C18.8501 27.4558 18.6306 26.9316 18.4861 26.3772C18.3904 26.4119 18.2872 26.4308 18.1796 26.4308C17.6834 26.4308 17.2811 26.0286 17.2811 25.5324V24.0949C17.2811 23.5987 17.6834 23.1965 18.1796 23.1965C18.2872 23.1965 18.3904 23.2154 18.4861 23.2501C18.6306 22.6956 18.8501 22.1715 19.1332 21.6891C19.0408 21.646 18.9543 21.5864 18.8781 21.5101C18.5272 21.1593 18.5272 20.5905 18.8781 20.2396L19.8945 19.2231C20.2454 18.8723 20.8143 18.8723 21.1651 19.2231C21.2413 19.2994 21.3009 19.3859 21.3441 19.4783C21.7874 19.2181 22.2661 19.0116 22.7711 18.8676C21.1736 20.3479 20.1736 22.464 20.1736 24.8137C20.1736 27.1634 21.1736 29.2793 22.7711 30.7596ZM28.2779 24.8136C28.2779 26.9175 26.5724 28.623 24.4686 28.623C22.3647 28.623 20.6592 26.9175 20.6592 24.8136C20.6592 22.7097 22.3647 21.0042 24.4686 21.0042C26.5724 21.0042 28.2779 22.7097 28.2779 24.8136ZM26.8404 24.8136C26.8404 23.5036 25.7785 22.4417 24.4686 22.4417C23.1586 22.4417 22.0967 23.5036 22.0967 24.8136C22.0967 26.1235 23.1586 27.1855 24.4686 27.1855C25.7785 27.1855 26.8404 26.1235 26.8404 24.8136Z" fill="#FFAA00"/>
</g>
<defs>
<clipPath id="clip0_2098_1130">
<rect width="32" height="32" fill="white"/>
</clipPath>
</defs>
</svg>
