<svg width="32" height="33" viewBox="0 0 32 33" fill="none" xmlns="http://www.w3.org/2000/svg">
<g clip-path="url(#clip0_10080_20325)">
<g clip-path="url(#clip1_10080_20325)">
<path d="M31.3128 17.639C31.3128 9.1821 24.4571 2.32642 16.0001 2.32642C7.54319 2.32642 0.6875 9.1821 0.6875 17.639C0.6875 22.998 3.441 27.7131 7.60975 30.4491H24.3905C28.5593 27.7131 31.3128 22.998 31.3128 17.639Z" fill="#004E8A"/>
<path d="M8.85817 13.6332C9.79386 13.1459 10.6134 12.3801 11.4059 11.6396C11.553 11.502 11.6985 11.3661 11.8429 11.2336V6.53744C11.8429 5.74012 12.1763 5.02387 12.7084 4.51662C10.7857 4.46137 8.99742 4.359 7.41992 4.21875V14.1504C7.86836 14.0704 8.34842 13.8987 8.85817 13.6332Z" fill="#FEF156"/>
<path d="M8.81667 13.5539C8.29111 13.8276 7.82748 13.985 7.41992 14.0594V18.3032C8.99742 18.163 10.7857 18.0606 12.7084 18.0054C12.1763 17.4981 11.8429 16.7819 11.8429 15.9846V11.1123C10.9022 11.9702 9.93855 12.9696 8.81667 13.5539Z" fill="#47CB8F"/>
<path d="M16.8724 10.6006C18.2099 11.8287 20.0492 12.6524 21.5272 13.3143C21.863 13.4647 22.185 13.609 22.4724 13.7465C22.9372 13.7992 23.4847 13.8428 24.1031 13.8601C24.2554 13.8644 24.4154 13.8669 24.5811 13.8676V4.21875C22.1334 4.43631 19.1802 4.56344 16.0006 4.56344C14.8249 4.56344 13.6804 4.54594 12.5807 4.51306C12.0465 5.02056 11.7117 5.73831 11.7117 6.53744V11.3547C13.3401 9.84594 14.8044 8.70175 16.8724 10.6006Z" fill="#FFFBB3"/>
<path d="M24.5807 13.7781C23.6345 13.7732 22.8343 13.7054 22.215 13.6257C23.0408 14.0077 23.6567 14.3414 23.6352 14.6101C23.6165 14.8451 23.098 15.1007 22.0943 15.3699C19.5982 16.039 18.1427 16.9369 17.866 17.9734C20.3329 18.0127 22.6193 18.1287 24.5807 18.3031V13.7781Z" fill="#02C0FC"/>
<path d="M19.2461 6.14526C17.1988 6.14526 15.5116 7.68276 15.2734 9.66595C15.7708 9.78145 16.2983 10.0738 16.8722 10.6008C18.2097 11.8288 20.0491 12.6526 21.527 13.3145C21.5622 13.3302 21.5973 13.346 21.6322 13.3616C22.6131 12.6321 23.2488 11.4643 23.2488 10.1479C23.2488 7.93733 21.4568 6.14526 19.2461 6.14526Z" fill="#FEF156"/>
<path d="M21.5545 10.1477C21.5545 8.87298 20.5211 7.8396 19.2464 7.8396C17.9716 7.8396 16.9382 8.87298 16.9382 10.1477C16.9382 10.3459 16.9633 10.5383 17.0103 10.7218C17.785 11.401 18.7094 11.9538 19.6304 12.4235C20.7222 12.2406 21.5545 11.2916 21.5545 10.1477Z" fill="#FFC242"/>
<path d="M16.933 10.5345C14.8346 8.60779 13.3155 9.75304 11.7117 11.2325V15.9843C11.7117 16.7834 12.0465 17.5012 12.5807 18.0087C13.6804 17.9757 14.8249 17.9582 16.0006 17.9582C16.6642 17.9582 17.3172 17.9641 17.9585 17.9749C18.2361 16.9902 19.6333 16.1225 22.1179 15.4564C26.7574 14.2127 20.208 13.5416 16.933 10.5345Z" fill="#94DC79"/>
<path d="M0.6875 19.8354V19.9668C0.6875 20.6199 3.06469 21.2 6.74556 21.5668C7.17656 21.6097 7.55106 21.2719 7.55106 20.8387V18.1604C3.41512 18.5199 0.6875 19.1358 0.6875 19.8354Z" fill="#47CB8F"/>
<path d="M6.74556 0.955345C3.06469 1.32209 0.6875 1.90222 0.6875 2.55522V2.68666C0.6875 3.38622 3.41512 4.00209 7.551 4.36172V1.68341C7.551 1.25022 7.17656 0.912407 6.74556 0.955345Z" fill="#FEF156"/>
<path d="M4.41769 10.8C5.45006 9.15661 6.64931 8.77905 7.551 8.7883V4.23024C3.41512 3.87068 0.6875 3.25474 0.6875 2.55518V13.2576C1.69856 13.4482 3.06756 12.9492 4.41769 10.8Z" fill="#FFC242"/>
<path d="M4.41769 10.6804C3.06756 12.8296 1.69856 13.3286 0.6875 13.138V13.2576C0.6875 13.2576 2.88481 15.5439 7.41962 14.1788C7.46431 14.1654 7.50794 14.1542 7.55106 14.1441V8.66862C6.64931 8.65943 5.45006 9.03699 4.41769 10.6804Z" fill="#47CB8F"/>
<path d="M24.4492 18.1604V20.8387C24.4492 21.2719 24.8237 21.6097 25.2547 21.5668C28.9356 21.2 31.3128 20.6199 31.3128 19.9668V19.8354C31.3127 19.1359 28.5851 18.52 24.4492 18.1604Z" fill="#02C0FC"/>
<path d="M25.2547 0.955345C24.8237 0.912407 24.4492 1.25022 24.4492 1.68341V4.36172C28.5851 4.00216 31.3127 3.38622 31.3127 2.68666V2.55522C31.3128 1.90222 28.9356 1.32209 25.2547 0.955345Z" fill="#FFFBB3"/>
<path d="M24.4492 4.23024V10.5825C25.6492 10.5605 29.3163 10.6334 31.3127 12.2282V2.55518C31.3127 3.25474 28.5851 3.87068 24.4492 4.23024Z" fill="#FEF156"/>
<path d="M24.4492 10.463V13.8968C26.2647 13.9176 28.6388 13.7078 31.3127 12.8893V12.1087C29.3163 10.5139 25.6492 10.441 24.4492 10.463Z" fill="#02C0FC"/>
<path d="M31.3127 19.9668V12.7698C28.6388 13.5882 26.2647 13.798 24.4492 13.7773V18.2918C28.5851 18.6514 31.3127 19.2673 31.3127 19.9668Z" fill="#27A6FF"/>
<path d="M7.55106 18.2918V14.0247C7.50794 14.0347 7.46437 14.0459 7.41962 14.0594C2.88481 15.4244 0.6875 13.1382 0.6875 13.1382V19.9669C0.687562 19.2673 3.41519 18.6514 7.55106 18.2918Z" fill="#26B26F"/>
<path d="M21.3102 21.5996H13.6394C12.9546 22.2312 11.7133 23.737 13.0852 25.44V30.4491C13.0852 30.4491 12.4165 31.685 13.2219 32.6996C14.1229 32.8649 15.0513 32.9517 16 32.9517C19.098 32.9517 21.9805 32.0308 24.3904 30.4491V24.6798C24.3904 22.9857 23.0044 21.5996 21.3102 21.5996Z" fill="#E8F8FC"/>
<path d="M13.7024 21.5996H10.6903C8.99623 21.5996 7.61011 22.9857 7.61011 24.6798V30.4491C9.30186 31.5594 11.2267 32.3435 13.2953 32.7126C12.4739 31.6955 13.1481 30.4491 13.1481 30.4491V25.44C11.7763 23.737 13.0177 22.2312 13.7024 21.5996Z" fill="#ADE9F7"/>
<path d="M12.2237 28.4036C11.917 28.4036 11.6685 28.155 11.6685 27.8484C11.6685 27.5417 11.917 27.2932 12.2237 27.2932C12.6379 27.2932 12.9749 26.9562 12.9749 26.542C12.9749 26.1277 12.6379 25.7908 12.2237 25.7908C11.8654 25.7908 11.5554 26.0452 11.4865 26.3958C11.4275 26.6967 11.1359 26.8928 10.8348 26.8336C10.5339 26.7745 10.3379 26.4827 10.397 26.1819C10.5678 25.3119 11.336 24.6804 12.2237 24.6804C13.2502 24.6804 14.0853 25.5155 14.0853 26.542C14.0853 27.5685 13.2502 28.4036 12.2237 28.4036Z" fill="#27A6FF"/>
<path d="M12.223 31.0165C11.2993 31.0165 10.5068 30.3275 10.3793 29.4138C10.3673 29.3287 10.3613 29.2415 10.3613 29.1548C10.3613 28.8482 10.6099 28.5997 10.9165 28.5997C11.2231 28.5997 11.4717 28.8482 11.4717 29.1548C11.4717 29.1904 11.4741 29.2259 11.479 29.2603C11.5303 29.6285 11.8501 29.9061 12.2229 29.9061C12.6371 29.9061 12.9741 29.5691 12.9741 29.1548C12.9741 28.7406 12.6371 28.4036 12.2229 28.4036C11.9162 28.4036 11.6677 28.155 11.6677 27.8484C11.6677 27.5417 11.9163 27.2932 12.2229 27.2932C13.2495 27.2932 14.0845 28.1283 14.0845 29.1549C14.0846 30.1813 13.2495 31.0165 12.223 31.0165Z" fill="#27A6FF"/>
<path d="M14.5299 29.3259C14.5087 29.3259 14.4874 29.3246 14.4658 29.3222C14.1612 29.2872 13.9426 29.012 13.9776 28.7073C14.254 26.2994 15.9424 25.0183 16.0142 24.965C16.2601 24.782 16.6081 24.8331 16.7909 25.0791C16.9736 25.3246 16.9231 25.6713 16.6785 25.8547C16.6576 25.8706 15.3001 26.9233 15.0807 28.8339C15.0482 29.1171 14.8081 29.3259 14.5299 29.3259Z" fill="#02C0FC"/>
<path d="M15.9887 31.0164C14.8684 31.0164 13.957 30.1051 13.957 28.9848C13.957 27.8645 14.8684 26.9531 15.9887 26.9531C17.109 26.9531 18.0203 27.8645 18.0203 28.9848C18.0203 30.1051 17.109 31.0164 15.9887 31.0164ZM15.9887 28.0636C15.4807 28.0636 15.0674 28.4769 15.0674 28.9849C15.0674 29.4929 15.4807 29.9061 15.9887 29.9061C16.4967 29.9061 16.91 29.4929 16.91 28.9849C16.9099 28.4768 16.4967 28.0636 15.9887 28.0636Z" fill="#02C0FC"/>
<path d="M19.6078 31.0165C18.4875 31.0165 17.5762 30.1051 17.5762 28.9849V26.6237C17.5762 25.5034 18.4875 24.592 19.6078 24.592C20.728 24.592 21.6394 25.5034 21.6394 26.6237V28.9849C21.6394 30.1051 20.728 31.0165 19.6078 31.0165ZM19.6078 25.7025C19.0998 25.7025 18.6866 26.1157 18.6866 26.6237V28.9849C18.6866 29.4929 19.0998 29.906 19.6078 29.906C20.1158 29.906 20.529 29.4929 20.529 28.9849V26.6237C20.529 26.1157 20.1157 25.7025 19.6078 25.7025Z" fill="#2FD0E2"/>
<path d="M22.1838 24.0242C22.4873 23.7207 22.4873 23.2286 22.1838 22.9251C21.8803 22.6215 21.3882 22.6215 21.0847 22.925C20.7812 23.2286 20.7812 23.7207 21.0847 24.0242C21.3882 24.3277 21.8803 24.3277 22.1838 24.0242Z" fill="#3FEADD"/>
</g>
</g>
<defs>
<clipPath id="clip0_10080_20325">
<rect width="32" height="32" fill="white" transform="translate(0 0.95166)"/>
</clipPath>
<clipPath id="clip1_10080_20325">
<rect width="32" height="32" fill="white" transform="translate(0 0.95166)"/>
</clipPath>
</defs>
</svg>
