<svg width="32" height="32" viewBox="0 0 32 32" fill="none" xmlns="http://www.w3.org/2000/svg">
<g clip-path="url(#clip0_133_11153)">
<path d="M12.4201 29.9895L26.9886 26.9844C27.3702 26.5647 27.7293 26.1243 28.0628 25.6641L29.302 23.6428C30.368 21.5557 30.9695 19.1919 30.9695 16.6874C30.9695 8.23044 24.1138 1.37476 15.6569 1.37476C9.31697 1.37476 3.87709 5.22776 1.55078 10.7198L8.48328 29.9895H12.4201Z" fill="#27A6FF"/>
<path d="M1.55078 10.7199L1.57328 10.7824H8.33872C8.94803 10.7824 9.44653 10.2839 9.44653 9.6746C9.44653 9.06528 8.94803 8.56678 8.33872 8.56678H7.25322C6.70866 8.56678 6.23684 8.15347 6.20303 7.60991C6.17034 7.08035 6.53378 6.52928 7.09553 6.52928H10.2137C10.8229 6.52928 11.3214 6.03078 11.3214 5.42153C11.3214 4.81222 10.8229 4.31372 10.2136 4.31372H6.63497C4.40972 5.9391 2.63934 8.15003 1.55078 10.7199Z" fill="#02C0FC"/>
<path d="M22.0015 12.0173H19.4945C18.8827 12.0173 18.3867 12.5133 18.3867 13.1251C18.3867 13.737 18.8827 14.233 19.4945 14.233H22.0271C22.6723 14.233 23.1933 13.6739 23.1296 13.0162C23.0742 12.4445 22.576 12.0173 22.0015 12.0173Z" fill="#02C0FC"/>
<path d="M25.4099 26.9488C25.0366 27.0544 24.6529 26.9169 24.4057 26.6618C23.2592 25.4787 21.4298 25.3376 20.1208 26.2929C19.7517 26.5623 19.2469 26.5623 18.8778 26.2929C18.1821 25.7852 17.3399 25.5873 16.5312 25.6906V29.9895H23.2463C24.6478 29.1882 25.9098 28.171 26.9886 26.9844C26.4671 26.8115 25.9133 26.8064 25.4099 26.9488Z" fill="#94DC79"/>
<path d="M28.1193 23.8946L22.4744 17.8481C22.2389 17.5959 21.8434 17.5822 21.5911 17.8178C21.3387 18.0534 21.3252 18.4489 21.5607 18.7012L28.0613 25.6642C28.1269 25.5737 28.1914 25.4824 28.255 25.3905L28.1193 23.8946Z" fill="#0B1F6B"/>
<path d="M27.6871 13.519C27.5191 13.519 27.3516 13.4517 27.2284 13.3187L22.5102 8.22422C22.2756 7.97097 22.2908 7.57553 22.5441 7.34097C22.7973 7.10653 23.1928 7.12159 23.4273 7.37484L28.1455 12.4693C28.3801 12.7226 28.3649 13.118 28.1116 13.3526C27.9914 13.464 27.8391 13.519 27.6871 13.519Z" fill="#0B1F6B"/>
<path d="M28.1859 18.8998C28.0314 18.8998 27.8767 18.8428 27.7557 18.7281L22.0873 13.3474C21.8369 13.1097 21.8267 12.7141 22.0643 12.4638C22.3019 12.2134 22.6975 12.2031 22.9479 12.4408L28.6164 17.8214C28.8667 18.0591 28.877 18.4547 28.6394 18.7051C28.5165 18.8346 28.3514 18.8998 28.1859 18.8998Z" fill="#0B1F6B"/>
<path d="M21.3846 26.1842C21.2319 26.1842 21.0787 26.1285 20.9582 26.016C20.7059 25.7805 20.6924 25.3849 20.9279 25.1326L27.7286 17.8481C27.9641 17.5958 28.3597 17.5823 28.6119 17.8178C28.8642 18.0534 28.8778 18.4489 28.6422 18.7012L21.8416 25.9857C21.7186 26.1175 21.5517 26.1842 21.3846 26.1842Z" fill="#1D2E79"/>
<path d="M22.5175 13.5191C22.3655 13.5191 22.2132 13.464 22.0929 13.3526C21.8397 13.1181 21.8245 12.7226 22.059 12.4694L26.7772 7.37489C27.0118 7.12158 27.4072 7.10651 27.6605 7.34101C27.9137 7.57558 27.9289 7.97101 27.6943 8.22426L22.9762 13.3188C22.853 13.4518 22.6855 13.5191 22.5175 13.5191Z" fill="#1D2E79"/>
<path d="M22.0197 18.8996C21.8542 18.8996 21.6891 18.8344 21.5662 18.7049C21.3286 18.4545 21.3389 18.059 21.5892 17.8213L27.2577 12.4406C27.5081 12.203 27.9037 12.2133 28.1413 12.4636C28.3789 12.714 28.3687 13.1095 28.1183 13.3472L22.4499 18.7279C22.3289 18.8427 22.1742 18.8996 22.0197 18.8996Z" fill="#1D2E79"/>
<path d="M16.6544 10.0457C13.6195 10.0457 12.0657 8.28237 12.0011 8.20731C11.7758 7.94575 11.8052 7.55112 12.0667 7.32587C12.3275 7.10125 12.7204 7.12975 12.946 7.38906C13.0022 7.4525 14.2226 8.79575 16.6544 8.79575C19.0529 8.79575 20.0633 7.48487 20.1051 7.42906C20.3072 7.14919 20.6963 7.08844 20.9761 7.29056C21.256 7.49262 21.3173 7.88556 21.1152 8.16537C21.0598 8.24219 19.7218 10.0457 16.6544 10.0457Z" fill="#1D2E79"/>
<path d="M11.8809 11.6672C11.5357 11.6672 11.2559 11.3874 11.2559 11.0422V7.79956C11.2559 7.45444 11.5357 7.17456 11.8809 7.17456C12.226 7.17456 12.5059 7.45444 12.5059 7.79956V11.0422C12.5059 11.3874 12.226 11.6672 11.8809 11.6672Z" fill="#2A428B"/>
<path d="M8.56919 12.1873L8.619 12.3539C8.619 12.3539 7.86769 13.2338 8.76638 13.9804C9.66506 14.7271 8.76638 17.3673 8.76638 17.3673C8.76638 17.3673 7.92344 17.9328 8.76638 18.7758C9.60931 19.6187 8.76638 22.1626 8.76638 22.1626C8.76638 22.1626 7.86513 22.8943 8.76638 23.5711C9.66769 24.2479 8.76638 26.9579 8.76638 26.9579C8.76638 26.9579 7.1475 28.2457 8.76638 29.8646C8.86738 29.9656 8.94 30.0672 8.9875 30.169H16.6551V12.1873H8.56919Z" fill="#E8F8FC"/>
<path d="M4.31445 26.9738C5.4777 28.2556 6.85489 29.3398 8.39014 30.169H9.11345C9.06595 30.0672 8.99333 29.9656 8.89233 29.8646C7.27345 28.2457 8.89233 26.9579 8.89233 26.9579C8.89233 26.9579 9.79364 24.2479 8.89233 23.5711C7.99108 22.8943 8.89233 22.1626 8.89233 22.1626C8.89233 22.1626 9.73527 19.6188 8.89233 18.7758C8.04939 17.9328 8.89233 17.3673 8.89233 17.3673C8.89233 17.3673 9.79102 14.727 8.89233 13.9804C7.99364 13.2338 8.74495 12.3539 8.74495 12.3539L8.69514 12.1873H4.31452L4.31445 26.9738Z" fill="#ADE9F7"/>
<path d="M4.43919 12.1873H1.01631C0.579437 13.6102 0.34375 15.1213 0.34375 16.6874C0.34375 20.7139 1.89819 24.3769 4.43925 27.1102L4.43919 12.1873Z" fill="#FEF156"/>
<path d="M11.5527 13.9805H14.3567V17.3673H11.5527V13.9805Z" fill="#3F57A0"/>
<path d="M11.5527 18.7758H14.3567V22.1626H11.5527V18.7758Z" fill="#3F57A0"/>
<path d="M11.5527 23.571H14.3567V26.9579H11.5527V23.571Z" fill="#3F57A0"/>
<path d="M8.81055 13.9805H11.6145V17.3673H8.81055V13.9805Z" fill="#2A428B"/>
<path d="M8.81055 18.7759H11.6145V22.1627H8.81055V18.7759Z" fill="#2A428B"/>
<path d="M8.81055 23.571H11.6145V26.9579H8.81055V23.571Z" fill="#2A428B"/>
<path d="M8.89187 23.571H6.57706C6.39644 23.571 6.25 23.7175 6.25 23.8981V26.6308C6.25 26.8114 6.39644 26.9579 6.57706 26.9579H8.89187V23.571Z" fill="#1D2E79"/>
<path d="M8.89187 13.9803H6.57706C6.39644 13.9803 6.25 14.1268 6.25 14.3075V17.0401C6.25 17.2207 6.39644 17.3672 6.57706 17.3672H8.89187V13.9803Z" fill="#1D2E79"/>
<path d="M8.89187 18.7758H6.57706C6.39644 18.7758 6.25 18.9222 6.25 19.1028V21.8355C6.25 22.0161 6.39644 22.1626 6.57706 22.1626H8.89187V18.7758Z" fill="#1D2E79"/>
<path d="M14.7387 11.5368C14.7387 11.1685 14.9676 10.8515 15.2899 10.7197H8.41252C8.09014 10.8515 7.86133 11.1685 7.86133 11.5368C7.86133 11.9051 8.0902 12.2221 8.41252 12.3538H15.29C14.9676 12.222 14.7387 11.905 14.7387 11.5368Z" fill="#FE3D97"/>
<path d="M17.6312 11.5368C17.6312 11.0874 17.2635 10.7197 16.8142 10.7197H15.1664C14.844 10.8515 14.6152 11.1685 14.6152 11.5368C14.6152 11.9051 14.8441 12.2221 15.1664 12.3538H16.8142C17.2635 12.3538 17.6312 11.9862 17.6312 11.5368Z" fill="#FD77A6"/>
<path d="M7.92773 11.5368C7.92773 11.0874 8.29536 10.7197 8.74473 10.7197H1.5503C1.3258 11.2497 1.1313 11.7953 0.966797 12.3538H8.74473C8.29536 12.3538 7.92773 11.9862 7.92773 11.5368Z" fill="#FF0363"/>
<path d="M16.6322 13.9805H14.2363V17.3673H16.6322C16.8128 17.3673 16.9593 17.2208 16.9593 17.0402V14.3076C16.9593 14.1269 16.8128 13.9805 16.6322 13.9805Z" fill="#5071B7"/>
<path d="M16.6322 18.7758H14.2363V22.1626H16.6322C16.8128 22.1626 16.9593 22.0161 16.9593 21.8355V19.1028C16.9593 18.9222 16.8128 18.7758 16.6322 18.7758Z" fill="#5071B7"/>
<path d="M16.6322 23.571H14.2363V26.9579H16.6322C16.8128 26.9579 16.9593 26.8115 16.9593 26.6309V23.8982C16.9593 23.7175 16.8128 23.571 16.6322 23.571Z" fill="#5071B7"/>
<path d="M27.8588 7.74292C27.8277 7.39911 27.5235 7.14567 27.1799 7.17692C26.8362 7.20811 26.5827 7.51205 26.6139 7.8558L28.2105 25.4555C28.6139 24.879 28.9789 24.2735 29.3012 23.6426L27.8588 7.74292Z" fill="#2A428B"/>
<path d="M21.5833 29.9894L23.5911 7.8558C23.6223 7.51205 23.3689 7.20811 23.0251 7.17692C22.681 7.14567 22.3774 7.39911 22.3462 7.74292L20.3281 29.9894H21.5833Z" fill="#2A428B"/>
<path d="M27.1769 8.23183C26.8994 8.23183 26.646 8.04558 26.5726 7.76451L25.3759 3.17876C25.2887 2.84476 25.4888 2.50333 25.8228 2.4162C26.1569 2.32926 26.4982 2.5292 26.5853 2.86308L27.7821 7.44883C27.8693 7.78283 27.6691 8.12426 27.3352 8.21139C27.2823 8.22514 27.2292 8.23183 27.1769 8.23183Z" fill="#2A428B"/>
<path d="M23.0279 8.23185C22.9756 8.23185 22.9225 8.22523 22.8696 8.21142C22.5356 8.12423 22.3356 7.78286 22.4228 7.44885L23.6195 2.8631C23.7066 2.5291 24.048 2.32923 24.382 2.41623C24.716 2.50342 24.9161 2.84479 24.8289 3.17879L23.6322 7.76454C23.5588 8.04561 23.3055 8.23185 23.0279 8.23185Z" fill="#2A428B"/>
<path d="M25.1035 3.32425C24.7583 3.32425 24.4785 3.04437 24.4785 2.69925V0.625C24.4785 0.279813 24.7583 0 25.1035 0C25.4486 0 25.7285 0.279813 25.7285 0.625V2.69925C25.7285 3.04437 25.4486 3.32425 25.1035 3.32425Z" fill="#FFC242"/>
<path d="M25.7635 1.25H24.4434C24.0982 1.25 23.8184 0.970125 23.8184 0.625C23.8184 0.279813 24.0982 0 24.4434 0H25.7635C26.1087 0 26.3885 0.279813 26.3885 0.625C26.3885 0.970125 26.1087 1.25 25.7635 1.25Z" fill="#FEF156"/>
<path d="M17.9119 3.48886H16.996C16.9152 3.48886 16.8459 3.44005 16.8155 3.37036L16.8134 3.37549C16.7118 3.40867 16.4731 3.50755 16.3526 3.73105C16.2733 3.87805 16.2601 4.0483 16.3131 4.23805L16.289 4.25017H16.3137C16.4225 4.25017 16.5106 4.33836 16.5106 4.44711V6.8313C16.5106 7.12111 16.8952 7.22249 17.0381 6.97042L18.4695 4.44586C18.7117 4.01867 18.4031 3.48886 17.9119 3.48886Z" fill="#FEF156"/>
<path d="M16.8818 3.45171C16.8319 3.41596 16.7991 3.35784 16.7991 3.29177V0.907585C16.7991 0.617773 16.4145 0.516335 16.2716 0.76846L14.8402 3.29302C14.5979 3.72034 14.9066 4.25009 15.3977 4.25009H16.3137C16.3552 4.25009 16.3937 4.26308 16.4255 4.28508L16.4256 4.28502C16.1821 3.61715 16.8817 3.4519 16.8817 3.4519L16.8818 3.45171Z" fill="#FFC242"/>
<path d="M13.1082 8.42456H10.6543C10.3091 8.42456 10.0293 8.14469 10.0293 7.79956C10.0293 7.45444 10.3091 7.17456 10.6543 7.17456H13.1082C13.4534 7.17456 13.7332 7.45444 13.7332 7.79956C13.7332 8.14469 13.4534 8.42456 13.1082 8.42456Z" fill="#3F57A0"/>
<path d="M26.1766 7.79956C26.1766 7.45444 26.4565 7.17456 26.8016 7.17456H20.123C19.7779 7.17456 19.498 7.45444 19.498 7.79956C19.498 8.14469 19.7779 8.42456 20.123 8.42456H26.8017C26.4565 8.42456 26.1766 8.14469 26.1766 7.79956Z" fill="#3F57A0"/>
<path d="M26.4876 18.2747C26.4876 17.9295 26.7675 17.6497 27.1126 17.6497H19.1738C18.8286 17.6497 18.5488 17.9295 18.5488 18.2747C18.5488 18.6198 18.8286 18.8997 19.1738 18.8997H27.1126C26.7675 18.8997 26.4876 18.6198 26.4876 18.2747Z" fill="#3F57A0"/>
<path d="M30.7069 7.79956C30.7069 7.45444 30.427 7.17456 30.0819 7.17456H26.6777C26.3326 7.17456 26.0527 7.45444 26.0527 7.79956C26.0527 8.14469 26.3326 8.42456 26.6777 8.42456H30.0819C30.427 8.42456 30.7069 8.14469 30.7069 7.79956Z" fill="#5071B7"/>
<path d="M31.6567 18.2747C31.6567 17.9295 31.3768 17.6497 31.0317 17.6497H26.9883C26.6431 17.6497 26.3633 17.9295 26.3633 18.2747C26.3633 18.6198 26.6431 18.8997 26.9883 18.8997H31.0317C31.3769 18.8997 31.6567 18.6198 31.6567 18.2747Z" fill="#5071B7"/>
<path d="M27.2065 3.64587H22.998C22.6529 3.64587 22.373 3.366 22.373 3.02087C22.373 2.67575 22.6529 2.39587 22.998 2.39587H27.2065C27.5516 2.39587 27.8315 2.67575 27.8315 3.02087C27.8315 3.366 27.5516 3.64587 27.2065 3.64587Z" fill="#3F57A0"/>
<path d="M7.85352 29.8645C10.1386 31.2205 12.8061 32 15.656 32C18.5059 32 21.1734 31.2205 23.4585 29.8645H7.85352Z" fill="#3F57A0"/>
</g>
<defs>
<clipPath id="clip0_133_11153">
<rect width="32" height="32" fill="white"/>
</clipPath>
</defs>
</svg>
