<svg width="32" height="32" viewBox="0 0 32 32" fill="none" xmlns="http://www.w3.org/2000/svg">
<g clip-path="url(#clip0_2098_150)">
<path d="M26.5197 27.8136C29.4709 25.0223 31.3125 21.0701 31.3125 16.6874C31.3125 8.2305 24.4568 1.37482 15.9999 1.37482C7.54307 1.37482 0.687378 8.2305 0.687378 16.6874C0.687378 25.1443 7.54307 31.9999 15.9999 31.9999C16.6626 31.9999 17.3155 31.9578 17.956 31.8761L26.5197 27.8136Z" fill="#816AE2"/>
<path d="M24.8019 22.8476C24.6675 22.3538 24.6201 21.8404 24.6619 21.3303L24.9119 18.975C25.034 17.4972 24.8087 16.0166 24.1545 14.6859C22.4642 11.2476 22.852 10.9981 22.7995 7.58561C22.7995 6.88855 22.2344 6.32336 21.5372 6.32336C20.8401 6.32336 20.275 6.88849 20.275 7.58561C20.275 21.4626 20.3008 20.4443 20.2152 20.8512V22.6683C20.2152 24.1993 18.9697 25.4449 17.4387 25.4449C16.4219 25.4449 12.9153 25.4449 10.5292 25.4449C11.5907 26.9212 13.0429 28.0771 14.7281 28.777C14.7385 28.7813 14.749 28.7857 14.7594 28.7901C16.0615 29.3401 17.5153 30.4374 17.7582 31.799L17.7817 31.8962C21.2106 31.4987 24.2937 29.9691 26.648 27.6902L24.8019 22.8476Z" fill="#F9BA8F"/>
<path d="M5.84144 6.36757L5.45701 6.01138C4.86432 5.46225 3.93013 5.49788 3.38101 6.0905C2.83188 6.68319 2.86751 7.61738 3.46013 8.1665L5.84144 10.3729V6.36757Z" fill="#F9BA8F"/>
<path d="M4.24144 7.06223C3.87788 6.72535 3.72494 6.24373 3.78701 5.78479C3.63863 5.86073 3.50045 5.9616 3.38101 6.09042C2.83188 6.6831 2.86751 7.61729 3.46013 8.16642L5.84144 10.3729V8.54479L4.24144 7.06223Z" fill="#FCAD6D"/>
<path d="M24.9174 23.1492C24.3961 26.7446 21.3017 29.5067 17.5618 29.5067C16.9161 29.5067 16.2898 29.4242 15.6925 29.2695C16.6827 29.875 17.5734 30.7599 17.7588 31.799L17.7823 31.8962C21.2111 31.4987 24.2943 29.9691 26.6486 27.6902L24.9174 23.1492Z" fill="#FD995B"/>
<path d="M18.1004 25.5046H7.96075C6.76169 25.5046 5.78625 24.5291 5.78625 23.3301V2.1745C5.78625 0.975439 6.76169 -6.10352e-05 7.96075 -6.10352e-05H18.1004C19.2995 -6.10352e-05 20.2749 0.975439 20.2749 2.1745V23.3301C20.2749 24.5291 19.2994 25.5046 18.1004 25.5046Z" fill="#2A428C"/>
<path d="M7.96149 -6.10352e-05C6.76242 -6.10352e-05 5.78699 0.975439 5.78699 2.17444V23.3301C5.78699 24.5291 6.76249 25.5046 7.96149 25.5046H10.9842C10.3134 24.8203 11.0959 24.1517 11.0959 24.1517C9.99168 23.862 10.0854 22.7016 10.0854 22.7016C10.0854 22.7016 10.0854 4.96744 10.0854 3.85806C10.0854 2.74869 11.2123 2.4685 11.2123 2.4685C10.7684 2.02463 11.2123 1.55819 11.2123 1.55819V0.806627C10.8029 0.547127 10.8835 0.193814 10.9726 -6.10352e-05L7.96149 -6.10352e-05Z" fill="#142766"/>
<path d="M11.4288 1.55839H11.2116C11.0041 1.55839 10.8358 1.39014 10.8358 1.18258C10.8358 0.975013 11.0041 0.806763 11.2116 0.806763H11.4288C11.6363 0.806763 11.8046 0.975013 11.8046 1.18258C11.8046 1.39014 11.6363 1.55839 11.4288 1.55839Z" fill="#3C58A0"/>
<path d="M14.798 1.5582H12.7116C12.5041 1.5582 12.3358 1.38995 12.3358 1.18239C12.3358 0.97483 12.5041 0.80658 12.7116 0.80658H14.798C15.0056 0.80658 15.1738 0.97483 15.1738 1.18239C15.1738 1.38995 15.0056 1.5582 14.798 1.5582Z" fill="#3C58A0"/>
<path d="M18.1011 1.35284H16.5771C16.293 1.35284 16.0628 1.58316 16.0628 1.86722C16.0628 2.19791 15.7922 2.46853 15.4615 2.46853H10.6011C10.2704 2.46853 9.99977 2.19797 9.99977 1.86722C9.99977 1.58316 9.76946 1.35284 9.4854 1.35284H7.9614C7.50765 1.35284 7.13977 1.72072 7.13977 2.17447V23.3301C7.13977 23.7838 7.50765 24.1517 7.9614 24.1517H18.1011C18.5548 24.1517 18.9227 23.7838 18.9227 23.3301C18.9227 21.1539 18.9227 2.75528 18.9227 2.17447C18.9227 1.72072 18.5548 1.35284 18.1011 1.35284Z" fill="#73C3F9"/>
<path d="M11.0957 24.1517C10.9395 23.4775 11.7215 23.32 11.7215 23.32C11.7215 23.32 12.2188 18.9632 11.7215 18.4658C11.2241 17.9685 11.7215 17.4988 11.7215 17.4988C11.7215 17.4988 12.2648 13.188 11.7215 12.6446C11.1781 12.1012 11.7215 11.6775 11.7215 11.6775V6.82334C10.7482 6.20884 11.2601 5.32466 11.2601 5.32466V3.93247C10.5247 3.19703 11.2119 2.46878 11.2121 2.46853H10.601C10.2703 2.46853 9.99971 2.19797 9.99971 1.86722C9.99971 1.58316 9.7694 1.35284 9.48533 1.35284H7.9614C7.50765 1.35284 7.13977 1.72066 7.13977 2.17447V23.3302C7.13977 23.7839 7.50765 24.1518 7.9614 24.1518H11.0957V24.1517Z" fill="#4FABF7"/>
<path d="M9.97347 5.32474H16.0872C16.4716 5.32474 16.7832 5.01312 16.7832 4.62868C16.7832 4.24424 16.4716 3.93262 16.0872 3.93262H9.97347C9.58903 3.93262 9.27734 4.24424 9.27734 4.62868C9.27734 5.01318 9.58903 5.32474 9.97347 5.32474Z" fill="#E9EFFF"/>
<path d="M9.97341 3.93262H11.2592V5.3248H9.97341C9.58897 5.3248 9.27734 5.01318 9.27734 4.62874C9.27728 4.24418 9.58897 3.93262 9.97341 3.93262Z" fill="#9BD8F9"/>
<path d="M17.3231 11.6776H8.73855C8.39418 11.6776 8.11243 11.3958 8.11243 11.0514V7.44949C8.11243 7.10511 8.39418 6.82336 8.73855 6.82336H17.3231C17.6675 6.82336 17.9492 7.10511 17.9492 7.44949V11.0514C17.9492 11.3958 17.6675 11.6776 17.3231 11.6776Z" fill="#E9EFFF"/>
<path d="M17.3232 17.4988H8.73867C8.3943 17.4988 8.11255 17.2171 8.11255 16.8727V13.2708C8.11255 12.9264 8.3943 12.6447 8.73867 12.6447H17.3232C17.6676 12.6447 17.9494 12.9264 17.9494 13.2708V16.8727C17.9494 17.2171 17.6676 17.4988 17.3232 17.4988Z" fill="#E9EFFF"/>
<path d="M17.3232 23.3201H8.73867C8.3943 23.3201 8.11255 23.0384 8.11255 22.694V19.0921C8.11255 18.7477 8.3943 18.4659 8.73867 18.4659H17.3232C17.6676 18.4659 17.9494 18.7477 17.9494 19.0921V22.694C17.9494 23.0384 17.6676 23.3201 17.3232 23.3201Z" fill="#E9EFFF"/>
<path d="M17.3231 11.6776H8.73855C8.39418 11.6776 8.11243 11.3958 8.11243 11.0514V7.44949C8.11243 7.10511 8.39418 6.82336 8.73855 6.82336H17.3231C17.6675 6.82336 17.9492 7.10511 17.9492 7.44949V11.0514C17.9492 11.3958 17.6675 11.6776 17.3231 11.6776Z" fill="#E9EFFF"/>
<path d="M17.3232 17.4988H8.73867C8.3943 17.4988 8.11255 17.2171 8.11255 16.8727V13.2708C8.11255 12.9264 8.3943 12.6447 8.73867 12.6447H17.3232C17.6676 12.6447 17.9494 12.9264 17.9494 13.2708V16.8727C17.9494 17.2171 17.6676 17.4988 17.3232 17.4988Z" fill="#E9EFFF"/>
<path d="M17.3232 23.3201H8.73867C8.3943 23.3201 8.11255 23.0384 8.11255 22.694V19.0921C8.11255 18.7477 8.3943 18.4659 8.73867 18.4659H17.3232C17.6676 18.4659 17.9494 18.7477 17.9494 19.0921V22.694C17.9494 23.0384 17.6676 23.3201 17.3232 23.3201Z" fill="#E9EFFF"/>
<path d="M11.0949 11.0514V7.44949C11.0949 7.10511 11.3767 6.82336 11.7211 6.82336H8.73855C8.39418 6.82336 8.11243 7.10511 8.11243 7.44949V11.0514C8.11243 11.3957 8.39418 11.6775 8.73855 11.6775H11.7211C11.3767 11.6775 11.0949 11.3957 11.0949 11.0514Z" fill="#D3DCFB"/>
<path d="M11.0949 16.8727V13.2708C11.0949 12.9264 11.3767 12.6447 11.7211 12.6447H8.73855C8.39418 12.6447 8.11243 12.9264 8.11243 13.2708V16.8727C8.11243 17.2171 8.39418 17.4988 8.73855 17.4988H11.7211C11.3767 17.4988 11.0949 17.2171 11.0949 16.8727Z" fill="#D3DCFB"/>
<path d="M11.0949 22.6938V19.0919C11.0949 18.7475 11.3767 18.4658 11.7211 18.4658H8.73855C8.39418 18.4658 8.11243 18.7475 8.11243 19.0919V22.6938C8.11243 23.0382 8.39418 23.3199 8.73855 23.3199H11.7211C11.3767 23.3199 11.0949 23.0382 11.0949 22.6938Z" fill="#D3DCFB"/>
<path d="M12.6921 8.83655H10.1815C9.92264 8.83655 9.71277 8.62673 9.71277 8.3678C9.71277 8.10886 9.92264 7.89905 10.1815 7.89905H12.6921C12.951 7.89905 13.1608 8.10886 13.1608 8.3678C13.1608 8.62667 12.951 8.83655 12.6921 8.83655Z" fill="#3C58A0"/>
<path d="M15.8796 10.6017H10.1815C9.92264 10.6017 9.71277 10.3919 9.71277 10.1329C9.71277 9.874 9.92264 9.66418 10.1815 9.66418H15.8796C16.1385 9.66418 16.3483 9.874 16.3483 10.1329C16.3483 10.3919 16.1385 10.6017 15.8796 10.6017Z" fill="#BEC8F7"/>
<path d="M14.6509 8.83673H14.2968C14.0379 8.83673 13.828 8.62692 13.828 8.36798C13.828 8.10904 14.0379 7.89923 14.2968 7.89923H14.6509C14.9098 7.89923 15.1197 8.10904 15.1197 8.36798C15.1197 8.62686 14.9099 8.83673 14.6509 8.83673Z" fill="#BEC8F7"/>
<path d="M12.6921 14.658H10.1815C9.92264 14.658 9.71277 14.4482 9.71277 14.1893C9.71277 13.9303 9.92264 13.7205 10.1815 13.7205H12.6921C12.951 13.7205 13.1608 13.9303 13.1608 14.1893C13.1608 14.4482 12.951 14.658 12.6921 14.658Z" fill="#3C58A0"/>
<path d="M15.8796 16.4232H10.1815C9.92264 16.4232 9.71277 16.2133 9.71277 15.9544C9.71277 15.6955 9.92264 15.4857 10.1815 15.4857H15.8796C16.1385 15.4857 16.3483 15.6955 16.3483 15.9544C16.3483 16.2133 16.1385 16.4232 15.8796 16.4232Z" fill="#BEC8F7"/>
<path d="M14.6509 14.6578H14.2968C14.0379 14.6578 13.828 14.448 13.828 14.1891C13.828 13.9301 14.0379 13.7203 14.2968 13.7203H14.6509C14.9098 13.7203 15.1197 13.9301 15.1197 14.1891C15.1197 14.448 14.9099 14.6578 14.6509 14.6578Z" fill="#BEC8F7"/>
<path d="M12.6921 20.4791H10.1815C9.92264 20.4791 9.71277 20.2693 9.71277 20.0104C9.71277 19.7514 9.92264 19.5416 10.1815 19.5416H12.6921C12.951 19.5416 13.1608 19.7514 13.1608 20.0104C13.1608 20.2693 12.951 20.4791 12.6921 20.4791Z" fill="#3C58A0"/>
<path d="M15.8796 22.2443H10.1815C9.92264 22.2443 9.71277 22.0345 9.71277 21.7755C9.71277 21.5166 9.92264 21.3068 10.1815 21.3068H15.8796C16.1385 21.3068 16.3483 21.5166 16.3483 21.7755C16.3483 22.0345 16.1385 22.2443 15.8796 22.2443Z" fill="#BEC8F7"/>
<path d="M14.6509 20.4791H14.2968C14.0379 20.4791 13.828 20.2693 13.828 20.0104C13.828 19.7514 14.0379 19.5416 14.2968 19.5416H14.6509C14.9098 19.5416 15.1197 19.7514 15.1197 20.0104C15.1197 20.2693 14.9099 20.4791 14.6509 20.4791Z" fill="#BEC8F7"/>
<path d="M7.97907 14.1152C7.49588 14.6366 6.68151 14.6677 6.16007 14.1845L4.00401 12.1867C3.48257 11.7036 3.45151 10.8892 3.93469 10.3677C4.41788 9.84628 5.23226 9.81521 5.75369 10.2984L7.90976 12.2962C8.43119 12.7793 8.46226 13.5937 7.97907 14.1152Z" fill="#F9BA8F"/>
<path d="M7.04707 13.2763L4.89101 11.2786C4.53038 10.9444 4.40469 10.4519 4.52101 10.0074C4.30363 10.0702 4.09969 10.1896 3.93469 10.3677C3.45151 10.8891 3.48257 11.7036 4.00401 12.1867L6.16007 14.1844C6.68151 14.6676 7.49588 14.6366 7.97907 14.1151C8.12807 13.9543 8.22782 13.7655 8.27969 13.5673C7.86051 13.6882 7.39044 13.5945 7.04707 13.2763Z" fill="#FCAD6D"/>
<path d="M7.97907 21.1369C7.49588 21.6584 6.68151 21.6894 6.16007 21.2063L4.00401 19.2085C3.48257 18.7254 3.45151 17.9109 3.93469 17.3895C4.41788 16.8681 5.23226 16.837 5.75369 17.3202L7.90976 19.3179C8.43119 19.8011 8.46226 20.6155 7.97907 21.1369Z" fill="#F9BA8F"/>
<path d="M7.04707 20.2981L4.89101 18.3004C4.53038 17.9662 4.40469 17.4737 4.52101 17.0292C4.30363 17.092 4.09969 17.2114 3.93469 17.3895C3.45151 17.9109 3.48257 18.7254 4.00401 19.2085L6.16007 21.2062C6.68151 21.6894 7.49588 21.6584 7.97907 21.1369C8.12807 20.9761 8.22782 20.7873 8.27969 20.589C7.86051 20.71 7.39044 20.6163 7.04707 20.2981Z" fill="#FCAD6D"/>
<path d="M7.97907 17.626C7.49588 18.1475 6.68151 18.1785 6.16007 17.6953L4.00401 15.6976C3.48257 15.2145 3.45151 14.4 3.93469 13.8786C4.41788 13.3571 5.23226 13.3261 5.75369 13.8093L7.90976 15.807C8.43119 16.2901 8.46226 17.1045 7.97907 17.626Z" fill="#F9BA8F"/>
<path d="M7.04707 16.7872L4.89101 14.7895C4.53038 14.4554 4.40469 13.9629 4.52101 13.5184C4.30363 13.5811 4.09963 13.7006 3.93469 13.8786C3.45151 14.4001 3.48257 15.2144 4.00401 15.6976L6.16007 17.6954C6.68151 18.1786 7.49588 18.1475 7.97907 17.6261C8.12807 17.4652 8.22782 17.2764 8.27969 17.0782C7.86051 17.1992 7.39044 17.1054 7.04707 16.7872Z" fill="#FCAD6D"/>
<path d="M26.3789 5.43048C25.5477 6.48773 24.7976 8.00673 25.3973 9.66436C26.5223 12.7739 28.314 15.4137 27.4806 20.0105C27.1025 22.0962 28.3433 22.9705 29.8116 23.3034C30.7728 21.3008 31.3122 19.0573 31.3122 16.6875C31.3122 12.2357 29.4119 8.22842 26.3789 5.43048Z" fill="#9181F2"/>
</g>
<defs>
<clipPath id="clip0_2098_150">
<rect width="32" height="32" fill="white"/>
</clipPath>
</defs>
</svg>
