<svg width="32" height="32" viewBox="0 0 32 32" fill="none" xmlns="http://www.w3.org/2000/svg">
<g clip-path="url(#clip0_2098_216)">
<path d="M1.10074 16.75C0.487615 16.75 -0.00775962 16.2468 0.00411538 15.6338C0.00411538 15.6326 0.00417788 15.6314 0.00417788 15.6302C0.200678 6.9645 7.28699 0 16 0C20.2584 0 24.1283 1.66363 26.9952 4.37644C27.1314 4.50538 27.1501 4.71619 27.037 4.86587C25.0129 7.54587 23.8125 10.8827 23.8125 14.5C23.8125 15.2637 23.866 16.0149 23.9695 16.75H1.10074Z" fill="#5F55AF"/>
<path d="M28.2608 25.5707C28.44 25.7577 28.4535 26.0495 28.2875 26.2483C25.3199 29.8026 20.8389 32.0496 15.8349 31.9992C7.2896 31.913 0.412602 25.2086 0.0177891 16.7675C0.0053516 16.5018 -0.0006484 16.2344 -8.58998e-05 15.9654C0.0001641 15.8516 0.0016016 15.7382 0.0042266 15.625H23.8514C24.1188 19.4748 25.748 22.9495 28.2608 25.5707Z" fill="#453D83"/>
<path d="M25 17.5H16.25V3.5C16.25 2.94769 16.6977 2.5 17.25 2.5H22.2422C22.7465 2.5 23.1719 2.87556 23.2344 3.37594L25 17.5Z" fill="#86BEFB"/>
<path d="M20.625 17.5H11.875V3.5C11.875 2.94769 12.3227 2.5 12.875 2.5H17.8672C18.3715 2.5 18.7969 2.87556 18.8594 3.37594L20.625 17.5Z" fill="#9BCF1B"/>
<path d="M31.4632 11.875C31.8134 13.191 32 14.5737 32 16C32 19.8999 30.6048 23.4739 28.2862 26.25H6.875V2.875C6.875 2.32269 7.32269 1.875 7.875 1.875H12.8672C13.3715 1.875 13.7969 2.25056 13.8594 2.75094L14.0625 4.375H26.9936C27.6092 4.95738 28.1786 5.58806 28.6956 6.26113C28.731 6.30719 28.75 6.36381 28.75 6.42188V8.46575C28.75 10.0954 29.8751 11.5092 31.4632 11.875Z" fill="#FF7C48"/>
<path d="M9.4375 2.875V26.25H6.875V2.875C6.875 2.32269 7.32275 1.875 7.875 1.875H10.4375C9.88525 1.875 9.4375 2.32269 9.4375 2.875Z" fill="#F76937"/>
<path d="M31.4632 11.875H22.9468C22.7001 11.875 22.5 11.6749 22.5 11.4282V6.69681C22.5 6.45006 22.7001 6.25 22.9468 6.25H28.6871C29.9571 7.90019 30.9124 9.80512 31.4632 11.875Z" fill="#FFC5AE"/>
<path d="M24.6562 7.71875H29.6929C29.8783 8.02469 30.0538 8.33731 30.2188 8.65625H24.6562C24.3974 8.65625 24.1875 8.44638 24.1875 8.1875C24.1875 7.92862 24.3974 7.71875 24.6562 7.71875ZM24.6562 10.4062H28.0938C28.3526 10.4062 28.5625 10.1964 28.5625 9.9375C28.5625 9.67862 28.3526 9.46875 28.0938 9.46875H24.6562C24.3974 9.46875 24.1875 9.67862 24.1875 9.9375C24.1875 10.1964 24.3974 10.4062 24.6562 10.4062Z" fill="#FF956A"/>
<path d="M23.125 11.875H17.8125C17.2947 11.875 16.875 11.4552 16.875 10.9375V7.1875C16.875 6.66975 17.2947 6.25 17.8125 6.25H23.125V11.875Z" fill="#EAC23F"/>
<path d="M22.1875 9.43112C22.1641 9.57137 22.1274 9.70706 22.0789 9.83706C21.9152 9.79025 21.7346 9.85844 21.6456 10.0126C21.5567 10.1666 21.5878 10.3568 21.7099 10.4753C21.6204 10.5834 21.5209 10.6829 21.4128 10.7724C21.2944 10.6503 21.1041 10.6192 20.9501 10.7081C20.7959 10.7971 20.7278 10.9777 20.7746 11.1414C20.6446 11.1899 20.5088 11.2265 20.3686 11.25C20.3273 11.0849 20.1779 10.9627 20 10.9627C19.8221 10.9627 19.6728 11.0849 19.6314 11.25C19.4912 11.2266 19.3554 11.1899 19.2254 11.1414C19.2722 10.9777 19.2041 10.7971 19.0499 10.7081C18.8959 10.6193 18.7056 10.6503 18.5872 10.7724C18.4791 10.6829 18.3796 10.5834 18.2901 10.4753C18.4122 10.3569 18.4433 10.1666 18.3544 10.0126C18.2654 9.85844 18.0847 9.79025 17.9211 9.83706C17.8726 9.70706 17.836 9.57131 17.8125 9.43112C17.9776 9.38975 18.0998 9.24038 18.0998 9.0625C18.0998 8.88462 17.9775 8.73525 17.8125 8.69388C17.8359 8.55363 17.8726 8.41787 17.9211 8.28794C18.0847 8.33475 18.2654 8.26656 18.3544 8.11244C18.4433 7.95844 18.4122 7.76819 18.2901 7.64975C18.3796 7.54163 18.4791 7.44206 18.5872 7.35262C18.7056 7.47469 18.8959 7.50581 19.0499 7.41687C19.2041 7.32787 19.2722 7.14725 19.2254 6.98356C19.3554 6.93512 19.4912 6.8985 19.6314 6.875C19.6727 7.04006 19.8221 7.16231 20 7.16231C20.1779 7.16231 20.3272 7.04006 20.3686 6.875C20.5088 6.89844 20.6446 6.93506 20.7746 6.98356C20.7278 7.14725 20.7959 7.32787 20.9501 7.41687C21.1041 7.50575 21.2944 7.47469 21.4128 7.35262C21.5209 7.44206 21.6204 7.54163 21.7099 7.64975C21.5878 7.76813 21.5567 7.95844 21.6456 8.11244C21.7346 8.26656 21.9152 8.33475 22.0789 8.28794C22.1274 8.41794 22.164 8.55369 22.1875 8.69388C22.0224 8.73525 21.9002 8.88462 21.9002 9.0625C21.9002 9.24038 22.0224 9.38975 22.1875 9.43112ZM20 8.00681C19.4169 8.00681 18.9443 8.47944 18.9443 9.0625C18.9443 9.64556 19.4169 10.1182 20 10.1182C20.5831 10.1182 21.0557 9.64556 21.0557 9.0625C21.0557 8.47944 20.5831 8.00681 20 8.00681Z" fill="#FFF04A"/>
<path d="M22.9994 26.1493H1.50117L1.47098 22.5246C1.44173 19.0149 3.74373 15.9116 7.11092 14.9212L10.0168 14.0665C11.4745 13.6378 13.0253 13.6409 14.4813 14.0755L17.3587 14.9344C20.6642 15.9211 22.9395 18.9484 22.9682 22.3979L22.9994 26.1493Z" fill="#FFF04A"/>
<path d="M4.90848 22.5248L4.93867 26.1495H1.50117L1.47098 22.5248C1.44173 19.0151 3.74373 15.9117 7.11092 14.9213L10.0168 14.0666C10.9778 13.784 11.9792 13.6891 12.9673 13.7817C13.2979 13.8127 12.9775 14.2069 12.9775 14.2069L10.5485 14.9213C7.18123 15.9117 4.87929 19.0151 4.90848 22.5248Z" fill="#E9CC5A"/>
<path d="M8.5873 14.9722V21.2307C8.5873 21.7485 8.16755 22.1682 7.6498 22.1682H7.13611C6.61836 22.1682 6.19861 21.7485 6.19861 21.2307V14.9722C6.19861 14.4544 6.61836 14.0347 7.13611 14.0347H7.6498C8.16761 14.0347 8.5873 14.4544 8.5873 14.9722ZM12.5069 12.6134H11.9932C11.4754 12.6134 11.0557 13.0332 11.0557 13.5509V21.2307C11.0557 21.7485 11.4754 22.1682 11.9932 22.1682H12.5069C13.0246 22.1682 13.4444 21.7485 13.4444 21.2307V13.5509C13.4444 13.0332 13.0246 12.6134 12.5069 12.6134ZM17.2046 14.0347H16.6909C16.1732 14.0347 15.7534 14.4544 15.7534 14.9722V21.2307C15.7534 21.7485 16.1732 22.1682 16.6909 22.1682H17.2046C17.7224 22.1682 18.1421 21.7485 18.1421 21.2307V14.9722C18.1421 14.4544 17.7224 14.0347 17.2046 14.0347Z" fill="#EAC23F"/>
<path d="M7.86175 26.4062C7.86175 26.924 7.442 27.3438 6.92425 27.3438H1.5625C1.04475 27.3438 0.625 26.924 0.625 26.4062C0.625 25.8885 1.04475 25.4688 1.5625 25.4688H6.92425C7.442 25.4688 7.86175 25.8885 7.86175 26.4062Z" fill="#EAC23F"/>
<path d="M23.8753 26.4062C23.8753 26.924 23.4555 27.3438 22.9378 27.3438H4.67444C4.15669 27.3438 3.73694 26.924 3.73694 26.4062C3.73694 25.8885 4.15669 25.4688 4.67444 25.4688H22.9378C23.4555 25.4688 23.8753 25.8885 23.8753 26.4062Z" fill="#E9CC5A"/>
</g>
<defs>
<clipPath id="clip0_2098_216">
<rect width="32" height="32" fill="white"/>
</clipPath>
</defs>
</svg>
