<svg width="32" height="32" viewBox="0 0 32 32" fill="none" xmlns="http://www.w3.org/2000/svg">
<g clip-path="url(#clip0_2098_2136)">
<path d="M16 32C24.8366 32 32 24.8366 32 16C32 7.16344 24.8366 0 16 0C7.16344 0 0 7.16344 0 16C0 24.8366 7.16344 32 16 32Z" fill="#FF4F19"/>
<path d="M14.7412 17.3635H17.2412V25.551H14.7412V17.3635Z" fill="#132F3B"/>
<path d="M14.7412 17.3635H15.9912V25.551H14.7412V17.3635Z" fill="#0A181E"/>
<path d="M4.18786 26.8011H15.9915V24.3011H2.31055C2.85467 25.1959 3.48442 26.0328 4.18786 26.8011Z" fill="#132F3B"/>
<path d="M3.15398 25.5511H15.9915V24.3011H2.31055C2.5723 24.7315 2.85398 25.1485 3.15398 25.5511Z" fill="#0A181E"/>
<path d="M15.9912 28.051C17.3719 28.051 18.4912 26.9317 18.4912 25.551C18.4912 24.1703 17.3719 23.051 15.9912 23.051C14.6105 23.051 13.4912 24.1703 13.4912 25.551C13.4912 26.9317 14.6105 28.051 15.9912 28.051Z" fill="#FFE157"/>
<path d="M14.7412 25.551C14.7412 24.3862 15.538 23.4073 16.6162 23.1298C16.4165 23.0783 16.207 23.051 15.9912 23.051C14.6105 23.051 13.4912 24.1703 13.4912 25.551C13.4912 26.9317 14.6105 28.051 15.9912 28.051C16.207 28.051 16.4165 28.0236 16.6162 27.9723C15.538 27.6947 14.7412 26.7159 14.7412 25.551Z" fill="#FFAA4F"/>
<path d="M17.4287 19.9133H14.5537C14.2085 19.9133 13.9287 19.6335 13.9287 19.2883V17.9885C13.9287 17.6433 14.2085 17.3635 14.5537 17.3635H17.4287C17.7739 17.3635 18.0537 17.6433 18.0537 17.9885V19.2883C18.0537 19.6335 17.7739 19.9133 17.4287 19.9133Z" fill="#FFAA4F"/>
<path d="M18.2412 18.6384H13.7412C13.396 18.6384 13.1162 18.3586 13.1162 18.0134V16.7136C13.1162 16.3684 13.396 16.0886 13.7412 16.0886H18.2412C18.5864 16.0886 18.8662 16.3684 18.8662 16.7136V18.0134C18.8662 18.3586 18.5864 18.6384 18.2412 18.6384Z" fill="#FFE157"/>
<path d="M14.3662 18.0134V16.7136C14.3662 16.3684 14.646 16.0886 14.9912 16.0886H13.7412C13.396 16.0886 13.1162 16.3684 13.1162 16.7136V18.0134C13.1162 18.3586 13.396 18.6384 13.7412 18.6384H14.9912C14.646 18.6384 14.3662 18.3586 14.3662 18.0134Z" fill="#FFAA4F"/>
<path d="M31.3739 6.77179H26.9941C26.649 6.77179 26.3691 7.0516 26.3691 7.39679V13.811C26.3691 14.1562 26.649 14.436 26.9941 14.436H29.9089C30.2005 14.436 30.4533 14.2344 30.5182 13.9502L31.9832 7.53598C32.0726 7.14466 31.7752 6.77179 31.3739 6.77179Z" fill="#132F3B"/>
<path d="M28.8691 13.811V7.39679C28.8691 7.0516 29.149 6.77179 29.4941 6.77179H26.9941C26.649 6.77179 26.3691 7.0516 26.3691 7.39679V13.811C26.3691 14.1562 26.649 14.436 26.9941 14.436H29.4941C29.149 14.436 28.8691 14.1562 28.8691 13.811Z" fill="#0A181E"/>
<path d="M25.7768 15.8301H23.6768C22.9864 15.8301 22.4268 15.2705 22.4268 14.5801V8.02173C22.4268 7.33135 22.9864 6.77173 23.6768 6.77173H25.7768C26.4671 6.77173 27.0268 7.33135 27.0268 8.02173V14.5801C27.0268 15.2705 26.4671 15.8301 25.7768 15.8301Z" fill="#B7E4F8"/>
<path d="M7.29141 15.8302H5.19141C4.50103 15.8302 3.94141 15.2705 3.94141 14.5802V8.02179C3.94141 7.33141 4.50103 6.77179 5.19141 6.77179H7.29141C7.98178 6.77179 8.54141 7.33141 8.54141 8.02179V14.5802C8.54141 15.2705 7.98172 15.8302 7.29141 15.8302Z" fill="#B7E4F8"/>
<path d="M23.4765 17.3636H7.49121C6.80084 17.3636 6.24121 16.804 6.24121 16.1136V6.48853C6.24121 5.79815 6.80084 5.23853 7.49121 5.23853H23.4765C24.1668 5.23853 24.7265 5.79815 24.7265 6.48853V16.1136C24.7265 16.804 24.1668 17.3636 23.4765 17.3636Z" fill="#132F3B"/>
<path d="M8.74121 16.1136V6.48853C8.74121 5.79815 9.30084 5.23853 9.99121 5.23853H7.49121C6.80084 5.23853 6.24121 5.79815 6.24121 6.48853V16.1136C6.24121 16.804 6.80084 17.3636 7.49121 17.3636H9.99121C9.3009 17.3636 8.74121 16.804 8.74121 16.1136Z" fill="#0A181E"/>
<path d="M21.1143 12.8286H13.9934C13.1498 12.8286 12.4658 12.1446 12.4658 11.301C12.4658 10.4574 13.1498 9.77344 13.9934 9.77344H21.1143C21.9579 9.77344 22.6419 10.4574 22.6419 11.301C22.6419 12.1447 21.9579 12.8286 21.1143 12.8286Z" fill="#0A181E"/>
<path d="M8.82715 5.19928V10.051C8.82715 10.7413 9.38677 11.301 10.0771 11.301H27.1885C27.6808 11.301 28.1273 11.012 28.3289 10.5628L30.9018 4.83016C31.0875 4.41666 30.7849 3.94922 30.3316 3.94922H10.0771C9.38677 3.94928 8.82715 4.50891 8.82715 5.19928Z" fill="#DAF0FA"/>
<path d="M11.3271 10.0509V5.19922C11.3271 4.50884 11.8868 3.94922 12.5771 3.94922H10.0771C9.38677 3.94922 8.82715 4.50884 8.82715 5.19922V10.0509C8.82715 10.7413 9.38677 11.3009 10.0771 11.3009H12.5771C11.8868 11.3009 11.3271 10.7413 11.3271 10.0509Z" fill="#B7E4F8"/>
</g>
<defs>
<clipPath id="clip0_2098_2136">
<rect width="32" height="32" fill="white"/>
</clipPath>
</defs>
</svg>
