<svg width="32" height="32" viewBox="0 0 32 32" fill="none" xmlns="http://www.w3.org/2000/svg">
<g clip-path="url(#clip0_2098_115)">
<path d="M31.2974 16C31.2974 24.6426 24.2913 31.6487 15.6487 31.6487C7.00615 31.6487 0 24.6426 0 16C0 7.35745 7.00615 0.351303 15.6487 0.351303C24.2913 0.351303 31.2974 7.35745 31.2974 16Z" fill="#172A7D"/>
<path d="M9.41906 5.09833H4.42227C4.74681 4.76422 5.08616 4.44447 5.43918 4.14025H9.41913V1.64042C9.73325 1.50392 10.0527 1.37745 10.3772 1.2614V4.14025H25.8587C26.2118 4.44447 26.5511 4.76422 26.8756 5.09833H10.3771V13.7463H9.41906V5.09833ZM5.10174 11.7223V9.42555C5.10174 8.45706 4.31375 7.66906 3.34526 7.66906H2.39969C2.20303 7.98121 2.0171 8.3007 1.84241 8.62715H3.34526C3.78553 8.62715 4.14366 8.98528 4.14366 9.42555V11.7195C3.85598 11.8848 3.66219 12.1952 3.66219 12.5508C3.66219 13.0799 4.09116 13.5089 4.62028 13.5089C5.14939 13.5089 5.57836 13.0799 5.57836 12.5508C5.57836 12.1972 5.38674 11.8883 5.10174 11.7223ZM14.8333 28.9723V19.6059H13.8752V28.9724C13.5888 29.1381 13.3962 29.4476 13.3962 29.8023C13.3962 30.3314 13.8252 30.7604 14.3543 30.7604C14.8834 30.7604 15.3124 30.3314 15.3124 29.8023C15.3124 29.4476 15.1197 29.138 14.8333 28.9723ZM16.1367 3.17757C16.4913 3.17757 16.801 2.98486 16.9666 2.69852H23.8963C23.3226 2.34199 22.7241 2.02161 22.104 1.74044H16.9665C16.8008 1.4541 16.4913 1.2614 16.1366 1.2614C15.6075 1.2614 15.1786 1.69036 15.1786 2.21948C15.1786 2.7486 15.6076 3.17757 16.1367 3.17757ZM10.2817 27.4561C9.92704 27.4561 9.61745 27.6488 9.45176 27.9352H5.52758C5.92768 28.2748 6.34502 28.5946 6.7782 28.8932H9.45176C9.61745 29.1796 9.92704 29.3723 10.2817 29.3723C10.8108 29.3723 11.2397 28.9433 11.2397 28.4142C11.2397 27.8851 10.8108 27.4561 10.2817 27.4561Z" fill="#2740AF"/>
<path d="M9.44618 6.60625L7.91094 5.07102C7.66152 4.82159 7.66152 4.41716 7.91094 4.16773L9.44618 2.6325C9.6956 2.38308 10.1 2.38308 10.3495 2.6325L11.8847 4.16773C12.1341 4.41716 12.1341 4.82159 11.8847 5.07102L10.3495 6.60625C10.1 6.85567 9.69566 6.85567 9.44618 6.60625Z" fill="#05A2F9"/>
<path d="M10.2963 5.75643L9.61089 5.07102C9.36147 4.8216 9.36147 4.41716 9.61089 4.16774L10.2963 3.48232C10.5457 3.2329 10.9502 3.2329 11.1996 3.48232L11.885 4.16774C12.1344 4.41716 12.1344 4.8216 11.885 5.07102L11.1996 5.75643C10.9502 6.00585 10.5457 6.00585 10.2963 5.75643Z" fill="#63BCFA"/>
<path d="M27.4015 12.0107V13.4741C27.4015 13.6613 27.2774 13.8257 27.0974 13.8772L25.4007 14.3619C25.2873 14.3943 25.1952 14.4768 25.1501 14.5857C25.1497 14.5868 25.1492 14.588 25.1487 14.5891C25.1035 14.6981 25.1102 14.8216 25.1675 14.9247L26.0245 16.4673C26.1154 16.6309 26.0868 16.8349 25.9545 16.9672L24.9197 18.002C24.7874 18.1344 24.5833 18.1629 24.4198 18.072L22.8772 17.2151C22.774 17.1578 22.6506 17.1511 22.5416 17.1963C22.5405 17.1967 22.5393 17.1972 22.5382 17.1977C22.4293 17.2428 22.3468 17.3348 22.3144 17.4482L21.8296 19.145C21.7782 19.3249 21.6137 19.449 21.4266 19.449H19.9631C19.776 19.449 19.6115 19.3249 19.5601 19.145L19.0753 17.4482C19.0429 17.3349 18.9605 17.2428 18.8516 17.1977C18.8504 17.1972 18.8493 17.1967 18.8481 17.1963C18.7392 17.1511 18.6157 17.1578 18.5125 17.2151L16.97 18.072C16.8064 18.1629 16.6024 18.1344 16.47 18.002L15.4352 16.9672C15.3029 16.8349 15.2743 16.6309 15.3652 16.4673L16.2222 14.9247C16.2795 14.8216 16.2862 14.6981 16.241 14.5891C16.2405 14.588 16.24 14.5868 16.2396 14.5857C16.1945 14.4768 16.1025 14.3943 15.9891 14.3619L14.2923 13.8772C14.1124 13.8257 13.9883 13.6613 13.9883 13.4741V12.0107C13.9883 11.8235 14.1123 11.6591 14.2923 11.6076L15.9891 11.1229C16.1024 11.0905 16.1944 11.008 16.2396 10.8991C16.24 10.898 16.2405 10.8968 16.241 10.8957C16.2862 10.7867 16.2795 10.6632 16.2222 10.5601L15.3652 9.0175C15.2743 8.85392 15.3029 8.64991 15.4352 8.51757L16.47 7.48277C16.6024 7.35043 16.8064 7.32188 16.97 7.41277L18.5125 8.26974C18.6157 8.32704 18.7392 8.33374 18.8481 8.28852C18.8493 8.28808 18.8504 8.28756 18.8516 8.28712C18.9605 8.24202 19.0429 8.14998 19.0753 8.03661L19.5601 6.33984C19.6115 6.15992 19.776 6.03581 19.9631 6.03581H21.4266C21.6137 6.03581 21.7782 6.15985 21.8296 6.33984L22.3144 8.03661C22.3468 8.14992 22.4293 8.24196 22.5382 8.28712C22.5393 8.28756 22.5405 8.28808 22.5416 8.28852C22.6506 8.33374 22.774 8.32704 22.8772 8.26974L24.4198 7.41277C24.5833 7.32188 24.7874 7.35043 24.9197 7.48277L25.9545 8.51757C26.0868 8.64991 26.1154 8.85392 26.0245 9.0175L25.1675 10.5601C25.1102 10.6632 25.1035 10.7867 25.1487 10.8957C25.1492 10.8968 25.1497 10.898 25.1501 10.8991C25.1952 11.008 25.2873 11.0905 25.4007 11.1229L27.0974 11.6076C27.2774 11.6591 27.4015 11.8235 27.4015 12.0107Z" fill="#0280E3"/>
<path d="M27.401 12.0108V13.4742C27.401 13.6614 27.2769 13.8259 27.0969 13.8773L25.4002 14.3621C25.2868 14.3945 25.1947 14.4769 25.1497 14.5858C25.1491 14.587 25.1487 14.5881 25.1482 14.5893C25.103 14.6982 25.1097 14.8217 25.167 14.9248L26.024 16.4674C26.1149 16.6309 26.0863 16.835 25.954 16.9673L24.9192 18.0021C24.7869 18.1344 24.5828 18.163 24.4193 18.0721L22.8767 17.2151C22.7735 17.1578 22.6501 17.1511 22.5411 17.1963L22.5377 17.1977C22.4288 17.2428 22.3463 17.3349 22.3139 17.4482L21.8291 19.145C21.8114 19.2068 21.7804 19.2622 21.7396 19.308C20.5456 17.0981 19.8678 14.5683 19.8678 11.8801C19.8678 9.81405 20.2682 7.84148 20.9957 6.03581H21.4261C21.6132 6.03581 21.7777 6.15985 21.8291 6.33984L22.3139 8.03661C22.3463 8.14992 22.4288 8.24196 22.5377 8.28712C22.5388 8.28763 22.54 8.28808 22.5411 8.28852C22.6501 8.33374 22.7735 8.32704 22.8767 8.26974L24.4193 7.41277C24.5828 7.32188 24.7869 7.35043 24.9192 7.48277L25.954 8.51757C26.0863 8.64991 26.1149 8.85392 26.024 9.0175L25.167 10.5601C25.1097 10.6632 25.103 10.7867 25.1482 10.8957C25.1488 10.8968 25.1492 10.898 25.1497 10.8991C25.1947 11.008 25.2868 11.0905 25.4001 11.1229L27.0969 11.6076C27.2769 11.6592 27.401 11.8237 27.401 12.0108Z" fill="#05A2F9"/>
<path d="M23.8384 12.7425C23.8384 14.4788 22.4309 15.8862 20.6946 15.8862C18.9584 15.8862 17.5509 14.4788 17.5509 12.7425C17.5509 11.0063 18.9584 9.59879 20.6946 9.59879C22.4309 9.59879 23.8384 11.0063 23.8384 12.7425Z" fill="#E3F0FB"/>
<path d="M23 12.7425C23 14.0158 21.9678 15.0479 20.6946 15.0479C19.4213 15.0479 18.3892 14.0158 18.3892 12.7425C18.3892 11.4693 19.4213 10.4371 20.6946 10.4371C21.9678 10.4371 23 11.4693 23 12.7425Z" fill="#172A7D"/>
<path d="M19.8683 12.511C19.8683 12.721 19.6979 12.8914 19.4878 12.8914C19.2777 12.8914 19.1074 12.721 19.1074 12.511C19.1074 12.3009 19.2778 12.1305 19.4878 12.1305C19.6979 12.1305 19.8683 12.3009 19.8683 12.511ZM20.7559 12.1305C20.5458 12.1305 20.3755 12.3009 20.3755 12.511C20.3755 12.721 20.5458 12.8914 20.7559 12.8914C20.966 12.8914 21.1363 12.721 21.1363 12.511C21.1363 12.3009 20.966 12.1305 20.7559 12.1305ZM22.024 12.1305C21.8139 12.1305 21.6435 12.3009 21.6435 12.511C21.6435 12.721 21.8139 12.8914 22.024 12.8914C22.234 12.8914 22.4044 12.721 22.4044 12.511C22.4044 12.3009 22.234 12.1305 22.024 12.1305Z" fill="#0280E3"/>
<path d="M31.8599 19.3088C31.6728 19.4958 31.3695 19.4958 31.1824 19.3088L29.2631 17.3893V22.1636C29.2631 23.1321 28.4751 23.9201 27.5066 23.9201H17.287C17.0224 23.9201 16.808 23.7057 16.808 23.441C16.808 23.1764 17.0224 22.962 17.287 22.962H27.5066C27.9469 22.962 28.305 22.6039 28.305 22.1636V17.4439L26.4402 19.3088C26.253 19.4958 25.9498 19.4958 25.7627 19.3088C25.5756 19.1216 25.5756 18.8184 25.7627 18.6313L28.4726 15.9214C28.5662 15.8279 28.6888 15.7811 28.8114 15.7811C28.9339 15.7811 29.0566 15.8279 29.1501 15.9214L31.8601 18.6313C32.047 18.8184 32.047 19.1216 31.8599 19.3088Z" fill="#F02399"/>
<path d="M31.86 18.6312C32.0471 18.8184 32.0471 19.1216 31.86 19.3087C31.6728 19.4957 31.3696 19.4957 31.1825 19.3087L29.2631 17.3893V21.1416C29.2631 21.4062 29.0487 21.6207 28.7841 21.6207C28.5195 21.6207 28.3051 21.4062 28.3051 21.1416V17.4439L26.4402 19.3088C26.2531 19.4958 25.9498 19.4958 25.7627 19.3088C25.5757 19.1216 25.5757 18.8184 25.7627 18.6313L28.4727 15.9214C28.5662 15.8279 28.6889 15.7811 28.8114 15.7811C28.934 15.7811 29.0566 15.8279 29.1502 15.9214L31.86 18.6312Z" fill="#FD4FB6"/>
<path d="M15.1923 15.7765C15.1923 16.0411 14.9778 16.2555 14.7132 16.2555H4.49365C4.05338 16.2555 3.69525 16.6136 3.69525 17.0539V21.7736L5.56006 19.9087C5.74721 19.7217 6.05047 19.7217 6.23756 19.9087C6.42464 20.0959 6.42464 20.3991 6.23756 20.5862L3.52771 23.2961C3.43414 23.3896 3.3115 23.4364 3.18893 23.4364C3.06636 23.4364 2.94373 23.3896 2.85016 23.2961L0.140311 20.5863C-0.0467705 20.3991 -0.0467705 20.0959 0.140311 19.9088C0.327457 19.7218 0.630723 19.7218 0.817804 19.9088L2.73717 21.8282V17.0539C2.73717 16.0854 3.52516 15.2974 4.49365 15.2974H14.7132C14.9778 15.2974 15.1923 15.5118 15.1923 15.7765Z" fill="#0ED1B2"/>
<path d="M15.1918 15.7911C15.1839 16.0533 14.9552 16.2554 14.6929 16.2554H4.49343C4.05245 16.2554 3.69502 16.6129 3.69502 17.0539V19.1269C3.69502 19.3914 3.48054 19.6059 3.21598 19.6059C2.95142 19.6059 2.73694 19.3914 2.73694 19.1269V17.0539C2.73694 16.0838 3.52333 15.2974 4.49343 15.2974H14.713C14.9825 15.2974 15.1999 15.5198 15.1918 15.7911Z" fill="#5DE0C3"/>
<path d="M23.8966 13.4143C24.1037 13.4143 24.2715 13.5821 24.2715 13.7892V14.8808C24.2715 15.2949 23.9358 15.6306 23.5217 15.6306H7.7758C7.36171 15.6306 7.026 15.2949 7.026 14.8808V12.2896C7.026 12.0825 7.19386 11.9147 7.40093 11.9147H12.0724C12.3068 11.9147 12.5167 12.0601 12.599 12.2796L13.0245 13.4143H23.8966Z" fill="#F5C02C"/>
<path d="M7.40087 11.9146H8.15066V15.6084H7.7758C7.36171 15.6084 7.026 15.2727 7.026 14.8586V12.2895C7.02594 12.0825 7.19379 11.9146 7.40087 11.9146ZM11.4744 12.627H9.06985C8.8935 12.627 8.75049 12.7701 8.75049 12.9464V13.0685C8.75049 13.2449 8.8935 13.3879 9.06985 13.3879H11.4744C11.6508 13.3879 11.7938 13.2449 11.7938 13.0685V12.9464C11.7938 12.77 11.6508 12.627 11.4744 12.627Z" fill="#F19B0B"/>
<path d="M24.2715 16.5722H7.026V14.7827H24.2715V16.5722Z" fill="#FC9302"/>
<path d="M8.15073 16.5722H7.026V14.7827H8.15073V16.5722Z" fill="#F57E00"/>
<path d="M8.75047 15.6845C8.75047 15.8946 8.58012 16.065 8.37005 16.065C8.15997 16.065 7.98962 15.8946 7.98962 15.6845C7.98962 15.4745 8.15997 15.3041 8.37005 15.3041C8.58012 15.3041 8.75047 15.4744 8.75047 15.6845ZM9.6381 15.3041C9.42803 15.3041 9.25768 15.4745 9.25768 15.6845C9.25768 15.8946 9.42803 16.065 9.6381 16.065C9.84824 16.065 10.0185 15.8946 10.0185 15.6845C10.0185 15.4745 9.84824 15.3041 9.6381 15.3041ZM10.9062 15.3041C10.6961 15.3041 10.5257 15.4745 10.5257 15.6845C10.5257 15.8946 10.6961 16.065 10.9062 16.065C11.1162 16.065 11.2866 15.8946 11.2866 15.6845C11.2866 15.4745 11.1162 15.3041 10.9062 15.3041Z" fill="#E27500"/>
<path d="M23.7643 26.4488H7.53321C7.25307 26.4488 7.026 26.2217 7.026 25.9416V16.47H24.2715V25.9415C24.2715 26.2217 24.0444 26.4488 23.7643 26.4488Z" fill="#FFF5F5"/>
<path d="M8.15073 26.4488H7.53321C7.25307 26.4488 7.026 26.2217 7.026 25.9416V16.47H8.15073V26.4488Z" fill="#E3F0FB"/>
<path d="M15.1925 22.4473C15.1925 22.7119 14.9781 22.9263 14.7135 22.9263H9.40348C9.13892 22.9263 8.92444 22.7119 8.92444 22.4473C8.92444 22.1827 9.13892 21.9683 9.40348 21.9683H14.7135C14.9781 21.9683 15.1925 22.1827 15.1925 22.4473ZM13.0761 23.8844H9.40348C9.13892 23.8844 8.92444 24.0989 8.92444 24.3635C8.92444 24.628 9.13892 24.8425 9.40348 24.8425H13.0761C13.3407 24.8425 13.5552 24.628 13.5552 24.3635C13.5552 24.0989 13.3407 23.8844 13.0761 23.8844Z" fill="#49B4FA"/>
<path d="M22.6804 20.6909H8.30313C8.12677 20.6909 7.98376 20.5478 7.98376 20.3715V17.8822C7.98376 17.7058 8.12677 17.5628 8.30313 17.5628H22.6804C22.8567 17.5628 22.9997 17.7058 22.9997 17.8822V20.3715C22.9997 20.5479 22.8567 20.6909 22.6804 20.6909Z" fill="#0ED1B2"/>
<path d="M12.9165 19.1268C12.9165 19.3914 12.702 19.6059 12.4374 19.6059H9.40348C9.13892 19.6059 8.92444 19.3914 8.92444 19.1268C8.92444 18.8623 9.13892 18.6478 9.40348 18.6478H12.4374C12.702 18.6478 12.9165 18.8623 12.9165 19.1268ZM17.5472 18.6478H15.7907C15.5261 18.6478 15.3117 18.8623 15.3117 19.1268C15.3117 19.3914 15.5261 19.6059 15.7907 19.6059H17.5472C17.8118 19.6059 18.0262 19.3914 18.0262 19.1268C18.0262 18.8623 17.8118 18.6478 17.5472 18.6478Z" fill="#0AB59E"/>
<path d="M21.443 19.6059H19.6866C19.422 19.6059 19.2075 19.3914 19.2075 19.1269C19.2075 18.8623 19.422 18.6478 19.6866 18.6478H21.443C21.7076 18.6478 21.9221 18.8623 21.9221 19.1269C21.9221 19.3915 21.7076 19.6059 21.443 19.6059Z" fill="#01988C"/>
<path d="M22.7088 25.367C22.7088 27.335 21.1134 28.9304 19.1453 28.9304C17.1773 28.9304 15.5819 27.335 15.5819 25.367C15.5819 23.399 17.1773 21.8036 19.1453 21.8036C21.1134 21.8036 22.7088 23.399 22.7088 25.367Z" fill="#FD8F01"/>
<path d="M22.7085 25.367C22.7085 27.335 21.1131 28.9304 19.1451 28.9304C18.9731 28.9304 18.804 28.9182 18.6386 28.8947C17.7459 28.1032 17.1654 26.818 17.1654 25.367C17.1654 23.916 17.7459 22.6308 18.6386 21.8393C18.804 21.8158 18.9732 21.8036 19.1451 21.8036C21.1131 21.8036 22.7085 23.399 22.7085 25.367Z" fill="#FCB30B"/>
<path d="M23.2529 23.0663L19.336 26.9832C19.2425 27.0767 19.1199 27.1235 18.9973 27.1235C18.8747 27.1235 18.7521 27.0767 18.6586 26.9832L16.7934 25.118C16.6063 24.9309 16.6063 24.6276 16.7934 24.4405C16.9805 24.2535 17.2838 24.2535 17.4708 24.4405L18.9973 25.967L22.5755 22.3888C22.7626 22.2017 23.0659 22.2017 23.2529 22.3888C23.44 22.5758 23.44 22.8792 23.2529 23.0663Z" fill="#F5DC90"/>
<path d="M23.2529 23.0663L20.754 25.5651C20.5669 25.7522 20.2636 25.7522 20.0766 25.5651C19.8895 25.378 19.8895 25.0747 20.0766 24.8877L22.5612 22.4031C22.7467 22.2176 23.0514 22.1987 23.2424 22.3785C23.4399 22.5646 23.4434 22.8757 23.2529 23.0663Z" fill="#F7E6B0"/>
</g>
<defs>
<clipPath id="clip0_2098_115">
<rect width="32" height="32" fill="white"/>
</clipPath>
</defs>
</svg>
