<svg width="16" height="16" viewBox="0 0 16 16" fill="none" xmlns="http://www.w3.org/2000/svg">
<g clip-path="url(#clip0_10074_19464)">
<path d="M12.1665 13.9333L14.5998 11.5L13.8998 10.8L12.6665 12.0333V9.01665H11.6665V12.0333L10.4332 10.8L9.73317 11.5L12.1665 13.9333ZM9.6665 16V15H14.6665V16H9.6665ZM3.6665 13.3333C3.39984 13.3333 3.1665 13.2333 2.9665 13.0333C2.7665 12.8333 2.6665 12.6 2.6665 12.3333V2.33331C2.6665 2.06665 2.7665 1.83331 2.9665 1.63331C3.1665 1.43331 3.39984 1.33331 3.6665 1.33331H8.7665L12.6665 5.23331V8.01665H11.6665V5.66665H8.33317V2.33331H3.6665V12.3333H8.6665V13.3333H3.6665Z" fill="white"/>
</g>
<defs>
<clipPath id="clip0_10074_19464">
<rect width="16" height="16" fill="white"/>
</clipPath>
</defs>
</svg>
