<svg width="16" height="16" viewBox="0 0 16 16" fill="none" xmlns="http://www.w3.org/2000/svg">
<g clip-path="url(#clip0_2137_66)">
<path fill-rule="evenodd" clip-rule="evenodd" d="M7.49967 14.3819C7.49967 14.8454 7.81867 15.2484 8.26967 15.3549C8.72117 15.4619 9.18667 15.2439 9.39417 14.8289C10.5132 12.5909 12.3192 8.97894 13.0852 7.44694C13.2402 7.13694 13.2237 6.76894 13.0412 6.47444C12.8592 6.17944 12.5372 5.99994 12.1907 5.99994C11.3207 5.99994 9.93717 5.99994 8.99967 5.99994C8.72367 5.99994 8.49967 5.77594 8.49967 5.49994V1.61794C8.49967 1.15444 8.18067 0.751441 7.72967 0.644941C7.27817 0.537941 6.81267 0.755941 6.60517 1.17094C5.48617 3.40894 3.68017 7.02094 2.91417 8.55294C2.75917 8.86294 2.77567 9.23094 2.95817 9.52544C3.14017 9.82044 3.46217 9.99994 3.80867 9.99994H6.99967C7.27567 9.99994 7.49967 10.2239 7.49967 10.4999V14.3819Z" fill="#FAB832"/>
</g>
<defs>
<clipPath id="clip0_2137_66">
<rect width="16" height="16" fill="white"/>
</clipPath>
</defs>
</svg>
