<svg width="24" height="24" viewBox="0 0 24 24" fill="none" xmlns="http://www.w3.org/2000/svg">
<mask id="mask0_12406_3643" style="mask-type:alpha" maskUnits="userSpaceOnUse" x="0" y="0" width="24" height="24">
<rect width="24" height="24" fill="#D9D9D9"/>
</mask>
<g mask="url(#mask0_12406_3643)">
<path d="M13.0251 8.12498V4.14998C13.0251 3.88798 13.1138 3.66831 13.2911 3.49098C13.4684 3.31364 13.6881 3.22498 13.9501 3.22498H19.8501C20.1121 3.22498 20.3318 3.31364 20.5091 3.49098C20.6864 3.66831 20.7751 3.88798 20.7751 4.14998V8.12498C20.7751 8.38698 20.6864 8.60664 20.5091 8.78398C20.3318 8.96131 20.1121 9.04998 19.8501 9.04998H13.9501C13.6881 9.04998 13.4684 8.96131 13.2911 8.78398C13.1138 8.60664 13.0251 8.38698 13.0251 8.12498ZM3.2251 11.975V4.14998C3.2251 3.88798 3.31376 3.66831 3.4911 3.49098C3.66826 3.31364 3.88793 3.22498 4.1501 3.22498H10.0501C10.3123 3.22498 10.5319 3.31364 10.7091 3.49098C10.8864 3.66831 10.9751 3.88798 10.9751 4.14998V11.975C10.9751 12.2371 10.8864 12.4568 10.7091 12.634C10.5319 12.8113 10.3123 12.9 10.0501 12.9H4.1501C3.88793 12.9 3.66826 12.8113 3.4911 12.634C3.31376 12.4568 3.2251 12.2371 3.2251 11.975ZM13.0251 19.85V12.025C13.0251 11.7628 13.1138 11.5431 13.2911 11.366C13.4684 11.1886 13.6881 11.1 13.9501 11.1H19.8501C20.1121 11.1 20.3318 11.1886 20.5091 11.366C20.6864 11.5431 20.7751 11.7628 20.7751 12.025V19.85C20.7751 20.1121 20.6864 20.3318 20.5091 20.509C20.3318 20.6863 20.1121 20.775 19.8501 20.775H13.9501C13.6881 20.775 13.4684 20.6863 13.2911 20.509C13.1138 20.3318 13.0251 20.1121 13.0251 19.85ZM3.2251 19.85V15.875C3.2251 15.6128 3.31376 15.3931 3.4911 15.216C3.66826 15.0386 3.88793 14.95 4.1501 14.95H10.0501C10.3123 14.95 10.5319 15.0386 10.7091 15.216C10.8864 15.3931 10.9751 15.6128 10.9751 15.875V19.85C10.9751 20.1121 10.8864 20.3318 10.7091 20.509C10.5319 20.6863 10.3123 20.775 10.0501 20.775H4.1501C3.88793 20.775 3.66826 20.6863 3.4911 20.509C3.31376 20.3318 3.2251 20.1121 3.2251 19.85ZM5.1001 11.025H9.1001V5.09998H5.1001V11.025ZM14.9001 18.9H18.9001V12.975H14.9001V18.9ZM14.9001 7.17498H18.9001V5.09998H14.9001V7.17498ZM5.1001 18.9H9.1001V16.825H5.1001V18.9Z" fill="#FFFFFF"/>
</g>
</svg>
