<svg width="32" height="32" viewBox="0 0 32 32" fill="none" xmlns="http://www.w3.org/2000/svg">
<g clip-path="url(#clip0_4276_8979)">
<path d="M10.7303 0.888125C10.8401 0.849813 11.2096 1.399 11.3205 1.36306C11.9513 1.15856 12.5992 0.992188 13.2617 0.866625C13.4119 0.838125 13.3038 0.2255 13.4555 0.20125C14.2841 0.0688125 15.1341 0 16 0C16.8659 0 17.7159 0.0688125 18.5445 0.201188C18.6272 0.214375 18.5627 0.534687 18.6449 0.549187C19.4364 0.6885 20.2079 0.885937 20.9547 1.137C21.0109 1.15587 21.2139 0.868625 21.2698 0.888125C27.5173 3.0665 32 9.00975 32 16C32 24.8366 24.8366 32 16 32C7.16344 32 0 24.8366 0 16C0 9.00975 4.48269 3.0665 10.7303 0.888125Z" fill="#3342AE"/>
<path d="M30.2529 17.1449C30.2529 23.9398 24.7445 29.4481 17.9497 29.4481C11.1548 29.4481 5.64648 23.9398 5.64648 17.1449C5.64648 10.35 11.1548 4.84174 17.9497 4.84174C24.7445 4.84174 30.2529 10.35 30.2529 17.1449Z" fill="#3D4EC6"/>
<path d="M13.4557 0.201248L16.2169 7.10412C16.4125 7.59312 16.0524 8.125 15.5257 8.125H14.26C13.8766 8.125 13.5319 7.89162 13.3895 7.53569L10.7305 0.888123C11.6067 0.582561 12.5176 0.351123 13.4557 0.201248Z" fill="#169B62"/>
<path d="M27.5625 28.75H4.4375C3.91975 28.75 3.5 28.3303 3.5 27.8125V12.8125C3.5 12.2947 3.91975 11.875 4.4375 11.875H27.5625C28.0803 11.875 28.5 12.2947 28.5 12.8125V27.8125C28.5 28.3303 28.0803 28.75 27.5625 28.75Z" fill="#5766CE"/>
<path d="M27.5623 28.75H12.8047C12.2869 28.75 11.8672 28.3303 11.8672 27.8125V12.8125C11.8672 12.2947 12.2869 11.875 12.8047 11.875H27.5623C28.0801 11.875 28.4998 12.2947 28.4998 12.8125V27.8125C28.4998 28.3303 28.0801 28.75 27.5623 28.75Z" fill="#717ED6"/>
<path d="M26.0625 27.5H5.9375C5.41975 27.5 5 27.0803 5 26.5625V14.0625C5 13.5447 5.41975 13.125 5.9375 13.125H26.0625C26.5803 13.125 27 13.5447 27 14.0625V26.5625C27 27.0803 26.5803 27.5 26.0625 27.5Z" fill="#D3D3D8"/>
<path d="M27 14.0625V26.5625C27 27.0803 26.5803 27.5 26.0625 27.5H20.123C15.2041 24.7706 11.875 19.5241 11.875 13.5C11.875 13.3747 11.8764 13.2496 11.8793 13.125H26.0625C26.5803 13.125 27 13.5447 27 14.0625Z" fill="#ECECF1"/>
<path d="M18.4668 22.1994C18.4668 22.0268 18.6067 21.8869 18.7793 21.8869H22.8112C22.9838 21.8869 23.1237 22.0268 23.1237 22.1994C23.1237 22.372 22.9838 22.5119 22.8112 22.5119H18.7793C18.6067 22.5119 18.4668 22.372 18.4668 22.1994ZM23.4362 23.2619H18.7793C18.6067 23.2619 18.4668 23.4018 18.4668 23.5744C18.4668 23.747 18.6067 23.8869 18.7793 23.8869H23.4362C23.6088 23.8869 23.7487 23.747 23.7487 23.5744C23.7487 23.4018 23.6088 23.2619 23.4362 23.2619Z" fill="#B9B9BE"/>
<path d="M23.7505 18.4494C23.7505 18.6219 23.6106 18.7619 23.438 18.7619H17.7122C17.5396 18.7619 17.3997 18.6219 17.3997 18.4494C17.3997 18.2768 17.5396 18.1369 17.7122 18.1369H23.438C23.6106 18.1369 23.7505 18.2768 23.7505 18.4494ZM19.9764 19.5744H17.7122C17.5397 19.5744 17.3997 19.7143 17.3997 19.8869C17.3997 20.0594 17.5397 20.1994 17.7122 20.1994H19.9764C20.149 20.1994 20.2889 20.0594 20.2889 19.8869C20.2889 19.7143 20.149 19.5744 19.9764 19.5744ZM17.7122 21.8869C17.5396 21.8869 17.3997 22.0268 17.3997 22.1994C17.3997 22.3719 17.5396 22.5119 17.7122 22.5119C17.8847 22.5119 18.0247 22.3719 18.0247 22.1994C18.0247 22.0268 17.8848 21.8869 17.7122 21.8869ZM17.7122 23.2619C17.5396 23.2619 17.3997 23.4018 17.3997 23.5744C17.3997 23.7469 17.5396 23.8869 17.7122 23.8869C17.8847 23.8869 18.0247 23.7469 18.0247 23.5744C18.0247 23.4018 17.8848 23.2619 17.7122 23.2619ZM13.8327 23.9949C13.7112 24.0815 13.5504 24.0854 13.4198 24.0133C12.8105 23.6769 12.1101 23.4854 11.3649 23.4854C10.6225 23.4854 9.92455 23.6754 9.31686 24.0094C9.18173 24.0837 9.01567 24.0797 8.89023 23.99C7.81092 23.2177 7.10742 21.9536 7.10742 20.5253C7.10742 18.1521 9.04911 16.2324 11.4305 16.2683C13.6816 16.3023 15.5379 18.1171 15.6194 20.367C15.6737 21.8631 14.9557 23.1948 13.8327 23.9949Z" fill="#7CD2E3"/>
<path d="M12.7105 23.7024C12.2875 23.5616 11.8351 23.4854 11.3649 23.4854C10.6225 23.4854 9.92448 23.6754 9.3168 24.0094C9.18167 24.0837 9.01561 24.0797 8.89017 23.99C7.81086 23.2177 7.10742 21.9536 7.10742 20.5253C7.10742 18.1521 9.04911 16.2324 11.4305 16.2683C12.1609 16.2793 12.8497 16.4779 13.4499 16.8179C12.1585 17.549 11.287 18.9353 11.287 20.5253C11.287 21.7883 11.837 22.9228 12.7105 23.7024Z" fill="#60C8DD"/>
<path d="M10.1969 24.1701C10.1969 24.3971 9.9668 24.5542 9.75661 24.4684C9.44142 24.3397 9.14517 24.1743 8.87305 23.9776V22.7261C8.87305 22.124 9.36117 21.6359 9.96323 21.6359H11.287C10.6849 21.6359 10.1969 22.1241 10.1969 22.7261V24.1701Z" fill="#FCF2B6"/>
<path d="M13.8553 22.7261V23.9775C13.1547 24.4841 12.2939 24.7827 11.3634 24.7827C10.7826 24.7827 10.229 24.6664 9.72461 24.4559V22.7262C9.72461 22.124 10.2127 21.636 10.8149 21.636H12.7651C13.3672 21.6359 13.8553 22.124 13.8553 22.7261Z" fill="#FFF5F5"/>
<path d="M11.0312 24.7698V22.9348C11.0312 22.8658 11.0873 22.8098 11.1562 22.8098H11.5312C11.6002 22.8098 11.6562 22.8658 11.6562 22.9348V24.7728C11.5598 24.7793 11.4624 24.7826 11.3644 24.7826C11.2523 24.7827 11.1412 24.7783 11.0312 24.7698Z" fill="#3342AE"/>
<path d="M11.5312 22.8538H11.1562C11.0872 22.8538 11.0312 22.7978 11.0312 22.7288V22C11.0312 21.9309 11.0872 21.875 11.1562 21.875H11.5312C11.6003 21.875 11.6562 21.9309 11.6562 22V22.7288C11.6562 22.7978 11.6003 22.8538 11.5312 22.8538Z" fill="#232E7A"/>
<path d="M12.4614 21.6327L11.9046 22.4529C11.855 22.5259 11.7473 22.5259 11.6978 22.4529L11.3637 21.9609L11.0296 22.4529C10.9801 22.5259 10.8724 22.5259 10.8228 22.4529L10.2659 21.6327C10.2096 21.5497 10.2691 21.4375 10.3694 21.4375H12.3581C12.4584 21.4375 12.5178 21.5497 12.4614 21.6327Z" fill="#FCF2B6"/>
<path d="M12 18.0645V18.377C12 18.9961 11.4981 19.498 10.879 19.498H9.5625C9.49344 19.498 9.4375 19.4421 9.4375 19.373V18.4315C9.4375 17.9861 9.79856 17.625 10.244 17.625H11.5605C11.8033 17.625 12 17.8218 12 18.0645Z" fill="#954C35"/>
<path d="M11.1895 17.625H12.506C12.9514 17.625 13.3125 17.9861 13.3125 18.4315V19.373C13.3125 19.4421 13.2566 19.498 13.1875 19.498H11.871C11.2519 19.498 10.75 18.9961 10.75 18.377V18.0645C10.75 17.8218 10.9467 17.625 11.1895 17.625Z" fill="#AE583E"/>
<path d="M13.4668 19.6891V19.8449C13.4668 20.0599 13.2925 20.2343 13.0775 20.2343C13.039 20.2343 13.0019 20.2286 12.9668 20.2183C12.776 20.7218 12.3546 21.112 11.8315 21.2599V21.7917C11.8315 22.0498 11.6223 22.2589 11.3643 22.2589C11.1062 22.2589 10.897 22.0498 10.897 21.7917V21.2599C10.374 21.112 9.95253 20.7218 9.76172 20.2183C9.72666 20.2286 9.68953 20.2343 9.65109 20.2343C9.43603 20.2343 9.26172 20.0599 9.26172 19.8449V19.6891C9.26172 19.4741 9.43603 19.2998 9.65109 19.2998V18.9883C9.65109 18.0421 10.4181 17.2751 11.3643 17.2751C12.3105 17.2751 13.0775 18.0421 13.0775 18.9883V19.2998C13.2925 19.2998 13.4668 19.4741 13.4668 19.6891Z" fill="#FAA68E"/>
<path d="M13.0785 18.9883V19.6113C13.0785 20.3824 12.569 21.0345 11.8683 21.2494C11.1676 21.0345 10.6582 20.3824 10.6582 19.6113V18.9883C10.6582 18.2172 11.1676 17.565 11.8683 17.3502C12.569 17.5651 13.0785 18.2172 13.0785 18.9883Z" fill="#FFBEAA"/>
<path d="M10.9915 19.5228C10.9915 19.6406 10.896 19.7361 10.7782 19.7361H10.5649C10.4471 19.7361 10.3516 19.6406 10.3516 19.5228C10.3516 19.4049 10.4471 19.3094 10.5649 19.3094H10.7782C10.896 19.3095 10.9915 19.405 10.9915 19.5228ZM12.1646 19.3095H11.9513C11.8334 19.3095 11.7379 19.405 11.7379 19.5228C11.7379 19.6406 11.8334 19.7361 11.9513 19.7361H12.1646C12.2824 19.7361 12.3779 19.6406 12.3779 19.5228C12.3779 19.405 12.2824 19.3095 12.1646 19.3095Z" fill="#3342AE"/>
<path d="M11.6848 20.2906V20.3119C11.6848 20.4886 11.5415 20.6319 11.3649 20.6319C11.1882 20.6319 11.0449 20.4886 11.0449 20.3119V20.2906C11.0449 20.2435 11.0831 20.2053 11.1302 20.2053H11.5995C11.6466 20.2053 11.6848 20.2435 11.6848 20.2906Z" fill="#FFF5F5"/>
<path d="M11.8125 17.4395C11.8125 18.0586 11.3106 18.5605 10.6915 18.5605H9.5625C9.49344 18.5605 9.4375 18.5046 9.4375 18.4355C9.4375 17.6427 10.0802 17 10.873 17H11.373C11.6158 17 11.8125 17.1968 11.8125 17.4395Z" fill="#954C35"/>
<path d="M11.9395 17C12.6978 17 13.3125 17.6147 13.3125 18.373V18.4355C13.3125 18.5046 13.2566 18.5605 13.1875 18.5605H12.621C12.0019 18.5605 11.5 18.0586 11.5 17.4395C11.5 17.1968 11.6967 17 11.9395 17Z" fill="#AE583E"/>
<path d="M18.5625 6.5625H13.4375C12.7483 6.5625 12.1875 7.12325 12.1875 7.8125V8.4375C12.1875 9.12675 12.7483 9.6875 13.4375 9.6875H18.5625C19.2517 9.6875 19.8125 9.12675 19.8125 8.4375V7.8125C19.8125 7.12325 19.2517 6.5625 18.5625 6.5625ZM19.1875 8.4375C19.1875 8.78212 18.9071 9.0625 18.5625 9.0625H13.4375C13.0929 9.0625 12.8125 8.78212 12.8125 8.4375V7.8125C12.8125 7.46788 13.0929 7.1875 13.4375 7.1875H18.5625C18.9071 7.1875 19.1875 7.46788 19.1875 7.8125V8.4375Z" fill="#FF9100"/>
<path d="M17.25 11.25V14.375C17.25 14.7202 16.9702 15 16.625 15H15.375C15.0298 15 14.75 14.7202 14.75 14.375V11.25C14.75 10.9048 15.0298 10.625 15.375 10.625H16.625C16.9702 10.625 17.25 10.9048 17.25 11.25Z" fill="#FFA90B"/>
<path d="M17.25 9.375V11.25C17.25 11.9404 16.6904 12.5 16 12.5C15.3096 12.5 14.75 11.9404 14.75 11.25V9.375C14.75 9.02981 15.0298 8.75 15.375 8.75H16.625C16.9702 8.75 17.25 9.02981 17.25 9.375Z" fill="#FFC14F"/>
<path d="M16.625 13.75C16.625 14.0952 16.3452 14.375 16 14.375C15.6548 14.375 15.375 14.0952 15.375 13.75C15.375 13.4048 15.6548 13.125 16 13.125C16.3452 13.125 16.625 13.4048 16.625 13.75Z" fill="#DD7D00"/>
<path d="M18.1194 1.26379C18.3746 0.626038 21.0184 1.51629 20.7071 2.2946L18.6107 7.5356C18.4683 7.89154 18.1236 8.12491 17.7402 8.12491H15.375L18.1194 1.26379Z" fill="#1ED688"/>
<path d="M17.2348 3.47417L18.5439 0.201233C19.4821 0.351108 20.393 0.582608 21.2692 0.888108L19.8209 4.50867C19.5353 5.22286 18.7248 5.57017 18.0106 5.28455C17.2964 4.99886 16.9491 4.18836 17.2348 3.47417Z" fill="#7AF4AB"/>
<path d="M11.2866 15.9553C8.74098 15.9553 6.66992 18.0264 6.66992 20.5721C6.66992 23.1178 8.74098 25.1888 11.2866 25.1888C13.8322 25.1888 15.9033 23.1178 15.9033 20.5721C15.9033 18.0264 13.8322 15.9553 11.2866 15.9553ZM11.2866 24.5638C9.08555 24.5638 7.29492 22.7731 7.29492 20.5721C7.29492 18.371 9.08555 16.5803 11.2866 16.5803C13.4877 16.5803 15.2783 18.371 15.2783 20.5721C15.2783 22.7731 13.4877 24.5638 11.2866 24.5638Z" fill="#B9B9BE"/>
</g>
<defs>
<clipPath id="clip0_4276_8979">
<rect width="32" height="32" fill="white"/>
</clipPath>
</defs>
</svg>
