<svg width="24" height="24" viewBox="0 0 24 24" fill="none" xmlns="http://www.w3.org/2000/svg">
<mask id="mask0_12406_1189" style="mask-type:alpha" maskUnits="userSpaceOnUse" x="0" y="0" width="24" height="24">
<rect width="24" height="24" fill="#D9D9D9"/>
</mask>
<g mask="url(#mask0_12406_1189)">
<path d="M13.025 8.12498V4.14998C13.025 3.88798 13.1137 3.66831 13.291 3.49098C13.4683 3.31364 13.688 3.22498 13.95 3.22498H19.85C20.112 3.22498 20.3317 3.31364 20.509 3.49098C20.6863 3.66831 20.775 3.88798 20.775 4.14998V8.12498C20.775 8.38698 20.6863 8.60664 20.509 8.78398C20.3317 8.96131 20.112 9.04998 19.85 9.04998H13.95C13.688 9.04998 13.4683 8.96131 13.291 8.78398C13.1137 8.60664 13.025 8.38698 13.025 8.12498ZM3.22501 11.975V4.14998C3.22501 3.88798 3.31367 3.66831 3.49101 3.49098C3.66817 3.31364 3.88784 3.22498 4.15001 3.22498H10.05C10.3122 3.22498 10.5318 3.31364 10.709 3.49098C10.8863 3.66831 10.975 3.88798 10.975 4.14998V11.975C10.975 12.2371 10.8863 12.4568 10.709 12.634C10.5318 12.8113 10.3122 12.9 10.05 12.9H4.15001C3.88784 12.9 3.66817 12.8113 3.49101 12.634C3.31367 12.4568 3.22501 12.2371 3.22501 11.975ZM13.025 19.85V12.025C13.025 11.7628 13.1137 11.5431 13.291 11.366C13.4683 11.1886 13.688 11.1 13.95 11.1H19.85C20.112 11.1 20.3317 11.1886 20.509 11.366C20.6863 11.5431 20.775 11.7628 20.775 12.025V19.85C20.775 20.1121 20.6863 20.3318 20.509 20.509C20.3317 20.6863 20.112 20.775 19.85 20.775H13.95C13.688 20.775 13.4683 20.6863 13.291 20.509C13.1137 20.3318 13.025 20.1121 13.025 19.85ZM3.22501 19.85V15.875C3.22501 15.6128 3.31367 15.3931 3.49101 15.216C3.66817 15.0386 3.88784 14.95 4.15001 14.95H10.05C10.3122 14.95 10.5318 15.0386 10.709 15.216C10.8863 15.3931 10.975 15.6128 10.975 15.875V19.85C10.975 20.1121 10.8863 20.3318 10.709 20.509C10.5318 20.6863 10.3122 20.775 10.05 20.775H4.15001C3.88784 20.775 3.66817 20.6863 3.49101 20.509C3.31367 20.3318 3.22501 20.1121 3.22501 19.85ZM5.10001 11.025H9.10001V5.09998H5.10001V11.025ZM14.9 18.9H18.9V12.975H14.9V18.9ZM14.9 7.17498H18.9V5.09998H14.9V7.17498ZM5.10001 18.9H9.10001V16.825H5.10001V18.9Z" fill="#333333"/>
</g>
</svg>
