<svg width="20" height="20" viewBox="0 0 20 20" fill="none" xmlns="http://www.w3.org/2000/svg">
<g clip-path="url(#clip0_7821_14140)">
<path d="M2.5 6.6665V11.341C2.5 15.2026 5.85787 18.3332 10 18.3332C14.1421 18.3332 17.5 15.2026 17.5 11.341V6.6665" stroke="#0D6EFD" stroke-width="1.66667" stroke-miterlimit="10" stroke-linejoin="round"/>
<path d="M10.0003 12.4997C10.4606 12.4997 10.8337 12.1266 10.8337 11.6663C10.8337 11.2061 10.4606 10.833 10.0003 10.833C9.54009 10.833 9.16699 11.2061 9.16699 11.6663C9.16699 12.1266 9.54009 12.4997 10.0003 12.4997Z" stroke="#0D6EFD" stroke-width="1.66667" stroke-miterlimit="10" stroke-linejoin="round"/>
<path d="M10.0003 15.2063C11.8413 15.2063 13.3337 13.6677 13.3337 11.7697C13.3337 9.87166 11.8413 8.33301 10.0003 8.33301C8.15938 8.33301 6.66699 9.87166 6.66699 11.7697C6.66699 13.6677 8.15938 15.2063 10.0003 15.2063Z" stroke="#0D6EFD" stroke-width="1.66667" stroke-miterlimit="10" stroke-linejoin="round"/>
<path d="M5 7.5V9.16667" stroke="#0D6EFD" stroke-width="1.66667" stroke-miterlimit="10" stroke-linejoin="round"/>
<path d="M15 7.5V9.16667" stroke="#0D6EFD" stroke-width="1.66667" stroke-miterlimit="10" stroke-linejoin="round"/>
<path d="M1.66667 3.33333H18.3333C18.7936 3.33333 19.1667 3.70643 19.1667 4.16667C19.1667 5.54738 18.0474 6.66667 16.6667 6.66667H3.33333C1.95262 6.66667 0.833333 5.54738 0.833333 4.16667C0.833333 3.70643 1.20643 3.33333 1.66667 3.33333Z" stroke="#0D6EFD" stroke-width="1.66667"/>
</g>
<defs>
<clipPath id="clip0_7821_14140">
<rect width="20" height="20" fill="white"/>
</clipPath>
</defs>
</svg>
