<svg width="16" height="16" viewBox="0 0 16 16" fill="none" xmlns="http://www.w3.org/2000/svg">
<g clip-path="url(#clip0_2050_10450)">
<path d="M16 15.3335C16 15.7015 15.7013 16.0001 15.3333 16.0001H0.666667C0.298667 16.0001 0 15.7015 0 15.3335C0 14.2288 0.895333 13.3335 2 13.3335H14C15.1047 13.3335 16 14.2288 16 15.3335ZM14.8073 4.13546L15.8073 3.12413C16.0667 2.86213 16.064 2.44079 15.802 2.18146C15.5393 1.92213 15.118 1.92479 14.8593 2.18679L13.8593 3.19813C13.6 3.46013 13.6027 3.88146 13.8647 4.14079C13.9947 4.26879 14.164 4.33346 14.3333 4.33346C14.5053 4.33346 14.6773 4.26746 14.8073 4.13546ZM12.2587 1.97346L12.7767 0.973459C12.946 0.646792 12.818 0.244125 12.4913 0.074792C12.166 -0.0945413 11.762 0.0321254 11.5927 0.360125L11.0747 1.36013C10.9053 1.68679 11.0333 2.08946 11.36 2.25879C11.4573 2.30946 11.5627 2.33346 11.666 2.33346C11.9067 2.33346 12.14 2.20279 12.2587 1.97346ZM2.13533 4.14079C2.39733 3.88146 2.39933 3.46013 2.14067 3.19813L1.14067 2.18679C0.882667 1.92479 0.459333 1.92279 0.198 2.18146C-0.064 2.44079 -0.066 2.86213 0.192667 3.12413L1.19267 4.13546C1.32267 4.26746 1.49467 4.33346 1.66667 4.33346C1.836 4.33346 2.006 4.26879 2.13533 4.14079ZM4.64 2.25879C4.96667 2.08946 5.09467 1.68746 4.92533 1.36013L4.40733 0.360125C4.23733 0.0321254 3.834 -0.0945413 3.50867 0.074792C3.182 0.244125 3.054 0.646125 3.22333 0.973459L3.74133 1.97346C3.86 2.20279 4.09267 2.33346 4.334 2.33346C4.43733 2.33346 4.542 2.30946 4.64 2.25879ZM14 8.66679V11.3335C14 11.7021 13.702 12.0001 13.3333 12.0001H2.66667C2.298 12.0001 2 11.7021 2 11.3335V8.66679C2 5.35813 4.69133 2.66679 8 2.66679C11.3087 2.66679 14 5.35813 14 8.66679ZM8.66667 6.66679C8.66667 6.29813 8.36867 6.00013 8 6.00013C6.52933 6.00013 5.33333 7.19613 5.33333 8.66679C5.33333 9.03546 5.63133 9.33346 6 9.33346C6.36867 9.33346 6.66667 9.03546 6.66667 8.66679C6.66667 7.93146 7.26467 7.33346 8 7.33346C8.36867 7.33346 8.66667 7.03546 8.66667 6.66679Z" fill="white"/>
</g>
<defs>
<clipPath id="clip0_2050_10450">
<rect width="16" height="16" fill="white"/>
</clipPath>
</defs>
</svg>
