<svg width="48" height="49" viewBox="0 0 48 49" fill="none" xmlns="http://www.w3.org/2000/svg">
<path d="M24 48C11.0213 48 0.5 37.4787 0.5 24.5C0.5 11.5213 11.0213 1 24 1C36.9787 1 47.5 11.5213 47.5 24.5C47.5 37.4787 36.9787 48 24 48Z" fill="#004E8A"/>
<path d="M24 48C11.0213 48 0.5 37.4787 0.5 24.5C0.5 11.5213 11.0213 1 24 1C36.9787 1 47.5 11.5213 47.5 24.5C47.5 37.4787 36.9787 48 24 48Z" fill="white"/>
<path d="M24 48C11.0213 48 0.5 37.4787 0.5 24.5C0.5 11.5213 11.0213 1 24 1C36.9787 1 47.5 11.5213 47.5 24.5C47.5 37.4787 36.9787 48 24 48Z" stroke="#B9C1CB"/>
<g clip-path="url(#clip0_10271_24313)">
<path fill-rule="evenodd" clip-rule="evenodd" d="M15.6851 17.0558C15.2328 18.1478 15 19.3181 15 20.5L22.2 20.5V18.7C22.2 17.7059 23.0059 16.9 24 16.9V11.5C22.8181 11.5 21.6478 11.7328 20.5558 12.1851C19.4639 12.6374 18.4718 13.3003 17.636 14.136C16.8003 14.9718 16.1374 15.9639 15.6851 17.0558Z" fill="#5486DC" fill-opacity="0.5"/>
<path d="M24.0014 10.3946C18.495 10.3946 14.031 14.8586 14.031 20.365V28.6335C14.031 34.1399 18.495 38.6039 24.0014 38.6039C29.5077 38.6039 33.9717 34.1399 33.9717 28.6335V20.365C33.9717 14.8586 29.5077 10.3946 24.0014 10.3946ZM24.0014 21.3288C23.4761 21.3288 23.049 20.9017 23.049 20.3764V18.2295C23.049 17.7042 23.4761 17.2771 24.0014 17.2771C24.5266 17.2771 24.9537 17.7042 24.9537 18.2295V20.3764C24.9537 20.9017 24.5266 21.3288 24.0014 21.3288ZM32.3354 28.6351C32.3354 33.23 28.5963 36.9691 24.0014 36.9691C19.4065 36.9691 15.6674 33.23 15.6674 28.6351V20.3666C15.6674 16.0466 18.9712 12.4859 23.1832 12.0719V15.7733C22.1539 16.1153 21.4126 17.084 21.4126 18.2279V20.3748C21.4126 21.5186 22.1556 22.4873 23.1832 22.8293V24.482C23.1832 24.9337 23.5497 25.3002 24.0014 25.3002C24.453 25.3002 24.8196 24.9337 24.8196 24.482V22.8293C25.8488 22.4873 26.5901 21.5186 26.5901 20.3748V18.2279C26.5901 17.084 25.8472 16.1153 24.8196 15.7733V12.0719C29.0332 12.4842 32.3354 16.0466 32.3354 20.3666V28.6351Z" fill="#767676"/>
<path d="M18.2234 10.5582V8.59619" stroke="#5486DC" stroke-width="1.5" stroke-miterlimit="10" stroke-linecap="round"/>
<path d="M14.1925 14.5869H12.2305" stroke="#5486DC" stroke-width="1.5" stroke-miterlimit="10" stroke-linecap="round"/>
<path d="M14.4297 10.7938L15.8173 12.1815" stroke="#5486DC" stroke-width="1.5" stroke-miterlimit="10" stroke-linecap="round"/>
</g>
<defs>
<clipPath id="clip0_10271_24313">
<rect width="36" height="36" fill="white" transform="translate(6 6.5)"/>
</clipPath>
</defs>
</svg>
