<svg width="17" height="16" viewBox="0 0 17 16" fill="none" xmlns="http://www.w3.org/2000/svg">
<g clip-path="url(#clip0_2035_6604)">
<path fill-rule="evenodd" clip-rule="evenodd" d="M7.99967 14.3819C7.99967 14.8454 8.31867 15.2484 8.76967 15.3549C9.22117 15.4619 9.68667 15.2439 9.89417 14.8289C11.0132 12.5909 12.8192 8.97894 13.5852 7.44694C13.7402 7.13694 13.7237 6.76894 13.5412 6.47444C13.3592 6.17944 13.0372 5.99994 12.6907 5.99994C11.8207 5.99994 10.4372 5.99994 9.49967 5.99994C9.22367 5.99994 8.99967 5.77594 8.99967 5.49994V1.61794C8.99967 1.15444 8.68067 0.751441 8.22967 0.644941C7.77817 0.537941 7.31267 0.755941 7.10517 1.17094C5.98617 3.40894 4.18017 7.02094 3.41417 8.55294C3.25917 8.86294 3.27567 9.23094 3.45817 9.52544C3.64017 9.82044 3.96217 9.99994 4.30867 9.99994H7.49967C7.77567 9.99994 7.99967 10.2239 7.99967 10.4999V14.3819Z" fill="#0476CD"/>
</g>
<defs>
<clipPath id="clip0_2035_6604">
<rect width="16" height="16" fill="white" transform="translate(0.5)"/>
</clipPath>
</defs>
</svg>
