<svg width="48" height="49" viewBox="0 0 48 49" fill="none" xmlns="http://www.w3.org/2000/svg">
<path d="M24 48C11.0213 48 0.5 37.4787 0.5 24.5C0.5 11.5213 11.0213 1 24 1C36.9787 1 47.5 11.5213 47.5 24.5C47.5 37.4787 36.9787 48 24 48Z" fill="#004E8A"/>
<path d="M24 48C11.0213 48 0.5 37.4787 0.5 24.5C0.5 11.5213 11.0213 1 24 1C36.9787 1 47.5 11.5213 47.5 24.5C47.5 37.4787 36.9787 48 24 48Z" fill="white"/>
<path d="M24 48C11.0213 48 0.5 37.4787 0.5 24.5C0.5 11.5213 11.0213 1 24 1C36.9787 1 47.5 11.5213 47.5 24.5C47.5 37.4787 36.9787 48 24 48Z" stroke="#B9C1CB"/>
<g clip-path="url(#clip0_10271_24319)">
<path d="M22.0005 18.5C22.0005 17.3954 22.8959 16.5 24.0005 16.5V16.5C25.1051 16.5 26.0005 17.3954 26.0005 18.5V20.5C26.0005 21.6046 25.1051 22.5 24.0005 22.5V22.5C22.8959 22.5 22.0005 21.6046 22.0005 20.5V18.5Z" fill="#5486DC" fill-opacity="0.5"/>
<path d="M23.9977 10.3945C21.0752 10.3945 18.4472 11.6513 16.6243 13.6542L17.9513 14.636C19.2964 13.2189 21.1292 12.2731 23.1812 12.0718V15.7733C22.1519 16.1153 21.409 17.084 21.409 18.2278V20.3763C21.409 21.5202 22.1519 22.4889 23.1812 22.8309V24.4836C23.1812 24.9353 23.5461 25.3018 23.9993 25.3018C24.2252 25.3018 24.4297 25.2102 24.5786 25.0629C24.7259 24.914 24.8175 24.7094 24.8175 24.4836V22.8309C25.8452 22.4889 26.5881 21.5202 26.5881 20.3763V18.2278C26.5881 17.0856 25.8452 16.1169 24.8175 15.7733V12.0718C29.0295 12.4842 32.3333 16.0465 32.3333 20.3649V28.6351C32.3333 33.23 28.5943 36.9691 23.9977 36.9691C19.4012 36.9691 15.6637 33.23 15.6637 28.6351V25.6454C15.4166 25.7911 15.1368 25.8663 14.8455 25.8663C14.5543 25.8663 14.2761 25.7911 14.0273 25.6454V28.6351C14.0273 34.1414 18.4913 38.6054 23.9977 38.6054C26.7517 38.6054 29.2455 37.4894 31.0488 35.6845C32.8537 33.8813 33.9697 31.3891 33.9697 28.6351V20.3649C33.9697 14.8585 29.5057 10.3945 23.9977 10.3945ZM24.9517 18.2278V20.3763C24.9517 20.9016 24.5246 21.3287 23.9977 21.3287C23.4708 21.3287 23.0453 20.9016 23.0453 20.3763V18.2278C23.0453 17.7025 23.4724 17.2754 23.9977 17.2754C24.523 17.2754 24.9517 17.7025 24.9517 18.2278Z" fill="#767676"/>
<path d="M14.8474 17.4472V14.2858" stroke="#5486DC" stroke-width="1.5" stroke-miterlimit="10" stroke-linecap="round"/>
<path d="M16.3872 15.4983L14.8474 14.2858" stroke="#5486DC" stroke-width="1.5" stroke-miterlimit="10" stroke-linecap="round"/>
<path d="M14.8469 14.2858L13.3071 15.4983" stroke="#5486DC" stroke-width="1.5" stroke-miterlimit="10" stroke-linecap="round"/>
<path d="M14.8474 24.1711V21.0096" stroke="#5486DC" stroke-width="1.5" stroke-miterlimit="10" stroke-linecap="round"/>
<path d="M14.8474 24.1711L16.3872 22.9586" stroke="#5486DC" stroke-width="1.5" stroke-miterlimit="10" stroke-linecap="round"/>
<path d="M13.3071 22.9586L14.8469 24.1711" stroke="#5486DC" stroke-width="1.5" stroke-miterlimit="10" stroke-linecap="round"/>
</g>
<defs>
<clipPath id="clip0_10271_24319">
<rect width="36" height="36" fill="white" transform="translate(6 6.5)"/>
</clipPath>
</defs>
</svg>
