<svg width="257" height="257" viewBox="0 0 257 257" fill="none" xmlns="http://www.w3.org/2000/svg">
<g clip-path="url(#clip0_7785_10901)">
<path d="M0.5 0.5H256.5V47.7659H0.5V0.5Z" fill="#3F75E0"/>
<path d="M0.5 47.7659H256.5V241.282H0.5V47.7659Z" fill="#E3E7F0"/>
<path d="M175.294 31.0013H70.504C66.879 31.0013 63.9399 28.0622 63.9399 24.4371C63.9399 20.8121 66.879 17.873 70.504 17.873H175.294C178.919 17.873 181.859 20.8121 181.859 24.4371C181.859 28.0622 178.919 31.0013 175.294 31.0013Z" fill="white"/>
<path d="M226.574 31.3529C230.396 31.3529 233.493 28.2566 233.493 24.4371C233.493 20.6176 230.396 17.5212 226.574 17.5212C222.753 17.5212 219.655 20.6176 219.655 24.4371C219.655 28.2566 222.753 31.3529 226.574 31.3529Z" fill="white"/>
<path d="M203.511 31.3529C207.332 31.3529 210.43 28.2566 210.43 24.4371C210.43 20.6176 207.332 17.5212 203.511 17.5212C199.69 17.5212 196.592 20.6176 196.592 24.4371C196.592 28.2566 199.69 31.3529 203.511 31.3529Z" fill="white"/>
<path d="M40.3047 75.7229H177.341V118.906H40.3047V75.7229Z" fill="#528CFF"/>
<path d="M177.341 75.7229H216.695V118.906H177.341V75.7229Z" fill="#386DD6"/>
<path d="M159.52 217.808C157.648 217.808 155.789 217.012 154.491 215.466L141.207 199.655C138.875 196.879 139.235 192.739 142.011 190.407C144.786 188.076 148.927 188.435 151.258 191.21L164.542 207.021C168.188 211.076 164.884 217.982 159.52 217.808Z" fill="white"/>
<path d="M194.265 252.69C187.382 258.471 177.12 257.572 171.344 250.683L145.385 220.056L170.311 199.12L196.27 229.747C202.045 236.637 201.148 246.908 194.265 252.69Z" fill="#A3ACBE"/>
<path d="M155.253 116.346C175.724 140.73 172.546 177.08 148.155 197.537C123.764 217.993 87.3962 214.809 66.9261 190.425C46.4559 166.041 49.6335 129.691 74.0246 109.234C98.4157 88.7779 134.782 91.9621 155.253 116.346Z" fill="#F6BB45"/>
<path d="M132.499 145.845C132.498 145.845 132.496 145.845 132.495 145.845L89.6604 145.819C86.0353 145.817 83.0979 142.877 83.1001 139.251C83.1023 135.628 86.0408 132.691 89.6642 132.691H89.668L132.503 132.716C136.128 132.719 139.065 135.659 139.063 139.284C139.061 142.908 136.122 145.845 132.499 145.845Z" fill="white"/>
<path d="M132.515 174.081C132.514 174.081 132.512 174.081 132.511 174.081L89.6767 174.055C86.0517 174.053 83.1143 171.113 83.1165 167.488C83.1186 163.864 86.0572 160.927 89.6806 160.927H89.6844L132.519 160.952C136.145 160.955 139.081 163.895 139.079 167.52C139.077 171.144 136.139 174.081 132.515 174.081Z" fill="white"/>
</g>
<defs>
<clipPath id="clip0_7785_10901">
<rect width="256" height="256" fill="white" transform="translate(0.5 0.5)"/>
</clipPath>
</defs>
</svg>
