<svg width="24" height="24" viewBox="0 0 24 24" fill="none" xmlns="http://www.w3.org/2000/svg">
<g clip-path="url(#clip0_10206_20654)">
<path d="M18.0011 18.7843L21.8753 18.3798C22.8968 16.6633 23.4841 14.6582 23.4841 12.5158C23.4841 6.17317 18.3425 1.03149 11.9999 1.03149C5.65725 1.03149 0.515625 6.17317 0.515625 12.5158C0.515625 14.6582 1.10292 16.6631 2.12433 18.3796L2.12452 18.379L5.71988 19.0656L6.04931 22.339L6.04847 22.3395C7.78402 23.3933 9.82111 24.0001 11.9999 24.0001C14.1791 24.0001 16.2165 23.3931 17.9523 22.339L18.0011 18.7843Z" fill="#FE3D97"/>
<path d="M8.7746 0H4.76805C4.35485 0 3.95074 0.121453 3.60598 0.349219L1.66962 1.62858C1.07899 2.01881 0.723633 2.67947 0.723633 3.38737V5.89191C0.723633 6.48417 0.97282 7.04916 1.41016 7.44853L1.43801 7.47394C1.87535 7.87336 2.12454 8.4383 2.12454 9.03061V18.3789C3.0882 19.9988 4.43894 21.3611 6.04934 22.3389H6.93748C12.2566 21.042 13.0231 18.667 13.0231 18.667L8.7746 0Z" fill="#2A428B"/>
<path d="M20.2687 4.29206L17.5831 0H8.7747C8.7747 0 8.07124 0.787219 8.7747 1.49067V2.33114C8.7747 2.33114 7.95466 3.10931 8.7747 3.92934C8.7747 3.92934 8.08718 4.71394 8.7747 5.40145C9.46221 6.08897 8.59245 6.91706 8.59245 6.91706C8.59245 6.91706 7.8574 7.78313 8.52893 8.74856L8.5872 9.83897L9.46615 10.3718C9.46615 10.3718 9.0716 12.5968 10.8294 13.2062V16.4171C10.8294 16.4171 9.98791 17.3379 10.8294 18.1794C10.8294 18.1794 9.99738 19.2296 11.0404 20.0734L15.7396 20.8234L17.0626 22.3389H17.9525C19.5622 21.3614 20.912 19.9989 21.8755 18.3798V11.2898L20.2687 4.29206Z" fill="#3F57A0"/>
<path d="M22.5617 7.47398L22.5895 7.44858C23.0269 7.04916 23.2761 6.48422 23.2761 5.89195V3.38742C23.2761 2.67952 22.9208 2.01886 22.3301 1.62862L20.3938 0.349219C20.049 0.121453 19.6449 0 19.2317 0H17.5828C17.5828 0 16.8581 0.708 17.5828 1.43269V2.47753C17.5828 2.47753 16.9452 3.21952 17.655 3.92934L19.8748 11.2898C19.8748 11.2898 20.8213 12.3437 21.8752 11.2898V9.03066C21.8752 8.43839 22.1244 7.87341 22.5617 7.47398Z" fill="#5071B7"/>
<path d="M8.77462 3.92932H5.0993C4.56342 3.92932 4.125 4.36774 4.125 4.90362V17.205C4.125 17.7409 4.56342 18.1793 5.0993 18.1793H10.8293L13.5312 13.2272L8.77462 3.92932Z" fill="#1D2E79"/>
<path d="M15.5018 5.35456L13.9633 3.92932H8.7747C8.7747 3.92932 8.08718 4.71392 8.7747 5.40143C9.46221 6.08895 8.59245 6.91704 8.59245 6.91704C8.59245 6.91704 7.8574 7.7831 8.52893 8.74854L8.5872 9.83895L9.46615 10.3718C9.46615 10.3718 9.0716 12.5968 10.8294 13.2062V16.4171C10.8294 16.4171 9.98791 17.3379 10.8294 18.1794H18.9008C19.4366 18.1794 19.8751 17.7409 19.8751 17.2051V6.15143L15.5018 5.35456Z" fill="#2A428B"/>
<path d="M8.32283 1.20728H6.70845C6.3102 1.20728 5.98438 1.5331 5.98438 1.93135C5.98438 2.3296 6.3102 2.65538 6.70845 2.65538H8.32283C8.72108 2.65538 9.04691 2.32956 9.04691 1.93135C9.04691 1.5331 8.72108 1.20728 8.32283 1.20728Z" fill="#95DB76"/>
<path d="M12.8072 1.20728H11.1928C10.7946 1.20728 10.4688 1.5331 10.4688 1.93135C10.4688 2.3296 10.7946 2.65538 11.1928 2.65538H12.8072C13.2055 2.65538 13.5313 2.32956 13.5313 1.93135C13.5313 1.5331 13.2055 1.20728 12.8072 1.20728Z" fill="#FEF156"/>
<path d="M17.2916 1.20728H15.6772C15.279 1.20728 14.9531 1.5331 14.9531 1.93135C14.9531 2.3296 15.279 2.65538 15.6772 2.65538H17.2916C17.6898 2.65538 18.0157 2.32956 18.0157 1.93135C18.0156 1.5331 17.6898 1.20728 17.2916 1.20728Z" fill="#FD77A6"/>
<path d="M14.1157 11.1124C13.7727 10.9144 13.3341 11.0319 13.136 11.3749L11.6665 13.9202C11.4685 14.2632 11.586 14.7019 11.929 14.8999C12.2721 15.0979 12.7107 14.9804 12.9088 14.6374L14.3782 12.0921C14.5763 11.7491 14.4588 11.3105 14.1157 11.1124Z" fill="#E8F8FC"/>
<path d="M13.5291 16.2925C14.3753 15.4463 14.3753 14.0744 13.5291 13.2282C12.6829 12.382 11.311 12.382 10.4648 13.2282C9.61859 14.0744 9.61859 15.4463 10.4648 16.2925C11.311 17.1387 12.6829 17.1387 13.5291 16.2925Z" fill="#02C0FC"/>
<path d="M13.0028 14.7606C13.0028 14.4348 12.7362 14.1682 12.4104 14.1682H11.5895C11.2636 14.1682 10.9971 14.4348 10.9971 14.7606C10.9971 15.0864 11.2636 15.353 11.5895 15.353H12.4104C12.7362 15.353 13.0028 15.0864 13.0028 14.7606Z" fill="#6AD9FB"/>
<path d="M9.27036 5.23267H6.54688C6.2375 5.23267 5.98438 5.48579 5.98438 5.79517V6.60151C5.98438 6.91088 6.2375 7.16401 6.54688 7.16401H9.27036C9.57973 7.16401 9.83286 6.91088 9.83286 6.60151V5.79517C9.83286 5.48579 9.57973 5.23267 9.27036 5.23267Z" fill="#3F57A0"/>
<path d="M7.20889 11.2898H5.98883C5.45478 12.2114 5.12609 13.2662 5.06684 14.3914C5.05761 14.5664 5.19631 14.7139 5.37158 14.7139H6.6388C6.79869 14.7139 6.93242 14.5904 6.94273 14.4308C6.9943 13.6321 7.2319 12.8833 7.61225 12.2271L7.20889 11.2898Z" fill="#02C0FC"/>
<path d="M8.529 8.74854C7.47647 9.35861 6.59827 10.2371 5.98828 11.2898L7.61166 12.227C8.05692 11.4587 8.69789 10.8172 9.46617 10.3718L9.69272 9.02257L8.529 8.74854Z" fill="#95DB76"/>
<path d="M12.0004 7.81665C10.7368 7.81665 9.55108 8.15617 8.5293 8.74843L9.46647 10.3717C10.2123 9.93929 11.078 9.6916 12.0004 9.6916L12.7516 8.74838L12.0004 7.81665Z" fill="#FEF156"/>
<path d="M15.4711 8.74843C14.4494 8.15617 13.2637 7.81665 12 7.81665V9.69165C12.9225 9.69165 13.7881 9.93934 14.5339 10.3717L15.7395 9.91309L15.4711 8.74843Z" fill="#FFC242"/>
<path d="M15.4704 8.74854L14.5332 10.3718C15.3015 10.8171 15.9425 11.4586 16.3877 12.227L17.5551 12.3272L18.0111 11.2898C17.4011 10.2372 16.5229 9.35866 15.4704 8.74854Z" fill="#FD77A6"/>
<path d="M18.934 14.3914C18.8748 13.2662 18.5461 12.2114 18.012 11.2898L16.3887 12.2271C16.769 12.8833 17.0066 13.6321 17.0582 14.4308C17.0685 14.5904 17.2022 14.7139 17.3621 14.7139H18.6293C18.8046 14.7139 18.9433 14.5664 18.934 14.3914Z" fill="#FE3D97"/>
<path d="M15.7943 3.92932H13.9629L14.6508 5.56174C14.8014 5.91907 15.1514 6.15143 15.5392 6.15143H16.7307L17.0399 4.82332L15.7943 3.92932Z" fill="#27A6FF"/>
<path d="M17.6555 3.92932H15.7949L16.7313 6.15138H18.5919L18.9345 4.93263L17.6555 3.92932Z" fill="#02C0FC"/>
<path d="M18.9007 3.92932H17.6553L18.5916 6.15143H19.875V4.90362C19.875 4.36774 19.4366 3.92932 18.9007 3.92932Z" fill="#6AD9FB"/>
<path d="M11.0403 20.0732H8.03958C7.43344 20.0732 6.9375 20.5692 6.9375 21.1753V22.3389H11.1962L11.8957 21.3155L11.0403 20.0732Z" fill="#ADE9F7"/>
<path d="M15.9605 20.0732H11.0403C11.0403 20.0732 10.2087 21.4597 11.1963 22.3389H17.0625V21.1753C17.0625 20.5692 16.5666 20.0732 15.9605 20.0732Z" fill="#E8F8FC"/>
</g>
<defs>
<clipPath id="clip0_10206_20654">
<rect width="24" height="24" fill="white"/>
</clipPath>
</defs>
</svg>
