<svg width="24" height="24" viewBox="0 0 24 24" fill="none" xmlns="http://www.w3.org/2000/svg">
<g clip-path="url(#clip0_10205_19775)">
<path d="M16.9219 24H7.08047C3.17625 24 0 20.8237 0 16.9219L0 7.08047C0 3.17625 3.17625 0 7.08047 0L16.9219 0C20.8237 0 24 3.17625 24 7.08047V16.9219C24 20.8237 20.8237 24 16.9219 24ZM7.08047 1.93875C5.7173 1.94036 4.41042 2.4826 3.44651 3.44651C2.4826 4.41042 1.94036 5.7173 1.93875 7.08047V16.9219C1.94098 18.2846 2.48349 19.5909 3.44733 20.5543C4.41118 21.5177 5.7177 22.0596 7.08047 22.0613H16.9219C18.2842 22.059 19.5902 21.5168 20.5535 20.5535C21.5168 19.5902 22.059 18.2842 22.0613 16.9219V7.08047C22.0596 5.7177 21.5177 4.41118 20.5543 3.44733C19.5909 2.48349 18.2846 1.94098 16.9219 1.93875H7.08047Z" fill="white"/>
<path d="M17.5022 6.49266C16.4148 5.40522 15.0295 4.66439 13.5213 4.36372C12.0131 4.06306 10.4496 4.21605 9.0283 4.80337C7.60699 5.39069 6.39159 6.386 5.53558 7.66362C4.67957 8.94123 4.22134 10.4439 4.21875 11.9817C4.22438 12.2405 4.33113 12.4868 4.51614 12.6678C4.70114 12.8488 4.94968 12.9502 5.20852 12.9502C5.46735 12.9502 5.71589 12.8488 5.90089 12.6678C6.0859 12.4868 6.19265 12.2405 6.19828 11.9817C6.19828 8.79001 8.80078 6.1936 12 6.1936C15.1992 6.1936 17.8017 8.79001 17.8017 11.9817C17.8074 12.2405 17.9141 12.4868 18.0991 12.6678C18.2841 12.8488 18.5327 12.9502 18.7915 12.9502C19.0503 12.9502 19.2989 12.8488 19.4839 12.6678C19.6689 12.4868 19.7756 12.2405 19.7812 11.9817C19.7838 10.9614 19.5837 9.95083 19.1924 9.00854C18.8012 8.06625 18.2267 7.21107 17.5022 6.49266Z" fill="white"/>
<path d="M15.7027 9.45048C15.4681 9.33294 15.1965 9.31326 14.9474 9.39579C14.6983 9.47831 14.4922 9.65628 14.3742 9.89064L12.3745 13.8619C11.8345 13.7945 11.2862 13.8768 10.7898 14.0998C10.2933 14.3228 9.86768 14.678 9.55939 15.1266C9.25111 15.5751 9.07203 16.0997 9.04172 16.6432C9.01141 17.1866 9.13103 17.7279 9.38751 18.2079C9.64399 18.688 10.0275 19.0883 10.4961 19.3652C10.9646 19.642 11.5003 19.7848 12.0445 19.7778C12.5888 19.7709 13.1206 19.6145 13.582 19.3258C14.0433 19.037 14.4165 18.6271 14.6606 18.1406C14.9368 17.591 15.0355 16.9692 14.9432 16.361C14.8508 15.7528 14.5719 15.1884 14.145 14.7455L16.1433 10.7747C16.2016 10.6589 16.2365 10.5327 16.2459 10.4033C16.2554 10.274 16.2391 10.1441 16.1982 10.021C16.1573 9.89796 16.0924 9.78421 16.0074 9.6863C15.9223 9.58839 15.8188 9.50825 15.7027 9.45048ZM12.8902 17.2556C12.7868 17.4615 12.6153 17.6252 12.4048 17.7187C12.1943 17.8123 11.9579 17.83 11.7358 17.7688C11.5137 17.7075 11.3198 17.5712 11.1869 17.383C11.0541 17.1948 10.9906 16.9664 11.0074 16.7366C11.0241 16.5069 11.12 16.2901 11.2786 16.1231C11.4373 15.9561 11.649 15.8493 11.8776 15.8209C12.1062 15.7925 12.3375 15.8442 12.5323 15.9673C12.727 16.0904 12.873 16.2771 12.9455 16.4958C12.9869 16.6198 13.0033 16.7508 12.9938 16.8812C12.9843 17.0117 12.9491 17.1389 12.8902 17.2556Z" fill="white"/>
</g>
<defs>
<clipPath id="clip0_10205_19775">
<rect width="24" height="24" fill="white"/>
</clipPath>
</defs>
</svg>
