<svg width="32" height="32" viewBox="0 0 32 32" fill="none" xmlns="http://www.w3.org/2000/svg">
<g clip-path="url(#clip0_4286_7923)">
<path d="M24.4002 7.61329C23.8802 7.09329 23.0402 7.09329 22.5202 7.61329L16.0002 14.12L9.48021 7.59996C8.96021 7.07996 8.12021 7.07996 7.60021 7.59996C7.08021 8.11996 7.08021 8.95996 7.60021 9.47996L14.1202 16L7.60021 22.52C7.08021 23.04 7.08021 23.88 7.60021 24.4C8.12021 24.92 8.96021 24.92 9.48021 24.4L16.0002 17.88L22.5202 24.4C23.0402 24.92 23.8802 24.92 24.4002 24.4C24.9202 23.88 24.9202 23.04 24.4002 22.52L17.8802 16L24.4002 9.47996C24.9069 8.97329 24.9069 8.11996 24.4002 7.61329Z" fill="#00345C"/>
</g>
<defs>
<clipPath id="clip0_4286_7923">
<rect width="32" height="32" fill="white"/>
</clipPath>
</defs>
</svg>
