<svg width="32" height="32" viewBox="0 0 32 32" fill="none" xmlns="http://www.w3.org/2000/svg">
<g clip-path="url(#clip0_4272_16577)">
<g clip-path="url(#clip1_4272_16577)">
<path d="M12.0359 0.503033C8.5225 1.40172 5.50282 3.39566 3.30332 6.26922C1.17075 9.05528 -0.00243371 12.5113 3.79061e-06 16.0007L1.87625 15.9994C1.87413 12.9204 2.91007 9.86978 4.79319 7.4096C6.73419 4.87378 9.3995 3.1141 12.5009 2.32078C13.6541 2.02578 14.8286 1.8786 15.9999 1.8776L17.4904 0.954846L16 0.0012207C14.6728 0.0022207 13.3423 0.168908 12.0359 0.503033Z" fill="#81E697"/>
<path d="M20.5403 2.62829C23.0685 3.48948 25.2922 5.03773 26.971 7.10554L28.4277 5.92292C26.5262 3.58079 24.008 1.82735 21.1453 0.852166C19.4774 0.284103 17.7416 -0.000209344 16 0.00110316V1.87754C17.5371 1.87629 19.0688 2.12704 20.5403 2.62829Z" fill="#5AC9F3"/>
<path d="M11.5543 29.4132C9.03877 28.5899 6.80877 27.1005 5.10546 25.1062L3.67871 26.3248C5.6059 28.5812 8.12746 30.2658 10.9706 31.1964C12.603 31.7306 14.2945 31.9987 15.9874 31.9987C15.9915 31.9987 15.9956 31.9986 15.9997 31.9986L17.2778 31.0098L15.9998 30.1222C14.5001 30.1235 13.0008 29.8866 11.5543 29.4132Z" fill="#81E697"/>
<path d="M30.1237 16.0128C30.1233 19.0897 29.0862 22.1378 27.2034 24.5956C25.2626 27.129 22.5985 28.8871 19.4991 29.6799C18.3492 29.9741 17.1745 30.1211 16 30.1221V31.9985C17.3302 31.9975 18.6614 31.8309 19.9641 31.4977C23.4752 30.5996 26.4936 28.6074 28.6929 25.7366C30.8251 22.9533 31.9996 19.5001 32 16.0131L30.1237 16.0128Z" fill="#5AC9F3"/>
<path d="M29.2634 11.0887C30.7748 11.0887 32 9.86349 32 8.35213C32 6.84077 30.7748 5.61557 29.2634 5.61557C27.7521 5.61557 26.5269 6.84077 26.5269 8.35213C26.5269 9.86349 27.7521 11.0887 29.2634 11.0887Z" fill="#403ADC"/>
<path d="M2.73656 26.5399C4.24792 26.5399 5.47312 25.3147 5.47312 23.8033C5.47312 22.2919 4.24792 21.0667 2.73656 21.0667C1.2252 21.0667 0 22.2919 0 23.8033C0 25.3147 1.2252 26.5399 2.73656 26.5399Z" fill="#399F24"/>
<path d="M6.42969 15.9997C6.42969 21.2769 10.7195 25.5701 15.9967 25.5701L18.7189 15.9997L15.9967 6.42923C10.7194 6.42923 6.42969 10.7225 6.42969 15.9997Z" fill="#FFBB00"/>
<path d="M25.5708 15.9998C25.5708 10.7226 21.274 6.42932 15.9968 6.42932V25.5703C21.2741 25.5703 25.5708 21.2769 25.5708 15.9998Z" fill="#FFAD14"/>
<path d="M14.4095 10.6749L10.4873 16.8777H14.6694L12.6356 21.5749H14.2579L15.9963 19.5569L16.9759 15.125L15.9963 10.6749H14.4095Z" fill="#FFED4D"/>
<path d="M17.7372 13.1701L19.2065 10.6749H15.9963V19.5569L21.5122 13.1701H17.7372Z" fill="#FFFCA4"/>
</g>
</g>
<defs>
<clipPath id="clip0_4272_16577">
<rect width="32" height="32" fill="white"/>
</clipPath>
<clipPath id="clip1_4272_16577">
<rect width="32" height="32" fill="white"/>
</clipPath>
</defs>
</svg>
