<svg width="24" height="24" viewBox="0 0 24 24" fill="none" xmlns="http://www.w3.org/2000/svg">
<mask id="mask0_12397_9323" style="mask-type:alpha" maskUnits="userSpaceOnUse" x="0" y="0" width="24" height="24">
<rect width="24" height="24" fill="#D9D9D9"/>
</mask>
<g mask="url(#mask0_12397_9323)">
<path d="M15.8502 5.07495V12.025L17.5127 13.675C17.6044 13.7666 17.6752 13.8708 17.7252 13.9875C17.7752 14.1041 17.8002 14.225 17.8002 14.35V14.8875C17.8002 15.1458 17.7085 15.3666 17.5252 15.55C17.3419 15.7333 17.121 15.825 16.8627 15.825H12.9377V21.5125C12.9377 21.7708 12.846 21.9916 12.6627 22.175C12.4794 22.3583 12.2585 22.45 12.0002 22.45C11.7419 22.45 11.521 22.3583 11.3377 22.175C11.1544 21.9916 11.0627 21.7708 11.0627 21.5125V15.825H7.1377C6.87936 15.825 6.65853 15.7333 6.4752 15.55C6.29186 15.3666 6.2002 15.1458 6.2002 14.8875V14.35C6.2002 14.225 6.2252 14.1041 6.2752 13.9875C6.3252 13.8708 6.39603 13.7666 6.4877 13.675L8.1502 12.025V5.07495H8.0877C7.82936 5.07495 7.60853 4.98328 7.4252 4.79995C7.24186 4.61662 7.1502 4.39578 7.1502 4.13745C7.1502 3.87912 7.24186 3.65828 7.4252 3.47495C7.60853 3.29162 7.82936 3.19995 8.0877 3.19995H15.9127C16.171 3.19995 16.3919 3.29162 16.5752 3.47495C16.7585 3.65828 16.8502 3.87912 16.8502 4.13745C16.8502 4.39578 16.7585 4.61662 16.5752 4.79995C16.3919 4.98328 16.171 5.07495 15.9127 5.07495H15.8502ZM8.8752 13.95H15.1252L13.9752 12.825V5.07495H10.0252V12.825L8.8752 13.95Z" fill="white"/>
</g>
</svg>
