<svg width="48" height="49" viewBox="0 0 48 49" fill="none" xmlns="http://www.w3.org/2000/svg">
<g clip-path="url(#clip0_2050_11272)">
<path d="M43.0336 16.6408C43.1488 16.0648 43.2 15.4888 43.2 14.9C43.2 9.6008 38.8992 5.3 33.6 5.3C32.2944 5.3 31.0144 5.5688 29.8368 6.068C27.9808 2.7144 24.3968 0.5 20.3904 0.5C14.656 0.5 9.9456 4.9928 9.6128 10.6504C3.9936 12.212 0 17.3064 0 23.3096C0 29.3384 4.0704 34.4328 9.6128 35.9944V30.8616C6.784 29.5048 4.8 26.6376 4.8 23.2968C4.8 18.996 8.0512 15.4248 12.3648 14.9896L14.8992 14.7336L14.5024 12.2248C14.4512 11.9176 14.4 11.6104 14.4 11.2904C14.4 7.988 17.088 5.2872 20.4032 5.2872C23.2704 5.2872 25.7408 7.3352 26.2912 10.1384L27.1232 14.452L30.2976 11.4184C31.1936 10.5608 32.3712 10.0872 33.6 10.0872C36.2496 10.0872 38.4 12.2376 38.4 14.8872C38.4 15.5528 38.2464 16.2184 37.9648 16.8584L36.9024 19.188L39.296 20.0968C41.6256 20.98 43.2 23.22 43.2 25.6904C43.2 28.596 41.1136 31.028 38.3616 31.5784V36.3784C43.7632 35.7896 48 31.2584 48 25.6904C48 22.0168 46.0672 18.612 43.0336 16.6408Z" fill="#15AD36"/>
<path d="M31.194 36.5062C31.194 40.4742 27.9684 43.6998 24.0004 43.6998C20.0324 43.6998 16.8068 40.4742 16.8068 36.5062C16.8068 32.5382 20.0324 29.3126 24.0004 29.3126V32.7062L30.8004 26.9062L24.0004 21.1062V24.5126C17.3828 24.5126 12.0068 29.8886 12.0068 36.5062C12.0068 43.1238 17.3828 48.4998 24.0004 48.4998C30.618 48.4998 35.994 43.111 35.994 36.5062H31.194Z" fill="#15AD36"/>
</g>
<defs>
<clipPath id="clip0_2050_11272">
<rect width="48" height="48" fill="white" transform="translate(0 0.5)"/>
</clipPath>
</defs>
</svg>
