<svg width="47" height="49" viewBox="0 0 47 49" fill="none" xmlns="http://www.w3.org/2000/svg">
<g clip-path="url(#clip0_2050_11151)">
<path d="M19.3513 33.5L16.6851 45.5H29.8146L27.1483 33.5H19.3513Z" fill="#4A5D82"/>
<path d="M18 29.4635C18 29.5348 18.0165 29.6068 18.0488 29.6705L19.2135 32H27.2865L28.4505 29.6713C28.4835 29.6068 28.5 29.5348 28.5 29.4635C28.5 29.2078 28.2922 29 28.0365 29H18.4635C18.2078 29 18 29.2078 18 29.4635Z" fill="#4A5D82"/>
<path d="M12.2865 32L13.4505 29.6713C13.4835 29.6068 13.5 29.5348 13.5 29.4635C13.5 29.2078 13.2922 29 13.0365 29H3.4635C3.20775 29 3 29.2078 3 29.4635C3 29.5348 3.0165 29.6068 3.04875 29.6705L4.2135 32H12.2865Z" fill="#4A5D82"/>
<path d="M42.2865 32L43.4505 29.6713C43.4835 29.6068 43.5 29.5348 43.5 29.4635C43.5 29.2078 43.2922 29 43.0365 29H33.4635C33.2078 29 33 29.2078 33 29.4635C33 29.5348 33.0165 29.6068 33.0487 29.6705L34.2135 32H42.2865Z" fill="#4A5D82"/>
<path d="M34.3513 33.5L31.6851 45.5H44.8146L42.1483 33.5H34.3513Z" fill="#4A5D82"/>
<path d="M4.35131 33.5L1.68506 45.5H14.8146L12.1483 33.5H4.35131Z" fill="#4A5D82"/>
<path d="M12.5303 13.4697L11.4697 14.5302L12.7245 15.7842C13.2247 16.2852 13.5 16.9505 13.5 17.6577C13.5 18.446 13.1528 19.1877 12.5468 19.6925L10.7985 21.149C9.6555 22.1022 9 23.5017 9 24.9897C9 25.8867 9.24 26.7447 9.68025 27.5H11.5613L11.5253 27.464C10.8638 26.8032 10.5 25.9242 10.5 24.9897C10.5 23.948 10.9583 22.9685 11.7593 22.3017L13.5068 20.8452C14.4555 20.0547 15 18.893 15 17.6577C15 16.5492 14.5687 15.5075 13.785 14.7237L12.5303 13.4697Z" fill="#4A5D82"/>
<path d="M21.4275 15.5C22.8465 15.5 24 16.6543 24 18.0725C24 18.9935 23.5035 19.8493 22.704 20.306L20.8395 21.371C19.5502 22.1075 18.75 23.4867 18.75 24.971C18.75 25.7922 18.9908 26.588 19.4468 27.2712L19.599 27.5H21.402L20.6955 26.4395C20.4037 26.0037 20.25 25.496 20.25 24.971C20.25 24.0237 20.7615 23.1425 21.5835 22.673L23.448 21.608C24.714 20.8842 25.5 19.5297 25.5 18.0725C25.5 15.827 23.673 14 21.4275 14H19.5C17.8455 14 16.5 12.6545 16.5 11C16.5 9.3455 17.8455 8 19.5 8H20.25V6.5H19.5C17.0182 6.5 15 8.51825 15 11C15 13.4818 17.0182 15.5 19.5 15.5H21.4275Z" fill="#4A5D82"/>
<path d="M44.085 11.3765L43.8503 11.2355C43.1715 10.8282 42.75 10.0835 42.75 9.29225C42.75 8.36 43.3095 7.53425 44.175 7.18775L44.3415 7.121C45.6525 6.59675 46.5 5.34575 46.5 3.9335C46.5 2.0405 44.9595 0.5 43.0665 0.5H27.75C26.6445 0.5 25.6875 1.1075 25.167 2H8.25C6.18225 2 4.5 3.68225 4.5 5.75C4.5 7.81775 6.18225 9.5 8.25 9.5H9.75C10.164 9.5 10.5 9.83675 10.5 10.25C10.5 10.6632 10.164 11 9.75 11H3C1.3455 11 0 12.3455 0 14C0 15.6545 1.3455 17 3 17H6.207C6.92025 17 7.5 17.5798 7.5 18.293C7.5 18.6778 7.32975 19.04 7.03425 19.2868L4.7985 21.1497C3.6555 22.1023 3 23.5017 3 24.9897C3 25.8867 3.24 26.7448 3.68025 27.5H5.56125L5.52525 27.464C4.86375 26.8032 4.5 25.9242 4.5 24.9897C4.5 23.948 4.95825 22.9685 5.75925 22.3018L7.995 20.4387C8.634 19.907 9 19.1248 9 18.293C9 16.7525 7.74675 15.5 6.207 15.5H3C2.17275 15.5 1.5 14.8273 1.5 14C1.5 13.1727 2.17275 12.5 3 12.5H9.75C10.9905 12.5 12 11.4905 12 10.25C12 9.0095 10.9905 8 9.75 8H8.25C7.0095 8 6 6.9905 6 5.75C6 4.5095 7.0095 3.5 8.25 3.5H24.75C24.75 4.049 24.909 4.55675 25.167 5H24.75C23.0955 5 21.75 6.3455 21.75 8C21.75 9.6545 23.0955 11 24.75 11V9.5C23.9228 9.5 23.25 8.82725 23.25 8C23.25 7.17275 23.9228 6.5 24.75 6.5H35.25C36.9045 6.5 38.25 7.8455 38.25 9.5C38.25 11.1545 36.9045 12.5 35.25 12.5H30.6285C28.6275 12.5 27 14.1275 27 16.1285C27 16.847 27.2108 17.543 27.609 18.1415L28.1115 18.8953C28.3657 19.2755 28.5 19.7188 28.5 20.177C28.5 21.128 27.9293 21.971 27.0472 22.3228L26.949 22.3617C25.6132 22.8965 24.75 24.1722 24.75 25.6107C24.75 26.2917 24.948 26.9405 25.308 27.5H27.3105L26.835 27.0252C26.4577 26.6473 26.25 26.1455 26.25 25.6107C26.25 24.7887 26.7428 24.0597 27.5055 23.7545L27.6038 23.7155C29.0595 23.1343 30 21.7453 30 20.177C30 19.4217 29.7787 18.6905 29.3595 18.0627L28.857 17.3097C28.6238 16.958 28.5 16.55 28.5 16.1285C28.5 14.9547 29.4548 14 30.6285 14H34.1895L34.242 14.0525C34.8915 14.7028 35.25 15.5667 35.25 16.4855C35.25 17.5362 34.779 18.5158 33.9593 19.172L33.5033 19.5365C32.2305 20.5557 31.5 22.0753 31.5 23.7057C31.5 25.1502 32.0985 26.537 33.123 27.5345C33.234 27.515 33.3473 27.5 33.4635 27.5H35.4997L34.5353 26.7762C33.5745 26.0555 33 24.908 33 23.7057C33 22.5335 33.525 21.44 34.44 20.708L34.896 20.3435C36.0742 19.4007 36.75 17.9945 36.75 16.4855C36.75 15.5682 36.4965 14.6915 36.0315 13.9272C38.1413 13.556 39.75 11.7148 39.75 9.5C39.75 7.01825 37.7318 5 35.25 5H27.75C26.9228 5 26.25 4.32725 26.25 3.5C26.25 2.67275 26.9228 2 27.75 2H43.0665C44.133 2 45 2.867 45 3.9335C45 4.72925 44.523 5.4335 43.7843 5.729L43.6178 5.795C42.1793 6.37025 41.25 7.74275 41.25 9.29225C41.25 10.6077 41.9505 11.8453 43.0785 12.5225L43.3132 12.6635C44.3542 13.2875 45 14.4282 45 15.641C45 17.069 44.1427 18.335 42.8175 18.8652L40.5532 19.7712C38.6985 20.513 37.5 22.283 37.5 24.281C37.5 25.031 37.677 25.781 38.013 26.453L38.5365 27.5H40.2135L39.3548 25.7817C39.1222 25.3175 39 24.7985 39 24.281C39 22.9002 39.828 21.677 41.1097 21.164L43.374 20.2587C45.273 19.499 46.5 17.6863 46.5 15.641C46.5 13.9047 45.5752 12.2705 44.085 11.3765Z" fill="#4A5D82"/>
</g>
<defs>
<clipPath id="clip0_2050_11151">
<rect width="46.5" height="48" fill="white" transform="translate(0 0.5)"/>
</clipPath>
</defs>
</svg>
