<svg width="48" height="49" viewBox="0 0 48 49" fill="none" xmlns="http://www.w3.org/2000/svg">
<g clip-path="url(#clip0_2050_11178)">
<path d="M47 47H46V30H2V47H1C0.734784 47 0.48043 47.1054 0.292893 47.2929C0.105357 47.4804 0 47.7348 0 48C0 48.2652 0.105357 48.5196 0.292893 48.7071C0.48043 48.8946 0.734784 49 1 49H47C47.2652 49 47.5196 48.8946 47.7071 48.7071C47.8946 48.5196 48 48.2652 48 48C48 47.7348 47.8946 47.4804 47.7071 47.2929C47.5196 47.1054 47.2652 47 47 47ZM39 35H42V37C42 38.5913 41.3679 40.1174 40.2426 41.2426C39.1174 42.3679 37.5913 43 36 43H34.42L37.71 39.71C37.8983 39.5217 38.0041 39.2663 38.0041 39C38.0041 38.7337 37.8983 38.4783 37.71 38.29C37.5217 38.1017 37.2663 37.9959 37 37.9959C36.7337 37.9959 36.4783 38.1017 36.29 38.29L33.5 41.08L33 40.6C33.1016 39.079 33.7783 37.6538 34.8927 36.6137C36.0071 35.5736 37.4756 34.9966 39 35ZM24 34H27C28.5913 34 30.1174 34.6321 31.2426 35.7574C32.3679 36.8826 33 38.4087 33 40V40.58L29.71 37.29C29.6168 37.1968 29.5061 37.1228 29.3842 37.0723C29.2624 37.0219 29.1319 36.9959 29 36.9959C28.8681 36.9959 28.7376 37.0219 28.6158 37.0723C28.4939 37.1228 28.3832 37.1968 28.29 37.29C28.1968 37.3832 28.1228 37.4939 28.0723 37.6157C28.0219 37.7376 27.9959 37.8681 27.9959 38C27.9959 38.1319 28.0219 38.2624 28.0723 38.3843C28.1228 38.5061 28.1968 38.6168 28.29 38.71L31.58 42H30C28.4087 42 26.8826 41.3679 25.7574 40.2426C24.6321 39.1174 24 37.5913 24 36V34ZM7 34C7 33.7348 7.10536 33.4804 7.29289 33.2929C7.48043 33.1054 7.73478 33 8 33H20C20.2652 33 20.5196 33.1054 20.7071 33.2929C20.8946 33.4804 21 33.7348 21 34V47H19V35H9V47H7V34Z" fill="#0476CD"/>
<path d="M1 23.5H47V27.5H1V23.5Z" fill="#0476CD"/>
<path d="M1 8.5H2V21.5H8V8.5H9C9.26522 8.5 9.51957 8.39464 9.70711 8.20711C9.89464 8.01957 10 7.76522 10 7.5C10 7.23478 9.89464 6.98043 9.70711 6.79289C9.51957 6.60536 9.26522 6.5 9 6.5H1C0.734784 6.5 0.48043 6.60536 0.292893 6.79289C0.105357 6.98043 0 7.23478 0 7.5C0 7.76522 0.105357 8.01957 0.292893 8.20711C0.48043 8.39464 0.734784 8.5 1 8.5Z" fill="#0476CD"/>
<path d="M12 11.5C12 11.7652 12.1054 12.0196 12.2929 12.2071C12.4804 12.3946 12.7348 12.5 13 12.5H14V21.5H20V12.5H21C21.2652 12.5 21.5196 12.3946 21.7071 12.2071C21.8946 12.0196 22 11.7652 22 11.5C22 11.2348 21.8946 10.9804 21.7071 10.7929C21.5196 10.6054 21.2652 10.5 21 10.5H13C12.7348 10.5 12.4804 10.6054 12.2929 10.7929C12.1054 10.9804 12 11.2348 12 11.5Z" fill="#0476CD"/>
<path d="M45.9996 21.5V15.5L39.1396 21.5H45.9996Z" fill="#0476CD"/>
<path d="M38.0001 21.5V15.5L31.1401 21.5H38.0001Z" fill="#0476CD"/>
<path d="M29.9996 15.5L23.1396 21.5H29.9996V15.5Z" fill="#0476CD"/>
<path d="M5 5.5C5.26522 5.5 5.51957 5.39464 5.70711 5.20711C5.89464 5.01957 6 4.76522 6 4.5C6 3.96957 6.21071 3.46086 6.58579 3.08579C6.96086 2.71071 7.46957 2.5 8 2.5H23C23.2652 2.5 23.5196 2.39464 23.7071 2.20711C23.8946 2.01957 24 1.76522 24 1.5C24 1.23478 23.8946 0.98043 23.7071 0.792893C23.5196 0.605357 23.2652 0.5 23 0.5H8C6.93913 0.5 5.92172 0.921427 5.17157 1.67157C4.42143 2.42172 4 3.43913 4 4.5C4 4.76522 4.10536 5.01957 4.29289 5.20711C4.48043 5.39464 4.73478 5.5 5 5.5Z" fill="#0476CD"/>
<path d="M27 2.5H37C37.2652 2.5 37.5196 2.39464 37.7071 2.20711C37.8946 2.01957 38 1.76522 38 1.5C38 1.23478 37.8946 0.98043 37.7071 0.792893C37.5196 0.605357 37.2652 0.5 37 0.5H27C26.7348 0.5 26.4804 0.605357 26.2929 0.792893C26.1054 0.98043 26 1.23478 26 1.5C26 1.76522 26.1054 2.01957 26.2929 2.20711C26.4804 2.39464 26.7348 2.5 27 2.5Z" fill="#0476CD"/>
<path d="M41 2.5H42C42.2652 2.5 42.5196 2.39464 42.7071 2.20711C42.8946 2.01957 43 1.76522 43 1.5C43 1.23478 42.8946 0.98043 42.7071 0.792893C42.5196 0.605357 42.2652 0.5 42 0.5H41C40.7348 0.5 40.4804 0.605357 40.2929 0.792893C40.1054 0.98043 40 1.23478 40 1.5C40 1.76522 40.1054 2.01957 40.2929 2.20711C40.4804 2.39464 40.7348 2.5 41 2.5Z" fill="#0476CD"/>
<path d="M32 4.5H20C18.9391 4.5 17.9217 4.92143 17.1716 5.67157C16.4214 6.42172 16 7.43913 16 8.5C16 8.76522 16.1054 9.01957 16.2929 9.20711C16.4804 9.39464 16.7348 9.5 17 9.5C17.2652 9.5 17.5196 9.39464 17.7071 9.20711C17.8946 9.01957 18 8.76522 18 8.5C18 7.96957 18.2107 7.46086 18.5858 7.08579C18.9609 6.71071 19.4696 6.5 20 6.5H32C32.2652 6.5 32.5196 6.39464 32.7071 6.20711C32.8946 6.01957 33 5.76522 33 5.5C33 5.23478 32.8946 4.98043 32.7071 4.79289C32.5196 4.60536 32.2652 4.5 32 4.5Z" fill="#0476CD"/>
<path d="M42 4.5H36C35.7348 4.5 35.4804 4.60536 35.2929 4.79289C35.1054 4.98043 35 5.23478 35 5.5C35 5.76522 35.1054 6.01957 35.2929 6.20711C35.4804 6.39464 35.7348 6.5 36 6.5H42C42.2652 6.5 42.5196 6.39464 42.7071 6.20711C42.8946 6.01957 43 5.76522 43 5.5C43 5.23478 42.8946 4.98043 42.7071 4.79289C42.5196 4.60536 42.2652 4.5 42 4.5Z" fill="#0476CD"/>
<path d="M46 6.5H47C47.2652 6.5 47.5196 6.39464 47.7071 6.20711C47.8946 6.01957 48 5.76522 48 5.5C48 5.23478 47.8946 4.98043 47.7071 4.79289C47.5196 4.60536 47.2652 4.5 47 4.5H46C45.7348 4.5 45.4804 4.60536 45.2929 4.79289C45.1054 4.98043 45 5.23478 45 5.5C45 5.76522 45.1054 6.01957 45.2929 6.20711C45.4804 6.39464 45.7348 6.5 46 6.5Z" fill="#0476CD"/>
</g>
<defs>
<clipPath id="clip0_2050_11178">
<rect width="48" height="48" fill="white" transform="translate(0 0.5)"/>
</clipPath>
</defs>
</svg>
