<svg width="246" height="96" viewBox="0 0 246 96" fill="none" xmlns="http://www.w3.org/2000/svg">
<path d="M7.60938 23.2266H9.94531C9.89844 23.9922 9.6875 24.6719 9.3125 25.2656C8.94271 25.8594 8.42448 26.3229 7.75781 26.6562C7.09635 26.9896 6.29948 27.1562 5.36719 27.1562C4.63802 27.1562 3.98438 27.0312 3.40625 26.7812C2.82812 26.526 2.33333 26.1615 1.92188 25.6875C1.51562 25.2135 1.20573 24.6406 0.992188 23.9688C0.778646 23.2969 0.671875 22.5443 0.671875 21.7109V20.9219C0.671875 20.0885 0.78125 19.3359 1 18.6641C1.22396 17.987 1.54167 17.4115 1.95312 16.9375C2.36979 16.4635 2.86719 16.099 3.44531 15.8438C4.02344 15.5885 4.66927 15.4609 5.38281 15.4609C6.33073 15.4609 7.13021 15.6328 7.78125 15.9766C8.4375 16.3203 8.94531 16.7943 9.30469 17.3984C9.66927 18.0026 9.88802 18.6901 9.96094 19.4609H7.61719C7.59115 19.0026 7.5 18.6146 7.34375 18.2969C7.1875 17.974 6.95052 17.7318 6.63281 17.5703C6.32031 17.4036 5.90365 17.3203 5.38281 17.3203C4.99219 17.3203 4.65104 17.3932 4.35938 17.5391C4.06771 17.6849 3.82292 17.9062 3.625 18.2031C3.42708 18.5 3.27865 18.875 3.17969 19.3281C3.08594 19.776 3.03906 20.3021 3.03906 20.9062V21.7109C3.03906 22.2995 3.08333 22.8177 3.17188 23.2656C3.26042 23.7083 3.39583 24.0833 3.57812 24.3906C3.76562 24.6927 4.00521 24.9219 4.29688 25.0781C4.59375 25.2292 4.95052 25.3047 5.36719 25.3047C5.85677 25.3047 6.26042 25.2266 6.57812 25.0703C6.89583 24.9141 7.13802 24.6823 7.30469 24.375C7.47656 24.0677 7.57812 23.6849 7.60938 23.2266ZM15.8559 15.625V27H13.52V15.625H15.8559ZM19.3559 15.625V17.4609H10.0747V15.625H19.3559ZM26.5869 23.2266H28.9228C28.8759 23.9922 28.665 24.6719 28.29 25.2656C27.9202 25.8594 27.402 26.3229 26.7353 26.6562C26.0739 26.9896 25.277 27.1562 24.3447 27.1562C23.6155 27.1562 22.9619 27.0312 22.3838 26.7812C21.8056 26.526 21.3108 26.1615 20.8994 25.6875C20.4931 25.2135 20.1832 24.6406 19.9697 23.9688C19.7561 23.2969 19.6494 22.5443 19.6494 21.7109V20.9219C19.6494 20.0885 19.7588 19.3359 19.9775 18.6641C20.2015 17.987 20.5192 17.4115 20.9306 16.9375C21.3473 16.4635 21.8447 16.099 22.4228 15.8438C23.0009 15.5885 23.6468 15.4609 24.3603 15.4609C25.3082 15.4609 26.1077 15.6328 26.7588 15.9766C27.415 16.3203 27.9228 16.7943 28.2822 17.3984C28.6468 18.0026 28.8655 18.6901 28.9384 19.4609H26.5947C26.5686 19.0026 26.4775 18.6146 26.3213 18.2969C26.165 17.974 25.928 17.7318 25.6103 17.5703C25.2978 17.4036 24.8811 17.3203 24.3603 17.3203C23.9697 17.3203 23.6285 17.3932 23.3369 17.5391C23.0452 17.6849 22.8004 17.9062 22.6025 18.2031C22.4046 18.5 22.2561 18.875 22.1572 19.3281C22.0634 19.776 22.0166 20.3021 22.0166 20.9062V21.7109C22.0166 22.2995 22.0608 22.8177 22.1494 23.2656C22.2379 23.7083 22.3733 24.0833 22.5556 24.3906C22.7431 24.6927 22.9827 24.9219 23.2744 25.0781C23.5713 25.2292 23.928 25.3047 24.3447 25.3047C24.8343 25.3047 25.2379 25.2266 25.5556 25.0703C25.8733 24.9141 26.1155 24.6823 26.2822 24.375C26.4541 24.0677 26.5556 23.6849 26.5869 23.2266ZM35.9037 24.0234C35.9037 23.8203 35.8725 23.638 35.81 23.4766C35.7527 23.3099 35.6433 23.1589 35.4819 23.0234C35.3204 22.8828 35.0939 22.7448 34.8022 22.6094C34.5105 22.474 34.1329 22.3333 33.6694 22.1875C33.1537 22.0208 32.6642 21.8333 32.2006 21.625C31.7423 21.4167 31.336 21.1745 30.9819 20.8984C30.6329 20.6172 30.3569 20.2917 30.1537 19.9219C29.9558 19.5521 29.8569 19.1224 29.8569 18.6328C29.8569 18.1589 29.961 17.7292 30.1694 17.3438C30.3777 16.9531 30.6694 16.6198 31.0444 16.3438C31.4194 16.0625 31.8621 15.8464 32.3725 15.6953C32.8881 15.5443 33.4532 15.4688 34.0678 15.4688C34.9064 15.4688 35.6381 15.6198 36.2631 15.9219C36.8881 16.224 37.3725 16.638 37.7162 17.1641C38.0652 17.6901 38.2397 18.2917 38.2397 18.9688H35.9116C35.9116 18.6354 35.8412 18.3438 35.7006 18.0938C35.5652 17.8385 35.3569 17.638 35.0756 17.4922C34.7996 17.3464 34.4506 17.2734 34.0287 17.2734C33.6225 17.2734 33.284 17.3359 33.0131 17.4609C32.7423 17.5807 32.5392 17.7448 32.4037 17.9531C32.2683 18.1562 32.2006 18.3854 32.2006 18.6406C32.2006 18.8333 32.2475 19.0078 32.3412 19.1641C32.4402 19.3203 32.586 19.4661 32.7787 19.6016C32.9715 19.737 33.2084 19.8646 33.4897 19.9844C33.7709 20.1042 34.0965 20.2214 34.4662 20.3359C35.086 20.5234 35.6303 20.7344 36.0991 20.9688C36.573 21.2031 36.9689 21.4661 37.2866 21.7578C37.6043 22.0495 37.8439 22.3802 38.0053 22.75C38.1668 23.1198 38.2475 23.5391 38.2475 24.0078C38.2475 24.5026 38.1511 24.9453 37.9584 25.3359C37.7657 25.7266 37.4871 26.0573 37.1225 26.3281C36.7579 26.599 36.323 26.8047 35.8178 26.9453C35.3126 27.0859 34.7475 27.1562 34.1225 27.1562C33.56 27.1562 33.0053 27.0833 32.4584 26.9375C31.9116 26.7865 31.4142 26.5599 30.9662 26.2578C30.5235 25.9557 30.1694 25.5703 29.9037 25.1016C29.6381 24.6328 29.5053 24.0781 29.5053 23.4375H31.8569C31.8569 23.7917 31.9116 24.0911 32.0209 24.3359C32.1303 24.5807 32.284 24.7786 32.4819 24.9297C32.685 25.0807 32.9246 25.1901 33.2006 25.2578C33.4819 25.3255 33.7892 25.3594 34.1225 25.3594C34.5287 25.3594 34.8621 25.3021 35.1225 25.1875C35.3881 25.0729 35.5834 24.9141 35.7084 24.7109C35.8386 24.5078 35.9037 24.2786 35.9037 24.0234ZM47.3187 22.0078H44.3969L44.3812 20.3984H46.8344C47.2667 20.3984 47.6208 20.3438 47.8969 20.2344C48.1729 20.1198 48.3786 19.9557 48.5141 19.7422C48.6547 19.5234 48.725 19.2578 48.725 18.9453C48.725 18.5911 48.6573 18.3047 48.5219 18.0859C48.3917 17.8672 48.1859 17.7083 47.9047 17.6094C47.6286 17.5104 47.2719 17.4609 46.8344 17.4609H45.2094V27H42.8656V15.625H46.8344C47.4958 15.625 48.087 15.6875 48.6078 15.8125C49.1339 15.9375 49.5792 16.1276 49.9437 16.3828C50.3083 16.638 50.587 16.9609 50.7797 17.3516C50.9724 17.737 51.0687 18.1953 51.0687 18.7266C51.0687 19.1953 50.962 19.6276 50.7484 20.0234C50.5401 20.4193 50.2094 20.7422 49.7562 20.9922C49.3083 21.2422 48.7224 21.3802 47.9984 21.4062L47.3187 22.0078ZM47.2172 27H43.7562L44.6703 25.1719H47.2172C47.6286 25.1719 47.9646 25.1068 48.225 24.9766C48.4854 24.8411 48.6781 24.6589 48.8031 24.4297C48.9281 24.2005 48.9906 23.9375 48.9906 23.6406C48.9906 23.3073 48.9333 23.0182 48.8187 22.7734C48.7094 22.5286 48.5323 22.3411 48.2875 22.2109C48.0427 22.0755 47.7198 22.0078 47.3187 22.0078H45.0609L45.0766 20.3984H47.8891L48.4281 21.0312C49.1208 21.0208 49.6781 21.1432 50.1 21.3984C50.5271 21.6484 50.837 21.974 51.0297 22.375C51.2276 22.776 51.3266 23.2057 51.3266 23.6641C51.3266 24.3932 51.1677 25.0078 50.85 25.5078C50.5323 26.0026 50.0661 26.375 49.4516 26.625C48.8422 26.875 48.0974 27 47.2172 27ZM57.0262 25.0938V21.3281C57.0262 21.0573 56.982 20.8255 56.8934 20.6328C56.8049 20.4349 56.6669 20.2812 56.4794 20.1719C56.2971 20.0625 56.0601 20.0078 55.7684 20.0078C55.5184 20.0078 55.3023 20.0521 55.12 20.1406C54.9377 20.224 54.7971 20.3464 54.6981 20.5078C54.5992 20.6641 54.5497 20.849 54.5497 21.0625H52.2997C52.2997 20.7031 52.383 20.362 52.5497 20.0391C52.7164 19.7161 52.9585 19.4323 53.2762 19.1875C53.594 18.9375 53.9716 18.7422 54.4091 18.6016C54.8518 18.4609 55.3466 18.3906 55.8934 18.3906C56.5497 18.3906 57.133 18.5 57.6434 18.7188C58.1539 18.9375 58.5549 19.2656 58.8466 19.7031C59.1434 20.1406 59.2919 20.6875 59.2919 21.3438V24.9609C59.2919 25.4245 59.3205 25.8047 59.3778 26.1016C59.4351 26.3932 59.5184 26.6484 59.6278 26.8672V27H57.3544C57.245 26.7708 57.1617 26.4844 57.1044 26.1406C57.0523 25.7917 57.0262 25.4427 57.0262 25.0938ZM57.3231 21.8516L57.3387 23.125H56.0809C55.7841 23.125 55.5262 23.1589 55.3075 23.2266C55.0887 23.2943 54.9091 23.3906 54.7684 23.5156C54.6278 23.6354 54.5236 23.776 54.4559 23.9375C54.3934 24.099 54.3622 24.276 54.3622 24.4688C54.3622 24.6615 54.4065 24.8359 54.495 24.9922C54.5835 25.1432 54.7111 25.263 54.8778 25.3516C55.0445 25.4349 55.2398 25.4766 55.4637 25.4766C55.8023 25.4766 56.0966 25.4089 56.3466 25.2734C56.5966 25.138 56.7893 24.9714 56.9247 24.7734C57.0653 24.5755 57.1382 24.388 57.1434 24.2109L57.7372 25.1641C57.6539 25.3776 57.5393 25.599 57.3934 25.8281C57.2528 26.0573 57.0731 26.2734 56.8544 26.4766C56.6356 26.6745 56.3726 26.8385 56.0653 26.9688C55.758 27.0938 55.3934 27.1562 54.9716 27.1562C54.4351 27.1562 53.9481 27.0495 53.5106 26.8359C53.0783 26.6172 52.7346 26.3177 52.4794 25.9375C52.2294 25.5521 52.1044 25.1146 52.1044 24.625C52.1044 24.1823 52.1877 23.7891 52.3544 23.4453C52.521 23.1016 52.7658 22.8125 53.0887 22.5781C53.4169 22.3385 53.8257 22.1589 54.3153 22.0391C54.8049 21.9141 55.3726 21.8516 56.0184 21.8516H57.3231ZM62.9212 15V27H60.6634V15H62.9212ZM66.6756 15V27H64.4178V15H66.6756ZM78.2937 23.2266H80.6297C80.5828 23.9922 80.3719 24.6719 79.9969 25.2656C79.6271 25.8594 79.1089 26.3229 78.4422 26.6562C77.7807 26.9896 76.9839 27.1562 76.0516 27.1562C75.3224 27.1562 74.6687 27.0312 74.0906 26.7812C73.5125 26.526 73.0177 26.1615 72.6062 25.6875C72.2 25.2135 71.8901 24.6406 71.6766 23.9688C71.463 23.2969 71.3562 22.5443 71.3562 21.7109V20.9219C71.3562 20.0885 71.4656 19.3359 71.6844 18.6641C71.9083 17.987 72.226 17.4115 72.6375 16.9375C73.0542 16.4635 73.5516 16.099 74.1297 15.8438C74.7078 15.5885 75.3536 15.4609 76.0672 15.4609C77.0151 15.4609 77.8146 15.6328 78.4656 15.9766C79.1219 16.3203 79.6297 16.7943 79.9891 17.3984C80.3536 18.0026 80.5724 18.6901 80.6453 19.4609H78.3016C78.2755 19.0026 78.1844 18.6146 78.0281 18.2969C77.8719 17.974 77.6349 17.7318 77.3172 17.5703C77.0047 17.4036 76.588 17.3203 76.0672 17.3203C75.6766 17.3203 75.3354 17.3932 75.0437 17.5391C74.7521 17.6849 74.5073 17.9062 74.3094 18.2031C74.1115 18.5 73.963 18.875 73.8641 19.3281C73.7703 19.776 73.7234 20.3021 73.7234 20.9062V21.7109C73.7234 22.2995 73.7677 22.8177 73.8562 23.2656C73.9448 23.7083 74.0802 24.0833 74.2625 24.3906C74.45 24.6927 74.6896 24.9219 74.9812 25.0781C75.2781 25.2292 75.6349 25.3047 76.0516 25.3047C76.5411 25.3047 76.9448 25.2266 77.2625 25.0703C77.5802 24.9141 77.8224 24.6823 77.9891 24.375C78.1609 24.0677 78.2625 23.6849 78.2937 23.2266ZM81.1888 22.8594V22.6953C81.1888 22.0755 81.2773 21.5052 81.4544 20.9844C81.6315 20.4583 81.8893 20.0026 82.2278 19.6172C82.5664 19.2318 82.983 18.9323 83.4778 18.7188C83.9726 18.5 84.5403 18.3906 85.1809 18.3906C85.8216 18.3906 86.3919 18.5 86.8919 18.7188C87.3919 18.9323 87.8111 19.2318 88.1497 19.6172C88.4934 20.0026 88.7539 20.4583 88.9309 20.9844C89.108 21.5052 89.1966 22.0755 89.1966 22.6953V22.8594C89.1966 23.474 89.108 24.0443 88.9309 24.5703C88.7539 25.0911 88.4934 25.5469 88.1497 25.9375C87.8111 26.3229 87.3945 26.6224 86.8997 26.8359C86.4049 27.0495 85.8372 27.1562 85.1966 27.1562C84.5559 27.1562 83.9856 27.0495 83.4856 26.8359C82.9908 26.6224 82.5716 26.3229 82.2278 25.9375C81.8893 25.5469 81.6315 25.0911 81.4544 24.5703C81.2773 24.0443 81.1888 23.474 81.1888 22.8594ZM83.4388 22.6953V22.8594C83.4388 23.2135 83.47 23.5443 83.5325 23.8516C83.595 24.1589 83.694 24.4297 83.8294 24.6641C83.97 24.8932 84.1523 25.0729 84.3763 25.2031C84.6002 25.3333 84.8736 25.3984 85.1966 25.3984C85.5091 25.3984 85.7773 25.3333 86.0013 25.2031C86.2252 25.0729 86.4049 24.8932 86.5403 24.6641C86.6757 24.4297 86.7747 24.1589 86.8372 23.8516C86.9049 23.5443 86.9388 23.2135 86.9388 22.8594V22.6953C86.9388 22.3516 86.9049 22.0286 86.8372 21.7266C86.7747 21.4193 86.6731 21.1484 86.5325 20.9141C86.3971 20.6745 86.2174 20.487 85.9934 20.3516C85.7695 20.2161 85.4986 20.1484 85.1809 20.1484C84.8632 20.1484 84.5924 20.2161 84.3684 20.3516C84.1497 20.487 83.97 20.6745 83.8294 20.9141C83.694 21.1484 83.595 21.4193 83.5325 21.7266C83.47 22.0286 83.4388 22.3516 83.4388 22.6953ZM92.4744 15V27H90.2166V15H92.4744ZM96.2288 15V27H93.9709V15H96.2288ZM101.499 27.1562C100.842 27.1562 100.254 27.0521 99.7331 26.8438C99.2123 26.6302 98.7696 26.3359 98.405 25.9609C98.0456 25.5859 97.7696 25.151 97.5769 24.6562C97.3842 24.1562 97.2878 23.625 97.2878 23.0625V22.75C97.2878 22.1094 97.379 21.5234 97.5612 20.9922C97.7435 20.4609 98.004 20 98.3425 19.6094C98.6862 19.2188 99.1029 18.9193 99.5925 18.7109C100.082 18.4974 100.634 18.3906 101.249 18.3906C101.848 18.3906 102.379 18.4896 102.842 18.6875C103.306 18.8854 103.694 19.1667 104.007 19.5312C104.324 19.8958 104.564 20.3333 104.725 20.8438C104.887 21.349 104.967 21.9115 104.967 22.5312V23.4688H98.2487V21.9688H102.757V21.7969C102.757 21.4844 102.699 21.2057 102.585 20.9609C102.475 20.7109 102.309 20.513 102.085 20.3672C101.861 20.2214 101.574 20.1484 101.225 20.1484C100.928 20.1484 100.673 20.2135 100.46 20.3438C100.246 20.474 100.072 20.6562 99.9362 20.8906C99.806 21.125 99.7071 21.401 99.6394 21.7188C99.5769 22.0312 99.5456 22.375 99.5456 22.75V23.0625C99.5456 23.401 99.5925 23.7135 99.6862 24C99.7852 24.2865 99.9232 24.5339 100.1 24.7422C100.283 24.9505 100.501 25.112 100.757 25.2266C101.017 25.3411 101.311 25.3984 101.639 25.3984C102.046 25.3984 102.423 25.3203 102.772 25.1641C103.126 25.0026 103.431 24.7604 103.686 24.4375L104.78 25.625C104.603 25.8802 104.361 26.125 104.053 26.3594C103.751 26.5938 103.387 26.7865 102.96 26.9375C102.533 27.0833 102.046 27.1562 101.499 27.1562ZM109.261 25.3984C109.537 25.3984 109.782 25.3464 109.995 25.2422C110.209 25.1328 110.376 24.9818 110.495 24.7891C110.62 24.5911 110.685 24.3594 110.691 24.0938H112.808C112.803 24.6875 112.644 25.2161 112.331 25.6797C112.019 26.138 111.599 26.5 111.073 26.7656C110.547 27.026 109.959 27.1562 109.308 27.1562C108.652 27.1562 108.079 27.0469 107.589 26.8281C107.105 26.6094 106.701 26.3073 106.378 25.9219C106.055 25.5312 105.813 25.0781 105.652 24.5625C105.49 24.0417 105.409 23.4844 105.409 22.8906V22.6641C105.409 22.0651 105.49 21.5078 105.652 20.9922C105.813 20.4714 106.055 20.0182 106.378 19.6328C106.701 19.2422 107.105 18.9375 107.589 18.7188C108.073 18.5 108.641 18.3906 109.292 18.3906C109.985 18.3906 110.592 18.5234 111.113 18.7891C111.639 19.0547 112.05 19.4349 112.347 19.9297C112.649 20.4193 112.803 21 112.808 21.6719H110.691C110.685 21.3906 110.626 21.1354 110.511 20.9062C110.402 20.6771 110.24 20.4948 110.027 20.3594C109.818 20.2188 109.56 20.1484 109.253 20.1484C108.925 20.1484 108.657 20.2188 108.448 20.3594C108.24 20.4948 108.079 20.6823 107.964 20.9219C107.849 21.1562 107.769 21.4245 107.722 21.7266C107.68 22.0234 107.659 22.3359 107.659 22.6641V22.8906C107.659 23.2188 107.68 23.5339 107.722 23.8359C107.764 24.138 107.842 24.4062 107.956 24.6406C108.076 24.875 108.24 25.0599 108.448 25.1953C108.657 25.3307 108.928 25.3984 109.261 25.3984ZM117.773 18.5469V20.1406H112.851V18.5469H117.773ZM114.07 16.4609H116.32V24.4531C116.32 24.6979 116.351 24.8854 116.414 25.0156C116.481 25.1458 116.58 25.237 116.711 25.2891C116.841 25.3359 117.005 25.3594 117.203 25.3594C117.343 25.3594 117.468 25.3542 117.578 25.3438C117.692 25.3281 117.789 25.3125 117.867 25.2969L117.875 26.9531C117.682 27.0156 117.474 27.0651 117.25 27.1016C117.026 27.138 116.778 27.1562 116.507 27.1562C116.013 27.1562 115.58 27.0755 115.211 26.9141C114.846 26.7474 114.565 26.4818 114.367 26.1172C114.169 25.7526 114.07 25.2734 114.07 24.6797V16.4609ZM118.012 22.8594V22.6953C118.012 22.0755 118.1 21.5052 118.278 20.9844C118.455 20.4583 118.712 20.0026 119.051 19.6172C119.389 19.2318 119.806 18.9323 120.301 18.7188C120.796 18.5 121.363 18.3906 122.004 18.3906C122.645 18.3906 123.215 18.5 123.715 18.7188C124.215 18.9323 124.634 19.2318 124.973 19.6172C125.317 20.0026 125.577 20.4583 125.754 20.9844C125.931 21.5052 126.02 22.0755 126.02 22.6953V22.8594C126.02 23.474 125.931 24.0443 125.754 24.5703C125.577 25.0911 125.317 25.5469 124.973 25.9375C124.634 26.3229 124.218 26.6224 123.723 26.8359C123.228 27.0495 122.66 27.1562 122.02 27.1562C121.379 27.1562 120.809 27.0495 120.309 26.8359C119.814 26.6224 119.395 26.3229 119.051 25.9375C118.712 25.5469 118.455 25.0911 118.278 24.5703C118.1 24.0443 118.012 23.474 118.012 22.8594ZM120.262 22.6953V22.8594C120.262 23.2135 120.293 23.5443 120.356 23.8516C120.418 24.1589 120.517 24.4297 120.653 24.6641C120.793 24.8932 120.975 25.0729 121.199 25.2031C121.423 25.3333 121.697 25.3984 122.02 25.3984C122.332 25.3984 122.6 25.3333 122.824 25.2031C123.048 25.0729 123.228 24.8932 123.363 24.6641C123.499 24.4297 123.598 24.1589 123.66 23.8516C123.728 23.5443 123.762 23.2135 123.762 22.8594V22.6953C123.762 22.3516 123.728 22.0286 123.66 21.7266C123.598 21.4193 123.496 21.1484 123.356 20.9141C123.22 20.6745 123.041 20.487 122.817 20.3516C122.593 20.2161 122.322 20.1484 122.004 20.1484C121.686 20.1484 121.416 20.2161 121.192 20.3516C120.973 20.487 120.793 20.6745 120.653 20.9141C120.517 21.1484 120.418 21.4193 120.356 21.7266C120.293 22.0286 120.262 22.3516 120.262 22.6953ZM129.173 20.3906V27H126.923V18.5469H129.04L129.173 20.3906ZM131.719 18.4922L131.68 20.5781C131.571 20.5625 131.438 20.5495 131.282 20.5391C131.131 20.5234 130.993 20.5156 130.868 20.5156C130.55 20.5156 130.274 20.5573 130.04 20.6406C129.811 20.7188 129.618 20.8359 129.462 20.9922C129.311 21.1484 129.196 21.3385 129.118 21.5625C129.045 21.7865 129.003 22.0417 128.993 22.3281L128.54 22.1875C128.54 21.6406 128.594 21.138 128.704 20.6797C128.813 20.2161 128.972 19.8125 129.18 19.4688C129.394 19.125 129.654 18.8594 129.962 18.6719C130.269 18.4844 130.62 18.3906 131.016 18.3906C131.141 18.3906 131.269 18.401 131.399 18.4219C131.529 18.4375 131.636 18.4609 131.719 18.4922ZM2.08594 34.625H4.07031L6.99219 42.9766L9.91406 34.625H11.8984L7.78906 46H6.19531L2.08594 34.625ZM1.01562 34.625H2.99219L3.35156 42.7656V46H1.01562V34.625ZM10.9922 34.625H12.9766V46H10.6328V42.7656L10.9922 34.625ZM18.9731 44.0938V40.3281C18.9731 40.0573 18.9289 39.8255 18.8403 39.6328C18.7518 39.4349 18.6138 39.2812 18.4263 39.1719C18.244 39.0625 18.007 39.0078 17.7153 39.0078C17.4653 39.0078 17.2492 39.0521 17.0669 39.1406C16.8846 39.224 16.744 39.3464 16.645 39.5078C16.546 39.6641 16.4966 39.849 16.4966 40.0625H14.2466C14.2466 39.7031 14.3299 39.362 14.4966 39.0391C14.6632 38.7161 14.9054 38.4323 15.2231 38.1875C15.5408 37.9375 15.9184 37.7422 16.3559 37.6016C16.7986 37.4609 17.2934 37.3906 17.8403 37.3906C18.4966 37.3906 19.0799 37.5 19.5903 37.7188C20.1007 37.9375 20.5018 38.2656 20.7934 38.7031C21.0903 39.1406 21.2388 39.6875 21.2388 40.3438V43.9609C21.2388 44.4245 21.2674 44.8047 21.3247 45.1016C21.382 45.3932 21.4653 45.6484 21.5747 45.8672V46H19.3013C19.1919 45.7708 19.1085 45.4844 19.0513 45.1406C18.9992 44.7917 18.9731 44.4427 18.9731 44.0938ZM19.27 40.8516L19.2856 42.125H18.0278C17.7309 42.125 17.4731 42.1589 17.2544 42.2266C17.0356 42.2943 16.8559 42.3906 16.7153 42.5156C16.5747 42.6354 16.4705 42.776 16.4028 42.9375C16.3403 43.099 16.3091 43.276 16.3091 43.4688C16.3091 43.6615 16.3533 43.8359 16.4419 43.9922C16.5304 44.1432 16.658 44.263 16.8247 44.3516C16.9914 44.4349 17.1867 44.4766 17.4106 44.4766C17.7492 44.4766 18.0434 44.4089 18.2934 44.2734C18.5434 44.138 18.7361 43.9714 18.8716 43.7734C19.0122 43.5755 19.0851 43.388 19.0903 43.2109L19.6841 44.1641C19.6007 44.3776 19.4861 44.599 19.3403 44.8281C19.1997 45.0573 19.02 45.2734 18.8013 45.4766C18.5825 45.6745 18.3195 45.8385 18.0122 45.9688C17.7049 46.0938 17.3403 46.1562 16.9184 46.1562C16.382 46.1562 15.895 46.0495 15.4575 45.8359C15.0252 45.6172 14.6815 45.3177 14.4263 44.9375C14.1763 44.5521 14.0513 44.1146 14.0513 43.625C14.0513 43.1823 14.1346 42.7891 14.3013 42.4453C14.4679 42.1016 14.7127 41.8125 15.0356 41.5781C15.3638 41.3385 15.7726 41.1589 16.2622 41.0391C16.7518 40.9141 17.3195 40.8516 17.9653 40.8516H19.27ZM24.6963 39.3516V46H22.4463V37.5469H24.5556L24.6963 39.3516ZM24.3681 41.4766H23.7588C23.7588 40.8516 23.8395 40.2891 24.0009 39.7891C24.1624 39.2839 24.389 38.8542 24.6806 38.5C24.9723 38.1406 25.3186 37.8672 25.7197 37.6797C26.1259 37.487 26.5791 37.3906 27.0791 37.3906C27.4749 37.3906 27.8369 37.4479 28.165 37.5625C28.4931 37.6771 28.7744 37.8594 29.0088 38.1094C29.2483 38.3594 29.4306 38.6901 29.5556 39.1016C29.6858 39.513 29.7509 40.0156 29.7509 40.6094V46H27.4853V40.6016C27.4853 40.2266 27.4332 39.9349 27.3291 39.7266C27.2249 39.5182 27.0713 39.3724 26.8681 39.2891C26.6702 39.2005 26.4254 39.1562 26.1338 39.1562C25.8317 39.1562 25.5686 39.2161 25.3447 39.3359C25.1259 39.4557 24.9436 39.6224 24.7978 39.8359C24.6572 40.0443 24.5504 40.2891 24.4775 40.5703C24.4046 40.8516 24.3681 41.1536 24.3681 41.4766ZM33.1772 34V46H30.9272V34H33.1772ZM32.8569 41.4766H32.2397C32.2449 40.888 32.323 40.3464 32.4741 39.8516C32.6251 39.3516 32.8412 38.9193 33.1225 38.5547C33.4037 38.1849 33.7397 37.8984 34.1303 37.6953C34.5261 37.4922 34.9636 37.3906 35.4428 37.3906C35.8595 37.3906 36.2371 37.4505 36.5756 37.5703C36.9194 37.6849 37.2136 37.8724 37.4584 38.1328C37.7084 38.388 37.9011 38.724 38.0366 39.1406C38.172 39.5573 38.2397 40.0625 38.2397 40.6562V46H35.9741V40.6406C35.9741 40.2656 35.9194 39.9714 35.81 39.7578C35.7058 39.5391 35.5522 39.3854 35.3491 39.2969C35.1511 39.2031 34.9064 39.1562 34.6147 39.1562C34.2918 39.1562 34.0157 39.2161 33.7866 39.3359C33.5626 39.4557 33.3829 39.6224 33.2475 39.8359C33.1121 40.0443 33.0131 40.2891 32.9506 40.5703C32.8881 40.8516 32.8569 41.1536 32.8569 41.4766ZM39.1113 41.8594V41.6953C39.1113 41.0755 39.1998 40.5052 39.3769 39.9844C39.554 39.4583 39.8118 39.0026 40.1503 38.6172C40.4889 38.2318 40.9055 37.9323 41.4003 37.7188C41.8951 37.5 42.4628 37.3906 43.1034 37.3906C43.7441 37.3906 44.3144 37.5 44.8144 37.7188C45.3144 37.9323 45.7336 38.2318 46.0722 38.6172C46.4159 39.0026 46.6764 39.4583 46.8534 39.9844C47.0305 40.5052 47.1191 41.0755 47.1191 41.6953V41.8594C47.1191 42.474 47.0305 43.0443 46.8534 43.5703C46.6764 44.0911 46.4159 44.5469 46.0722 44.9375C45.7336 45.3229 45.317 45.6224 44.8222 45.8359C44.3274 46.0495 43.7597 46.1562 43.1191 46.1562C42.4784 46.1562 41.9081 46.0495 41.4081 45.8359C40.9133 45.6224 40.4941 45.3229 40.1503 44.9375C39.8118 44.5469 39.554 44.0911 39.3769 43.5703C39.1998 43.0443 39.1113 42.474 39.1113 41.8594ZM41.3613 41.6953V41.8594C41.3613 42.2135 41.3925 42.5443 41.455 42.8516C41.5175 43.1589 41.6165 43.4297 41.7519 43.6641C41.8925 43.8932 42.0748 44.0729 42.2988 44.2031C42.5227 44.3333 42.7961 44.3984 43.1191 44.3984C43.4316 44.3984 43.6998 44.3333 43.9238 44.2031C44.1477 44.0729 44.3274 43.8932 44.4628 43.6641C44.5982 43.4297 44.6972 43.1589 44.7597 42.8516C44.8274 42.5443 44.8613 42.2135 44.8613 41.8594V41.6953C44.8613 41.3516 44.8274 41.0286 44.7597 40.7266C44.6972 40.4193 44.5956 40.1484 44.455 39.9141C44.3196 39.6745 44.1399 39.487 43.9159 39.3516C43.692 39.2161 43.4211 39.1484 43.1034 39.1484C42.7857 39.1484 42.5149 39.2161 42.2909 39.3516C42.0722 39.487 41.8925 39.6745 41.7519 39.9141C41.6165 40.1484 41.5175 40.4193 41.455 40.7266C41.3925 41.0286 41.3613 41.3516 41.3613 41.6953ZM50.3969 34V46H48.1391V34H50.3969ZM55.6669 46.1562C55.0106 46.1562 54.4221 46.0521 53.9012 45.8438C53.3804 45.6302 52.9377 45.3359 52.5731 44.9609C52.2137 44.5859 51.9377 44.151 51.745 43.6562C51.5523 43.1562 51.4559 42.625 51.4559 42.0625V41.75C51.4559 41.1094 51.5471 40.5234 51.7294 39.9922C51.9117 39.4609 52.1721 39 52.5106 38.6094C52.8544 38.2188 53.271 37.9193 53.7606 37.7109C54.2502 37.4974 54.8023 37.3906 55.4169 37.3906C56.0158 37.3906 56.5471 37.4896 57.0106 37.6875C57.4742 37.8854 57.8622 38.1667 58.1747 38.5312C58.4924 38.8958 58.732 39.3333 58.8934 39.8438C59.0549 40.349 59.1356 40.9115 59.1356 41.5312V42.4688H52.4169V40.9688H56.9247V40.7969C56.9247 40.4844 56.8674 40.2057 56.7528 39.9609C56.6434 39.7109 56.4768 39.513 56.2528 39.3672C56.0289 39.2214 55.7424 39.1484 55.3934 39.1484C55.0966 39.1484 54.8414 39.2135 54.6278 39.3438C54.4143 39.474 54.2398 39.6562 54.1044 39.8906C53.9742 40.125 53.8752 40.401 53.8075 40.7188C53.745 41.0312 53.7137 41.375 53.7137 41.75V42.0625C53.7137 42.401 53.7606 42.7135 53.8544 43C53.9533 43.2865 54.0914 43.5339 54.2684 43.7422C54.4507 43.9505 54.6695 44.112 54.9247 44.2266C55.1851 44.3411 55.4794 44.3984 55.8075 44.3984C56.2137 44.3984 56.5914 44.3203 56.9403 44.1641C57.2945 44.0026 57.5992 43.7604 57.8544 43.4375L58.9481 44.625C58.771 44.8802 58.5289 45.125 58.2216 45.3594C57.9195 45.5938 57.5549 45.7865 57.1278 45.9375C56.7007 46.0833 56.2137 46.1562 55.6669 46.1562Z" fill="#242424"/>
<path d="M11.3344 89.3027V91.5H1.60781V89.625L6.20742 84.6934C6.66966 84.179 7.03425 83.7266 7.30117 83.3359C7.5681 82.9388 7.76016 82.584 7.87734 82.2715C8.00104 81.9525 8.06289 81.6497 8.06289 81.3633C8.06289 80.9336 7.99128 80.5658 7.84805 80.2598C7.70482 79.9473 7.49323 79.7064 7.21328 79.5371C6.93984 79.3678 6.6013 79.2832 6.19766 79.2832C5.76797 79.2832 5.39688 79.3874 5.08438 79.5957C4.77839 79.804 4.54401 80.0938 4.38125 80.4648C4.225 80.8359 4.14688 81.2559 4.14688 81.7246H1.32461C1.32461 80.8783 1.52643 80.1035 1.93008 79.4004C2.33372 78.6908 2.90339 78.1276 3.63906 77.7109C4.37474 77.2878 5.24714 77.0762 6.25625 77.0762C7.25234 77.0762 8.09219 77.2389 8.77578 77.5645C9.46589 77.8835 9.98672 78.3457 10.3383 78.9512C10.6964 79.5501 10.8754 80.2663 10.8754 81.0996C10.8754 81.5684 10.8005 82.0273 10.6508 82.4766C10.501 82.9193 10.2862 83.362 10.0063 83.8047C9.73281 84.2409 9.40078 84.6836 9.01016 85.1328C8.61953 85.582 8.18659 86.0475 7.71133 86.5293L5.24063 89.3027H11.3344ZM19.748 77.1348H20.1582V79.3809H19.9922C19.25 79.3809 18.5892 79.4915 18.0098 79.7129C17.4303 79.9342 16.9388 80.25 16.5352 80.6602C16.138 81.0638 15.832 81.5521 15.6172 82.125C15.4089 82.6979 15.3047 83.3392 15.3047 84.0488V86.4121C15.3047 86.9199 15.3535 87.3691 15.4512 87.7598C15.5553 88.1439 15.7018 88.4661 15.8906 88.7266C16.0859 88.9805 16.3138 89.1725 16.5742 89.3027C16.8346 89.4264 17.1276 89.4883 17.4531 89.4883C17.7591 89.4883 18.0358 89.4232 18.2832 89.293C18.5371 89.1628 18.752 88.9805 18.9277 88.7461C19.11 88.5052 19.2467 88.2253 19.3379 87.9062C19.4355 87.5807 19.4844 87.2259 19.4844 86.8418C19.4844 86.4577 19.4355 86.1029 19.3379 85.7773C19.2467 85.4518 19.11 85.1719 18.9277 84.9375C18.7454 84.6966 18.5241 84.5111 18.2637 84.3809C18.0033 84.2507 17.7103 84.1855 17.3848 84.1855C16.9421 84.1855 16.5514 84.2897 16.2129 84.498C15.8809 84.6999 15.6204 84.9603 15.4316 85.2793C15.2428 85.5983 15.1419 85.9336 15.1289 86.2852L14.2793 85.7383C14.2988 85.237 14.403 84.7617 14.5918 84.3125C14.7871 83.8633 15.054 83.4661 15.3926 83.1211C15.7376 82.7695 16.151 82.4961 16.6328 82.3008C17.1146 82.099 17.6582 81.998 18.2637 81.998C18.9277 81.998 19.5104 82.125 20.0117 82.3789C20.5195 82.6328 20.9427 82.9811 21.2812 83.4238C21.6198 83.8665 21.8737 84.3776 22.043 84.957C22.2122 85.5365 22.2969 86.1549 22.2969 86.8125C22.2969 87.5026 22.1829 88.1439 21.9551 88.7363C21.7337 89.3288 21.4115 89.8464 20.9883 90.2891C20.5716 90.7318 20.0703 91.0768 19.4844 91.3242C18.8984 91.5716 18.2409 91.6953 17.5117 91.6953C16.7565 91.6953 16.0697 91.5586 15.4512 91.2852C14.8392 91.0052 14.3118 90.6146 13.8691 90.1133C13.4264 89.612 13.0846 89.0163 12.8438 88.3262C12.6094 87.6361 12.4922 86.8809 12.4922 86.0605V84.9668C12.4922 83.821 12.6582 82.7728 12.9902 81.8223C13.3288 80.8652 13.8138 80.0384 14.4453 79.3418C15.0768 78.6387 15.8385 78.0951 16.7305 77.7109C17.6224 77.3268 18.6283 77.1348 19.748 77.1348Z" fill="#B30435"/>
<path d="M38.312 76.284H39.656V84.044H38.312V76.284ZM30.328 84.764H31.64V86.524H38.344V84.764H39.656V90.556H30.328V84.764ZM31.64 87.58V89.484H38.344V87.58H31.64ZM31.896 76.972C34.088 76.972 35.656 78.332 35.656 80.3C35.656 82.284 34.088 83.644 31.896 83.644C29.704 83.644 28.12 82.284 28.12 80.3C28.12 78.332 29.704 76.972 31.896 76.972ZM31.896 78.076C30.456 78.076 29.416 78.988 29.416 80.3C29.416 81.612 30.456 82.524 31.896 82.524C33.336 82.524 34.376 81.612 34.376 80.3C34.376 78.988 33.336 78.076 31.896 78.076Z" fill="#242424"/>
<path d="M74.4633 77.252V91.5H71.6508V80.4941L68.2719 81.5684V79.3516L74.1605 77.252H74.4633ZM88.4531 86.1875V88.3945H78.209L78.0723 86.6855L84 77.2812H86.2363L83.8145 81.334L80.8652 86.1875H88.4531ZM86.8418 77.2812V91.5H84.0293V77.2812H86.8418Z" fill="#767676"/>
<path d="M99.656 83.484H100.984V85.676H99.656V83.484ZM93.8 82.7H106.856V83.724H93.8V82.7ZM99.672 76.188H100.984V77.948H99.672V76.188ZM99.608 78.076H100.776V78.3C100.776 80.572 98.072 81.788 94.872 82.06L94.488 81.036C97.336 80.86 99.608 79.852 99.608 78.3V78.076ZM99.88 78.076H101.048V78.3C101.048 79.852 103.32 80.86 106.152 81.036L105.768 82.06C102.568 81.788 99.88 80.572 99.88 78.3V78.076ZM95.128 77.548H105.528V78.556H95.128V77.548ZM95.368 85.036H105.192V88.22H96.712V89.964H95.4V87.276H103.88V86.044H95.368V85.036ZM95.4 89.58H105.624V90.588H95.4V89.58Z" fill="#242424"/>
<path d="M150 48C150 21.4903 171.49 0 198 0C224.51 0 246 21.4903 246 48C246 74.5097 224.51 96 198 96C171.49 96 150 74.5097 150 48Z" fill="#B30435"/>
<path d="M192.031 23.7031V46.5H187.531V28.8906L182.125 30.6094V27.0625L191.547 23.7031H192.031ZM215 42.9844V46.5H199.438V43.5L206.797 35.6094C207.536 34.7865 208.12 34.0625 208.547 33.4375C208.974 32.8021 209.281 32.2344 209.469 31.7344C209.667 31.224 209.766 30.7396 209.766 30.2812C209.766 29.5938 209.651 29.0052 209.422 28.5156C209.193 28.0156 208.854 27.6302 208.406 27.3594C207.969 27.0885 207.427 26.9531 206.781 26.9531C206.094 26.9531 205.5 27.1198 205 27.4531C204.51 27.7865 204.135 28.25 203.875 28.8438C203.625 29.4375 203.5 30.1094 203.5 30.8594H198.984C198.984 29.5052 199.307 28.2656 199.953 27.1406C200.599 26.0052 201.51 25.1042 202.688 24.4375C203.865 23.7604 205.26 23.4219 206.875 23.4219C208.469 23.4219 209.812 23.6823 210.906 24.2031C212.01 24.7135 212.844 25.4531 213.406 26.4219C213.979 27.3802 214.266 28.526 214.266 29.8594C214.266 30.6094 214.146 31.3438 213.906 32.0625C213.667 32.7708 213.323 33.4792 212.875 34.1875C212.438 34.8854 211.906 35.5938 211.281 36.3125C210.656 37.0312 209.964 37.776 209.203 38.5469L205.25 42.9844H215Z" fill="white"/>
<path d="M180.816 67.012L179.822 68.426C178.45 67.964 177.498 67.068 176.938 65.948C176.364 67.208 175.356 68.23 173.858 68.734L172.92 67.278C175.048 66.578 175.958 64.87 175.958 63.246V63.232H173.438V61.762H180.368V63.232H177.848V63.246C177.848 64.786 178.73 66.34 180.816 67.012ZM176.784 69.35V72.01H183.714V73.48H174.936V69.35H176.784ZM183.252 64.562H184.96V66.074H183.252V70.26H181.404V60.81H183.252V64.562ZM192.477 67.446H194.675V64.926H192.435C192.519 65.346 192.561 65.808 192.561 66.298C192.561 66.704 192.533 67.096 192.477 67.446ZM189.229 69.238C190.181 69.238 190.825 68.216 190.825 66.298C190.825 64.394 190.181 63.372 189.229 63.372C188.291 63.372 187.647 64.394 187.647 66.298C187.647 68.216 188.291 69.238 189.229 69.238ZM194.675 60.796H196.523V73.732H194.675V68.944H192.043C191.469 70.204 190.475 70.932 189.229 70.918C187.311 70.918 185.897 69.14 185.897 66.298C185.897 63.47 187.311 61.706 189.229 61.706C190.391 61.706 191.357 62.336 191.931 63.442H194.675V60.796ZM209.01 60.824V70.078H207.148V60.824H209.01ZM200.288 64.912C200.288 65.948 201.044 66.578 201.996 66.578C202.962 66.578 203.69 65.948 203.69 64.912C203.69 63.848 202.962 63.232 201.996 63.232C201.044 63.232 200.288 63.848 200.288 64.912ZM205.496 64.912C205.496 66.788 203.97 68.174 201.996 68.174C200.022 68.174 198.482 66.788 198.482 64.912C198.482 63.008 200.022 61.636 201.996 61.636C203.97 61.636 205.496 63.008 205.496 64.912ZM202.276 72.01H209.332V73.48H200.428V69.168H202.276V72.01ZM217.479 68.3H219.901V60.81H221.749V70.582H219.901V69.56H217.479V68.3ZM215.001 62.588C214.133 62.588 213.531 62.924 213.531 63.554C213.531 64.184 214.133 64.506 215.001 64.506C215.855 64.506 216.457 64.184 216.457 63.554C216.457 62.924 215.855 62.588 215.001 62.588ZM215.001 65.85C213.111 65.85 211.795 64.926 211.795 63.554C211.795 62.182 213.111 61.244 215.001 61.244C216.877 61.244 218.207 62.182 218.207 63.554C218.207 64.926 216.877 65.85 215.001 65.85ZM214.315 72.01H222.029V73.48H212.467V69.644H214.259V67.922C213.125 67.978 212.047 67.992 211.081 67.992L210.843 66.522C213.195 66.508 216.331 66.48 219.047 66.13L219.173 67.446C218.165 67.614 217.129 67.726 216.093 67.81V70.246H214.315V72.01Z" fill="white"/>
<path d="M214 16C214 7.16344 221.163 0 230 0C238.837 0 246 7.16344 246 16C246 24.8366 238.837 32 230 32C221.163 32 214 24.8366 214 16Z" fill="#FAB832"/>
<g clip-path="url(#clip0_2286_2621)">
<path d="M238 22.3335C238 22.7015 237.701 23.0001 237.333 23.0001H222.667C222.299 23.0001 222 22.7015 222 22.3335C222 21.2288 222.895 20.3335 224 20.3335H236C237.105 20.3335 238 21.2288 238 22.3335ZM236.807 11.1355L237.807 10.1241C238.067 9.86213 238.064 9.44079 237.802 9.18146C237.539 8.92213 237.118 8.92479 236.859 9.18679L235.859 10.1981C235.6 10.4601 235.603 10.8815 235.865 11.1408C235.995 11.2688 236.164 11.3335 236.333 11.3335C236.505 11.3335 236.677 11.2675 236.807 11.1355ZM234.259 8.97346L234.777 7.97346C234.946 7.64679 234.818 7.24413 234.491 7.07479C234.166 6.90546 233.762 7.03213 233.593 7.36013L233.075 8.36013C232.905 8.68679 233.033 9.08946 233.36 9.25879C233.457 9.30946 233.563 9.33346 233.666 9.33346C233.907 9.33346 234.14 9.20279 234.259 8.97346ZM224.135 11.1408C224.397 10.8815 224.399 10.4601 224.141 10.1981L223.141 9.18679C222.883 8.92479 222.459 8.92279 222.198 9.18146C221.936 9.44079 221.934 9.86213 222.193 10.1241L223.193 11.1355C223.323 11.2675 223.495 11.3335 223.667 11.3335C223.836 11.3335 224.006 11.2688 224.135 11.1408ZM226.64 9.25879C226.967 9.08946 227.095 8.68746 226.925 8.36013L226.407 7.36013C226.237 7.03213 225.834 6.90546 225.509 7.07479C225.182 7.24413 225.054 7.64613 225.223 7.97346L225.741 8.97346C225.86 9.20279 226.093 9.33346 226.334 9.33346C226.437 9.33346 226.542 9.30946 226.64 9.25879ZM236 15.6668V18.3335C236 18.7021 235.702 19.0001 235.333 19.0001H224.667C224.298 19.0001 224 18.7021 224 18.3335V15.6668C224 12.3581 226.691 9.66679 230 9.66679C233.309 9.66679 236 12.3581 236 15.6668ZM230.667 13.6668C230.667 13.2981 230.369 13.0001 230 13.0001C228.529 13.0001 227.333 14.1961 227.333 15.6668C227.333 16.0355 227.631 16.3335 228 16.3335C228.369 16.3335 228.667 16.0355 228.667 15.6668C228.667 14.9315 229.265 14.3335 230 14.3335C230.369 14.3335 230.667 14.0355 230.667 13.6668Z" fill="white"/>
</g>
<defs>
<clipPath id="clip0_2286_2621">
<rect width="16" height="16" fill="white" transform="translate(222 7)"/>
</clipPath>
</defs>
</svg>
