<svg width="246" height="96" viewBox="0 0 246 96" fill="none" xmlns="http://www.w3.org/2000/svg">
<path d="M3.75781 25.1953L6.02344 15.625H7.28906L7.57812 17.2188L5.16406 27H3.80469L3.75781 25.1953ZM2.59375 15.625L4.46875 25.1953L4.3125 27H2.79688L0.273438 15.625H2.59375ZM9.57031 25.1562L11.4219 15.625H13.7422L11.2266 27H9.71094L9.57031 25.1562ZM8 15.625L10.2812 25.2344L10.2188 27H8.85938L6.42969 17.2109L6.74219 15.625H8ZM19.7309 15.625V27H17.395V15.625H19.7309ZM23.2309 15.625V17.4609H13.9497V15.625H23.2309ZM24.0869 15.625H28.3291C29.1989 15.625 29.9463 15.7552 30.5713 16.0156C31.2015 16.276 31.6858 16.6615 32.0244 17.1719C32.3629 17.6823 32.5322 18.3099 32.5322 19.0547C32.5322 19.6641 32.428 20.1875 32.2197 20.625C32.0166 21.0573 31.7275 21.4193 31.3525 21.7109C30.9827 21.9974 30.5478 22.2266 30.0478 22.3984L29.3056 22.7891H25.6181L25.6025 20.9609H28.3447C28.7561 20.9609 29.0973 20.888 29.3681 20.7422C29.639 20.5964 29.8421 20.3932 29.9775 20.1328C30.1181 19.8724 30.1884 19.5703 30.1884 19.2266C30.1884 18.862 30.1207 18.5469 29.9853 18.2812C29.8499 18.0156 29.6442 17.8125 29.3681 17.6719C29.0921 17.5312 28.7457 17.4609 28.3291 17.4609H26.4306V27H24.0869V15.625ZM30.4463 27L27.8525 21.9297L30.3291 21.9141L32.9541 26.8906V27H30.4463ZM38.1538 21.2344V23H33.7397V21.2344H38.1538ZM44.1425 22.0078H41.2206L41.205 20.3984H43.6581C44.0904 20.3984 44.4446 20.3438 44.7206 20.2344C44.9967 20.1198 45.2024 19.9557 45.3378 19.7422C45.4784 19.5234 45.5488 19.2578 45.5488 18.9453C45.5488 18.5911 45.481 18.3047 45.3456 18.0859C45.2154 17.8672 45.0097 17.7083 44.7284 17.6094C44.4524 17.5104 44.0956 17.4609 43.6581 17.4609H42.0331V27H39.6894V15.625H43.6581C44.3196 15.625 44.9107 15.6875 45.4316 15.8125C45.9576 15.9375 46.4029 16.1276 46.7675 16.3828C47.1321 16.638 47.4107 16.9609 47.6034 17.3516C47.7961 17.737 47.8925 18.1953 47.8925 18.7266C47.8925 19.1953 47.7857 19.6276 47.5722 20.0234C47.3639 20.4193 47.0331 20.7422 46.58 20.9922C46.1321 21.2422 45.5461 21.3802 44.8222 21.4062L44.1425 22.0078ZM44.0409 27H40.58L41.4941 25.1719H44.0409C44.4524 25.1719 44.7883 25.1068 45.0488 24.9766C45.3092 24.8411 45.5019 24.6589 45.6269 24.4297C45.7519 24.2005 45.8144 23.9375 45.8144 23.6406C45.8144 23.3073 45.7571 23.0182 45.6425 22.7734C45.5331 22.5286 45.356 22.3411 45.1113 22.2109C44.8665 22.0755 44.5435 22.0078 44.1425 22.0078H41.8847L41.9003 20.3984H44.7128L45.2519 21.0312C45.9446 21.0208 46.5019 21.1432 46.9238 21.3984C47.3508 21.6484 47.6607 21.974 47.8534 22.375C48.0514 22.776 48.1503 23.2057 48.1503 23.6641C48.1503 24.3932 47.9915 25.0078 47.6738 25.5078C47.356 26.0026 46.8899 26.375 46.2753 26.625C45.6659 26.875 44.9211 27 44.0409 27ZM48.9281 22.8594V22.6953C48.9281 22.0755 49.0167 21.5052 49.1937 20.9844C49.3708 20.4583 49.6286 20.0026 49.9672 19.6172C50.3057 19.2318 50.7224 18.9323 51.2172 18.7188C51.712 18.5 52.2797 18.3906 52.9203 18.3906C53.5609 18.3906 54.1312 18.5 54.6312 18.7188C55.1312 18.9323 55.5505 19.2318 55.8891 19.6172C56.2328 20.0026 56.4932 20.4583 56.6703 20.9844C56.8474 21.5052 56.9359 22.0755 56.9359 22.6953V22.8594C56.9359 23.474 56.8474 24.0443 56.6703 24.5703C56.4932 25.0911 56.2328 25.5469 55.8891 25.9375C55.5505 26.3229 55.1339 26.6224 54.6391 26.8359C54.1443 27.0495 53.5766 27.1562 52.9359 27.1562C52.2953 27.1562 51.725 27.0495 51.225 26.8359C50.7302 26.6224 50.3109 26.3229 49.9672 25.9375C49.6286 25.5469 49.3708 25.0911 49.1937 24.5703C49.0167 24.0443 48.9281 23.474 48.9281 22.8594ZM51.1781 22.6953V22.8594C51.1781 23.2135 51.2094 23.5443 51.2719 23.8516C51.3344 24.1589 51.4333 24.4297 51.5687 24.6641C51.7094 24.8932 51.8917 25.0729 52.1156 25.2031C52.3396 25.3333 52.613 25.3984 52.9359 25.3984C53.2484 25.3984 53.5167 25.3333 53.7406 25.2031C53.9646 25.0729 54.1443 24.8932 54.2797 24.6641C54.4151 24.4297 54.5141 24.1589 54.5766 23.8516C54.6443 23.5443 54.6781 23.2135 54.6781 22.8594V22.6953C54.6781 22.3516 54.6443 22.0286 54.5766 21.7266C54.5141 21.4193 54.4125 21.1484 54.2719 20.9141C54.1365 20.6745 53.9568 20.487 53.7328 20.3516C53.5089 20.2161 53.238 20.1484 52.9203 20.1484C52.6026 20.1484 52.3318 20.2161 52.1078 20.3516C51.8891 20.487 51.7094 20.6745 51.5687 20.9141C51.4333 21.1484 51.3344 21.4193 51.2719 21.7266C51.2094 22.0286 51.1781 22.3516 51.1781 22.6953ZM59.4794 18.5469L60.8778 21.1172L62.3153 18.5469H64.7137L62.3231 22.6797L64.8231 27H62.4169L60.8934 24.2812L59.37 27H56.9637L59.4637 22.6797L57.0731 18.5469H59.4794ZM71.4647 15.625V27H69.1288V15.625H71.4647ZM75.2425 20.3516V27H72.9925V18.5469H75.1019L75.2425 20.3516ZM74.9144 22.4766H74.305C74.305 21.8516 74.3857 21.2891 74.5472 20.7891C74.7086 20.2839 74.9352 19.8542 75.2269 19.5C75.5185 19.1406 75.8649 18.8672 76.2659 18.6797C76.6722 18.487 77.1253 18.3906 77.6253 18.3906C78.0211 18.3906 78.3831 18.4479 78.7113 18.5625C79.0394 18.6771 79.3206 18.8594 79.555 19.1094C79.7946 19.3594 79.9769 19.6901 80.1019 20.1016C80.2321 20.513 80.2972 21.0156 80.2972 21.6094V27H78.0316V21.6016C78.0316 21.2266 77.9795 20.9349 77.8753 20.7266C77.7711 20.5182 77.6175 20.3724 77.4144 20.2891C77.2165 20.2005 76.9717 20.1562 76.68 20.1562C76.3779 20.1562 76.1149 20.2161 75.8909 20.3359C75.6722 20.4557 75.4899 20.6224 75.3441 20.8359C75.2034 21.0443 75.0967 21.2891 75.0238 21.5703C74.9508 21.8516 74.9144 22.1536 74.9144 22.4766ZM83.9031 15V27H81.6453V15H83.9031ZM89.1731 27.1562C88.5169 27.1562 87.9283 27.0521 87.4075 26.8438C86.8867 26.6302 86.444 26.3359 86.0794 25.9609C85.72 25.5859 85.444 25.151 85.2513 24.6562C85.0585 24.1562 84.9622 23.625 84.9622 23.0625V22.75C84.9622 22.1094 85.0533 21.5234 85.2356 20.9922C85.4179 20.4609 85.6783 20 86.0169 19.6094C86.3606 19.2188 86.7773 18.9193 87.2669 18.7109C87.7565 18.4974 88.3085 18.3906 88.9231 18.3906C89.5221 18.3906 90.0533 18.4896 90.5169 18.6875C90.9804 18.8854 91.3684 19.1667 91.6809 19.5312C91.9986 19.8958 92.2382 20.3333 92.3997 20.8438C92.5611 21.349 92.6419 21.9115 92.6419 22.5312V23.4688H85.9231V21.9688H90.4309V21.7969C90.4309 21.4844 90.3736 21.2057 90.2591 20.9609C90.1497 20.7109 89.983 20.513 89.7591 20.3672C89.5351 20.2214 89.2486 20.1484 88.8997 20.1484C88.6028 20.1484 88.3476 20.2135 88.1341 20.3438C87.9205 20.474 87.746 20.6562 87.6106 20.8906C87.4804 21.125 87.3815 21.401 87.3138 21.7188C87.2513 22.0312 87.22 22.375 87.22 22.75V23.0625C87.22 23.401 87.2669 23.7135 87.3606 24C87.4596 24.2865 87.5976 24.5339 87.7747 24.7422C87.957 24.9505 88.1757 25.112 88.4309 25.2266C88.6914 25.3411 88.9856 25.3984 89.3138 25.3984C89.72 25.3984 90.0976 25.3203 90.4466 25.1641C90.8007 25.0026 91.1054 24.7604 91.3606 24.4375L92.4544 25.625C92.2773 25.8802 92.0351 26.125 91.7278 26.3594C91.4257 26.5938 91.0611 26.7865 90.6341 26.9375C90.207 27.0833 89.72 27.1562 89.1731 27.1562ZM97.5837 18.5469V20.1406H92.6619V18.5469H97.5837ZM93.8806 16.4609H96.1306V24.4531C96.1306 24.6979 96.1619 24.8854 96.2244 25.0156C96.2921 25.1458 96.391 25.237 96.5212 25.2891C96.6515 25.3359 96.8155 25.3594 97.0134 25.3594C97.1541 25.3594 97.2791 25.3542 97.3884 25.3438C97.503 25.3281 97.5994 25.3125 97.6775 25.2969L97.6853 26.9531C97.4926 27.0156 97.2843 27.0651 97.0603 27.1016C96.8364 27.138 96.589 27.1562 96.3181 27.1562C95.8233 27.1562 95.391 27.0755 95.0212 26.9141C94.6567 26.7474 94.3754 26.4818 94.1775 26.1172C93.9796 25.7526 93.8806 25.2734 93.8806 24.6797V16.4609Z" fill="#242424"/>
<path d="M8.74805 58.1348H9.1582V60.3809H8.99219C8.25 60.3809 7.58919 60.4915 7.00977 60.7129C6.43034 60.9342 5.9388 61.25 5.53516 61.6602C5.13802 62.0638 4.83203 62.5521 4.61719 63.125C4.40885 63.6979 4.30469 64.3392 4.30469 65.0488V67.4121C4.30469 67.9199 4.35352 68.3691 4.45117 68.7598C4.55534 69.1439 4.70182 69.4661 4.89062 69.7266C5.08594 69.9805 5.3138 70.1725 5.57422 70.3027C5.83464 70.4264 6.1276 70.4883 6.45312 70.4883C6.75911 70.4883 7.03581 70.4232 7.2832 70.293C7.53711 70.1628 7.75195 69.9805 7.92773 69.7461C8.11003 69.5052 8.24674 69.2253 8.33789 68.9062C8.43555 68.5807 8.48438 68.2259 8.48438 67.8418C8.48438 67.4577 8.43555 67.1029 8.33789 66.7773C8.24674 66.4518 8.11003 66.1719 7.92773 65.9375C7.74544 65.6966 7.52409 65.5111 7.26367 65.3809C7.00326 65.2507 6.71029 65.1855 6.38477 65.1855C5.94206 65.1855 5.55143 65.2897 5.21289 65.498C4.88086 65.6999 4.62044 65.9603 4.43164 66.2793C4.24284 66.5983 4.14193 66.9336 4.12891 67.2852L3.2793 66.7383C3.29883 66.237 3.40299 65.7617 3.5918 65.3125C3.78711 64.8633 4.05404 64.4661 4.39258 64.1211C4.73763 63.7695 5.15104 63.4961 5.63281 63.3008C6.11458 63.099 6.6582 62.998 7.26367 62.998C7.92773 62.998 8.51042 63.125 9.01172 63.3789C9.51953 63.6328 9.94271 63.9811 10.2812 64.4238C10.6198 64.8665 10.8737 65.3776 11.043 65.957C11.2122 66.5365 11.2969 67.1549 11.2969 67.8125C11.2969 68.5026 11.1829 69.1439 10.9551 69.7363C10.7337 70.3288 10.4115 70.8464 9.98828 71.2891C9.57161 71.7318 9.07031 72.0768 8.48438 72.3242C7.89844 72.5716 7.24089 72.6953 6.51172 72.6953C5.75651 72.6953 5.06966 72.5586 4.45117 72.2852C3.83919 72.0052 3.31185 71.6146 2.86914 71.1133C2.42643 70.612 2.08464 70.0163 1.84375 69.3262C1.60938 68.6361 1.49219 67.8809 1.49219 67.0605V65.9668C1.49219 64.821 1.6582 63.7728 1.99023 62.8223C2.32878 61.8652 2.8138 61.0384 3.44531 60.3418C4.07682 59.6387 4.83854 59.0951 5.73047 58.7109C6.6224 58.3268 7.62826 58.1348 8.74805 58.1348Z" fill="#0476CD"/>
<path d="M27.312 57.284H28.656V65.044H27.312V57.284ZM19.328 65.764H20.64V67.524H27.344V65.764H28.656V71.556H19.328V65.764ZM20.64 68.58V70.484H27.344V68.58H20.64ZM20.896 57.972C23.088 57.972 24.656 59.332 24.656 61.3C24.656 63.284 23.088 64.644 20.896 64.644C18.704 64.644 17.12 63.284 17.12 61.3C17.12 59.332 18.704 57.972 20.896 57.972ZM20.896 59.076C19.456 59.076 18.416 59.988 18.416 61.3C18.416 62.612 19.456 63.524 20.896 63.524C22.336 63.524 23.376 62.612 23.376 61.3C23.376 59.988 22.336 59.076 20.896 59.076Z" fill="#242424"/>
<path d="M63.748 58.1348H64.1582V60.3809H63.9922C63.25 60.3809 62.5892 60.4915 62.0098 60.7129C61.4303 60.9342 60.9388 61.25 60.5352 61.6602C60.138 62.0638 59.832 62.5521 59.6172 63.125C59.4089 63.6979 59.3047 64.3392 59.3047 65.0488V67.4121C59.3047 67.9199 59.3535 68.3691 59.4512 68.7598C59.5553 69.1439 59.7018 69.4661 59.8906 69.7266C60.0859 69.9805 60.3138 70.1725 60.5742 70.3027C60.8346 70.4264 61.1276 70.4883 61.4531 70.4883C61.7591 70.4883 62.0358 70.4232 62.2832 70.293C62.5371 70.1628 62.752 69.9805 62.9277 69.7461C63.11 69.5052 63.2467 69.2253 63.3379 68.9062C63.4355 68.5807 63.4844 68.2259 63.4844 67.8418C63.4844 67.4577 63.4355 67.1029 63.3379 66.7773C63.2467 66.4518 63.11 66.1719 62.9277 65.9375C62.7454 65.6966 62.5241 65.5111 62.2637 65.3809C62.0033 65.2507 61.7103 65.1855 61.3848 65.1855C60.9421 65.1855 60.5514 65.2897 60.2129 65.498C59.8809 65.6999 59.6204 65.9603 59.4316 66.2793C59.2428 66.5983 59.1419 66.9336 59.1289 67.2852L58.2793 66.7383C58.2988 66.237 58.403 65.7617 58.5918 65.3125C58.7871 64.8633 59.054 64.4661 59.3926 64.1211C59.7376 63.7695 60.151 63.4961 60.6328 63.3008C61.1146 63.099 61.6582 62.998 62.2637 62.998C62.9277 62.998 63.5104 63.125 64.0117 63.3789C64.5195 63.6328 64.9427 63.9811 65.2812 64.4238C65.6198 64.8665 65.8737 65.3776 66.043 65.957C66.2122 66.5365 66.2969 67.1549 66.2969 67.8125C66.2969 68.5026 66.1829 69.1439 65.9551 69.7363C65.7337 70.3288 65.4115 70.8464 64.9883 71.2891C64.5716 71.7318 64.0703 72.0768 63.4844 72.3242C62.8984 72.5716 62.2409 72.6953 61.5117 72.6953C60.7565 72.6953 60.0697 72.5586 59.4512 72.2852C58.8392 72.0052 58.3118 71.6146 57.8691 71.1133C57.4264 70.612 57.0846 70.0163 56.8438 69.3262C56.6094 68.6361 56.4922 67.8809 56.4922 67.0605V65.9668C56.4922 64.821 56.6582 63.7728 56.9902 62.8223C57.3288 61.8652 57.8138 61.0384 58.4453 60.3418C59.0768 59.6387 59.8385 59.0951 60.7305 58.7109C61.6224 58.3268 62.6283 58.1348 63.748 58.1348Z" fill="#767676"/>
<path d="M77.656 64.484H78.984V66.676H77.656V64.484ZM71.8 63.7H84.856V64.724H71.8V63.7ZM77.672 57.188H78.984V58.948H77.672V57.188ZM77.608 59.076H78.776V59.3C78.776 61.572 76.072 62.788 72.872 63.06L72.488 62.036C75.336 61.86 77.608 60.852 77.608 59.3V59.076ZM77.88 59.076H79.048V59.3C79.048 60.852 81.32 61.86 84.152 62.036L83.768 63.06C80.568 62.788 77.88 61.572 77.88 59.3V59.076ZM73.128 58.548H83.528V59.556H73.128V58.548ZM73.368 66.036H83.192V69.22H74.712V70.964H73.4V68.276H81.88V67.044H73.368V66.036ZM73.4 70.58H83.624V71.588H73.4V70.58Z" fill="#242424"/>
<path d="M150.5 48C150.5 21.7665 171.766 0.5 198 0.5C224.234 0.5 245.5 21.7665 245.5 48C245.5 74.2335 224.234 95.5 198 95.5C171.766 95.5 150.5 74.2335 150.5 48Z" fill="#F6F7F9"/>
<path d="M150.5 48C150.5 21.7665 171.766 0.5 198 0.5C224.234 0.5 245.5 21.7665 245.5 48C245.5 74.2335 224.234 95.5 198 95.5C171.766 95.5 150.5 74.2335 150.5 48Z" stroke="#ECEEF3"/>
<path d="M205.375 33.125V37.0625C205.375 38.7708 205.193 40.2448 204.828 41.4844C204.464 42.7135 203.938 43.724 203.25 44.5156C202.573 45.2969 201.766 45.875 200.828 46.25C199.891 46.625 198.849 46.8125 197.703 46.8125C196.786 46.8125 195.932 46.6979 195.141 46.4688C194.349 46.2292 193.635 45.8594 193 45.3594C192.375 44.8594 191.833 44.2292 191.375 43.4688C190.927 42.6979 190.583 41.7812 190.344 40.7188C190.104 39.6562 189.984 38.4375 189.984 37.0625V33.125C189.984 31.4167 190.167 29.9531 190.531 28.7344C190.906 27.5052 191.432 26.5 192.109 25.7188C192.797 24.9375 193.609 24.3646 194.547 24C195.484 23.625 196.526 23.4375 197.672 23.4375C198.589 23.4375 199.438 23.5573 200.219 23.7969C201.01 24.026 201.724 24.3854 202.359 24.875C202.995 25.3646 203.536 25.9948 203.984 26.7656C204.432 27.526 204.776 28.4375 205.016 29.5C205.255 30.5521 205.375 31.7604 205.375 33.125ZM200.859 37.6562V32.5156C200.859 31.6927 200.812 30.974 200.719 30.3594C200.635 29.7448 200.505 29.224 200.328 28.7969C200.151 28.3594 199.932 28.0052 199.672 27.7344C199.411 27.4635 199.115 27.2656 198.781 27.1406C198.448 27.0156 198.078 26.9531 197.672 26.9531C197.161 26.9531 196.708 27.0521 196.312 27.25C195.927 27.4479 195.599 27.7656 195.328 28.2031C195.057 28.6302 194.849 29.2031 194.703 29.9219C194.568 30.6302 194.5 31.4948 194.5 32.5156V37.6562C194.5 38.4792 194.542 39.2031 194.625 39.8281C194.719 40.4531 194.854 40.9896 195.031 41.4375C195.219 41.875 195.438 42.2344 195.688 42.5156C195.948 42.7865 196.245 42.9844 196.578 43.1094C196.922 43.2344 197.297 43.2969 197.703 43.2969C198.203 43.2969 198.646 43.1979 199.031 43C199.427 42.7917 199.76 42.4688 200.031 42.0312C200.312 41.5833 200.521 41 200.656 40.2812C200.792 39.5625 200.859 38.6875 200.859 37.6562Z" fill="#0476CD"/>
<path d="M180.816 67.012L179.822 68.426C178.45 67.964 177.498 67.068 176.938 65.948C176.364 67.208 175.356 68.23 173.858 68.734L172.92 67.278C175.048 66.578 175.958 64.87 175.958 63.246V63.232H173.438V61.762H180.368V63.232H177.848V63.246C177.848 64.786 178.73 66.34 180.816 67.012ZM176.784 69.35V72.01H183.714V73.48H174.936V69.35H176.784ZM183.252 64.562H184.96V66.074H183.252V70.26H181.404V60.81H183.252V64.562ZM192.477 67.446H194.675V64.926H192.435C192.519 65.346 192.561 65.808 192.561 66.298C192.561 66.704 192.533 67.096 192.477 67.446ZM189.229 69.238C190.181 69.238 190.825 68.216 190.825 66.298C190.825 64.394 190.181 63.372 189.229 63.372C188.291 63.372 187.647 64.394 187.647 66.298C187.647 68.216 188.291 69.238 189.229 69.238ZM194.675 60.796H196.523V73.732H194.675V68.944H192.043C191.469 70.204 190.475 70.932 189.229 70.918C187.311 70.918 185.897 69.14 185.897 66.298C185.897 63.47 187.311 61.706 189.229 61.706C190.391 61.706 191.357 62.336 191.931 63.442H194.675V60.796ZM209.01 60.824V70.078H207.148V60.824H209.01ZM200.288 64.912C200.288 65.948 201.044 66.578 201.996 66.578C202.962 66.578 203.69 65.948 203.69 64.912C203.69 63.848 202.962 63.232 201.996 63.232C201.044 63.232 200.288 63.848 200.288 64.912ZM205.496 64.912C205.496 66.788 203.97 68.174 201.996 68.174C200.022 68.174 198.482 66.788 198.482 64.912C198.482 63.008 200.022 61.636 201.996 61.636C203.97 61.636 205.496 63.008 205.496 64.912ZM202.276 72.01H209.332V73.48H200.428V69.168H202.276V72.01ZM217.479 68.3H219.901V60.81H221.749V70.582H219.901V69.56H217.479V68.3ZM215.001 62.588C214.133 62.588 213.531 62.924 213.531 63.554C213.531 64.184 214.133 64.506 215.001 64.506C215.855 64.506 216.457 64.184 216.457 63.554C216.457 62.924 215.855 62.588 215.001 62.588ZM215.001 65.85C213.111 65.85 211.795 64.926 211.795 63.554C211.795 62.182 213.111 61.244 215.001 61.244C216.877 61.244 218.207 62.182 218.207 63.554C218.207 64.926 216.877 65.85 215.001 65.85ZM214.315 72.01H222.029V73.48H212.467V69.644H214.259V67.922C213.125 67.978 212.047 67.992 211.081 67.992L210.843 66.522C213.195 66.508 216.331 66.48 219.047 66.13L219.173 67.446C218.165 67.614 217.129 67.726 216.093 67.81V70.246H214.315V72.01Z" fill="black" fill-opacity="0.6"/>
</svg>
