<svg width="246" height="96" viewBox="0 0 246 96" fill="none" xmlns="http://www.w3.org/2000/svg">
<path d="M4.50781 27H2.03125L2.04688 25.1719H4.50781C5.1224 25.1719 5.64062 25.0339 6.0625 24.7578C6.48438 24.4766 6.80208 24.0677 7.01562 23.5312C7.23438 22.9948 7.34375 22.3464 7.34375 21.5859V21.0312C7.34375 20.4479 7.28125 19.9349 7.15625 19.4922C7.03646 19.0495 6.85677 18.6771 6.61719 18.375C6.3776 18.0729 6.08333 17.8464 5.73438 17.6953C5.38542 17.5391 4.98438 17.4609 4.53125 17.4609H1.98438V15.625H4.53125C5.29167 15.625 5.98698 15.7552 6.61719 16.0156C7.2526 16.2708 7.80208 16.638 8.26562 17.1172C8.72917 17.5964 9.08594 18.1693 9.33594 18.8359C9.59115 19.4974 9.71875 20.2344 9.71875 21.0469V21.5859C9.71875 22.3932 9.59115 23.1302 9.33594 23.7969C9.08594 24.4635 8.72917 25.0365 8.26562 25.5156C7.80729 25.9896 7.25781 26.3568 6.61719 26.6172C5.98177 26.8724 5.27865 27 4.50781 27ZM3.35938 15.625V27H1.01562V15.625H3.35938ZM14.6919 27.1562C14.0356 27.1562 13.4471 27.0521 12.9263 26.8438C12.4054 26.6302 11.9627 26.3359 11.5981 25.9609C11.2388 25.5859 10.9627 25.151 10.77 24.6562C10.5773 24.1562 10.4809 23.625 10.4809 23.0625V22.75C10.4809 22.1094 10.5721 21.5234 10.7544 20.9922C10.9367 20.4609 11.1971 20 11.5356 19.6094C11.8794 19.2188 12.296 18.9193 12.7856 18.7109C13.2752 18.4974 13.8273 18.3906 14.4419 18.3906C15.0408 18.3906 15.5721 18.4896 16.0356 18.6875C16.4992 18.8854 16.8872 19.1667 17.1997 19.5312C17.5174 19.8958 17.757 20.3333 17.9184 20.8438C18.0799 21.349 18.1606 21.9115 18.1606 22.5312V23.4688H11.4419V21.9688H15.9497V21.7969C15.9497 21.4844 15.8924 21.2057 15.7778 20.9609C15.6684 20.7109 15.5018 20.513 15.2778 20.3672C15.0539 20.2214 14.7674 20.1484 14.4184 20.1484C14.1216 20.1484 13.8664 20.2135 13.6528 20.3438C13.4393 20.474 13.2648 20.6562 13.1294 20.8906C12.9992 21.125 12.9002 21.401 12.8325 21.7188C12.77 22.0312 12.7388 22.375 12.7388 22.75V23.0625C12.7388 23.401 12.7856 23.7135 12.8794 24C12.9783 24.2865 13.1164 24.5339 13.2934 24.7422C13.4757 24.9505 13.6945 25.112 13.9497 25.2266C14.2101 25.3411 14.5044 25.3984 14.8325 25.3984C15.2388 25.3984 15.6164 25.3203 15.9653 25.1641C16.3195 25.0026 16.6242 24.7604 16.8794 24.4375L17.9731 25.625C17.796 25.8802 17.5539 26.125 17.2466 26.3594C16.9445 26.5938 16.5799 26.7865 16.1528 26.9375C15.7257 27.0833 15.2388 27.1562 14.6919 27.1562ZM18.9619 15H21.2119V25.0625L20.9853 27H18.9619V15ZM26.5634 22.6875V22.8516C26.5634 23.4818 26.4957 24.0599 26.3603 24.5859C26.2301 25.112 26.027 25.5677 25.7509 25.9531C25.4749 26.3333 25.1311 26.6302 24.7197 26.8438C24.3134 27.0521 23.8343 27.1562 23.2822 27.1562C22.7666 27.1562 22.3186 27.0521 21.9384 26.8438C21.5634 26.6354 21.2483 26.3411 20.9931 25.9609C20.7379 25.5807 20.5322 25.1354 20.3759 24.625C20.2197 24.1146 20.1025 23.5573 20.0244 22.9531V22.5938C20.1025 21.9896 20.2197 21.4323 20.3759 20.9219C20.5322 20.4115 20.7379 19.9661 20.9931 19.5859C21.2483 19.2057 21.5634 18.9115 21.9384 18.7031C22.3134 18.4948 22.7561 18.3906 23.2666 18.3906C23.8239 18.3906 24.3082 18.4974 24.7197 18.7109C25.1364 18.9193 25.4801 19.2161 25.7509 19.6016C26.027 19.9818 26.2301 20.4349 26.3603 20.9609C26.4957 21.4818 26.5634 22.0573 26.5634 22.6875ZM24.3134 22.8516V22.6875C24.3134 22.3438 24.2874 22.0208 24.2353 21.7188C24.1884 21.4115 24.1051 21.1432 23.9853 20.9141C23.8655 20.6797 23.7015 20.4948 23.4931 20.3594C23.29 20.224 23.027 20.1562 22.7041 20.1562C22.3968 20.1562 22.1364 20.2083 21.9228 20.3125C21.7093 20.4167 21.5322 20.5625 21.3916 20.75C21.2561 20.9375 21.1546 21.1615 21.0869 21.4219C21.0192 21.6771 20.9775 21.9583 20.9619 22.2656V23.2891C20.9775 23.7005 21.0452 24.0651 21.165 24.3828C21.29 24.6953 21.4775 24.9427 21.7275 25.125C21.9827 25.3021 22.3134 25.3906 22.7197 25.3906C23.0374 25.3906 23.3004 25.3281 23.5088 25.2031C23.7171 25.0781 23.8785 24.901 23.9931 24.6719C24.1129 24.4427 24.1963 24.1745 24.2431 23.8672C24.29 23.5547 24.3134 23.2161 24.3134 22.8516ZM29.7319 20.3906V27H27.4819V18.5469H29.5991L29.7319 20.3906ZM32.2787 18.4922L32.2397 20.5781C32.1303 20.5625 31.9975 20.5495 31.8412 20.5391C31.6902 20.5234 31.5522 20.5156 31.4272 20.5156C31.1095 20.5156 30.8334 20.5573 30.5991 20.6406C30.3699 20.7188 30.1772 20.8359 30.0209 20.9922C29.8699 21.1484 29.7553 21.3385 29.6772 21.5625C29.6043 21.7865 29.5626 22.0417 29.5522 22.3281L29.0991 22.1875C29.0991 21.6406 29.1537 21.138 29.2631 20.6797C29.3725 20.2161 29.5314 19.8125 29.7397 19.4688C29.9532 19.125 30.2136 18.8594 30.5209 18.6719C30.8282 18.4844 31.1798 18.3906 31.5756 18.3906C31.7006 18.3906 31.8282 18.401 31.9584 18.4219C32.0886 18.4375 32.1954 18.4609 32.2787 18.4922ZM35.2362 18.5469V27H32.9784V18.5469H35.2362ZM32.8378 16.3438C32.8378 16.0156 32.9524 15.7448 33.1816 15.5312C33.4107 15.3177 33.718 15.2109 34.1034 15.2109C34.4836 15.2109 34.7883 15.3177 35.0175 15.5312C35.2519 15.7448 35.3691 16.0156 35.3691 16.3438C35.3691 16.6719 35.2519 16.9427 35.0175 17.1562C34.7883 17.3698 34.4836 17.4766 34.1034 17.4766C33.718 17.4766 33.4107 17.3698 33.1816 17.1562C32.9524 16.9427 32.8378 16.6719 32.8378 16.3438ZM41.1859 24.6641C41.1859 24.5026 41.1391 24.3568 41.0453 24.2266C40.9516 24.0964 40.7771 23.9766 40.5219 23.8672C40.2719 23.7526 39.9099 23.6484 39.4359 23.5547C39.0089 23.4609 38.6104 23.3438 38.2406 23.2031C37.876 23.0573 37.5583 22.8828 37.2875 22.6797C37.0219 22.4766 36.8135 22.237 36.6625 21.9609C36.5115 21.6797 36.4359 21.3594 36.4359 21C36.4359 20.6458 36.5115 20.3125 36.6625 20C36.8187 19.6875 37.0401 19.4115 37.3266 19.1719C37.6182 18.9271 37.9724 18.737 38.3891 18.6016C38.8109 18.4609 39.2849 18.3906 39.8109 18.3906C40.5453 18.3906 41.1755 18.5078 41.7016 18.7422C42.2328 18.9766 42.6391 19.2995 42.9203 19.7109C43.2068 20.1172 43.35 20.5807 43.35 21.1016H41.1C41.1 20.8828 41.0531 20.6875 40.9594 20.5156C40.8708 20.3385 40.7302 20.2005 40.5375 20.1016C40.35 19.9974 40.1052 19.9453 39.8031 19.9453C39.5531 19.9453 39.337 19.9896 39.1547 20.0781C38.9724 20.1615 38.8318 20.276 38.7328 20.4219C38.6391 20.5625 38.5922 20.7188 38.5922 20.8906C38.5922 21.0208 38.6182 21.138 38.6703 21.2422C38.7276 21.3411 38.8187 21.4323 38.9437 21.5156C39.0687 21.599 39.2302 21.6771 39.4281 21.75C39.6312 21.8177 39.8812 21.8802 40.1781 21.9375C40.7875 22.0625 41.3318 22.2266 41.8109 22.4297C42.2901 22.6276 42.6703 22.8984 42.9516 23.2422C43.2328 23.5807 43.3734 24.026 43.3734 24.5781C43.3734 24.9531 43.2901 25.2969 43.1234 25.6094C42.9568 25.9219 42.7172 26.1953 42.4047 26.4297C42.0922 26.6589 41.7172 26.8385 41.2797 26.9688C40.8474 27.0938 40.3604 27.1562 39.8187 27.1562C39.0323 27.1562 38.3656 27.0156 37.8187 26.7344C37.2771 26.4531 36.8656 26.0964 36.5844 25.6641C36.3083 25.2266 36.1703 24.7786 36.1703 24.3203H38.3031C38.3135 24.6276 38.3917 24.875 38.5375 25.0625C38.6885 25.25 38.8786 25.3854 39.1078 25.4688C39.3422 25.5521 39.5948 25.5938 39.8656 25.5938C40.1573 25.5938 40.3995 25.5547 40.5922 25.4766C40.7849 25.3932 40.9307 25.2839 41.0297 25.1484C41.1339 25.0078 41.1859 24.8464 41.1859 24.6641ZM50.3431 15.625V27H47.9994V15.625H50.3431ZM54.8744 20.4844V22.3125H49.7025V20.4844H54.8744ZM55.4212 15.625V17.4609H49.7025V15.625H55.4212ZM58.535 18.5469V27H56.2772V18.5469H58.535ZM56.1366 16.3438C56.1366 16.0156 56.2511 15.7448 56.4803 15.5312C56.7095 15.3177 57.0168 15.2109 57.4022 15.2109C57.7824 15.2109 58.0871 15.3177 58.3162 15.5312C58.5506 15.7448 58.6678 16.0156 58.6678 16.3438C58.6678 16.6719 58.5506 16.9427 58.3162 17.1562C58.0871 17.3698 57.7824 17.4766 57.4022 17.4766C57.0168 17.4766 56.7095 17.3698 56.4803 17.1562C56.2511 16.9427 56.1366 16.6719 56.1366 16.3438ZM62.2894 15V27H60.0316V15H62.2894ZM67.8094 18.5469V20.1406H62.8875V18.5469H67.8094ZM64.1063 16.4609H66.3563V24.4531C66.3563 24.6979 66.3875 24.8854 66.45 25.0156C66.5177 25.1458 66.6167 25.237 66.7469 25.2891C66.8771 25.3359 67.0411 25.3594 67.2391 25.3594C67.3797 25.3594 67.5047 25.3542 67.6141 25.3438C67.7286 25.3281 67.825 25.3125 67.9031 25.2969L67.9109 26.9531C67.7182 27.0156 67.5099 27.0651 67.2859 27.1016C67.062 27.138 66.8146 27.1562 66.5438 27.1562C66.049 27.1562 65.6167 27.0755 65.2469 26.9141C64.8823 26.7474 64.601 26.4818 64.4031 26.1172C64.2052 25.7526 64.1063 25.2734 64.1063 24.6797V16.4609ZM72.5013 27.1562C71.845 27.1562 71.2565 27.0521 70.7356 26.8438C70.2148 26.6302 69.7721 26.3359 69.4075 25.9609C69.0481 25.5859 68.7721 25.151 68.5794 24.6562C68.3867 24.1562 68.2903 23.625 68.2903 23.0625V22.75C68.2903 22.1094 68.3815 21.5234 68.5638 20.9922C68.746 20.4609 69.0065 20 69.345 19.6094C69.6888 19.2188 70.1054 18.9193 70.595 18.7109C71.0846 18.4974 71.6367 18.3906 72.2513 18.3906C72.8502 18.3906 73.3815 18.4896 73.845 18.6875C74.3085 18.8854 74.6966 19.1667 75.0091 19.5312C75.3268 19.8958 75.5664 20.3333 75.7278 20.8438C75.8893 21.349 75.97 21.9115 75.97 22.5312V23.4688H69.2513V21.9688H73.7591V21.7969C73.7591 21.4844 73.7018 21.2057 73.5872 20.9609C73.4778 20.7109 73.3111 20.513 73.0872 20.3672C72.8632 20.2214 72.5768 20.1484 72.2278 20.1484C71.9309 20.1484 71.6757 20.2135 71.4622 20.3438C71.2486 20.474 71.0742 20.6562 70.9388 20.8906C70.8085 21.125 70.7096 21.401 70.6419 21.7188C70.5794 22.0312 70.5481 22.375 70.5481 22.75V23.0625C70.5481 23.401 70.595 23.7135 70.6888 24C70.7877 24.2865 70.9257 24.5339 71.1028 24.7422C71.2851 24.9505 71.5039 25.112 71.7591 25.2266C72.0195 25.3411 72.3138 25.3984 72.6419 25.3984C73.0481 25.3984 73.4257 25.3203 73.7747 25.1641C74.1289 25.0026 74.4335 24.7604 74.6888 24.4375L75.7825 25.625C75.6054 25.8802 75.3632 26.125 75.0559 26.3594C74.7539 26.5938 74.3893 26.7865 73.9622 26.9375C73.5351 27.0833 73.0481 27.1562 72.5013 27.1562ZM79.0212 20.3906V27H76.7712V18.5469H78.8884L79.0212 20.3906ZM81.5681 18.4922L81.5291 20.5781C81.4197 20.5625 81.2869 20.5495 81.1306 20.5391C80.9796 20.5234 80.8416 20.5156 80.7166 20.5156C80.3989 20.5156 80.1228 20.5573 79.8884 20.6406C79.6593 20.7188 79.4666 20.8359 79.3103 20.9922C79.1593 21.1484 79.0447 21.3385 78.9666 21.5625C78.8936 21.7865 78.852 22.0417 78.8416 22.3281L78.3884 22.1875C78.3884 21.6406 78.4431 21.138 78.5525 20.6797C78.6619 20.2161 78.8207 19.8125 79.0291 19.4688C79.2426 19.125 79.503 18.8594 79.8103 18.6719C80.1176 18.4844 80.4692 18.3906 80.865 18.3906C80.99 18.3906 81.1176 18.401 81.2478 18.4219C81.378 18.4375 81.4848 18.4609 81.5681 18.4922ZM2.08594 34.625H4.07031L6.99219 42.9766L9.91406 34.625H11.8984L7.78906 46H6.19531L2.08594 34.625ZM1.01562 34.625H2.99219L3.35156 42.7656V46H1.01562V34.625ZM10.9922 34.625H12.9766V46H10.6328V42.7656L10.9922 34.625ZM18.9731 44.0938V40.3281C18.9731 40.0573 18.9289 39.8255 18.8403 39.6328C18.7518 39.4349 18.6138 39.2812 18.4263 39.1719C18.244 39.0625 18.007 39.0078 17.7153 39.0078C17.4653 39.0078 17.2492 39.0521 17.0669 39.1406C16.8846 39.224 16.744 39.3464 16.645 39.5078C16.546 39.6641 16.4966 39.849 16.4966 40.0625H14.2466C14.2466 39.7031 14.3299 39.362 14.4966 39.0391C14.6632 38.7161 14.9054 38.4323 15.2231 38.1875C15.5408 37.9375 15.9184 37.7422 16.3559 37.6016C16.7986 37.4609 17.2934 37.3906 17.8403 37.3906C18.4966 37.3906 19.0799 37.5 19.5903 37.7188C20.1007 37.9375 20.5018 38.2656 20.7934 38.7031C21.0903 39.1406 21.2388 39.6875 21.2388 40.3438V43.9609C21.2388 44.4245 21.2674 44.8047 21.3247 45.1016C21.382 45.3932 21.4653 45.6484 21.5747 45.8672V46H19.3013C19.1919 45.7708 19.1085 45.4844 19.0513 45.1406C18.9992 44.7917 18.9731 44.4427 18.9731 44.0938ZM19.27 40.8516L19.2856 42.125H18.0278C17.7309 42.125 17.4731 42.1589 17.2544 42.2266C17.0356 42.2943 16.8559 42.3906 16.7153 42.5156C16.5747 42.6354 16.4705 42.776 16.4028 42.9375C16.3403 43.099 16.3091 43.276 16.3091 43.4688C16.3091 43.6615 16.3533 43.8359 16.4419 43.9922C16.5304 44.1432 16.658 44.263 16.8247 44.3516C16.9914 44.4349 17.1867 44.4766 17.4106 44.4766C17.7492 44.4766 18.0434 44.4089 18.2934 44.2734C18.5434 44.138 18.7361 43.9714 18.8716 43.7734C19.0122 43.5755 19.0851 43.388 19.0903 43.2109L19.6841 44.1641C19.6007 44.3776 19.4861 44.599 19.3403 44.8281C19.1997 45.0573 19.02 45.2734 18.8013 45.4766C18.5825 45.6745 18.3195 45.8385 18.0122 45.9688C17.7049 46.0938 17.3403 46.1562 16.9184 46.1562C16.382 46.1562 15.895 46.0495 15.4575 45.8359C15.0252 45.6172 14.6815 45.3177 14.4263 44.9375C14.1763 44.5521 14.0513 44.1146 14.0513 43.625C14.0513 43.1823 14.1346 42.7891 14.3013 42.4453C14.4679 42.1016 14.7127 41.8125 15.0356 41.5781C15.3638 41.3385 15.7726 41.1589 16.2622 41.0391C16.7518 40.9141 17.3195 40.8516 17.9653 40.8516H19.27ZM24.6963 39.3516V46H22.4463V37.5469H24.5556L24.6963 39.3516ZM24.3681 41.4766H23.7588C23.7588 40.8516 23.8395 40.2891 24.0009 39.7891C24.1624 39.2839 24.389 38.8542 24.6806 38.5C24.9723 38.1406 25.3186 37.8672 25.7197 37.6797C26.1259 37.487 26.5791 37.3906 27.0791 37.3906C27.4749 37.3906 27.8369 37.4479 28.165 37.5625C28.4931 37.6771 28.7744 37.8594 29.0088 38.1094C29.2483 38.3594 29.4306 38.6901 29.5556 39.1016C29.6858 39.513 29.7509 40.0156 29.7509 40.6094V46H27.4853V40.6016C27.4853 40.2266 27.4332 39.9349 27.3291 39.7266C27.2249 39.5182 27.0713 39.3724 26.8681 39.2891C26.6702 39.2005 26.4254 39.1562 26.1338 39.1562C25.8317 39.1562 25.5686 39.2161 25.3447 39.3359C25.1259 39.4557 24.9436 39.6224 24.7978 39.8359C24.6572 40.0443 24.5504 40.2891 24.4775 40.5703C24.4046 40.8516 24.3681 41.1536 24.3681 41.4766ZM33.1772 34V46H30.9272V34H33.1772ZM32.8569 41.4766H32.2397C32.2449 40.888 32.323 40.3464 32.4741 39.8516C32.6251 39.3516 32.8412 38.9193 33.1225 38.5547C33.4037 38.1849 33.7397 37.8984 34.1303 37.6953C34.5261 37.4922 34.9636 37.3906 35.4428 37.3906C35.8595 37.3906 36.2371 37.4505 36.5756 37.5703C36.9194 37.6849 37.2136 37.8724 37.4584 38.1328C37.7084 38.388 37.9011 38.724 38.0366 39.1406C38.172 39.5573 38.2397 40.0625 38.2397 40.6562V46H35.9741V40.6406C35.9741 40.2656 35.9194 39.9714 35.81 39.7578C35.7058 39.5391 35.5522 39.3854 35.3491 39.2969C35.1511 39.2031 34.9064 39.1562 34.6147 39.1562C34.2918 39.1562 34.0157 39.2161 33.7866 39.3359C33.5626 39.4557 33.3829 39.6224 33.2475 39.8359C33.1121 40.0443 33.0131 40.2891 32.9506 40.5703C32.8881 40.8516 32.8569 41.1536 32.8569 41.4766ZM39.1113 41.8594V41.6953C39.1113 41.0755 39.1998 40.5052 39.3769 39.9844C39.554 39.4583 39.8118 39.0026 40.1503 38.6172C40.4889 38.2318 40.9055 37.9323 41.4003 37.7188C41.8951 37.5 42.4628 37.3906 43.1034 37.3906C43.7441 37.3906 44.3144 37.5 44.8144 37.7188C45.3144 37.9323 45.7336 38.2318 46.0722 38.6172C46.4159 39.0026 46.6764 39.4583 46.8534 39.9844C47.0305 40.5052 47.1191 41.0755 47.1191 41.6953V41.8594C47.1191 42.474 47.0305 43.0443 46.8534 43.5703C46.6764 44.0911 46.4159 44.5469 46.0722 44.9375C45.7336 45.3229 45.317 45.6224 44.8222 45.8359C44.3274 46.0495 43.7597 46.1562 43.1191 46.1562C42.4784 46.1562 41.9081 46.0495 41.4081 45.8359C40.9133 45.6224 40.4941 45.3229 40.1503 44.9375C39.8118 44.5469 39.554 44.0911 39.3769 43.5703C39.1998 43.0443 39.1113 42.474 39.1113 41.8594ZM41.3613 41.6953V41.8594C41.3613 42.2135 41.3925 42.5443 41.455 42.8516C41.5175 43.1589 41.6165 43.4297 41.7519 43.6641C41.8925 43.8932 42.0748 44.0729 42.2988 44.2031C42.5227 44.3333 42.7961 44.3984 43.1191 44.3984C43.4316 44.3984 43.6998 44.3333 43.9238 44.2031C44.1477 44.0729 44.3274 43.8932 44.4628 43.6641C44.5982 43.4297 44.6972 43.1589 44.7597 42.8516C44.8274 42.5443 44.8613 42.2135 44.8613 41.8594V41.6953C44.8613 41.3516 44.8274 41.0286 44.7597 40.7266C44.6972 40.4193 44.5956 40.1484 44.455 39.9141C44.3196 39.6745 44.1399 39.487 43.9159 39.3516C43.692 39.2161 43.4211 39.1484 43.1034 39.1484C42.7857 39.1484 42.5149 39.2161 42.2909 39.3516C42.0722 39.487 41.8925 39.6745 41.7519 39.9141C41.6165 40.1484 41.5175 40.4193 41.455 40.7266C41.3925 41.0286 41.3613 41.3516 41.3613 41.6953ZM50.3969 34V46H48.1391V34H50.3969ZM55.6669 46.1562C55.0106 46.1562 54.4221 46.0521 53.9012 45.8438C53.3804 45.6302 52.9377 45.3359 52.5731 44.9609C52.2137 44.5859 51.9377 44.151 51.745 43.6562C51.5523 43.1562 51.4559 42.625 51.4559 42.0625V41.75C51.4559 41.1094 51.5471 40.5234 51.7294 39.9922C51.9117 39.4609 52.1721 39 52.5106 38.6094C52.8544 38.2188 53.271 37.9193 53.7606 37.7109C54.2502 37.4974 54.8023 37.3906 55.4169 37.3906C56.0158 37.3906 56.5471 37.4896 57.0106 37.6875C57.4742 37.8854 57.8622 38.1667 58.1747 38.5312C58.4924 38.8958 58.732 39.3333 58.8934 39.8438C59.0549 40.349 59.1356 40.9115 59.1356 41.5312V42.4688H52.4169V40.9688H56.9247V40.7969C56.9247 40.4844 56.8674 40.2057 56.7528 39.9609C56.6434 39.7109 56.4768 39.513 56.2528 39.3672C56.0289 39.2214 55.7424 39.1484 55.3934 39.1484C55.0966 39.1484 54.8414 39.2135 54.6278 39.3438C54.4143 39.474 54.2398 39.6562 54.1044 39.8906C53.9742 40.125 53.8752 40.401 53.8075 40.7188C53.745 41.0312 53.7137 41.375 53.7137 41.75V42.0625C53.7137 42.401 53.7606 42.7135 53.8544 43C53.9533 43.2865 54.0914 43.5339 54.2684 43.7422C54.4507 43.9505 54.6695 44.112 54.9247 44.2266C55.1851 44.3411 55.4794 44.3984 55.8075 44.3984C56.2137 44.3984 56.5914 44.3203 56.9403 44.1641C57.2945 44.0026 57.5992 43.7604 57.8544 43.4375L58.9481 44.625C58.771 44.8802 58.5289 45.125 58.2216 45.3594C57.9195 45.5938 57.5549 45.7865 57.1278 45.9375C56.7007 46.0833 56.2137 46.1562 55.6669 46.1562Z" fill="#242424"/>
<path d="M11.0625 83.1406V85.6016C11.0625 86.6693 10.9486 87.5905 10.7207 88.3652C10.4928 89.1335 10.1641 89.765 9.73438 90.2598C9.3112 90.748 8.80664 91.1094 8.2207 91.3438C7.63477 91.5781 6.98372 91.6953 6.26758 91.6953C5.69466 91.6953 5.16081 91.6237 4.66602 91.4805C4.17122 91.3307 3.72526 91.0996 3.32812 90.7871C2.9375 90.4746 2.59896 90.0807 2.3125 89.6055C2.03255 89.1237 1.81771 88.5508 1.66797 87.8867C1.51823 87.2227 1.44336 86.4609 1.44336 85.6016V83.1406C1.44336 82.0729 1.55729 81.1582 1.78516 80.3965C2.01953 79.6283 2.34831 79 2.77148 78.5117C3.20117 78.0234 3.70898 77.6654 4.29492 77.4375C4.88086 77.2031 5.5319 77.0859 6.24805 77.0859C6.82096 77.0859 7.35156 77.1608 7.83984 77.3105C8.33464 77.4538 8.7806 77.6784 9.17773 77.9844C9.57487 78.2904 9.91341 78.6842 10.1934 79.166C10.4733 79.6413 10.6882 80.2109 10.8379 80.875C10.9876 81.5326 11.0625 82.2878 11.0625 83.1406ZM8.24023 85.9727V82.7598C8.24023 82.2454 8.21094 81.7962 8.15234 81.4121C8.10026 81.028 8.01888 80.7025 7.9082 80.4355C7.79753 80.1621 7.66081 79.9408 7.49805 79.7715C7.33529 79.6022 7.14974 79.4785 6.94141 79.4004C6.73307 79.3223 6.50195 79.2832 6.24805 79.2832C5.92904 79.2832 5.64583 79.3451 5.39844 79.4688C5.15755 79.5924 4.95247 79.791 4.7832 80.0645C4.61393 80.3314 4.48372 80.6895 4.39258 81.1387C4.30794 81.5814 4.26562 82.1217 4.26562 82.7598V85.9727C4.26562 86.487 4.29167 86.9395 4.34375 87.3301C4.40234 87.7207 4.48698 88.056 4.59766 88.3359C4.71484 88.6094 4.85156 88.834 5.00781 89.0098C5.17057 89.179 5.35612 89.3027 5.56445 89.3809C5.7793 89.459 6.01367 89.498 6.26758 89.498C6.58008 89.498 6.85677 89.4362 7.09766 89.3125C7.34505 89.1823 7.55339 88.9805 7.72266 88.707C7.89844 88.4271 8.02865 88.0625 8.11328 87.6133C8.19792 87.1641 8.24023 86.6172 8.24023 85.9727Z" fill="#0476CD"/>
<path d="M27.312 76.284H28.656V84.044H27.312V76.284ZM19.328 84.764H20.64V86.524H27.344V84.764H28.656V90.556H19.328V84.764ZM20.64 87.58V89.484H27.344V87.58H20.64ZM20.896 76.972C23.088 76.972 24.656 78.332 24.656 80.3C24.656 82.284 23.088 83.644 20.896 83.644C18.704 83.644 17.12 82.284 17.12 80.3C17.12 78.332 18.704 76.972 20.896 76.972ZM20.896 78.076C19.456 78.076 18.416 78.988 18.416 80.3C18.416 81.612 19.456 82.524 20.896 82.524C22.336 82.524 23.376 81.612 23.376 80.3C23.376 78.988 22.336 78.076 20.896 78.076Z" fill="#242424"/>
<path d="M66.0625 83.1406V85.6016C66.0625 86.6693 65.9486 87.5905 65.7207 88.3652C65.4928 89.1335 65.1641 89.765 64.7344 90.2598C64.3112 90.748 63.8066 91.1094 63.2207 91.3438C62.6348 91.5781 61.9837 91.6953 61.2676 91.6953C60.6947 91.6953 60.1608 91.6237 59.666 91.4805C59.1712 91.3307 58.7253 91.0996 58.3281 90.7871C57.9375 90.4746 57.599 90.0807 57.3125 89.6055C57.0326 89.1237 56.8177 88.5508 56.668 87.8867C56.5182 87.2227 56.4434 86.4609 56.4434 85.6016V83.1406C56.4434 82.0729 56.5573 81.1582 56.7852 80.3965C57.0195 79.6283 57.3483 79 57.7715 78.5117C58.2012 78.0234 58.709 77.6654 59.2949 77.4375C59.8809 77.2031 60.5319 77.0859 61.248 77.0859C61.821 77.0859 62.3516 77.1608 62.8398 77.3105C63.3346 77.4538 63.7806 77.6784 64.1777 77.9844C64.5749 78.2904 64.9134 78.6842 65.1934 79.166C65.4733 79.6413 65.6882 80.2109 65.8379 80.875C65.9876 81.5326 66.0625 82.2878 66.0625 83.1406ZM63.2402 85.9727V82.7598C63.2402 82.2454 63.2109 81.7962 63.1523 81.4121C63.1003 81.028 63.0189 80.7025 62.9082 80.4355C62.7975 80.1621 62.6608 79.9408 62.498 79.7715C62.3353 79.6022 62.1497 79.4785 61.9414 79.4004C61.7331 79.3223 61.502 79.2832 61.248 79.2832C60.929 79.2832 60.6458 79.3451 60.3984 79.4688C60.1576 79.5924 59.9525 79.791 59.7832 80.0645C59.6139 80.3314 59.4837 80.6895 59.3926 81.1387C59.3079 81.5814 59.2656 82.1217 59.2656 82.7598V85.9727C59.2656 86.487 59.2917 86.9395 59.3438 87.3301C59.4023 87.7207 59.487 88.056 59.5977 88.3359C59.7148 88.6094 59.8516 88.834 60.0078 89.0098C60.1706 89.179 60.3561 89.3027 60.5645 89.3809C60.7793 89.459 61.0137 89.498 61.2676 89.498C61.5801 89.498 61.8568 89.4362 62.0977 89.3125C62.3451 89.1823 62.5534 88.9805 62.7227 88.707C62.8984 88.4271 63.0286 88.0625 63.1133 87.6133C63.1979 87.1641 63.2402 86.6172 63.2402 85.9727Z" fill="#767676"/>
<path d="M77.656 83.484H78.984V85.676H77.656V83.484ZM71.8 82.7H84.856V83.724H71.8V82.7ZM77.672 76.188H78.984V77.948H77.672V76.188ZM77.608 78.076H78.776V78.3C78.776 80.572 76.072 81.788 72.872 82.06L72.488 81.036C75.336 80.86 77.608 79.852 77.608 78.3V78.076ZM77.88 78.076H79.048V78.3C79.048 79.852 81.32 80.86 84.152 81.036L83.768 82.06C80.568 81.788 77.88 80.572 77.88 78.3V78.076ZM73.128 77.548H83.528V78.556H73.128V77.548ZM73.368 85.036H83.192V88.22H74.712V89.964H73.4V87.276H81.88V86.044H73.368V85.036ZM73.4 89.58H83.624V90.588H73.4V89.58Z" fill="#242424"/>
<path d="M150.5 48C150.5 21.7665 171.766 0.5 198 0.5C224.234 0.5 245.5 21.7665 245.5 48C245.5 74.2335 224.234 95.5 198 95.5C171.766 95.5 150.5 74.2335 150.5 48Z" fill="#F6F7F9"/>
<path d="M150.5 48C150.5 21.7665 171.766 0.5 198 0.5C224.234 0.5 245.5 21.7665 245.5 48C245.5 74.2335 224.234 95.5 198 95.5C171.766 95.5 150.5 74.2335 150.5 48Z" stroke="#ECEEF3"/>
<path d="M205.375 33.125V37.0625C205.375 38.7708 205.193 40.2448 204.828 41.4844C204.464 42.7135 203.938 43.724 203.25 44.5156C202.573 45.2969 201.766 45.875 200.828 46.25C199.891 46.625 198.849 46.8125 197.703 46.8125C196.786 46.8125 195.932 46.6979 195.141 46.4688C194.349 46.2292 193.635 45.8594 193 45.3594C192.375 44.8594 191.833 44.2292 191.375 43.4688C190.927 42.6979 190.583 41.7812 190.344 40.7188C190.104 39.6562 189.984 38.4375 189.984 37.0625V33.125C189.984 31.4167 190.167 29.9531 190.531 28.7344C190.906 27.5052 191.432 26.5 192.109 25.7188C192.797 24.9375 193.609 24.3646 194.547 24C195.484 23.625 196.526 23.4375 197.672 23.4375C198.589 23.4375 199.438 23.5573 200.219 23.7969C201.01 24.026 201.724 24.3854 202.359 24.875C202.995 25.3646 203.536 25.9948 203.984 26.7656C204.432 27.526 204.776 28.4375 205.016 29.5C205.255 30.5521 205.375 31.7604 205.375 33.125ZM200.859 37.6562V32.5156C200.859 31.6927 200.812 30.974 200.719 30.3594C200.635 29.7448 200.505 29.224 200.328 28.7969C200.151 28.3594 199.932 28.0052 199.672 27.7344C199.411 27.4635 199.115 27.2656 198.781 27.1406C198.448 27.0156 198.078 26.9531 197.672 26.9531C197.161 26.9531 196.708 27.0521 196.312 27.25C195.927 27.4479 195.599 27.7656 195.328 28.2031C195.057 28.6302 194.849 29.2031 194.703 29.9219C194.568 30.6302 194.5 31.4948 194.5 32.5156V37.6562C194.5 38.4792 194.542 39.2031 194.625 39.8281C194.719 40.4531 194.854 40.9896 195.031 41.4375C195.219 41.875 195.438 42.2344 195.688 42.5156C195.948 42.7865 196.245 42.9844 196.578 43.1094C196.922 43.2344 197.297 43.2969 197.703 43.2969C198.203 43.2969 198.646 43.1979 199.031 43C199.427 42.7917 199.76 42.4688 200.031 42.0312C200.312 41.5833 200.521 41 200.656 40.2812C200.792 39.5625 200.859 38.6875 200.859 37.6562Z" fill="#0476CD"/>
<path d="M180.816 67.012L179.822 68.426C178.45 67.964 177.498 67.068 176.938 65.948C176.364 67.208 175.356 68.23 173.858 68.734L172.92 67.278C175.048 66.578 175.958 64.87 175.958 63.246V63.232H173.438V61.762H180.368V63.232H177.848V63.246C177.848 64.786 178.73 66.34 180.816 67.012ZM176.784 69.35V72.01H183.714V73.48H174.936V69.35H176.784ZM183.252 64.562H184.96V66.074H183.252V70.26H181.404V60.81H183.252V64.562ZM192.477 67.446H194.675V64.926H192.435C192.519 65.346 192.561 65.808 192.561 66.298C192.561 66.704 192.533 67.096 192.477 67.446ZM189.229 69.238C190.181 69.238 190.825 68.216 190.825 66.298C190.825 64.394 190.181 63.372 189.229 63.372C188.291 63.372 187.647 64.394 187.647 66.298C187.647 68.216 188.291 69.238 189.229 69.238ZM194.675 60.796H196.523V73.732H194.675V68.944H192.043C191.469 70.204 190.475 70.932 189.229 70.918C187.311 70.918 185.897 69.14 185.897 66.298C185.897 63.47 187.311 61.706 189.229 61.706C190.391 61.706 191.357 62.336 191.931 63.442H194.675V60.796ZM209.01 60.824V70.078H207.148V60.824H209.01ZM200.288 64.912C200.288 65.948 201.044 66.578 201.996 66.578C202.962 66.578 203.69 65.948 203.69 64.912C203.69 63.848 202.962 63.232 201.996 63.232C201.044 63.232 200.288 63.848 200.288 64.912ZM205.496 64.912C205.496 66.788 203.97 68.174 201.996 68.174C200.022 68.174 198.482 66.788 198.482 64.912C198.482 63.008 200.022 61.636 201.996 61.636C203.97 61.636 205.496 63.008 205.496 64.912ZM202.276 72.01H209.332V73.48H200.428V69.168H202.276V72.01ZM217.479 68.3H219.901V60.81H221.749V70.582H219.901V69.56H217.479V68.3ZM215.001 62.588C214.133 62.588 213.531 62.924 213.531 63.554C213.531 64.184 214.133 64.506 215.001 64.506C215.855 64.506 216.457 64.184 216.457 63.554C216.457 62.924 215.855 62.588 215.001 62.588ZM215.001 65.85C213.111 65.85 211.795 64.926 211.795 63.554C211.795 62.182 213.111 61.244 215.001 61.244C216.877 61.244 218.207 62.182 218.207 63.554C218.207 64.926 216.877 65.85 215.001 65.85ZM214.315 72.01H222.029V73.48H212.467V69.644H214.259V67.922C213.125 67.978 212.047 67.992 211.081 67.992L210.843 66.522C213.195 66.508 216.331 66.48 219.047 66.13L219.173 67.446C218.165 67.614 217.129 67.726 216.093 67.81V70.246H214.315V72.01Z" fill="black" fill-opacity="0.6"/>
</svg>
