<svg width="246" height="96" viewBox="0 0 246 96" fill="none" xmlns="http://www.w3.org/2000/svg">
<path d="M3.75781 25.1953L6.02344 15.625H7.28906L7.57812 17.2188L5.16406 27H3.80469L3.75781 25.1953ZM2.59375 15.625L4.46875 25.1953L4.3125 27H2.79688L0.273438 15.625H2.59375ZM9.57031 25.1562L11.4219 15.625H13.7422L11.2266 27H9.71094L9.57031 25.1562ZM8 15.625L10.2812 25.2344L10.2188 27H8.85938L6.42969 17.2109L6.74219 15.625H8ZM19.7309 15.625V27H17.395V15.625H19.7309ZM23.2309 15.625V17.4609H13.9497V15.625H23.2309ZM24.0869 15.625H28.3291C29.1989 15.625 29.9463 15.7552 30.5713 16.0156C31.2015 16.276 31.6858 16.6615 32.0244 17.1719C32.3629 17.6823 32.5322 18.3099 32.5322 19.0547C32.5322 19.6641 32.428 20.1875 32.2197 20.625C32.0166 21.0573 31.7275 21.4193 31.3525 21.7109C30.9827 21.9974 30.5478 22.2266 30.0478 22.3984L29.3056 22.7891H25.6181L25.6025 20.9609H28.3447C28.7561 20.9609 29.0973 20.888 29.3681 20.7422C29.639 20.5964 29.8421 20.3932 29.9775 20.1328C30.1181 19.8724 30.1884 19.5703 30.1884 19.2266C30.1884 18.862 30.1207 18.5469 29.9853 18.2812C29.8499 18.0156 29.6442 17.8125 29.3681 17.6719C29.0921 17.5312 28.7457 17.4609 28.3291 17.4609H26.4306V27H24.0869V15.625ZM30.4463 27L27.8525 21.9297L30.3291 21.9141L32.9541 26.8906V27H30.4463ZM38.1538 21.2344V23H33.7397V21.2344H38.1538ZM44.1425 22.0078H41.2206L41.205 20.3984H43.6581C44.0904 20.3984 44.4446 20.3438 44.7206 20.2344C44.9967 20.1198 45.2024 19.9557 45.3378 19.7422C45.4784 19.5234 45.5488 19.2578 45.5488 18.9453C45.5488 18.5911 45.481 18.3047 45.3456 18.0859C45.2154 17.8672 45.0097 17.7083 44.7284 17.6094C44.4524 17.5104 44.0956 17.4609 43.6581 17.4609H42.0331V27H39.6894V15.625H43.6581C44.3196 15.625 44.9107 15.6875 45.4316 15.8125C45.9576 15.9375 46.4029 16.1276 46.7675 16.3828C47.1321 16.638 47.4107 16.9609 47.6034 17.3516C47.7961 17.737 47.8925 18.1953 47.8925 18.7266C47.8925 19.1953 47.7857 19.6276 47.5722 20.0234C47.3639 20.4193 47.0331 20.7422 46.58 20.9922C46.1321 21.2422 45.5461 21.3802 44.8222 21.4062L44.1425 22.0078ZM44.0409 27H40.58L41.4941 25.1719H44.0409C44.4524 25.1719 44.7883 25.1068 45.0488 24.9766C45.3092 24.8411 45.5019 24.6589 45.6269 24.4297C45.7519 24.2005 45.8144 23.9375 45.8144 23.6406C45.8144 23.3073 45.7571 23.0182 45.6425 22.7734C45.5331 22.5286 45.356 22.3411 45.1113 22.2109C44.8665 22.0755 44.5435 22.0078 44.1425 22.0078H41.8847L41.9003 20.3984H44.7128L45.2519 21.0312C45.9446 21.0208 46.5019 21.1432 46.9238 21.3984C47.3508 21.6484 47.6607 21.974 47.8534 22.375C48.0514 22.776 48.1503 23.2057 48.1503 23.6641C48.1503 24.3932 47.9915 25.0078 47.6738 25.5078C47.356 26.0026 46.8899 26.375 46.2753 26.625C45.6659 26.875 44.9211 27 44.0409 27ZM48.9281 22.8594V22.6953C48.9281 22.0755 49.0167 21.5052 49.1937 20.9844C49.3708 20.4583 49.6286 20.0026 49.9672 19.6172C50.3057 19.2318 50.7224 18.9323 51.2172 18.7188C51.712 18.5 52.2797 18.3906 52.9203 18.3906C53.5609 18.3906 54.1312 18.5 54.6312 18.7188C55.1312 18.9323 55.5505 19.2318 55.8891 19.6172C56.2328 20.0026 56.4932 20.4583 56.6703 20.9844C56.8474 21.5052 56.9359 22.0755 56.9359 22.6953V22.8594C56.9359 23.474 56.8474 24.0443 56.6703 24.5703C56.4932 25.0911 56.2328 25.5469 55.8891 25.9375C55.5505 26.3229 55.1339 26.6224 54.6391 26.8359C54.1443 27.0495 53.5766 27.1562 52.9359 27.1562C52.2953 27.1562 51.725 27.0495 51.225 26.8359C50.7302 26.6224 50.3109 26.3229 49.9672 25.9375C49.6286 25.5469 49.3708 25.0911 49.1937 24.5703C49.0167 24.0443 48.9281 23.474 48.9281 22.8594ZM51.1781 22.6953V22.8594C51.1781 23.2135 51.2094 23.5443 51.2719 23.8516C51.3344 24.1589 51.4333 24.4297 51.5687 24.6641C51.7094 24.8932 51.8917 25.0729 52.1156 25.2031C52.3396 25.3333 52.613 25.3984 52.9359 25.3984C53.2484 25.3984 53.5167 25.3333 53.7406 25.2031C53.9646 25.0729 54.1443 24.8932 54.2797 24.6641C54.4151 24.4297 54.5141 24.1589 54.5766 23.8516C54.6443 23.5443 54.6781 23.2135 54.6781 22.8594V22.6953C54.6781 22.3516 54.6443 22.0286 54.5766 21.7266C54.5141 21.4193 54.4125 21.1484 54.2719 20.9141C54.1365 20.6745 53.9568 20.487 53.7328 20.3516C53.5089 20.2161 53.238 20.1484 52.9203 20.1484C52.6026 20.1484 52.3318 20.2161 52.1078 20.3516C51.8891 20.487 51.7094 20.6745 51.5687 20.9141C51.4333 21.1484 51.3344 21.4193 51.2719 21.7266C51.2094 22.0286 51.1781 22.3516 51.1781 22.6953ZM59.4794 18.5469L60.8778 21.1172L62.3153 18.5469H64.7137L62.3231 22.6797L64.8231 27H62.4169L60.8934 24.2812L59.37 27H56.9637L59.4637 22.6797L57.0731 18.5469H59.4794ZM78.3163 21.0469V21.5859C78.3163 22.4505 78.1991 23.2266 77.9647 23.9141C77.7303 24.6016 77.3996 25.1875 76.9725 25.6719C76.5454 26.151 76.035 26.5182 75.4413 26.7734C74.8527 27.0286 74.1991 27.1562 73.4803 27.1562C72.7668 27.1562 72.1131 27.0286 71.5194 26.7734C70.9308 26.5182 70.4204 26.151 69.9881 25.6719C69.5558 25.1875 69.2199 24.6016 68.9803 23.9141C68.7459 23.2266 68.6288 22.4505 68.6288 21.5859V21.0469C68.6288 20.1771 68.7459 19.401 68.9803 18.7188C69.2147 18.0312 69.5454 17.4453 69.9725 16.9609C70.4048 16.4766 70.9152 16.1068 71.5038 15.8516C72.0975 15.5964 72.7511 15.4688 73.4647 15.4688C74.1834 15.4688 74.8371 15.5964 75.4256 15.8516C76.0194 16.1068 76.5298 16.4766 76.9569 16.9609C77.3892 17.4453 77.7225 18.0312 77.9569 18.7188C78.1965 19.401 78.3163 20.1771 78.3163 21.0469ZM75.9491 21.5859V21.0312C75.9491 20.4271 75.8944 19.8958 75.785 19.4375C75.6756 18.9792 75.5142 18.5938 75.3006 18.2812C75.0871 17.9688 74.8267 17.7344 74.5194 17.5781C74.2121 17.4167 73.8605 17.3359 73.4647 17.3359C73.0689 17.3359 72.7173 17.4167 72.41 17.5781C72.1079 17.7344 71.8501 17.9688 71.6366 18.2812C71.4282 18.5938 71.2694 18.9792 71.16 19.4375C71.0506 19.8958 70.9959 20.4271 70.9959 21.0312V21.5859C70.9959 22.1849 71.0506 22.7161 71.16 23.1797C71.2694 23.638 71.4308 24.026 71.6444 24.3438C71.8579 24.6562 72.1183 24.8932 72.4256 25.0547C72.7329 25.2161 73.0845 25.2969 73.4803 25.2969C73.8761 25.2969 74.2277 25.2161 74.535 25.0547C74.8423 24.8932 75.1001 24.6562 75.3084 24.3438C75.5168 24.026 75.6756 23.638 75.785 23.1797C75.8944 22.7161 75.9491 22.1849 75.9491 21.5859ZM84.3831 24.9766V18.5469H86.6331V27H84.5159L84.3831 24.9766ZM84.6331 23.2422L85.2972 23.2266C85.2972 23.7891 85.2321 24.3125 85.1019 24.7969C84.9717 25.276 84.7764 25.6927 84.5159 26.0469C84.2555 26.3958 83.9274 26.6693 83.5316 26.8672C83.1357 27.0599 82.6696 27.1562 82.1331 27.1562C81.7217 27.1562 81.3415 27.099 80.9925 26.9844C80.6488 26.8646 80.3519 26.6797 80.1019 26.4297C79.8571 26.1745 79.6644 25.849 79.5238 25.4531C79.3883 25.0521 79.3206 24.5703 79.3206 24.0078V18.5469H81.5706V24.0234C81.5706 24.2734 81.5993 24.4844 81.6566 24.6562C81.7191 24.8281 81.805 24.9688 81.9144 25.0781C82.0238 25.1875 82.1514 25.2656 82.2972 25.3125C82.4482 25.3594 82.6149 25.3828 82.7972 25.3828C83.2607 25.3828 83.6253 25.2891 83.8909 25.1016C84.1618 24.9141 84.3519 24.6589 84.4613 24.3359C84.5758 24.0078 84.6331 23.6432 84.6331 23.2422ZM92.0125 18.5469V20.1406H87.0906V18.5469H92.0125ZM88.3094 16.4609H90.5594V24.4531C90.5594 24.6979 90.5906 24.8854 90.6531 25.0156C90.7208 25.1458 90.8198 25.237 90.95 25.2891C91.0802 25.3359 91.2443 25.3594 91.4422 25.3594C91.5828 25.3594 91.7078 25.3542 91.8172 25.3438C91.9318 25.3281 92.0281 25.3125 92.1062 25.2969L92.1141 26.9531C91.9214 27.0156 91.713 27.0651 91.4891 27.1016C91.2651 27.138 91.0177 27.1562 90.7469 27.1562C90.2521 27.1562 89.8198 27.0755 89.45 26.9141C89.0854 26.7474 88.8042 26.4818 88.6062 26.1172C88.4083 25.7526 88.3094 25.2734 88.3094 24.6797V16.4609ZM95.1888 15V27H92.9309V15H95.1888ZM100.459 27.1562C99.8025 27.1562 99.214 27.0521 98.6931 26.8438C98.1723 26.6302 97.7296 26.3359 97.365 25.9609C97.0056 25.5859 96.7296 25.151 96.5369 24.6562C96.3442 24.1562 96.2478 23.625 96.2478 23.0625V22.75C96.2478 22.1094 96.339 21.5234 96.5212 20.9922C96.7035 20.4609 96.964 20 97.3025 19.6094C97.6462 19.2188 98.0629 18.9193 98.5525 18.7109C99.0421 18.4974 99.5942 18.3906 100.209 18.3906C100.808 18.3906 101.339 18.4896 101.802 18.6875C102.266 18.8854 102.654 19.1667 102.967 19.5312C103.284 19.8958 103.524 20.3333 103.685 20.8438C103.847 21.349 103.927 21.9115 103.927 22.5312V23.4688H97.2087V21.9688H101.717V21.7969C101.717 21.4844 101.659 21.2057 101.545 20.9609C101.435 20.7109 101.269 20.513 101.045 20.3672C100.821 20.2214 100.534 20.1484 100.185 20.1484C99.8884 20.1484 99.6332 20.2135 99.4197 20.3438C99.2061 20.474 99.0317 20.6562 98.8962 20.8906C98.766 21.125 98.6671 21.401 98.5994 21.7188C98.5369 22.0312 98.5056 22.375 98.5056 22.75V23.0625C98.5056 23.401 98.5525 23.7135 98.6462 24C98.7452 24.2865 98.8832 24.5339 99.0603 24.7422C99.2426 24.9505 99.4614 25.112 99.7166 25.2266C99.977 25.3411 100.271 25.3984 100.599 25.3984C101.006 25.3984 101.383 25.3203 101.732 25.1641C102.086 25.0026 102.391 24.7604 102.646 24.4375L103.74 25.625C103.563 25.8802 103.321 26.125 103.013 26.3594C102.711 26.5938 102.347 26.7865 101.92 26.9375C101.493 27.0833 101.006 27.1562 100.459 27.1562ZM108.869 18.5469V20.1406H103.948V18.5469H108.869ZM105.166 16.4609H107.416V24.4531C107.416 24.6979 107.448 24.8854 107.51 25.0156C107.578 25.1458 107.677 25.237 107.807 25.2891C107.937 25.3359 108.101 25.3594 108.299 25.3594C108.44 25.3594 108.565 25.3542 108.674 25.3438C108.789 25.3281 108.885 25.3125 108.963 25.2969L108.971 26.9531C108.778 27.0156 108.57 27.0651 108.346 27.1016C108.122 27.138 107.875 27.1562 107.604 27.1562C107.109 27.1562 106.677 27.0755 106.307 26.9141C105.942 26.7474 105.661 26.4818 105.463 26.1172C105.265 25.7526 105.166 25.2734 105.166 24.6797V16.4609Z" fill="#242424"/>
<path d="M11.3344 78.3027V80.5H1.60781V78.625L6.20742 73.6934C6.66966 73.179 7.03425 72.7266 7.30117 72.3359C7.5681 71.9388 7.76016 71.584 7.87734 71.2715C8.00104 70.9525 8.06289 70.6497 8.06289 70.3633C8.06289 69.9336 7.99128 69.5658 7.84805 69.2598C7.70482 68.9473 7.49323 68.7064 7.21328 68.5371C6.93984 68.3678 6.6013 68.2832 6.19766 68.2832C5.76797 68.2832 5.39688 68.3874 5.08438 68.5957C4.77839 68.804 4.54401 69.0938 4.38125 69.4648C4.225 69.8359 4.14688 70.2559 4.14688 70.7246H1.32461C1.32461 69.8783 1.52643 69.1035 1.93008 68.4004C2.33372 67.6908 2.90339 67.1276 3.63906 66.7109C4.37474 66.2878 5.24714 66.0762 6.25625 66.0762C7.25234 66.0762 8.09219 66.2389 8.77578 66.5645C9.46589 66.8835 9.98672 67.3457 10.3383 67.9512C10.6964 68.5501 10.8754 69.2663 10.8754 70.0996C10.8754 70.5684 10.8005 71.0273 10.6508 71.4766C10.501 71.9193 10.2862 72.362 10.0063 72.8047C9.73281 73.2409 9.40078 73.6836 9.01016 74.1328C8.61953 74.582 8.18659 75.0475 7.71133 75.5293L5.24063 78.3027H11.3344ZM22.4531 75.1875V77.3945H12.209L12.0723 75.6855L18 66.2812H20.2363L17.8145 70.334L14.8652 75.1875H22.4531ZM20.8418 66.2812V80.5H18.0293V66.2812H20.8418Z" fill="#B30435"/>
<path d="M38.312 65.284H39.656V73.044H38.312V65.284ZM30.328 73.764H31.64V75.524H38.344V73.764H39.656V79.556H30.328V73.764ZM31.64 76.58V78.484H38.344V76.58H31.64ZM31.896 65.972C34.088 65.972 35.656 67.332 35.656 69.3C35.656 71.284 34.088 72.644 31.896 72.644C29.704 72.644 28.12 71.284 28.12 69.3C28.12 67.332 29.704 65.972 31.896 65.972ZM31.896 67.076C30.456 67.076 29.416 67.988 29.416 69.3C29.416 70.612 30.456 71.524 31.896 71.524C33.336 71.524 34.376 70.612 34.376 69.3C34.376 67.988 33.336 67.076 31.896 67.076Z" fill="#242424"/>
<path d="M74.4633 66.252V80.5H71.6508V69.4941L68.2719 70.5684V68.3516L74.1605 66.252H74.4633ZM85.748 66.1348H86.1582V68.3809H85.9922C85.25 68.3809 84.5892 68.4915 84.0098 68.7129C83.4303 68.9342 82.9388 69.25 82.5352 69.6602C82.138 70.0638 81.832 70.5521 81.6172 71.125C81.4089 71.6979 81.3047 72.3392 81.3047 73.0488V75.4121C81.3047 75.9199 81.3535 76.3691 81.4512 76.7598C81.5553 77.1439 81.7018 77.4661 81.8906 77.7266C82.0859 77.9805 82.3138 78.1725 82.5742 78.3027C82.8346 78.4264 83.1276 78.4883 83.4531 78.4883C83.7591 78.4883 84.0358 78.4232 84.2832 78.293C84.5371 78.1628 84.752 77.9805 84.9277 77.7461C85.11 77.5052 85.2467 77.2253 85.3379 76.9062C85.4355 76.5807 85.4844 76.2259 85.4844 75.8418C85.4844 75.4577 85.4355 75.1029 85.3379 74.7773C85.2467 74.4518 85.11 74.1719 84.9277 73.9375C84.7454 73.6966 84.5241 73.5111 84.2637 73.3809C84.0033 73.2507 83.7103 73.1855 83.3848 73.1855C82.9421 73.1855 82.5514 73.2897 82.2129 73.498C81.8809 73.6999 81.6204 73.9603 81.4316 74.2793C81.2428 74.5983 81.1419 74.9336 81.1289 75.2852L80.2793 74.7383C80.2988 74.237 80.403 73.7617 80.5918 73.3125C80.7871 72.8633 81.054 72.4661 81.3926 72.1211C81.7376 71.7695 82.151 71.4961 82.6328 71.3008C83.1146 71.099 83.6582 70.998 84.2637 70.998C84.9277 70.998 85.5104 71.125 86.0117 71.3789C86.5195 71.6328 86.9427 71.9811 87.2812 72.4238C87.6198 72.8665 87.8737 73.3776 88.043 73.957C88.2122 74.5365 88.2969 75.1549 88.2969 75.8125C88.2969 76.5026 88.1829 77.1439 87.9551 77.7363C87.7337 78.3288 87.4115 78.8464 86.9883 79.2891C86.5716 79.7318 86.0703 80.0768 85.4844 80.3242C84.8984 80.5716 84.2409 80.6953 83.5117 80.6953C82.7565 80.6953 82.0697 80.5586 81.4512 80.2852C80.8392 80.0052 80.3118 79.6146 79.8691 79.1133C79.4264 78.612 79.0846 78.0163 78.8438 77.3262C78.6094 76.6361 78.4922 75.8809 78.4922 75.0605V73.9668C78.4922 72.821 78.6582 71.7728 78.9902 70.8223C79.3288 69.8652 79.8138 69.0384 80.4453 68.3418C81.0768 67.6387 81.8385 67.0951 82.7305 66.7109C83.6224 66.3268 84.6283 66.1348 85.748 66.1348Z" fill="#767676"/>
<path d="M99.656 72.484H100.984V74.676H99.656V72.484ZM93.8 71.7H106.856V72.724H93.8V71.7ZM99.672 65.188H100.984V66.948H99.672V65.188ZM99.608 67.076H100.776V67.3C100.776 69.572 98.072 70.788 94.872 71.06L94.488 70.036C97.336 69.86 99.608 68.852 99.608 67.3V67.076ZM99.88 67.076H101.048V67.3C101.048 68.852 103.32 69.86 106.152 70.036L105.768 71.06C102.568 70.788 99.88 69.572 99.88 67.3V67.076ZM95.128 66.548H105.528V67.556H95.128V66.548ZM95.368 74.036H105.192V77.22H96.712V78.964H95.4V76.276H103.88V75.044H95.368V74.036ZM95.4 78.58H105.624V79.588H95.4V78.58Z" fill="#242424"/>
<path d="M150 48C150 21.4903 171.49 0 198 0C224.51 0 246 21.4903 246 48C246 74.5097 224.51 96 198 96C171.49 96 150 74.5097 150 48Z" fill="#B30435"/>
<path d="M205.391 40.2656C205.391 41.6927 205.057 42.8958 204.391 43.875C203.724 44.8438 202.807 45.5781 201.641 46.0781C200.484 46.5677 199.172 46.8125 197.703 46.8125C196.234 46.8125 194.917 46.5677 193.75 46.0781C192.583 45.5781 191.661 44.8438 190.984 43.875C190.307 42.8958 189.969 41.6927 189.969 40.2656C189.969 39.3073 190.161 38.4427 190.547 37.6719C190.932 36.8906 191.469 36.224 192.156 35.6719C192.854 35.1094 193.672 34.6823 194.609 34.3906C195.547 34.0885 196.568 33.9375 197.672 33.9375C199.151 33.9375 200.474 34.1979 201.641 34.7188C202.807 35.2396 203.724 35.974 204.391 36.9219C205.057 37.8698 205.391 38.9844 205.391 40.2656ZM200.859 39.9688C200.859 39.2708 200.724 38.6719 200.453 38.1719C200.193 37.6615 199.823 37.2708 199.344 37C198.865 36.7292 198.307 36.5938 197.672 36.5938C197.036 36.5938 196.479 36.7292 196 37C195.521 37.2708 195.146 37.6615 194.875 38.1719C194.615 38.6719 194.484 39.2708 194.484 39.9688C194.484 40.6562 194.615 41.25 194.875 41.75C195.146 42.25 195.521 42.6354 196 42.9062C196.49 43.1667 197.057 43.2969 197.703 43.2969C198.349 43.2969 198.906 43.1667 199.375 42.9062C199.854 42.6354 200.219 42.25 200.469 41.75C200.729 41.25 200.859 40.6562 200.859 39.9688ZM204.906 29.7812C204.906 30.9375 204.599 31.9635 203.984 32.8594C203.37 33.7448 202.516 34.4375 201.422 34.9375C200.339 35.4375 199.099 35.6875 197.703 35.6875C196.297 35.6875 195.047 35.4375 193.953 34.9375C192.859 34.4375 192.005 33.7448 191.391 32.8594C190.776 31.9635 190.469 30.9375 190.469 29.7812C190.469 28.4062 190.776 27.25 191.391 26.3125C192.016 25.3646 192.87 24.6458 193.953 24.1562C195.047 23.6667 196.286 23.4219 197.672 23.4219C199.078 23.4219 200.323 23.6667 201.406 24.1562C202.5 24.6458 203.354 25.3646 203.969 26.3125C204.594 27.25 204.906 28.4062 204.906 29.7812ZM200.406 29.9844C200.406 29.3698 200.297 28.8385 200.078 28.3906C199.859 27.9323 199.547 27.5781 199.141 27.3281C198.745 27.0781 198.255 26.9531 197.672 26.9531C197.109 26.9531 196.625 27.0729 196.219 27.3125C195.823 27.5521 195.516 27.901 195.297 28.3594C195.089 28.8073 194.984 29.349 194.984 29.9844C194.984 30.599 195.089 31.1406 195.297 31.6094C195.516 32.0677 195.828 32.4271 196.234 32.6875C196.641 32.9479 197.13 33.0781 197.703 33.0781C198.276 33.0781 198.76 32.9479 199.156 32.6875C199.562 32.4271 199.87 32.0677 200.078 31.6094C200.297 31.1406 200.406 30.599 200.406 29.9844Z" fill="white"/>
<path d="M180.816 67.012L179.822 68.426C178.45 67.964 177.498 67.068 176.938 65.948C176.364 67.208 175.356 68.23 173.858 68.734L172.92 67.278C175.048 66.578 175.958 64.87 175.958 63.246V63.232H173.438V61.762H180.368V63.232H177.848V63.246C177.848 64.786 178.73 66.34 180.816 67.012ZM176.784 69.35V72.01H183.714V73.48H174.936V69.35H176.784ZM183.252 64.562H184.96V66.074H183.252V70.26H181.404V60.81H183.252V64.562ZM192.477 67.446H194.675V64.926H192.435C192.519 65.346 192.561 65.808 192.561 66.298C192.561 66.704 192.533 67.096 192.477 67.446ZM189.229 69.238C190.181 69.238 190.825 68.216 190.825 66.298C190.825 64.394 190.181 63.372 189.229 63.372C188.291 63.372 187.647 64.394 187.647 66.298C187.647 68.216 188.291 69.238 189.229 69.238ZM194.675 60.796H196.523V73.732H194.675V68.944H192.043C191.469 70.204 190.475 70.932 189.229 70.918C187.311 70.918 185.897 69.14 185.897 66.298C185.897 63.47 187.311 61.706 189.229 61.706C190.391 61.706 191.357 62.336 191.931 63.442H194.675V60.796ZM209.01 60.824V70.078H207.148V60.824H209.01ZM200.288 64.912C200.288 65.948 201.044 66.578 201.996 66.578C202.962 66.578 203.69 65.948 203.69 64.912C203.69 63.848 202.962 63.232 201.996 63.232C201.044 63.232 200.288 63.848 200.288 64.912ZM205.496 64.912C205.496 66.788 203.97 68.174 201.996 68.174C200.022 68.174 198.482 66.788 198.482 64.912C198.482 63.008 200.022 61.636 201.996 61.636C203.97 61.636 205.496 63.008 205.496 64.912ZM202.276 72.01H209.332V73.48H200.428V69.168H202.276V72.01ZM217.479 68.3H219.901V60.81H221.749V70.582H219.901V69.56H217.479V68.3ZM215.001 62.588C214.133 62.588 213.531 62.924 213.531 63.554C213.531 64.184 214.133 64.506 215.001 64.506C215.855 64.506 216.457 64.184 216.457 63.554C216.457 62.924 215.855 62.588 215.001 62.588ZM215.001 65.85C213.111 65.85 211.795 64.926 211.795 63.554C211.795 62.182 213.111 61.244 215.001 61.244C216.877 61.244 218.207 62.182 218.207 63.554C218.207 64.926 216.877 65.85 215.001 65.85ZM214.315 72.01H222.029V73.48H212.467V69.644H214.259V67.922C213.125 67.978 212.047 67.992 211.081 67.992L210.843 66.522C213.195 66.508 216.331 66.48 219.047 66.13L219.173 67.446C218.165 67.614 217.129 67.726 216.093 67.81V70.246H214.315V72.01Z" fill="white"/>
<path d="M214 16C214 7.16344 221.163 0 230 0C238.837 0 246 7.16344 246 16C246 24.8366 238.837 32 230 32C221.163 32 214 24.8366 214 16Z" fill="#FAB832"/>
<g clip-path="url(#clip0_2286_2619)">
<path d="M238 22.3335C238 22.7015 237.701 23.0001 237.333 23.0001H222.667C222.299 23.0001 222 22.7015 222 22.3335C222 21.2288 222.895 20.3335 224 20.3335H236C237.105 20.3335 238 21.2288 238 22.3335ZM236.807 11.1355L237.807 10.1241C238.067 9.86213 238.064 9.44079 237.802 9.18146C237.539 8.92213 237.118 8.92479 236.859 9.18679L235.859 10.1981C235.6 10.4601 235.603 10.8815 235.865 11.1408C235.995 11.2688 236.164 11.3335 236.333 11.3335C236.505 11.3335 236.677 11.2675 236.807 11.1355ZM234.259 8.97346L234.777 7.97346C234.946 7.64679 234.818 7.24413 234.491 7.07479C234.166 6.90546 233.762 7.03213 233.593 7.36013L233.075 8.36013C232.905 8.68679 233.033 9.08946 233.36 9.25879C233.457 9.30946 233.563 9.33346 233.666 9.33346C233.907 9.33346 234.14 9.20279 234.259 8.97346ZM224.135 11.1408C224.397 10.8815 224.399 10.4601 224.141 10.1981L223.141 9.18679C222.883 8.92479 222.459 8.92279 222.198 9.18146C221.936 9.44079 221.934 9.86213 222.193 10.1241L223.193 11.1355C223.323 11.2675 223.495 11.3335 223.667 11.3335C223.836 11.3335 224.006 11.2688 224.135 11.1408ZM226.64 9.25879C226.967 9.08946 227.095 8.68746 226.925 8.36013L226.407 7.36013C226.237 7.03213 225.834 6.90546 225.509 7.07479C225.182 7.24413 225.054 7.64613 225.223 7.97346L225.741 8.97346C225.86 9.20279 226.093 9.33346 226.334 9.33346C226.437 9.33346 226.542 9.30946 226.64 9.25879ZM236 15.6668V18.3335C236 18.7021 235.702 19.0001 235.333 19.0001H224.667C224.298 19.0001 224 18.7021 224 18.3335V15.6668C224 12.3581 226.691 9.66679 230 9.66679C233.309 9.66679 236 12.3581 236 15.6668ZM230.667 13.6668C230.667 13.2981 230.369 13.0001 230 13.0001C228.529 13.0001 227.333 14.1961 227.333 15.6668C227.333 16.0355 227.631 16.3335 228 16.3335C228.369 16.3335 228.667 16.0355 228.667 15.6668C228.667 14.9315 229.265 14.3335 230 14.3335C230.369 14.3335 230.667 14.0355 230.667 13.6668Z" fill="white"/>
</g>
<defs>
<clipPath id="clip0_2286_2619">
<rect width="16" height="16" fill="white" transform="translate(222 7)"/>
</clipPath>
</defs>
</svg>
