<svg width="328" height="216" viewBox="0 0 328 216" fill="none" xmlns="http://www.w3.org/2000/svg">
<path d="M9.71191 5.48535V7.38379H2.97949V5.48535H9.71191ZM3.63867 0.203125V13H1.22168V0.203125H3.63867ZM11.5049 0.203125V13H9.08789V0.203125H11.5049ZM13.4258 0.203125H18.0752C19.0479 0.203125 19.8829 0.349609 20.5801 0.642578C21.2774 0.935547 21.8135 1.36914 22.1885 1.94336C22.5635 2.51758 22.751 3.22363 22.751 4.06152C22.751 4.72363 22.6338 5.29785 22.3995 5.78418C22.1651 6.27051 21.834 6.67773 21.4063 7.00586C20.9844 7.33398 20.4864 7.5918 19.9121 7.7793L19.1563 8.16602H15.0518L15.0342 6.25879H18.1016C18.5996 6.25879 19.0127 6.1709 19.3409 5.99512C19.669 5.81934 19.9151 5.57617 20.0791 5.26562C20.2491 4.95508 20.334 4.60059 20.334 4.20215C20.334 3.77441 20.252 3.40527 20.0879 3.09473C19.9239 2.77832 19.6748 2.53516 19.3409 2.36523C19.0069 2.19531 18.585 2.11035 18.0752 2.11035H15.8428V13H13.4258V0.203125ZM20.6504 13L17.6885 7.26953L20.2461 7.26074L23.2432 12.877V13H20.6504ZM31.0264 9.67773C31.0264 9.43164 30.9884 9.21191 30.9122 9.01855C30.8419 8.81934 30.71 8.64062 30.5167 8.48242C30.3292 8.31836 30.0626 8.16016 29.7169 8.00781C29.377 7.84961 28.9376 7.68555 28.3985 7.51562C27.8009 7.32812 27.2442 7.11719 26.7286 6.88281C26.213 6.64844 25.7589 6.37598 25.3663 6.06543C24.9796 5.75488 24.6778 5.39746 24.461 4.99316C24.2442 4.58301 24.1358 4.1084 24.1358 3.56934C24.1358 3.04199 24.2471 2.56152 24.4698 2.12793C24.6983 1.69434 25.0206 1.32227 25.4366 1.01172C25.8526 0.695312 26.3419 0.452148 26.9044 0.282227C27.4727 0.112305 28.0997 0.0273438 28.7852 0.0273438C29.7345 0.0273438 30.5548 0.200195 31.2462 0.545898C31.9434 0.891602 32.4825 1.36035 32.8634 1.95215C33.2442 2.54395 33.4346 3.20898 33.4346 3.94727H31.0264C31.0264 3.54883 30.9415 3.19727 30.7716 2.89258C30.6075 2.58789 30.3555 2.34766 30.0157 2.17188C29.6817 1.99609 29.2598 1.9082 28.7501 1.9082C28.2579 1.9082 27.8477 1.98145 27.5196 2.12793C27.1973 2.27441 26.9542 2.47363 26.7901 2.72559C26.6319 2.97754 26.5528 3.25879 26.5528 3.56934C26.5528 3.80371 26.6085 4.01465 26.7198 4.20215C26.8311 4.38379 26.9981 4.55664 27.2208 4.7207C27.4434 4.87891 27.7188 5.02832 28.047 5.16895C28.3809 5.30371 28.7677 5.43848 29.2071 5.57324C29.9102 5.78418 30.5255 6.01855 31.0528 6.27637C31.586 6.53418 32.0284 6.82715 32.38 7.15527C32.7374 7.4834 33.004 7.85254 33.1798 8.2627C33.3614 8.67285 33.4522 9.13867 33.4522 9.66016C33.4522 10.2109 33.3438 10.7031 33.127 11.1367C32.9102 11.5703 32.5997 11.9395 32.1954 12.2441C31.7911 12.5488 31.3048 12.7803 30.7364 12.9385C30.1739 13.0967 29.544 13.1758 28.8468 13.1758C28.2257 13.1758 27.6104 13.0938 27.0011 12.9297C26.3975 12.7598 25.8497 12.5078 25.3575 12.1738C24.8653 11.834 24.4727 11.4062 24.1798 10.8906C23.8868 10.3691 23.7403 9.75977 23.7403 9.0625H26.1661C26.1661 9.4668 26.2305 9.8125 26.3595 10.0996C26.4942 10.3809 26.6817 10.6123 26.922 10.7939C27.168 10.9697 27.4552 11.0986 27.7833 11.1807C28.1114 11.2627 28.4659 11.3037 28.8468 11.3037C29.3389 11.3037 29.7432 11.2363 30.0596 11.1016C30.3819 10.9609 30.6221 10.7676 30.7804 10.5215C30.9444 10.2754 31.0264 9.99414 31.0264 9.67773ZM44.7599 6.38184V11.3652C44.5724 11.6055 44.2765 11.8662 43.8722 12.1475C43.4738 12.4287 42.9523 12.6719 42.3077 12.877C41.6632 13.0762 40.8722 13.1758 39.9347 13.1758C39.1202 13.1758 38.3761 13.041 37.7023 12.7715C37.0284 12.4961 36.4484 12.0947 35.962 11.5674C35.4757 11.04 35.1007 10.3955 34.837 9.63379C34.5734 8.87207 34.4415 8.00195 34.4415 7.02344V6.17969C34.4415 5.20117 34.5646 4.33105 34.8107 3.56934C35.0626 2.80762 35.42 2.16309 35.8829 1.63574C36.3517 1.1084 36.9113 0.707031 37.5616 0.431641C38.2179 0.15625 38.9503 0.0185547 39.7589 0.0185547C40.8429 0.0185547 41.7335 0.197266 42.4308 0.554688C43.1339 0.912109 43.673 1.4043 44.048 2.03125C44.423 2.65234 44.6573 3.36719 44.7511 4.17578H42.3956C42.3312 3.73047 42.2023 3.34082 42.0089 3.00684C41.8155 2.66699 41.5402 2.40332 41.1827 2.21582C40.8312 2.02246 40.3741 1.92578 39.8116 1.92578C39.337 1.92578 38.9181 2.01953 38.5548 2.20703C38.1915 2.39453 37.8868 2.66699 37.6407 3.02441C37.3946 3.38184 37.2071 3.82422 37.0782 4.35156C36.9552 4.87891 36.8937 5.48242 36.8937 6.16211V7.02344C36.8937 7.70898 36.964 8.31836 37.1046 8.85156C37.2452 9.37891 37.4474 9.82422 37.7111 10.1875C37.9806 10.5449 38.3116 10.8174 38.7042 11.0049C39.1027 11.1865 39.5538 11.2773 40.0577 11.2773C40.5148 11.2773 40.8927 11.2393 41.1915 11.1631C41.4962 11.0811 41.7394 10.9844 41.921 10.873C42.1027 10.7617 42.2433 10.6533 42.3429 10.5479V8.14844H39.8029V6.38184H44.7599Z" fill="#242424"/>
<rect y="52" width="280" height="1" fill="black" fill-opacity="0.12"/>
<rect y="83.75" width="280" height="1" fill="black" fill-opacity="0.12"/>
<rect y="115.5" width="280" height="1" fill="black" fill-opacity="0.12"/>
<rect y="147.25" width="280" height="1" fill="black" fill-opacity="0.12"/>
<rect y="179" width="280" height="1" fill="black" fill-opacity="0.24"/>
<path d="M300.271 49.9219V58.5H299.188V51.2754L297.002 52.0723V51.0938L300.102 49.9219H300.271ZM308.574 53.5547V54.8555C308.574 55.5547 308.512 56.1445 308.387 56.625C308.262 57.1055 308.082 57.4922 307.848 57.7852C307.614 58.0781 307.33 58.291 306.998 58.4238C306.67 58.5527 306.299 58.6172 305.885 58.6172C305.557 58.6172 305.254 58.5762 304.977 58.4941C304.699 58.4121 304.449 58.2812 304.227 58.1016C304.008 57.918 303.821 57.6797 303.664 57.3867C303.508 57.0938 303.389 56.7383 303.307 56.3203C303.225 55.9023 303.184 55.4141 303.184 54.8555V53.5547C303.184 52.8555 303.246 52.2695 303.371 51.7969C303.5 51.3242 303.682 50.9453 303.916 50.6602C304.151 50.3711 304.432 50.1641 304.76 50.0391C305.092 49.9141 305.463 49.8516 305.873 49.8516C306.205 49.8516 306.51 49.8926 306.787 49.9746C307.069 50.0527 307.319 50.1797 307.537 50.3555C307.756 50.5273 307.942 50.7578 308.094 51.0469C308.25 51.332 308.369 51.6816 308.451 52.0957C308.533 52.5098 308.574 52.9961 308.574 53.5547ZM307.485 55.0312V53.373C307.485 52.9902 307.461 52.6543 307.414 52.3652C307.371 52.0723 307.307 51.8223 307.221 51.6152C307.135 51.4082 307.026 51.2402 306.893 51.1113C306.764 50.9824 306.614 50.8887 306.442 50.8301C306.274 50.7676 306.084 50.7363 305.873 50.7363C305.615 50.7363 305.387 50.7852 305.188 50.8828C304.989 50.9766 304.821 51.127 304.684 51.334C304.551 51.541 304.449 51.8125 304.379 52.1484C304.309 52.4844 304.274 52.8926 304.274 53.373V55.0312C304.274 55.4141 304.295 55.752 304.338 56.0449C304.385 56.3379 304.453 56.5918 304.543 56.8066C304.633 57.0176 304.742 57.1914 304.871 57.3281C305 57.4648 305.149 57.5664 305.317 57.6328C305.489 57.6953 305.678 57.7266 305.885 57.7266C306.151 57.7266 306.383 57.6758 306.582 57.5742C306.781 57.4727 306.948 57.3145 307.08 57.0996C307.217 56.8809 307.319 56.6016 307.385 56.2617C307.451 55.918 307.485 55.5078 307.485 55.0312ZM315.084 53.5547V54.8555C315.084 55.5547 315.022 56.1445 314.897 56.625C314.772 57.1055 314.592 57.4922 314.358 57.7852C314.124 58.0781 313.84 58.291 313.508 58.4238C313.18 58.5527 312.809 58.6172 312.395 58.6172C312.067 58.6172 311.764 58.5762 311.487 58.4941C311.209 58.4121 310.959 58.2812 310.737 58.1016C310.518 57.918 310.331 57.6797 310.174 57.3867C310.018 57.0938 309.899 56.7383 309.817 56.3203C309.735 55.9023 309.694 55.4141 309.694 54.8555V53.5547C309.694 52.8555 309.756 52.2695 309.881 51.7969C310.01 51.3242 310.192 50.9453 310.426 50.6602C310.661 50.3711 310.942 50.1641 311.27 50.0391C311.602 49.9141 311.973 49.8516 312.383 49.8516C312.715 49.8516 313.02 49.8926 313.297 49.9746C313.579 50.0527 313.829 50.1797 314.047 50.3555C314.266 50.5273 314.452 50.7578 314.604 51.0469C314.76 51.332 314.879 51.6816 314.961 52.0957C315.043 52.5098 315.084 52.9961 315.084 53.5547ZM313.995 55.0312V53.373C313.995 52.9902 313.971 52.6543 313.924 52.3652C313.881 52.0723 313.817 51.8223 313.731 51.6152C313.645 51.4082 313.536 51.2402 313.403 51.1113C313.274 50.9824 313.124 50.8887 312.952 50.8301C312.784 50.7676 312.594 50.7363 312.383 50.7363C312.125 50.7363 311.897 50.7852 311.698 50.8828C311.499 50.9766 311.331 51.127 311.194 51.334C311.061 51.541 310.959 51.8125 310.889 52.1484C310.819 52.4844 310.784 52.8926 310.784 53.373V55.0312C310.784 55.4141 310.805 55.752 310.848 56.0449C310.895 56.3379 310.963 56.5918 311.053 56.8066C311.143 57.0176 311.252 57.1914 311.381 57.3281C311.51 57.4648 311.659 57.5664 311.827 57.6328C311.999 57.6953 312.188 57.7266 312.395 57.7266C312.661 57.7266 312.893 57.6758 313.092 57.5742C313.291 57.4727 313.458 57.3145 313.59 57.0996C313.727 56.8809 313.829 56.6016 313.895 56.2617C313.961 55.918 313.995 55.5078 313.995 55.0312Z" fill="black" fill-opacity="0.6"/>
<path d="M302.223 80.9688V81.5781L298.689 89.5H297.547L301.074 81.8594H296.457V80.9688H302.223ZM304.59 85.4395L303.723 85.2168L304.151 80.9688H308.528V81.9707H305.071L304.813 84.291C304.969 84.2012 305.166 84.1172 305.405 84.0391C305.647 83.9609 305.924 83.9219 306.237 83.9219C306.631 83.9219 306.985 83.9902 307.297 84.127C307.61 84.2598 307.875 84.4512 308.094 84.7012C308.317 84.9512 308.487 85.252 308.604 85.6035C308.721 85.9551 308.78 86.3477 308.78 86.7812C308.78 87.1914 308.723 87.5684 308.61 87.9121C308.5 88.2559 308.334 88.5566 308.112 88.8145C307.889 89.0684 307.608 89.2656 307.268 89.4062C306.932 89.5469 306.535 89.6172 306.078 89.6172C305.735 89.6172 305.408 89.5703 305.1 89.4766C304.795 89.3789 304.522 89.2324 304.28 89.0371C304.041 88.8379 303.846 88.5918 303.694 88.2988C303.545 88.002 303.451 87.6543 303.412 87.2559H304.444C304.49 87.5762 304.584 87.8457 304.725 88.0645C304.865 88.2832 305.049 88.4492 305.276 88.5625C305.506 88.6719 305.774 88.7266 306.078 88.7266C306.336 88.7266 306.565 88.6816 306.764 88.5918C306.963 88.502 307.131 88.373 307.268 88.2051C307.405 88.0371 307.508 87.834 307.578 87.5957C307.653 87.3574 307.69 87.0898 307.69 86.793C307.69 86.5234 307.653 86.2734 307.578 86.043C307.504 85.8125 307.393 85.6113 307.244 85.4395C307.1 85.2676 306.922 85.1348 306.711 85.041C306.5 84.9434 306.258 84.8945 305.985 84.8945C305.621 84.8945 305.346 84.9434 305.158 85.041C304.975 85.1387 304.785 85.2715 304.59 85.4395Z" fill="black" fill-opacity="0.6"/>
<path d="M298.08 116.439L297.213 116.217L297.641 111.969H302.018V112.971H298.561L298.303 115.291C298.459 115.201 298.656 115.117 298.895 115.039C299.137 114.961 299.414 114.922 299.727 114.922C300.121 114.922 300.475 114.99 300.787 115.127C301.1 115.26 301.365 115.451 301.584 115.701C301.807 115.951 301.977 116.252 302.094 116.604C302.211 116.955 302.27 117.348 302.27 117.781C302.27 118.191 302.213 118.568 302.1 118.912C301.99 119.256 301.824 119.557 301.602 119.814C301.379 120.068 301.098 120.266 300.758 120.406C300.422 120.547 300.025 120.617 299.568 120.617C299.225 120.617 298.898 120.57 298.59 120.477C298.285 120.379 298.012 120.232 297.77 120.037C297.531 119.838 297.336 119.592 297.184 119.299C297.035 119.002 296.941 118.654 296.902 118.256H297.934C297.98 118.576 298.074 118.846 298.215 119.064C298.355 119.283 298.539 119.449 298.766 119.562C298.996 119.672 299.264 119.727 299.568 119.727C299.826 119.727 300.055 119.682 300.254 119.592C300.453 119.502 300.621 119.373 300.758 119.205C300.895 119.037 300.998 118.834 301.068 118.596C301.143 118.357 301.18 118.09 301.18 117.793C301.18 117.523 301.143 117.273 301.068 117.043C300.994 116.812 300.883 116.611 300.734 116.439C300.59 116.268 300.412 116.135 300.201 116.041C299.99 115.943 299.748 115.895 299.475 115.895C299.111 115.895 298.836 115.943 298.648 116.041C298.465 116.139 298.275 116.271 298.08 116.439ZM308.574 115.555V116.855C308.574 117.555 308.512 118.145 308.387 118.625C308.262 119.105 308.082 119.492 307.848 119.785C307.614 120.078 307.33 120.291 306.998 120.424C306.67 120.553 306.299 120.617 305.885 120.617C305.557 120.617 305.254 120.576 304.977 120.494C304.699 120.412 304.449 120.281 304.227 120.102C304.008 119.918 303.821 119.68 303.664 119.387C303.508 119.094 303.389 118.738 303.307 118.32C303.225 117.902 303.184 117.414 303.184 116.855V115.555C303.184 114.855 303.246 114.27 303.371 113.797C303.5 113.324 303.682 112.945 303.916 112.66C304.151 112.371 304.432 112.164 304.76 112.039C305.092 111.914 305.463 111.852 305.873 111.852C306.205 111.852 306.51 111.893 306.787 111.975C307.069 112.053 307.319 112.18 307.537 112.355C307.756 112.527 307.942 112.758 308.094 113.047C308.25 113.332 308.369 113.682 308.451 114.096C308.533 114.51 308.574 114.996 308.574 115.555ZM307.485 117.031V115.373C307.485 114.99 307.461 114.654 307.414 114.365C307.371 114.072 307.307 113.822 307.221 113.615C307.135 113.408 307.026 113.24 306.893 113.111C306.764 112.982 306.614 112.889 306.442 112.83C306.274 112.768 306.084 112.736 305.873 112.736C305.615 112.736 305.387 112.785 305.188 112.883C304.989 112.977 304.821 113.127 304.684 113.334C304.551 113.541 304.449 113.812 304.379 114.148C304.309 114.484 304.274 114.893 304.274 115.373V117.031C304.274 117.414 304.295 117.752 304.338 118.045C304.385 118.338 304.453 118.592 304.543 118.807C304.633 119.018 304.742 119.191 304.871 119.328C305 119.465 305.149 119.566 305.317 119.633C305.489 119.695 305.678 119.727 305.885 119.727C306.151 119.727 306.383 119.676 306.582 119.574C306.781 119.473 306.948 119.314 307.08 119.1C307.217 118.881 307.319 118.602 307.385 118.262C307.451 117.918 307.485 117.508 307.485 117.031Z" fill="black" fill-opacity="0.6"/>
<path d="M302.299 150.609V151.5H296.715V150.721L299.51 147.609C299.854 147.227 300.119 146.902 300.307 146.637C300.498 146.367 300.631 146.127 300.705 145.916C300.783 145.701 300.822 145.482 300.822 145.26C300.822 144.979 300.764 144.725 300.646 144.498C300.533 144.268 300.365 144.084 300.143 143.947C299.92 143.811 299.65 143.742 299.334 143.742C298.955 143.742 298.639 143.816 298.385 143.965C298.135 144.109 297.947 144.312 297.822 144.574C297.697 144.836 297.635 145.137 297.635 145.477H296.551C296.551 144.996 296.656 144.557 296.867 144.158C297.078 143.76 297.391 143.443 297.805 143.209C298.219 142.971 298.729 142.852 299.334 142.852C299.873 142.852 300.334 142.947 300.717 143.139C301.1 143.326 301.393 143.592 301.596 143.936C301.803 144.275 301.906 144.674 301.906 145.131C301.906 145.381 301.863 145.635 301.777 145.893C301.695 146.146 301.58 146.4 301.432 146.654C301.287 146.908 301.117 147.158 300.922 147.404C300.73 147.65 300.525 147.893 300.307 148.131L298.021 150.609H302.299ZM304.59 147.439L303.723 147.217L304.151 142.969H308.528V143.971H305.071L304.813 146.291C304.969 146.201 305.166 146.117 305.405 146.039C305.647 145.961 305.924 145.922 306.237 145.922C306.631 145.922 306.985 145.99 307.297 146.127C307.61 146.26 307.875 146.451 308.094 146.701C308.317 146.951 308.487 147.252 308.604 147.604C308.721 147.955 308.78 148.348 308.78 148.781C308.78 149.191 308.723 149.568 308.61 149.912C308.5 150.256 308.334 150.557 308.112 150.814C307.889 151.068 307.608 151.266 307.268 151.406C306.932 151.547 306.535 151.617 306.078 151.617C305.735 151.617 305.408 151.57 305.1 151.477C304.795 151.379 304.522 151.232 304.28 151.037C304.041 150.838 303.846 150.592 303.694 150.299C303.545 150.002 303.451 149.654 303.412 149.256H304.444C304.49 149.576 304.584 149.846 304.725 150.064C304.865 150.283 305.049 150.449 305.276 150.562C305.506 150.672 305.774 150.727 306.078 150.727C306.336 150.727 306.565 150.682 306.764 150.592C306.963 150.502 307.131 150.373 307.268 150.205C307.405 150.037 307.508 149.834 307.578 149.596C307.653 149.357 307.69 149.09 307.69 148.793C307.69 148.523 307.653 148.273 307.578 148.043C307.504 147.812 307.393 147.611 307.244 147.439C307.1 147.268 306.922 147.135 306.711 147.041C306.5 146.943 306.258 146.895 305.985 146.895C305.621 146.895 305.346 146.943 305.158 147.041C304.975 147.139 304.785 147.271 304.59 147.439Z" fill="black" fill-opacity="0.6"/>
<path d="M302.064 177.555V178.855C302.064 179.555 302.002 180.145 301.877 180.625C301.752 181.105 301.572 181.492 301.338 181.785C301.104 182.078 300.82 182.291 300.488 182.424C300.16 182.553 299.789 182.617 299.375 182.617C299.047 182.617 298.744 182.576 298.467 182.494C298.189 182.412 297.939 182.281 297.717 182.102C297.498 181.918 297.311 181.68 297.154 181.387C296.998 181.094 296.879 180.738 296.797 180.32C296.715 179.902 296.674 179.414 296.674 178.855V177.555C296.674 176.855 296.736 176.27 296.861 175.797C296.99 175.324 297.172 174.945 297.406 174.66C297.641 174.371 297.922 174.164 298.25 174.039C298.582 173.914 298.953 173.852 299.363 173.852C299.695 173.852 300 173.893 300.277 173.975C300.559 174.053 300.809 174.18 301.027 174.355C301.246 174.527 301.432 174.758 301.584 175.047C301.74 175.332 301.859 175.682 301.941 176.096C302.023 176.51 302.064 176.996 302.064 177.555ZM300.975 179.031V177.373C300.975 176.99 300.951 176.654 300.904 176.365C300.861 176.072 300.797 175.822 300.711 175.615C300.625 175.408 300.516 175.24 300.383 175.111C300.254 174.982 300.104 174.889 299.932 174.83C299.764 174.768 299.574 174.736 299.363 174.736C299.105 174.736 298.877 174.785 298.678 174.883C298.479 174.977 298.311 175.127 298.174 175.334C298.041 175.541 297.939 175.812 297.869 176.148C297.799 176.484 297.764 176.893 297.764 177.373V179.031C297.764 179.414 297.785 179.752 297.828 180.045C297.875 180.338 297.943 180.592 298.033 180.807C298.123 181.018 298.232 181.191 298.361 181.328C298.49 181.465 298.639 181.566 298.807 181.633C298.979 181.695 299.168 181.727 299.375 181.727C299.641 181.727 299.873 181.676 300.072 181.574C300.271 181.473 300.438 181.314 300.57 181.1C300.707 180.881 300.809 180.602 300.875 180.262C300.941 179.918 300.975 179.508 300.975 179.031Z" fill="black" fill-opacity="0.6"/>
<rect width="40" height="89" transform="translate(64 91)" fill="#FAB832"/>
<rect width="40" height="115" transform="translate(176 65)" fill="#E5A012"/>
<path d="M80 66.5H128C128.828 66.5 129.5 67.1716 129.5 68V85C129.5 85.8284 128.828 86.5 128 86.5H80C79.1716 86.5 78.5 85.8284 78.5 85V68C78.5 67.1716 79.1716 66.5 80 66.5Z" fill="white"/>
<path d="M80 66.5H128C128.828 66.5 129.5 67.1716 129.5 68V85C129.5 85.8284 128.828 86.5 128 86.5H80C79.1716 86.5 78.5 85.8284 78.5 85V68C78.5 67.1716 79.1716 66.5 80 66.5Z" stroke="#D8DEE9"/>
<path d="M92.5848 80.1094V81H87.0008V80.2207L89.7957 77.1094C90.1395 76.7266 90.4051 76.4023 90.5926 76.1367C90.784 75.8672 90.9168 75.627 90.991 75.416C91.0691 75.2012 91.1082 74.9824 91.1082 74.7598C91.1082 74.4785 91.0496 74.2246 90.9324 73.998C90.8191 73.7676 90.6512 73.584 90.4285 73.4473C90.2059 73.3105 89.9363 73.2422 89.6199 73.2422C89.241 73.2422 88.9246 73.3164 88.6707 73.4648C88.4207 73.6094 88.2332 73.8125 88.1082 74.0742C87.9832 74.3359 87.9207 74.6367 87.9207 74.9766H86.8367C86.8367 74.4961 86.9422 74.0566 87.1531 73.6582C87.3641 73.2598 87.6766 72.9434 88.0906 72.709C88.5047 72.4707 89.0145 72.3516 89.6199 72.3516C90.159 72.3516 90.6199 72.4473 91.0027 72.6387C91.3855 72.8262 91.6785 73.0918 91.8816 73.4355C92.0887 73.7754 92.1922 74.1738 92.1922 74.6309C92.1922 74.8809 92.1492 75.1348 92.0633 75.3926C91.9813 75.6465 91.866 75.9004 91.7176 76.1543C91.573 76.4082 91.4031 76.6582 91.2078 76.9043C91.0164 77.1504 90.8113 77.3926 90.5926 77.6309L88.3074 80.1094H92.5848ZM94.876 76.9395L94.0088 76.7168L94.4366 72.4688H98.8135V73.4707H95.3565L95.0987 75.791C95.2549 75.7012 95.4522 75.6172 95.6905 75.5391C95.9327 75.4609 96.21 75.4219 96.5225 75.4219C96.917 75.4219 97.2705 75.4902 97.583 75.627C97.8955 75.7598 98.1612 75.9512 98.3799 76.2012C98.6026 76.4512 98.7725 76.752 98.8897 77.1035C99.0069 77.4551 99.0655 77.8477 99.0655 78.2812C99.0655 78.6914 99.0088 79.0684 98.8955 79.4121C98.7862 79.7559 98.6202 80.0566 98.3975 80.3145C98.1748 80.5684 97.8936 80.7656 97.5538 80.9062C97.2178 81.0469 96.8213 81.1172 96.3643 81.1172C96.0205 81.1172 95.6944 81.0703 95.3858 80.9766C95.0811 80.8789 94.8077 80.7324 94.5655 80.5371C94.3272 80.3379 94.1319 80.0918 93.9795 79.7988C93.8311 79.502 93.7373 79.1543 93.6983 78.7559H94.7295C94.7764 79.0762 94.8702 79.3457 95.0108 79.5645C95.1514 79.7832 95.335 79.9492 95.5616 80.0625C95.792 80.1719 96.0596 80.2266 96.3643 80.2266C96.6221 80.2266 96.8506 80.1816 97.0498 80.0918C97.2491 80.002 97.417 79.873 97.5538 79.7051C97.6905 79.5371 97.794 79.334 97.8643 79.0957C97.9385 78.8574 97.9756 78.5898 97.9756 78.293C97.9756 78.0234 97.9385 77.7734 97.8643 77.543C97.7901 77.3125 97.6788 77.1113 97.5303 76.9395C97.3858 76.7676 97.208 76.6348 96.9971 76.541C96.7862 76.4434 96.544 76.3945 96.2705 76.3945C95.9073 76.3945 95.6319 76.4434 95.4444 76.541C95.2608 76.6387 95.0713 76.7715 94.876 76.9395ZM105.394 78.6914C105.394 79.2109 105.273 79.6523 105.031 80.0156C104.792 80.375 104.468 80.6484 104.058 80.8359C103.652 81.0234 103.193 81.1172 102.681 81.1172C102.169 81.1172 101.708 81.0234 101.298 80.8359C100.888 80.6484 100.564 80.375 100.325 80.0156C100.087 79.6523 99.968 79.2109 99.968 78.6914C99.968 78.3516 100.033 78.041 100.161 77.7598C100.294 77.4746 100.48 77.2266 100.718 77.0156C100.96 76.8047 101.245 76.6426 101.574 76.5293C101.906 76.4121 102.271 76.3535 102.669 76.3535C103.193 76.3535 103.659 76.4551 104.07 76.6582C104.48 76.8574 104.802 77.1328 105.036 77.4844C105.275 77.8359 105.394 78.2383 105.394 78.6914ZM104.304 78.668C104.304 78.3516 104.236 78.0723 104.099 77.8301C103.962 77.584 103.771 77.3926 103.525 77.2559C103.279 77.1191 102.993 77.0508 102.669 77.0508C102.337 77.0508 102.05 77.1191 101.808 77.2559C101.57 77.3926 101.384 77.584 101.251 77.8301C101.118 78.0723 101.052 78.3516 101.052 78.668C101.052 78.9961 101.116 79.2773 101.245 79.5117C101.378 79.7422 101.566 79.9199 101.808 80.0449C102.054 80.166 102.345 80.2266 102.681 80.2266C103.017 80.2266 103.306 80.166 103.548 80.0449C103.79 79.9199 103.976 79.7422 104.105 79.5117C104.238 79.2773 104.304 78.9961 104.304 78.668ZM105.195 74.6895C105.195 75.1035 105.085 75.4766 104.866 75.8086C104.648 76.1406 104.349 76.4023 103.97 76.5938C103.591 76.7852 103.161 76.8809 102.681 76.8809C102.193 76.8809 101.757 76.7852 101.374 76.5938C100.995 76.4023 100.699 76.1406 100.484 75.8086C100.269 75.4766 100.161 75.1035 100.161 74.6895C100.161 74.1934 100.269 73.7715 100.484 73.4238C100.702 73.0762 101.001 72.8105 101.38 72.627C101.759 72.4434 102.191 72.3516 102.675 72.3516C103.163 72.3516 103.597 72.4434 103.976 72.627C104.355 72.8105 104.652 73.0762 104.866 73.4238C105.085 73.7715 105.195 74.1934 105.195 74.6895ZM104.111 74.707C104.111 74.4219 104.05 74.1699 103.929 73.9512C103.808 73.7324 103.64 73.5605 103.425 73.4355C103.21 73.3066 102.96 73.2422 102.675 73.2422C102.39 73.2422 102.14 73.3027 101.925 73.4238C101.714 73.541 101.548 73.709 101.427 73.9277C101.31 74.1465 101.251 74.4062 101.251 74.707C101.251 75 101.31 75.2559 101.427 75.4746C101.548 75.6934 101.716 75.8633 101.931 75.9844C102.146 76.1055 102.396 76.166 102.681 76.166C102.966 76.166 103.214 76.1055 103.425 75.9844C103.64 75.8633 103.808 75.6934 103.929 75.4746C104.05 75.2559 104.111 75 104.111 74.707ZM106.66 80.4258C106.66 80.2422 106.716 80.0879 106.83 79.9629C106.947 79.834 107.115 79.7695 107.334 79.7695C107.552 79.7695 107.718 79.834 107.832 79.9629C107.949 80.0879 108.007 80.2422 108.007 80.4258C108.007 80.6055 107.949 80.7578 107.832 80.8828C107.718 81.0078 107.552 81.0703 107.334 81.0703C107.115 81.0703 106.947 81.0078 106.83 80.8828C106.716 80.7578 106.66 80.6055 106.66 80.4258ZM113.609 72.457H113.703V73.377H113.609C113.035 73.377 112.554 73.4707 112.168 73.6582C111.781 73.8418 111.474 74.0898 111.248 74.4023C111.021 74.7109 110.857 75.0586 110.756 75.4453C110.658 75.832 110.609 76.2246 110.609 76.623V77.877C110.609 78.2559 110.654 78.5918 110.744 78.8848C110.834 79.1738 110.957 79.418 111.113 79.6172C111.269 79.8164 111.445 79.9668 111.64 80.0684C111.84 80.1699 112.047 80.2207 112.261 80.2207C112.511 80.2207 112.734 80.1738 112.929 80.0801C113.125 79.9824 113.289 79.8477 113.422 79.6758C113.558 79.5 113.662 79.293 113.732 79.0547C113.803 78.8164 113.838 78.5547 113.838 78.2695C113.838 78.0156 113.806 77.7715 113.744 77.5371C113.681 77.2988 113.586 77.0879 113.457 76.9043C113.328 76.7168 113.166 76.5703 112.97 76.4648C112.779 76.3555 112.551 76.3008 112.285 76.3008C111.984 76.3008 111.703 76.375 111.441 76.5234C111.183 76.668 110.97 76.8594 110.803 77.0977C110.638 77.332 110.545 77.5879 110.521 77.8652L109.947 77.8594C110.002 77.4219 110.103 77.0488 110.252 76.7402C110.404 76.4277 110.592 76.1738 110.814 75.9785C111.041 75.7793 111.293 75.6348 111.57 75.5449C111.851 75.4512 112.148 75.4043 112.461 75.4043C112.886 75.4043 113.254 75.4844 113.562 75.6445C113.871 75.8047 114.125 76.0195 114.324 76.2891C114.523 76.5547 114.67 76.8555 114.763 77.1914C114.861 77.5234 114.91 77.8652 114.91 78.2168C114.91 78.6191 114.853 78.9961 114.74 79.3477C114.627 79.6992 114.457 80.0078 114.23 80.2734C114.008 80.5391 113.732 80.7461 113.404 80.8945C113.076 81.043 112.695 81.1172 112.261 81.1172C111.801 81.1172 111.398 81.0234 111.054 80.8359C110.711 80.6445 110.426 80.3906 110.199 80.0742C109.972 79.7578 109.803 79.4062 109.689 79.0195C109.576 78.6328 109.519 78.2402 109.519 77.8418V77.332C109.519 76.7305 109.58 76.1406 109.701 75.5625C109.822 74.9844 110.031 74.4609 110.328 73.9922C110.629 73.5234 111.045 73.1504 111.576 72.873C112.107 72.5957 112.785 72.457 113.609 72.457ZM117.037 80.0918H117.148C117.773 80.0918 118.281 80.0039 118.672 79.8281C119.062 79.6523 119.363 79.416 119.574 79.1191C119.785 78.8223 119.93 78.4883 120.008 78.1172C120.086 77.7422 120.125 77.3574 120.125 76.9629V75.6562C120.125 75.2695 120.08 74.9258 119.99 74.625C119.904 74.3242 119.783 74.0723 119.627 73.8691C119.475 73.666 119.301 73.5117 119.105 73.4062C118.91 73.3008 118.703 73.248 118.484 73.248C118.234 73.248 118.01 73.2988 117.811 73.4004C117.615 73.498 117.449 73.6367 117.312 73.8164C117.18 73.9961 117.078 74.207 117.008 74.4492C116.938 74.6914 116.902 74.9551 116.902 75.2402C116.902 75.4941 116.934 75.7402 116.996 75.9785C117.059 76.2168 117.154 76.4316 117.283 76.623C117.412 76.8145 117.572 76.9668 117.764 77.0801C117.959 77.1895 118.188 77.2441 118.449 77.2441C118.691 77.2441 118.918 77.1973 119.129 77.1035C119.344 77.0059 119.533 76.875 119.697 76.7109C119.865 76.543 119.998 76.3535 120.096 76.1426C120.197 75.9316 120.256 75.7109 120.271 75.4805H120.787C120.787 75.8047 120.723 76.125 120.594 76.4414C120.469 76.7539 120.293 77.0391 120.066 77.2969C119.84 77.5547 119.574 77.7617 119.27 77.918C118.965 78.0703 118.633 78.1465 118.273 78.1465C117.852 78.1465 117.486 78.0645 117.178 77.9004C116.869 77.7363 116.615 77.5176 116.416 77.2441C116.221 76.9707 116.074 76.666 115.977 76.3301C115.883 75.9902 115.836 75.6465 115.836 75.2988C115.836 74.8926 115.893 74.5117 116.006 74.1562C116.119 73.8008 116.287 73.4883 116.51 73.2188C116.732 72.9453 117.008 72.7324 117.336 72.5801C117.668 72.4277 118.051 72.3516 118.484 72.3516C118.973 72.3516 119.389 72.4492 119.732 72.6445C120.076 72.8398 120.355 73.1016 120.57 73.4297C120.789 73.7578 120.949 74.127 121.051 74.5371C121.152 74.9473 121.203 75.3691 121.203 75.8027V76.1953C121.203 76.6367 121.174 77.0859 121.115 77.543C121.061 77.9961 120.953 78.4297 120.793 78.8438C120.637 79.2578 120.408 79.6289 120.107 79.957C119.807 80.2812 119.414 80.5391 118.93 80.7305C118.449 80.918 117.855 81.0117 117.148 81.0117H117.037V80.0918Z" fill="#272F3F"/>
<path d="M194 40.5H242C242.828 40.5 243.5 41.1716 243.5 42V59C243.5 59.8284 242.828 60.5 242 60.5H194C193.172 60.5 192.5 59.8284 192.5 59V42C192.5 41.1716 193.172 40.5 194 40.5Z" fill="white"/>
<path d="M194 40.5H242C242.828 40.5 243.5 41.1716 243.5 42V59C243.5 59.8284 242.828 60.5 242 60.5H194C193.172 60.5 192.5 59.8284 192.5 59V42C192.5 41.1716 193.172 40.5 194 40.5Z" stroke="#D8DEE9"/>
<path d="M206.585 54.1094V55H201.001V54.2207L203.796 51.1094C204.139 50.7266 204.405 50.4023 204.593 50.1367C204.784 49.8672 204.917 49.627 204.991 49.416C205.069 49.2012 205.108 48.9824 205.108 48.7598C205.108 48.4785 205.05 48.2246 204.932 47.998C204.819 47.7676 204.651 47.584 204.429 47.4473C204.206 47.3105 203.936 47.2422 203.62 47.2422C203.241 47.2422 202.925 47.3164 202.671 47.4648C202.421 47.6094 202.233 47.8125 202.108 48.0742C201.983 48.3359 201.921 48.6367 201.921 48.9766H200.837C200.837 48.4961 200.942 48.0566 201.153 47.6582C201.364 47.2598 201.677 46.9434 202.091 46.709C202.505 46.4707 203.014 46.3516 203.62 46.3516C204.159 46.3516 204.62 46.4473 205.003 46.6387C205.386 46.8262 205.679 47.0918 205.882 47.4355C206.089 47.7754 206.192 48.1738 206.192 48.6309C206.192 48.8809 206.149 49.1348 206.063 49.3926C205.981 49.6465 205.866 49.9004 205.718 50.1543C205.573 50.4082 205.403 50.6582 205.208 50.9043C205.016 51.1504 204.811 51.3926 204.593 51.6309L202.307 54.1094H206.585ZM212.884 52.6914C212.884 53.2109 212.763 53.6523 212.521 54.0156C212.282 54.375 211.958 54.6484 211.548 54.8359C211.142 55.0234 210.683 55.1172 210.171 55.1172C209.659 55.1172 209.198 55.0234 208.788 54.8359C208.378 54.6484 208.054 54.375 207.815 54.0156C207.577 53.6523 207.458 53.2109 207.458 52.6914C207.458 52.3516 207.523 52.041 207.651 51.7598C207.784 51.4746 207.97 51.2266 208.208 51.0156C208.45 50.8047 208.735 50.6426 209.064 50.5293C209.396 50.4121 209.761 50.3535 210.159 50.3535C210.683 50.3535 211.149 50.4551 211.56 50.6582C211.97 50.8574 212.292 51.1328 212.526 51.4844C212.765 51.8359 212.884 52.2383 212.884 52.6914ZM211.794 52.668C211.794 52.3516 211.726 52.0723 211.589 51.8301C211.452 51.584 211.261 51.3926 211.015 51.2559C210.769 51.1191 210.483 51.0508 210.159 51.0508C209.827 51.0508 209.54 51.1191 209.298 51.2559C209.06 51.3926 208.874 51.584 208.741 51.8301C208.608 52.0723 208.542 52.3516 208.542 52.668C208.542 52.9961 208.606 53.2773 208.735 53.5117C208.868 53.7422 209.056 53.9199 209.298 54.0449C209.544 54.166 209.835 54.2266 210.171 54.2266C210.507 54.2266 210.796 54.166 211.038 54.0449C211.28 53.9199 211.466 53.7422 211.595 53.5117C211.728 53.2773 211.794 52.9961 211.794 52.668ZM212.685 48.6895C212.685 49.1035 212.575 49.4766 212.356 49.8086C212.138 50.1406 211.839 50.4023 211.46 50.5938C211.081 50.7852 210.651 50.8809 210.171 50.8809C209.683 50.8809 209.247 50.7852 208.864 50.5938C208.485 50.4023 208.189 50.1406 207.974 49.8086C207.759 49.4766 207.651 49.1035 207.651 48.6895C207.651 48.1934 207.759 47.7715 207.974 47.4238C208.192 47.0762 208.491 46.8105 208.87 46.627C209.249 46.4434 209.681 46.3516 210.165 46.3516C210.653 46.3516 211.087 46.4434 211.466 46.627C211.845 46.8105 212.142 47.0762 212.356 47.4238C212.575 47.7715 212.685 48.1934 212.685 48.6895ZM211.601 48.707C211.601 48.4219 211.54 48.1699 211.419 47.9512C211.298 47.7324 211.13 47.5605 210.915 47.4355C210.7 47.3066 210.45 47.2422 210.165 47.2422C209.88 47.2422 209.63 47.3027 209.415 47.4238C209.204 47.541 209.038 47.709 208.917 47.9277C208.8 48.1465 208.741 48.4062 208.741 48.707C208.741 49 208.8 49.2559 208.917 49.4746C209.038 49.6934 209.206 49.8633 209.421 49.9844C209.636 50.1055 209.886 50.166 210.171 50.166C210.456 50.166 210.704 50.1055 210.915 49.9844C211.13 49.8633 211.298 49.6934 211.419 49.4746C211.54 49.2559 211.601 49 211.601 48.707ZM219.529 46.4688V47.0781L215.995 55H214.853L218.38 47.3594H213.763V46.4688H219.529ZM220.66 54.4258C220.66 54.2422 220.716 54.0879 220.83 53.9629C220.947 53.834 221.115 53.7695 221.334 53.7695C221.552 53.7695 221.718 53.834 221.832 53.9629C221.949 54.0879 222.007 54.2422 222.007 54.4258C222.007 54.6055 221.949 54.7578 221.832 54.8828C221.718 55.0078 221.552 55.0703 221.334 55.0703C221.115 55.0703 220.947 55.0078 220.83 54.8828C220.716 54.7578 220.66 54.6055 220.66 54.4258ZM228.963 46.4688V47.0781L225.429 55H224.287L227.814 47.3594H223.197V46.4688H228.963ZM231.33 50.9395L230.463 50.7168L230.891 46.4688H235.268V47.4707H231.811L231.553 49.791C231.709 49.7012 231.906 49.6172 232.145 49.5391C232.387 49.4609 232.664 49.4219 232.977 49.4219C233.371 49.4219 233.725 49.4902 234.037 49.627C234.35 49.7598 234.615 49.9512 234.834 50.2012C235.057 50.4512 235.227 50.752 235.344 51.1035C235.461 51.4551 235.52 51.8477 235.52 52.2812C235.52 52.6914 235.463 53.0684 235.35 53.4121C235.24 53.7559 235.074 54.0566 234.852 54.3145C234.629 54.5684 234.348 54.7656 234.008 54.9062C233.672 55.0469 233.275 55.1172 232.818 55.1172C232.475 55.1172 232.148 55.0703 231.84 54.9766C231.535 54.8789 231.262 54.7324 231.02 54.5371C230.781 54.3379 230.586 54.0918 230.434 53.7988C230.285 53.502 230.191 53.1543 230.152 52.7559H231.184C231.23 53.0762 231.324 53.3457 231.465 53.5645C231.605 53.7832 231.789 53.9492 232.016 54.0625C232.246 54.1719 232.514 54.2266 232.818 54.2266C233.076 54.2266 233.305 54.1816 233.504 54.0918C233.703 54.002 233.871 53.873 234.008 53.7051C234.145 53.5371 234.248 53.334 234.318 53.0957C234.393 52.8574 234.43 52.5898 234.43 52.293C234.43 52.0234 234.393 51.7734 234.318 51.543C234.244 51.3125 234.133 51.1113 233.984 50.9395C233.84 50.7676 233.662 50.6348 233.451 50.541C233.24 50.4434 232.998 50.3945 232.725 50.3945C232.361 50.3945 232.086 50.4434 231.898 50.541C231.715 50.6387 231.525 50.7715 231.33 50.9395Z" fill="#272F3F"/>
<path d="M83.5 106.5L195.5 84.5" stroke="#F24216" stroke-width="2" stroke-linecap="round" stroke-linejoin="round" stroke-dasharray="1 4"/>
<g clip-path="url(#clip0_2170_5749)">
<path d="M58 210H70" stroke="#F24216" stroke-width="2" stroke-linecap="round" stroke-linejoin="round" stroke-dasharray="1 4"/>
<path d="M81.71 211.262H82.858V214.244H81.71V211.262ZM85.952 211.262H87.1V214.244H85.952V211.262ZM79.26 205.298H89.536V206.25H79.26V205.298ZM78.7 213.684H90.166V214.65H78.7V213.684ZM84.398 207.076C86.96 207.076 88.542 207.944 88.542 209.456C88.542 210.94 86.96 211.808 84.398 211.808C81.836 211.808 80.268 210.94 80.268 209.456C80.268 207.944 81.836 207.076 84.398 207.076ZM84.398 207.986C82.55 207.986 81.43 208.532 81.43 209.456C81.43 210.366 82.55 210.898 84.398 210.898C86.246 210.898 87.366 210.366 87.366 209.456C87.366 208.532 86.246 207.986 84.398 207.986ZM83.838 203.632H84.986V205.872H83.838V203.632ZM94.3789 209.12H95.5409V211.458H94.3789V209.12ZM98.4109 209.12H99.5589V211.458H98.4109V209.12ZM97.0109 203.59C99.7969 203.59 101.463 204.36 101.463 205.774C101.463 207.188 99.7969 207.972 97.0109 207.972C94.2109 207.972 92.5589 207.188 92.5589 205.774C92.5589 204.36 94.2109 203.59 97.0109 203.59ZM97.0109 204.472C94.9389 204.472 93.7489 204.948 93.7489 205.774C93.7489 206.614 94.9389 207.09 97.0109 207.09C99.0689 207.09 100.259 206.614 100.259 205.774C100.259 204.948 99.0689 204.472 97.0109 204.472ZM91.2849 208.728H102.723V209.666H91.2849V208.728ZM92.6709 210.898H101.267V213.754H93.8469V215.294H92.6989V212.914H100.119V211.794H92.6709V210.898ZM92.6989 215.042H101.645V215.952H92.6989V215.042Z" fill="black" fill-opacity="0.6"/>
<path d="M128 208C128 205.791 129.791 204 132 204H136C138.209 204 140 205.791 140 208V212C140 214.209 138.209 216 136 216H132C129.791 216 128 214.209 128 212V208Z" fill="#FAB832"/>
<path d="M157.94 203.45H159.102V213.096H157.94V203.45ZM155.798 206.796H158.43V207.748H155.798V206.796ZM155.798 209.47H158.43V210.408H155.798V209.47ZM148.714 204.976H155.798V205.914H148.714V204.976ZM152.298 206.614C153.978 206.614 155.154 207.58 155.154 209.036C155.154 210.478 153.978 211.458 152.298 211.458C150.604 211.458 149.428 210.478 149.428 209.036C149.428 207.58 150.604 206.614 152.298 206.614ZM152.298 207.524C151.248 207.524 150.534 208.14 150.534 209.036C150.534 209.932 151.248 210.534 152.298 210.534C153.348 210.534 154.062 209.932 154.062 209.036C154.062 208.14 153.348 207.524 152.298 207.524ZM151.724 203.422H152.886V205.578H151.724V203.422ZM150.968 214.86H159.41V215.812H150.968V214.86ZM150.968 212.27H152.13V215.322H150.968V212.27ZM170.973 203.436H172.079V216.092H170.973V203.436ZM168.971 208.532H171.407V209.512H168.971V208.532ZM168.215 203.702H169.307V215.462H168.215V203.702ZM163.903 205.396H164.813V206.852C164.813 209.89 163.819 212.326 161.873 213.488L161.159 212.592C162.979 211.584 163.903 209.428 163.903 206.852V205.396ZM164.113 205.396H165.023V206.852C165.023 209.176 165.961 211.234 167.739 212.144L167.053 213.04C165.121 211.976 164.113 209.638 164.113 206.852V205.396ZM161.453 204.92H167.333V205.886H161.453V204.92ZM182.55 203.436H183.712V210.31H182.55V203.436ZM183.39 206.348H185.588V207.314H183.39V206.348ZM179.036 204.192H180.282C180.282 207.384 178.07 209.526 174.36 210.436L173.912 209.484C177.188 208.7 179.036 206.978 179.036 204.766V204.192ZM174.472 204.192H179.736V205.144H174.472V204.192ZM175.27 210.968H176.362V212.48H178.532V210.968H179.61V215.91H175.27V210.968ZM176.362 213.376V215.014H178.532V213.376H176.362ZM181.878 210.842H182.788V211.892C182.788 213.53 181.976 215.28 180.296 216.036L179.68 215.168C181.136 214.51 181.878 213.11 181.878 211.892V210.842ZM182.088 210.842H182.984V211.864C182.984 213.096 183.712 214.524 185.168 215.168L184.538 216.036C182.858 215.28 182.088 213.53 182.088 211.864V210.842Z" fill="black" fill-opacity="0.6"/>
<path d="M211 208C211 205.791 212.791 204 215 204H219C221.209 204 223 205.791 223 208V212C223 214.209 221.209 216 219 216H215C212.791 216 211 214.209 211 212V208Z" fill="#E5A012"/>
<path d="M240.912 203.436H242.074V216.092H240.912V203.436ZM237.202 204.794H238.35C238.35 208.462 236.698 211.668 232.47 213.74L231.854 212.802C235.508 211.038 237.202 208.35 237.202 204.99V204.794ZM232.428 204.794H237.706V205.746H232.428V204.794ZM253.917 203.436H255.037V216.092H253.917V203.436ZM251.775 208.504H254.211V209.47H251.775V208.504ZM251.047 203.716H252.139V215.448H251.047V203.716ZM244.747 212.004H245.573C247.421 212.004 248.681 211.934 250.151 211.626L250.263 212.592C248.751 212.914 247.477 212.97 245.573 212.97H244.747V212.004ZM244.747 204.976H249.451V205.928H245.895V212.438H244.747V204.976ZM265.55 203.436H266.712V210.31H265.55V203.436ZM266.39 206.348H268.588V207.314H266.39V206.348ZM262.036 204.192H263.282C263.282 207.384 261.07 209.526 257.36 210.436L256.912 209.484C260.188 208.7 262.036 206.978 262.036 204.766V204.192ZM257.472 204.192H262.736V205.144H257.472V204.192ZM258.27 210.968H259.362V212.48H261.532V210.968H262.61V215.91H258.27V210.968ZM259.362 213.376V215.014H261.532V213.376H259.362ZM264.878 210.842H265.788V211.892C265.788 213.53 264.976 215.28 263.296 216.036L262.68 215.168C264.136 214.51 264.878 213.11 264.878 211.892V210.842ZM265.088 210.842H265.984V211.864C265.984 213.096 266.712 214.524 268.168 215.168L267.538 216.036C265.858 215.28 265.088 213.53 265.088 211.864V210.842Z" fill="black" fill-opacity="0.6"/>
</g>
<defs>
<clipPath id="clip0_2170_5749">
<rect width="328" height="12" fill="white" transform="translate(0 204)"/>
</clipPath>
</defs>
</svg>
