<svg width="328" height="216" viewBox="0 0 328 216" fill="none" xmlns="http://www.w3.org/2000/svg">
<path d="M11.2061 6.38184V11.3652C11.0186 11.6055 10.7227 11.8662 10.3184 12.1475C9.91992 12.4287 9.39844 12.6719 8.75391 12.877C8.10938 13.0762 7.31836 13.1758 6.38086 13.1758C5.56641 13.1758 4.82227 13.041 4.14844 12.7715C3.47461 12.4961 2.89453 12.0947 2.4082 11.5674C1.92188 11.04 1.54688 10.3955 1.2832 9.63379C1.01953 8.87207 0.887695 8.00195 0.887695 7.02344V6.17969C0.887695 5.20117 1.01074 4.33105 1.25684 3.56934C1.50879 2.80762 1.86621 2.16309 2.3291 1.63574C2.79785 1.1084 3.35742 0.707031 4.00781 0.431641C4.66406 0.15625 5.39648 0.0185547 6.20508 0.0185547C7.28906 0.0185547 8.17969 0.197266 8.87695 0.554688C9.58008 0.912109 10.1191 1.4043 10.4941 2.03125C10.8691 2.65234 11.1035 3.36719 11.1973 4.17578H8.8418C8.77734 3.73047 8.64844 3.34082 8.45508 3.00684C8.26172 2.66699 7.98633 2.40332 7.62891 2.21582C7.27734 2.02246 6.82031 1.92578 6.25781 1.92578C5.7832 1.92578 5.36426 2.01953 5.00098 2.20703C4.6377 2.39453 4.33301 2.66699 4.08691 3.02441C3.84082 3.38184 3.65332 3.82422 3.52441 4.35156C3.40137 4.87891 3.33984 5.48242 3.33984 6.16211V7.02344C3.33984 7.70898 3.41016 8.31836 3.55078 8.85156C3.69141 9.37891 3.89355 9.82422 4.15723 10.1875C4.42676 10.5449 4.75781 10.8174 5.15039 11.0049C5.54883 11.1865 6 11.2773 6.50391 11.2773C6.96094 11.2773 7.33887 11.2393 7.6377 11.1631C7.94238 11.0811 8.18555 10.9844 8.36719 10.873C8.54883 10.7617 8.68945 10.6533 8.78906 10.5479V8.14844H6.24902V6.38184H11.2061ZM18.4444 0.203125V13H16.0362V0.203125H18.4444ZM22.417 0.203125V2.11035H12.1075V0.203125H22.417Z" fill="#242424"/>
<rect y="52" width="280" height="1" fill="black" fill-opacity="0.12"/>
<rect y="94.3333" width="280" height="1" fill="black" fill-opacity="0.12"/>
<rect y="136.667" width="280" height="1" fill="black" fill-opacity="0.12"/>
<rect y="179" width="280" height="1" fill="black" fill-opacity="0.24"/>
<path d="M298.291 54.2012H299.064C299.443 54.2012 299.756 54.1387 300.002 54.0137C300.252 53.8848 300.438 53.7109 300.559 53.4922C300.684 53.2695 300.746 53.0195 300.746 52.7422C300.746 52.4141 300.691 52.1387 300.582 51.916C300.473 51.6934 300.309 51.5254 300.09 51.4121C299.871 51.2988 299.594 51.2422 299.258 51.2422C298.953 51.2422 298.684 51.3027 298.449 51.4238C298.219 51.541 298.037 51.709 297.904 51.9277C297.775 52.1465 297.711 52.4043 297.711 52.7012H296.627C296.627 52.2676 296.736 51.873 296.955 51.5176C297.174 51.1621 297.48 50.8789 297.875 50.668C298.273 50.457 298.734 50.3516 299.258 50.3516C299.773 50.3516 300.225 50.4434 300.611 50.627C300.998 50.8066 301.299 51.0762 301.514 51.4355C301.729 51.791 301.836 52.2344 301.836 52.7656C301.836 52.9805 301.785 53.2109 301.684 53.457C301.586 53.6992 301.432 53.9258 301.221 54.1367C301.014 54.3477 300.744 54.5215 300.412 54.6582C300.08 54.791 299.682 54.8574 299.217 54.8574H298.291V54.2012ZM298.291 55.0918V54.4414H299.217C299.76 54.4414 300.209 54.5059 300.564 54.6348C300.92 54.7637 301.199 54.9355 301.402 55.1504C301.609 55.3652 301.754 55.6016 301.836 55.8594C301.922 56.1133 301.965 56.3672 301.965 56.6211C301.965 57.0195 301.896 57.373 301.76 57.6816C301.627 57.9902 301.438 58.252 301.191 58.4668C300.949 58.6816 300.664 58.8438 300.336 58.9531C300.008 59.0625 299.65 59.1172 299.264 59.1172C298.893 59.1172 298.543 59.0645 298.215 58.959C297.891 58.8535 297.604 58.7012 297.354 58.502C297.104 58.2988 296.908 58.0508 296.768 57.7578C296.627 57.4609 296.557 57.123 296.557 56.7441H297.641C297.641 57.041 297.705 57.3008 297.834 57.5234C297.967 57.7461 298.154 57.9199 298.396 58.0449C298.643 58.166 298.932 58.2266 299.264 58.2266C299.596 58.2266 299.881 58.1699 300.119 58.0566C300.361 57.9395 300.547 57.7637 300.676 57.5293C300.809 57.2949 300.875 57 300.875 56.6445C300.875 56.2891 300.801 55.998 300.652 55.7715C300.504 55.541 300.293 55.3711 300.02 55.2617C299.75 55.1484 299.432 55.0918 299.064 55.0918H298.291ZM308.574 54.0547V55.3555C308.574 56.0547 308.512 56.6445 308.387 57.125C308.262 57.6055 308.082 57.9922 307.848 58.2852C307.614 58.5781 307.33 58.791 306.998 58.9238C306.67 59.0527 306.299 59.1172 305.885 59.1172C305.557 59.1172 305.254 59.0762 304.977 58.9941C304.699 58.9121 304.449 58.7812 304.227 58.6016C304.008 58.418 303.821 58.1797 303.664 57.8867C303.508 57.5938 303.389 57.2383 303.307 56.8203C303.225 56.4023 303.184 55.9141 303.184 55.3555V54.0547C303.184 53.3555 303.246 52.7695 303.371 52.2969C303.5 51.8242 303.682 51.4453 303.916 51.1602C304.151 50.8711 304.432 50.6641 304.76 50.5391C305.092 50.4141 305.463 50.3516 305.873 50.3516C306.205 50.3516 306.51 50.3926 306.787 50.4746C307.069 50.5527 307.319 50.6797 307.537 50.8555C307.756 51.0273 307.942 51.2578 308.094 51.5469C308.25 51.832 308.369 52.1816 308.451 52.5957C308.533 53.0098 308.574 53.4961 308.574 54.0547ZM307.485 55.5312V53.873C307.485 53.4902 307.461 53.1543 307.414 52.8652C307.371 52.5723 307.307 52.3223 307.221 52.1152C307.135 51.9082 307.026 51.7402 306.893 51.6113C306.764 51.4824 306.614 51.3887 306.442 51.3301C306.274 51.2676 306.084 51.2363 305.873 51.2363C305.615 51.2363 305.387 51.2852 305.188 51.3828C304.989 51.4766 304.821 51.627 304.684 51.834C304.551 52.041 304.449 52.3125 304.379 52.6484C304.309 52.9844 304.274 53.3926 304.274 53.873V55.5312C304.274 55.9141 304.295 56.252 304.338 56.5449C304.385 56.8379 304.453 57.0918 304.543 57.3066C304.633 57.5176 304.742 57.6914 304.871 57.8281C305 57.9648 305.149 58.0664 305.317 58.1328C305.489 58.1953 305.678 58.2266 305.885 58.2266C306.151 58.2266 306.383 58.1758 306.582 58.0742C306.781 57.9727 306.948 57.8145 307.08 57.5996C307.217 57.3809 307.319 57.1016 307.385 56.7617C307.451 56.418 307.485 56.0078 307.485 55.5312ZM315.084 54.0547V55.3555C315.084 56.0547 315.022 56.6445 314.897 57.125C314.772 57.6055 314.592 57.9922 314.358 58.2852C314.124 58.5781 313.84 58.791 313.508 58.9238C313.18 59.0527 312.809 59.1172 312.395 59.1172C312.067 59.1172 311.764 59.0762 311.487 58.9941C311.209 58.9121 310.959 58.7812 310.737 58.6016C310.518 58.418 310.331 58.1797 310.174 57.8867C310.018 57.5938 309.899 57.2383 309.817 56.8203C309.735 56.4023 309.694 55.9141 309.694 55.3555V54.0547C309.694 53.3555 309.756 52.7695 309.881 52.2969C310.01 51.8242 310.192 51.4453 310.426 51.1602C310.661 50.8711 310.942 50.6641 311.27 50.5391C311.602 50.4141 311.973 50.3516 312.383 50.3516C312.715 50.3516 313.02 50.3926 313.297 50.4746C313.579 50.5527 313.829 50.6797 314.047 50.8555C314.266 51.0273 314.452 51.2578 314.604 51.5469C314.76 51.832 314.879 52.1816 314.961 52.5957C315.043 53.0098 315.084 53.4961 315.084 54.0547ZM313.995 55.5312V53.873C313.995 53.4902 313.971 53.1543 313.924 52.8652C313.881 52.5723 313.817 52.3223 313.731 52.1152C313.645 51.9082 313.536 51.7402 313.403 51.6113C313.274 51.4824 313.124 51.3887 312.952 51.3301C312.784 51.2676 312.594 51.2363 312.383 51.2363C312.125 51.2363 311.897 51.2852 311.698 51.3828C311.499 51.4766 311.331 51.627 311.194 51.834C311.061 52.041 310.959 52.3125 310.889 52.6484C310.819 52.9844 310.784 53.3926 310.784 53.873V55.5312C310.784 55.9141 310.805 56.252 310.848 56.5449C310.895 56.8379 310.963 57.0918 311.053 57.3066C311.143 57.5176 311.252 57.6914 311.381 57.8281C311.51 57.9648 311.659 58.0664 311.827 58.1328C311.999 58.1953 312.188 58.2266 312.395 58.2266C312.661 58.2266 312.893 58.1758 313.092 58.0742C313.291 57.9727 313.458 57.8145 313.59 57.5996C313.727 57.3809 313.829 57.1016 313.895 56.7617C313.961 56.418 313.995 56.0078 313.995 55.5312Z" fill="black" fill-opacity="0.6"/>
<path d="M302.299 99.1094V100H296.715V99.2207L299.51 96.1094C299.854 95.7266 300.119 95.4023 300.307 95.1367C300.498 94.8672 300.631 94.627 300.705 94.416C300.783 94.2012 300.822 93.9824 300.822 93.7598C300.822 93.4785 300.764 93.2246 300.646 92.998C300.533 92.7676 300.365 92.584 300.143 92.4473C299.92 92.3105 299.65 92.2422 299.334 92.2422C298.955 92.2422 298.639 92.3164 298.385 92.4648C298.135 92.6094 297.947 92.8125 297.822 93.0742C297.697 93.3359 297.635 93.6367 297.635 93.9766H296.551C296.551 93.4961 296.656 93.0566 296.867 92.6582C297.078 92.2598 297.391 91.9434 297.805 91.709C298.219 91.4707 298.729 91.3516 299.334 91.3516C299.873 91.3516 300.334 91.4473 300.717 91.6387C301.1 91.8262 301.393 92.0918 301.596 92.4355C301.803 92.7754 301.906 93.1738 301.906 93.6309C301.906 93.8809 301.863 94.1348 301.777 94.3926C301.695 94.6465 301.58 94.9004 301.432 95.1543C301.287 95.4082 301.117 95.6582 300.922 95.9043C300.73 96.1504 300.525 96.3926 300.307 96.6309L298.021 99.1094H302.299ZM308.574 95.0547V96.3555C308.574 97.0547 308.512 97.6445 308.387 98.125C308.262 98.6055 308.082 98.9922 307.848 99.2852C307.614 99.5781 307.33 99.791 306.998 99.9238C306.67 100.053 306.299 100.117 305.885 100.117C305.557 100.117 305.254 100.076 304.977 99.9941C304.699 99.9121 304.449 99.7812 304.227 99.6016C304.008 99.418 303.821 99.1797 303.664 98.8867C303.508 98.5938 303.389 98.2383 303.307 97.8203C303.225 97.4023 303.184 96.9141 303.184 96.3555V95.0547C303.184 94.3555 303.246 93.7695 303.371 93.2969C303.5 92.8242 303.682 92.4453 303.916 92.1602C304.151 91.8711 304.432 91.6641 304.76 91.5391C305.092 91.4141 305.463 91.3516 305.873 91.3516C306.205 91.3516 306.51 91.3926 306.787 91.4746C307.069 91.5527 307.319 91.6797 307.537 91.8555C307.756 92.0273 307.942 92.2578 308.094 92.5469C308.25 92.832 308.369 93.1816 308.451 93.5957C308.533 94.0098 308.574 94.4961 308.574 95.0547ZM307.485 96.5312V94.873C307.485 94.4902 307.461 94.1543 307.414 93.8652C307.371 93.5723 307.307 93.3223 307.221 93.1152C307.135 92.9082 307.026 92.7402 306.893 92.6113C306.764 92.4824 306.614 92.3887 306.442 92.3301C306.274 92.2676 306.084 92.2363 305.873 92.2363C305.615 92.2363 305.387 92.2852 305.188 92.3828C304.989 92.4766 304.821 92.627 304.684 92.834C304.551 93.041 304.449 93.3125 304.379 93.6484C304.309 93.9844 304.274 94.3926 304.274 94.873V96.5312C304.274 96.9141 304.295 97.252 304.338 97.5449C304.385 97.8379 304.453 98.0918 304.543 98.3066C304.633 98.5176 304.742 98.6914 304.871 98.8281C305 98.9648 305.149 99.0664 305.317 99.1328C305.489 99.1953 305.678 99.2266 305.885 99.2266C306.151 99.2266 306.383 99.1758 306.582 99.0742C306.781 98.9727 306.948 98.8145 307.08 98.5996C307.217 98.3809 307.319 98.1016 307.385 97.7617C307.451 97.418 307.485 97.0078 307.485 96.5312ZM315.084 95.0547V96.3555C315.084 97.0547 315.022 97.6445 314.897 98.125C314.772 98.6055 314.592 98.9922 314.358 99.2852C314.124 99.5781 313.84 99.791 313.508 99.9238C313.18 100.053 312.809 100.117 312.395 100.117C312.067 100.117 311.764 100.076 311.487 99.9941C311.209 99.9121 310.959 99.7812 310.737 99.6016C310.518 99.418 310.331 99.1797 310.174 98.8867C310.018 98.5938 309.899 98.2383 309.817 97.8203C309.735 97.4023 309.694 96.9141 309.694 96.3555V95.0547C309.694 94.3555 309.756 93.7695 309.881 93.2969C310.01 92.8242 310.192 92.4453 310.426 92.1602C310.661 91.8711 310.942 91.6641 311.27 91.5391C311.602 91.4141 311.973 91.3516 312.383 91.3516C312.715 91.3516 313.02 91.3926 313.297 91.4746C313.579 91.5527 313.829 91.6797 314.047 91.8555C314.266 92.0273 314.452 92.2578 314.604 92.5469C314.76 92.832 314.879 93.1816 314.961 93.5957C315.043 94.0098 315.084 94.4961 315.084 95.0547ZM313.995 96.5312V94.873C313.995 94.4902 313.971 94.1543 313.924 93.8652C313.881 93.5723 313.817 93.3223 313.731 93.1152C313.645 92.9082 313.536 92.7402 313.403 92.6113C313.274 92.4824 313.124 92.3887 312.952 92.3301C312.784 92.2676 312.594 92.2363 312.383 92.2363C312.125 92.2363 311.897 92.2852 311.698 92.3828C311.499 92.4766 311.331 92.627 311.194 92.834C311.061 93.041 310.959 93.3125 310.889 93.6484C310.819 93.9844 310.784 94.3926 310.784 94.873V96.5312C310.784 96.9141 310.805 97.252 310.848 97.5449C310.895 97.8379 310.963 98.0918 311.053 98.3066C311.143 98.5176 311.252 98.6914 311.381 98.8281C311.51 98.9648 311.659 99.0664 311.827 99.1328C311.999 99.1953 312.188 99.2266 312.395 99.2266C312.661 99.2266 312.893 99.1758 313.092 99.0742C313.291 98.9727 313.458 98.8145 313.59 98.5996C313.727 98.3809 313.829 98.1016 313.895 97.7617C313.961 97.418 313.995 97.0078 313.995 96.5312Z" fill="black" fill-opacity="0.6"/>
<path d="M300.271 132.422V141H299.188V133.775L297.002 134.572V133.594L300.102 132.422H300.271ZM308.574 136.055V137.355C308.574 138.055 308.512 138.645 308.387 139.125C308.262 139.605 308.082 139.992 307.848 140.285C307.614 140.578 307.33 140.791 306.998 140.924C306.67 141.053 306.299 141.117 305.885 141.117C305.557 141.117 305.254 141.076 304.977 140.994C304.699 140.912 304.449 140.781 304.227 140.602C304.008 140.418 303.821 140.18 303.664 139.887C303.508 139.594 303.389 139.238 303.307 138.82C303.225 138.402 303.184 137.914 303.184 137.355V136.055C303.184 135.355 303.246 134.77 303.371 134.297C303.5 133.824 303.682 133.445 303.916 133.16C304.151 132.871 304.432 132.664 304.76 132.539C305.092 132.414 305.463 132.352 305.873 132.352C306.205 132.352 306.51 132.393 306.787 132.475C307.069 132.553 307.319 132.68 307.537 132.855C307.756 133.027 307.942 133.258 308.094 133.547C308.25 133.832 308.369 134.182 308.451 134.596C308.533 135.01 308.574 135.496 308.574 136.055ZM307.485 137.531V135.873C307.485 135.49 307.461 135.154 307.414 134.865C307.371 134.572 307.307 134.322 307.221 134.115C307.135 133.908 307.026 133.74 306.893 133.611C306.764 133.482 306.614 133.389 306.442 133.33C306.274 133.268 306.084 133.236 305.873 133.236C305.615 133.236 305.387 133.285 305.188 133.383C304.989 133.477 304.821 133.627 304.684 133.834C304.551 134.041 304.449 134.312 304.379 134.648C304.309 134.984 304.274 135.393 304.274 135.873V137.531C304.274 137.914 304.295 138.252 304.338 138.545C304.385 138.838 304.453 139.092 304.543 139.307C304.633 139.518 304.742 139.691 304.871 139.828C305 139.965 305.149 140.066 305.317 140.133C305.489 140.195 305.678 140.227 305.885 140.227C306.151 140.227 306.383 140.176 306.582 140.074C306.781 139.973 306.948 139.814 307.08 139.6C307.217 139.381 307.319 139.102 307.385 138.762C307.451 138.418 307.485 138.008 307.485 137.531ZM315.084 136.055V137.355C315.084 138.055 315.022 138.645 314.897 139.125C314.772 139.605 314.592 139.992 314.358 140.285C314.124 140.578 313.84 140.791 313.508 140.924C313.18 141.053 312.809 141.117 312.395 141.117C312.067 141.117 311.764 141.076 311.487 140.994C311.209 140.912 310.959 140.781 310.737 140.602C310.518 140.418 310.331 140.18 310.174 139.887C310.018 139.594 309.899 139.238 309.817 138.82C309.735 138.402 309.694 137.914 309.694 137.355V136.055C309.694 135.355 309.756 134.77 309.881 134.297C310.01 133.824 310.192 133.445 310.426 133.16C310.661 132.871 310.942 132.664 311.27 132.539C311.602 132.414 311.973 132.352 312.383 132.352C312.715 132.352 313.02 132.393 313.297 132.475C313.579 132.553 313.829 132.68 314.047 132.855C314.266 133.027 314.452 133.258 314.604 133.547C314.76 133.832 314.879 134.182 314.961 134.596C315.043 135.01 315.084 135.496 315.084 136.055ZM313.995 137.531V135.873C313.995 135.49 313.971 135.154 313.924 134.865C313.881 134.572 313.817 134.322 313.731 134.115C313.645 133.908 313.536 133.74 313.403 133.611C313.274 133.482 313.124 133.389 312.952 133.33C312.784 133.268 312.594 133.236 312.383 133.236C312.125 133.236 311.897 133.285 311.698 133.383C311.499 133.477 311.331 133.627 311.194 133.834C311.061 134.041 310.959 134.312 310.889 134.648C310.819 134.984 310.784 135.393 310.784 135.873V137.531C310.784 137.914 310.805 138.252 310.848 138.545C310.895 138.838 310.963 139.092 311.053 139.307C311.143 139.518 311.252 139.691 311.381 139.828C311.51 139.965 311.659 140.066 311.827 140.133C311.999 140.195 312.188 140.227 312.395 140.227C312.661 140.227 312.893 140.176 313.092 140.074C313.291 139.973 313.458 139.814 313.59 139.6C313.727 139.381 313.829 139.102 313.895 138.762C313.961 138.418 313.995 138.008 313.995 137.531Z" fill="black" fill-opacity="0.6"/>
<path d="M302.064 177.055V178.355C302.064 179.055 302.002 179.645 301.877 180.125C301.752 180.605 301.572 180.992 301.338 181.285C301.104 181.578 300.82 181.791 300.488 181.924C300.16 182.053 299.789 182.117 299.375 182.117C299.047 182.117 298.744 182.076 298.467 181.994C298.189 181.912 297.939 181.781 297.717 181.602C297.498 181.418 297.311 181.18 297.154 180.887C296.998 180.594 296.879 180.238 296.797 179.82C296.715 179.402 296.674 178.914 296.674 178.355V177.055C296.674 176.355 296.736 175.77 296.861 175.297C296.99 174.824 297.172 174.445 297.406 174.16C297.641 173.871 297.922 173.664 298.25 173.539C298.582 173.414 298.953 173.352 299.363 173.352C299.695 173.352 300 173.393 300.277 173.475C300.559 173.553 300.809 173.68 301.027 173.855C301.246 174.027 301.432 174.258 301.584 174.547C301.74 174.832 301.859 175.182 301.941 175.596C302.023 176.01 302.064 176.496 302.064 177.055ZM300.975 178.531V176.873C300.975 176.49 300.951 176.154 300.904 175.865C300.861 175.572 300.797 175.322 300.711 175.115C300.625 174.908 300.516 174.74 300.383 174.611C300.254 174.482 300.104 174.389 299.932 174.33C299.764 174.268 299.574 174.236 299.363 174.236C299.105 174.236 298.877 174.285 298.678 174.383C298.479 174.477 298.311 174.627 298.174 174.834C298.041 175.041 297.939 175.312 297.869 175.648C297.799 175.984 297.764 176.393 297.764 176.873V178.531C297.764 178.914 297.785 179.252 297.828 179.545C297.875 179.838 297.943 180.092 298.033 180.307C298.123 180.518 298.232 180.691 298.361 180.828C298.49 180.965 298.639 181.066 298.807 181.133C298.979 181.195 299.168 181.227 299.375 181.227C299.641 181.227 299.873 181.176 300.072 181.074C300.271 180.973 300.438 180.814 300.57 180.6C300.707 180.381 300.809 180.102 300.875 179.762C300.941 179.418 300.975 179.008 300.975 178.531Z" fill="black" fill-opacity="0.6"/>
<rect width="40" height="91" transform="translate(40 89)" fill="#37A6FB"/>
<rect width="40" height="113" transform="translate(120 67)" fill="#0060A9"/>
<rect width="40" height="102" transform="translate(200 78)" fill="#B8B8B8"/>
<path d="M62 64.5H110C110.828 64.5 111.5 65.1716 111.5 66V83C111.5 83.8284 110.828 84.5 110 84.5H62C61.1716 84.5 60.5 83.8284 60.5 83V66C60.5 65.1716 61.1716 64.5 62 64.5Z" fill="white"/>
<path d="M62 64.5H110C110.828 64.5 111.5 65.1716 111.5 66V83C111.5 83.8284 110.828 84.5 110 84.5H62C61.1716 84.5 60.5 83.8284 60.5 83V66C60.5 65.1716 61.1716 64.5 62 64.5Z" stroke="#D8DEE9"/>
<path d="M74.5848 78.1094V79H69.0008V78.2207L71.7957 75.1094C72.1395 74.7266 72.4051 74.4023 72.5926 74.1367C72.784 73.8672 72.9168 73.627 72.991 73.416C73.0691 73.2012 73.1082 72.9824 73.1082 72.7598C73.1082 72.4785 73.0496 72.2246 72.9324 71.998C72.8191 71.7676 72.6512 71.584 72.4285 71.4473C72.2059 71.3105 71.9363 71.2422 71.6199 71.2422C71.241 71.2422 70.9246 71.3164 70.6707 71.4648C70.4207 71.6094 70.2332 71.8125 70.1082 72.0742C69.9832 72.3359 69.9207 72.6367 69.9207 72.9766H68.8367C68.8367 72.4961 68.9422 72.0566 69.1531 71.6582C69.3641 71.2598 69.6766 70.9434 70.0906 70.709C70.5047 70.4707 71.0145 70.3516 71.6199 70.3516C72.159 70.3516 72.6199 70.4473 73.0027 70.6387C73.3855 70.8262 73.6785 71.0918 73.8816 71.4355C74.0887 71.7754 74.1922 72.1738 74.1922 72.6309C74.1922 72.8809 74.1492 73.1348 74.0633 73.3926C73.9813 73.6465 73.866 73.9004 73.7176 74.1543C73.573 74.4082 73.4031 74.6582 73.2078 74.9043C73.0164 75.1504 72.8113 75.3926 72.5926 75.6309L70.3074 78.1094H74.5848ZM76.876 74.9395L76.0088 74.7168L76.4366 70.4688H80.8135V71.4707H77.3565L77.0987 73.791C77.2549 73.7012 77.4522 73.6172 77.6905 73.5391C77.9327 73.4609 78.21 73.4219 78.5225 73.4219C78.917 73.4219 79.2705 73.4902 79.583 73.627C79.8955 73.7598 80.1612 73.9512 80.3799 74.2012C80.6026 74.4512 80.7725 74.752 80.8897 75.1035C81.0069 75.4551 81.0655 75.8477 81.0655 76.2812C81.0655 76.6914 81.0088 77.0684 80.8955 77.4121C80.7862 77.7559 80.6202 78.0566 80.3975 78.3145C80.1748 78.5684 79.8936 78.7656 79.5538 78.9062C79.2178 79.0469 78.8213 79.1172 78.3643 79.1172C78.0205 79.1172 77.6944 79.0703 77.3858 78.9766C77.0811 78.8789 76.8077 78.7324 76.5655 78.5371C76.3272 78.3379 76.1319 78.0918 75.9795 77.7988C75.8311 77.502 75.7373 77.1543 75.6983 76.7559H76.7295C76.7764 77.0762 76.8702 77.3457 77.0108 77.5645C77.1514 77.7832 77.335 77.9492 77.5616 78.0625C77.792 78.1719 78.0596 78.2266 78.3643 78.2266C78.6221 78.2266 78.8506 78.1816 79.0498 78.0918C79.2491 78.002 79.417 77.873 79.5538 77.7051C79.6905 77.5371 79.794 77.334 79.8643 77.0957C79.9385 76.8574 79.9756 76.5898 79.9756 76.293C79.9756 76.0234 79.9385 75.7734 79.8643 75.543C79.7901 75.3125 79.6788 75.1113 79.5303 74.9395C79.3858 74.7676 79.208 74.6348 78.9971 74.541C78.7862 74.4434 78.544 74.3945 78.2705 74.3945C77.9073 74.3945 77.6319 74.4434 77.4444 74.541C77.2608 74.6387 77.0713 74.7715 76.876 74.9395ZM87.3938 76.6914C87.3938 77.2109 87.2727 77.6523 87.0305 78.0156C86.7923 78.375 86.468 78.6484 86.0579 78.8359C85.6516 79.0234 85.1927 79.1172 84.6809 79.1172C84.1692 79.1172 83.7083 79.0234 83.2981 78.8359C82.888 78.6484 82.5638 78.375 82.3255 78.0156C82.0872 77.6523 81.968 77.2109 81.968 76.6914C81.968 76.3516 82.0325 76.041 82.1614 75.7598C82.2942 75.4746 82.4798 75.2266 82.718 75.0156C82.9602 74.8047 83.2454 74.6426 83.5735 74.5293C83.9055 74.4121 84.2708 74.3535 84.6692 74.3535C85.1927 74.3535 85.6595 74.4551 86.0696 74.6582C86.4798 74.8574 86.802 75.1328 87.0364 75.4844C87.2747 75.8359 87.3938 76.2383 87.3938 76.6914ZM86.304 76.668C86.304 76.3516 86.2356 76.0723 86.0989 75.8301C85.9622 75.584 85.7708 75.3926 85.5247 75.2559C85.2786 75.1191 84.9934 75.0508 84.6692 75.0508C84.3372 75.0508 84.0501 75.1191 83.8079 75.2559C83.5696 75.3926 83.3841 75.584 83.2513 75.8301C83.1184 76.0723 83.052 76.3516 83.052 76.668C83.052 76.9961 83.1165 77.2773 83.2454 77.5117C83.3782 77.7422 83.5657 77.9199 83.8079 78.0449C84.054 78.166 84.345 78.2266 84.6809 78.2266C85.0169 78.2266 85.3059 78.166 85.5481 78.0449C85.7903 77.9199 85.9759 77.7422 86.1048 77.5117C86.2376 77.2773 86.304 76.9961 86.304 76.668ZM87.1946 72.6895C87.1946 73.1035 87.0852 73.4766 86.8665 73.8086C86.6477 74.1406 86.3489 74.4023 85.97 74.5938C85.5911 74.7852 85.1614 74.8809 84.6809 74.8809C84.1927 74.8809 83.7571 74.7852 83.3743 74.5938C82.9954 74.4023 82.6985 74.1406 82.4837 73.8086C82.2688 73.4766 82.1614 73.1035 82.1614 72.6895C82.1614 72.1934 82.2688 71.7715 82.4837 71.4238C82.7024 71.0762 83.0013 70.8105 83.3802 70.627C83.7591 70.4434 84.1907 70.3516 84.6751 70.3516C85.1634 70.3516 85.597 70.4434 85.9759 70.627C86.3548 70.8105 86.6516 71.0762 86.8665 71.4238C87.0852 71.7715 87.1946 72.1934 87.1946 72.6895ZM86.1106 72.707C86.1106 72.4219 86.0501 72.1699 85.929 71.9512C85.8079 71.7324 85.6399 71.5605 85.4251 71.4355C85.2102 71.3066 84.9602 71.2422 84.6751 71.2422C84.3899 71.2422 84.1399 71.3027 83.9251 71.4238C83.7141 71.541 83.5481 71.709 83.427 71.9277C83.3098 72.1465 83.2513 72.4062 83.2513 72.707C83.2513 73 83.3098 73.2559 83.427 73.4746C83.5481 73.6934 83.7161 73.8633 83.9309 73.9844C84.1458 74.1055 84.3958 74.166 84.6809 74.166C84.9661 74.166 85.2141 74.1055 85.4251 73.9844C85.6399 73.8633 85.8079 73.6934 85.929 73.4746C86.0501 73.2559 86.1106 73 86.1106 72.707ZM88.6597 78.4258C88.6597 78.2422 88.7163 78.0879 88.8296 77.9629C88.9468 77.834 89.1148 77.7695 89.3335 77.7695C89.5523 77.7695 89.7183 77.834 89.8316 77.9629C89.9488 78.0879 90.0073 78.2422 90.0073 78.4258C90.0073 78.6055 89.9488 78.7578 89.8316 78.8828C89.7183 79.0078 89.5523 79.0703 89.3335 79.0703C89.1148 79.0703 88.9468 79.0078 88.8296 78.8828C88.7163 78.7578 88.6597 78.6055 88.6597 78.4258ZM95.6091 70.457H95.7029V71.377H95.6091C95.0349 71.377 94.5545 71.4707 94.1677 71.6582C93.781 71.8418 93.4744 72.0898 93.2478 72.4023C93.0213 72.7109 92.8572 73.0586 92.7556 73.4453C92.658 73.832 92.6091 74.2246 92.6091 74.623V75.877C92.6091 76.2559 92.6541 76.5918 92.7439 76.8848C92.8338 77.1738 92.9568 77.418 93.113 77.6172C93.2693 77.8164 93.4451 77.9668 93.6404 78.0684C93.8396 78.1699 94.0466 78.2207 94.2615 78.2207C94.5115 78.2207 94.7341 78.1738 94.9295 78.0801C95.1248 77.9824 95.2888 77.8477 95.4216 77.6758C95.5584 77.5 95.6619 77.293 95.7322 77.0547C95.8025 76.8164 95.8377 76.5547 95.8377 76.2695C95.8377 76.0156 95.8064 75.7715 95.7439 75.5371C95.6814 75.2988 95.5857 75.0879 95.4568 74.9043C95.3279 74.7168 95.1658 74.5703 94.9705 74.4648C94.7791 74.3555 94.5505 74.3008 94.2849 74.3008C93.9841 74.3008 93.7029 74.375 93.4412 74.5234C93.1834 74.668 92.9705 74.8594 92.8025 75.0977C92.6384 75.332 92.5447 75.5879 92.5213 75.8652L91.947 75.8594C92.0017 75.4219 92.1033 75.0488 92.2517 74.7402C92.4041 74.4277 92.5916 74.1738 92.8142 73.9785C93.0408 73.7793 93.2927 73.6348 93.5701 73.5449C93.8513 73.4512 94.1482 73.4043 94.4607 73.4043C94.8865 73.4043 95.2537 73.4844 95.5623 73.6445C95.8709 73.8047 96.1248 74.0195 96.324 74.2891C96.5232 74.5547 96.6697 74.8555 96.7634 75.1914C96.8611 75.5234 96.9099 75.8652 96.9099 76.2168C96.9099 76.6191 96.8533 76.9961 96.74 77.3477C96.6267 77.6992 96.4568 78.0078 96.2302 78.2734C96.0076 78.5391 95.7322 78.7461 95.4041 78.8945C95.0759 79.043 94.6951 79.1172 94.2615 79.1172C93.8005 79.1172 93.3982 79.0234 93.0545 78.8359C92.7107 78.6445 92.4255 78.3906 92.199 78.0742C91.9724 77.7578 91.8025 77.4062 91.6892 77.0195C91.5759 76.6328 91.5193 76.2402 91.5193 75.8418V75.332C91.5193 74.7305 91.5798 74.1406 91.7009 73.5625C91.822 72.9844 92.031 72.4609 92.3279 71.9922C92.6287 71.5234 93.0447 71.1504 93.5759 70.873C94.1072 70.5957 94.7849 70.457 95.6091 70.457ZM99.0371 78.0918H99.1484C99.7734 78.0918 100.281 78.0039 100.672 77.8281C101.062 77.6523 101.363 77.416 101.574 77.1191C101.785 76.8223 101.93 76.4883 102.008 76.1172C102.086 75.7422 102.125 75.3574 102.125 74.9629V73.6562C102.125 73.2695 102.08 72.9258 101.99 72.625C101.904 72.3242 101.783 72.0723 101.627 71.8691C101.475 71.666 101.301 71.5117 101.105 71.4062C100.91 71.3008 100.703 71.248 100.484 71.248C100.234 71.248 100.01 71.2988 99.8105 71.4004C99.6152 71.498 99.4492 71.6367 99.3125 71.8164C99.1797 71.9961 99.0781 72.207 99.0078 72.4492C98.9375 72.6914 98.9023 72.9551 98.9023 73.2402C98.9023 73.4941 98.9336 73.7402 98.9961 73.9785C99.0586 74.2168 99.1543 74.4316 99.2832 74.623C99.4121 74.8145 99.5723 74.9668 99.7637 75.0801C99.959 75.1895 100.188 75.2441 100.449 75.2441C100.691 75.2441 100.918 75.1973 101.129 75.1035C101.344 75.0059 101.533 74.875 101.697 74.7109C101.865 74.543 101.998 74.3535 102.096 74.1426C102.197 73.9316 102.256 73.7109 102.271 73.4805H102.787C102.787 73.8047 102.723 74.125 102.594 74.4414C102.469 74.7539 102.293 75.0391 102.066 75.2969C101.84 75.5547 101.574 75.7617 101.27 75.918C100.965 76.0703 100.633 76.1465 100.273 76.1465C99.8516 76.1465 99.4863 76.0645 99.1777 75.9004C98.8691 75.7363 98.6152 75.5176 98.416 75.2441C98.2207 74.9707 98.0742 74.666 97.9766 74.3301C97.8828 73.9902 97.8359 73.6465 97.8359 73.2988C97.8359 72.8926 97.8926 72.5117 98.0059 72.1562C98.1191 71.8008 98.2871 71.4883 98.5098 71.2188C98.7324 70.9453 99.0078 70.7324 99.3359 70.5801C99.668 70.4277 100.051 70.3516 100.484 70.3516C100.973 70.3516 101.389 70.4492 101.732 70.6445C102.076 70.8398 102.355 71.1016 102.57 71.4297C102.789 71.7578 102.949 72.127 103.051 72.5371C103.152 72.9473 103.203 73.3691 103.203 73.8027V74.1953C103.203 74.6367 103.174 75.0859 103.115 75.543C103.061 75.9961 102.953 76.4297 102.793 76.8438C102.637 77.2578 102.408 77.6289 102.107 77.957C101.807 78.2812 101.414 78.5391 100.93 78.7305C100.449 78.918 99.8555 79.0117 99.1484 79.0117H99.0371V78.0918Z" fill="#272F3F"/>
<path d="M146 42.5H194C194.828 42.5 195.5 43.1716 195.5 44V61C195.5 61.8284 194.828 62.5 194 62.5H146C145.172 62.5 144.5 61.8284 144.5 61V44C144.5 43.1716 145.172 42.5 146 42.5Z" fill="white"/>
<path d="M146 42.5H194C194.828 42.5 195.5 43.1716 195.5 44V61C195.5 61.8284 194.828 62.5 194 62.5H146C145.172 62.5 144.5 61.8284 144.5 61V44C144.5 43.1716 145.172 42.5 146 42.5Z" stroke="#D8DEE9"/>
<path d="M158.585 56.1094V57H153.001V56.2207L155.796 53.1094C156.139 52.7266 156.405 52.4023 156.593 52.1367C156.784 51.8672 156.917 51.627 156.991 51.416C157.069 51.2012 157.108 50.9824 157.108 50.7598C157.108 50.4785 157.05 50.2246 156.932 49.998C156.819 49.7676 156.651 49.584 156.429 49.4473C156.206 49.3105 155.936 49.2422 155.62 49.2422C155.241 49.2422 154.925 49.3164 154.671 49.4648C154.421 49.6094 154.233 49.8125 154.108 50.0742C153.983 50.3359 153.921 50.6367 153.921 50.9766H152.837C152.837 50.4961 152.942 50.0566 153.153 49.6582C153.364 49.2598 153.677 48.9434 154.091 48.709C154.505 48.4707 155.014 48.3516 155.62 48.3516C156.159 48.3516 156.62 48.4473 157.003 48.6387C157.386 48.8262 157.679 49.0918 157.882 49.4355C158.089 49.7754 158.192 50.1738 158.192 50.6309C158.192 50.8809 158.149 51.1348 158.063 51.3926C157.981 51.6465 157.866 51.9004 157.718 52.1543C157.573 52.4082 157.403 52.6582 157.208 52.9043C157.016 53.1504 156.811 53.3926 156.593 53.6309L154.307 56.1094H158.585ZM164.884 54.6914C164.884 55.2109 164.763 55.6523 164.521 56.0156C164.282 56.375 163.958 56.6484 163.548 56.8359C163.142 57.0234 162.683 57.1172 162.171 57.1172C161.659 57.1172 161.198 57.0234 160.788 56.8359C160.378 56.6484 160.054 56.375 159.815 56.0156C159.577 55.6523 159.458 55.2109 159.458 54.6914C159.458 54.3516 159.523 54.041 159.651 53.7598C159.784 53.4746 159.97 53.2266 160.208 53.0156C160.45 52.8047 160.735 52.6426 161.064 52.5293C161.396 52.4121 161.761 52.3535 162.159 52.3535C162.683 52.3535 163.149 52.4551 163.56 52.6582C163.97 52.8574 164.292 53.1328 164.526 53.4844C164.765 53.8359 164.884 54.2383 164.884 54.6914ZM163.794 54.668C163.794 54.3516 163.726 54.0723 163.589 53.8301C163.452 53.584 163.261 53.3926 163.015 53.2559C162.769 53.1191 162.483 53.0508 162.159 53.0508C161.827 53.0508 161.54 53.1191 161.298 53.2559C161.06 53.3926 160.874 53.584 160.741 53.8301C160.608 54.0723 160.542 54.3516 160.542 54.668C160.542 54.9961 160.606 55.2773 160.735 55.5117C160.868 55.7422 161.056 55.9199 161.298 56.0449C161.544 56.166 161.835 56.2266 162.171 56.2266C162.507 56.2266 162.796 56.166 163.038 56.0449C163.28 55.9199 163.466 55.7422 163.595 55.5117C163.728 55.2773 163.794 54.9961 163.794 54.668ZM164.685 50.6895C164.685 51.1035 164.575 51.4766 164.356 51.8086C164.138 52.1406 163.839 52.4023 163.46 52.5938C163.081 52.7852 162.651 52.8809 162.171 52.8809C161.683 52.8809 161.247 52.7852 160.864 52.5938C160.485 52.4023 160.189 52.1406 159.974 51.8086C159.759 51.4766 159.651 51.1035 159.651 50.6895C159.651 50.1934 159.759 49.7715 159.974 49.4238C160.192 49.0762 160.491 48.8105 160.87 48.627C161.249 48.4434 161.681 48.3516 162.165 48.3516C162.653 48.3516 163.087 48.4434 163.466 48.627C163.845 48.8105 164.142 49.0762 164.356 49.4238C164.575 49.7715 164.685 50.1934 164.685 50.6895ZM163.601 50.707C163.601 50.4219 163.54 50.1699 163.419 49.9512C163.298 49.7324 163.13 49.5605 162.915 49.4355C162.7 49.3066 162.45 49.2422 162.165 49.2422C161.88 49.2422 161.63 49.3027 161.415 49.4238C161.204 49.541 161.038 49.709 160.917 49.9277C160.8 50.1465 160.741 50.4062 160.741 50.707C160.741 51 160.8 51.2559 160.917 51.4746C161.038 51.6934 161.206 51.8633 161.421 51.9844C161.636 52.1055 161.886 52.166 162.171 52.166C162.456 52.166 162.704 52.1055 162.915 51.9844C163.13 51.8633 163.298 51.6934 163.419 51.4746C163.54 51.2559 163.601 51 163.601 50.707ZM171.529 48.4688V49.0781L167.995 57H166.853L170.38 49.3594H165.763V48.4688H171.529ZM172.66 56.4258C172.66 56.2422 172.716 56.0879 172.83 55.9629C172.947 55.834 173.115 55.7695 173.334 55.7695C173.552 55.7695 173.718 55.834 173.832 55.9629C173.949 56.0879 174.007 56.2422 174.007 56.4258C174.007 56.6055 173.949 56.7578 173.832 56.8828C173.718 57.0078 173.552 57.0703 173.334 57.0703C173.115 57.0703 172.947 57.0078 172.83 56.8828C172.716 56.7578 172.66 56.6055 172.66 56.4258ZM180.963 48.4688V49.0781L177.429 57H176.287L179.814 49.3594H175.197V48.4688H180.963ZM183.33 52.9395L182.463 52.7168L182.891 48.4688H187.268V49.4707H183.811L183.553 51.791C183.709 51.7012 183.906 51.6172 184.145 51.5391C184.387 51.4609 184.664 51.4219 184.977 51.4219C185.371 51.4219 185.725 51.4902 186.037 51.627C186.35 51.7598 186.615 51.9512 186.834 52.2012C187.057 52.4512 187.227 52.752 187.344 53.1035C187.461 53.4551 187.52 53.8477 187.52 54.2812C187.52 54.6914 187.463 55.0684 187.35 55.4121C187.24 55.7559 187.074 56.0566 186.852 56.3145C186.629 56.5684 186.348 56.7656 186.008 56.9062C185.672 57.0469 185.275 57.1172 184.818 57.1172C184.475 57.1172 184.148 57.0703 183.84 56.9766C183.535 56.8789 183.262 56.7324 183.02 56.5371C182.781 56.3379 182.586 56.0918 182.434 55.7988C182.285 55.502 182.191 55.1543 182.152 54.7559H183.184C183.23 55.0762 183.324 55.3457 183.465 55.5645C183.605 55.7832 183.789 55.9492 184.016 56.0625C184.246 56.1719 184.514 56.2266 184.818 56.2266C185.076 56.2266 185.305 56.1816 185.504 56.0918C185.703 56.002 185.871 55.873 186.008 55.7051C186.145 55.5371 186.248 55.334 186.318 55.0957C186.393 54.8574 186.43 54.5898 186.43 54.293C186.43 54.0234 186.393 53.7734 186.318 53.543C186.244 53.3125 186.133 53.1113 185.984 52.9395C185.84 52.7676 185.662 52.6348 185.451 52.541C185.24 52.4434 184.998 52.3945 184.725 52.3945C184.361 52.3945 184.086 52.4434 183.898 52.541C183.715 52.6387 183.525 52.7715 183.33 52.9395Z" fill="#272F3F"/>
<path d="M225 53.5H273C273.828 53.5 274.5 54.1716 274.5 55V72C274.5 72.8284 273.828 73.5 273 73.5H225C224.172 73.5 223.5 72.8284 223.5 72V55C223.5 54.1716 224.172 53.5 225 53.5Z" fill="white"/>
<path d="M225 53.5H273C273.828 53.5 274.5 54.1716 274.5 55V72C274.5 72.8284 273.828 73.5 273 73.5H225C224.172 73.5 223.5 72.8284 223.5 72V55C223.5 54.1716 224.172 53.5 225 53.5Z" stroke="#D8DEE9"/>
<path d="M237.585 67.1094V68H232.001V67.2207L234.796 64.1094C235.139 63.7266 235.405 63.4023 235.593 63.1367C235.784 62.8672 235.917 62.627 235.991 62.416C236.069 62.2012 236.108 61.9824 236.108 61.7598C236.108 61.4785 236.05 61.2246 235.932 60.998C235.819 60.7676 235.651 60.584 235.429 60.4473C235.206 60.3105 234.936 60.2422 234.62 60.2422C234.241 60.2422 233.925 60.3164 233.671 60.4648C233.421 60.6094 233.233 60.8125 233.108 61.0742C232.983 61.3359 232.921 61.6367 232.921 61.9766H231.837C231.837 61.4961 231.942 61.0566 232.153 60.6582C232.364 60.2598 232.677 59.9434 233.091 59.709C233.505 59.4707 234.014 59.3516 234.62 59.3516C235.159 59.3516 235.62 59.4473 236.003 59.6387C236.386 59.8262 236.679 60.0918 236.882 60.4355C237.089 60.7754 237.192 61.1738 237.192 61.6309C237.192 61.8809 237.149 62.1348 237.063 62.3926C236.981 62.6465 236.866 62.9004 236.718 63.1543C236.573 63.4082 236.403 63.6582 236.208 63.9043C236.016 64.1504 235.811 64.3926 235.593 64.6309L233.307 67.1094H237.585ZM243.884 65.6914C243.884 66.2109 243.763 66.6523 243.521 67.0156C243.282 67.375 242.958 67.6484 242.548 67.8359C242.142 68.0234 241.683 68.1172 241.171 68.1172C240.659 68.1172 240.198 68.0234 239.788 67.8359C239.378 67.6484 239.054 67.375 238.815 67.0156C238.577 66.6523 238.458 66.2109 238.458 65.6914C238.458 65.3516 238.523 65.041 238.651 64.7598C238.784 64.4746 238.97 64.2266 239.208 64.0156C239.45 63.8047 239.735 63.6426 240.064 63.5293C240.396 63.4121 240.761 63.3535 241.159 63.3535C241.683 63.3535 242.149 63.4551 242.56 63.6582C242.97 63.8574 243.292 64.1328 243.526 64.4844C243.765 64.8359 243.884 65.2383 243.884 65.6914ZM242.794 65.668C242.794 65.3516 242.726 65.0723 242.589 64.8301C242.452 64.584 242.261 64.3926 242.015 64.2559C241.769 64.1191 241.483 64.0508 241.159 64.0508C240.827 64.0508 240.54 64.1191 240.298 64.2559C240.06 64.3926 239.874 64.584 239.741 64.8301C239.608 65.0723 239.542 65.3516 239.542 65.668C239.542 65.9961 239.606 66.2773 239.735 66.5117C239.868 66.7422 240.056 66.9199 240.298 67.0449C240.544 67.166 240.835 67.2266 241.171 67.2266C241.507 67.2266 241.796 67.166 242.038 67.0449C242.28 66.9199 242.466 66.7422 242.595 66.5117C242.728 66.2773 242.794 65.9961 242.794 65.668ZM243.685 61.6895C243.685 62.1035 243.575 62.4766 243.356 62.8086C243.138 63.1406 242.839 63.4023 242.46 63.5938C242.081 63.7852 241.651 63.8809 241.171 63.8809C240.683 63.8809 240.247 63.7852 239.864 63.5938C239.485 63.4023 239.189 63.1406 238.974 62.8086C238.759 62.4766 238.651 62.1035 238.651 61.6895C238.651 61.1934 238.759 60.7715 238.974 60.4238C239.192 60.0762 239.491 59.8105 239.87 59.627C240.249 59.4434 240.681 59.3516 241.165 59.3516C241.653 59.3516 242.087 59.4434 242.466 59.627C242.845 59.8105 243.142 60.0762 243.356 60.4238C243.575 60.7715 243.685 61.1934 243.685 61.6895ZM242.601 61.707C242.601 61.4219 242.54 61.1699 242.419 60.9512C242.298 60.7324 242.13 60.5605 241.915 60.4355C241.7 60.3066 241.45 60.2422 241.165 60.2422C240.88 60.2422 240.63 60.3027 240.415 60.4238C240.204 60.541 240.038 60.709 239.917 60.9277C239.8 61.1465 239.741 61.4062 239.741 61.707C239.741 62 239.8 62.2559 239.917 62.4746C240.038 62.6934 240.206 62.8633 240.421 62.9844C240.636 63.1055 240.886 63.166 241.171 63.166C241.456 63.166 241.704 63.1055 241.915 62.9844C242.13 62.8633 242.298 62.6934 242.419 62.4746C242.54 62.2559 242.601 62 242.601 61.707ZM246.386 63.9395L245.519 63.7168L245.947 59.4688H250.324V60.4707H246.866L246.609 62.791C246.765 62.7012 246.962 62.6172 247.2 62.5391C247.443 62.4609 247.72 62.4219 248.033 62.4219C248.427 62.4219 248.781 62.4902 249.093 62.627C249.406 62.7598 249.671 62.9512 249.89 63.2012C250.113 63.4512 250.283 63.752 250.4 64.1035C250.517 64.4551 250.575 64.8477 250.575 65.2812C250.575 65.6914 250.519 66.0684 250.406 66.4121C250.296 66.7559 250.13 67.0566 249.908 67.3145C249.685 67.5684 249.404 67.7656 249.064 67.9062C248.728 68.0469 248.331 68.1172 247.874 68.1172C247.531 68.1172 247.204 68.0703 246.896 67.9766C246.591 67.8789 246.318 67.7324 246.075 67.5371C245.837 67.3379 245.642 67.0918 245.49 66.7988C245.341 66.502 245.247 66.1543 245.208 65.7559H246.24C246.286 66.0762 246.38 66.3457 246.521 66.5645C246.661 66.7832 246.845 66.9492 247.072 67.0625C247.302 67.1719 247.57 67.2266 247.874 67.2266C248.132 67.2266 248.361 67.1816 248.56 67.0918C248.759 67.002 248.927 66.873 249.064 66.7051C249.2 66.5371 249.304 66.334 249.374 66.0957C249.449 65.8574 249.486 65.5898 249.486 65.293C249.486 65.0234 249.449 64.7734 249.374 64.543C249.3 64.3125 249.189 64.1113 249.04 63.9395C248.896 63.7676 248.718 63.6348 248.507 63.541C248.296 63.4434 248.054 63.3945 247.781 63.3945C247.417 63.3945 247.142 63.4434 246.954 63.541C246.771 63.6387 246.581 63.7715 246.386 63.9395ZM251.66 67.4258C251.66 67.2422 251.716 67.0879 251.83 66.9629C251.947 66.834 252.115 66.7695 252.334 66.7695C252.552 66.7695 252.718 66.834 252.832 66.9629C252.949 67.0879 253.007 67.2422 253.007 67.4258C253.007 67.6055 252.949 67.7578 252.832 67.8828C252.718 68.0078 252.552 68.0703 252.334 68.0703C252.115 68.0703 251.947 68.0078 251.83 67.8828C251.716 67.7578 251.66 67.6055 251.66 67.4258ZM259.963 59.4688V60.0781L256.429 68H255.287L258.814 60.3594H254.197V59.4688H259.963ZM262.037 67.0918H262.148C262.773 67.0918 263.281 67.0039 263.672 66.8281C264.062 66.6523 264.363 66.416 264.574 66.1191C264.785 65.8223 264.93 65.4883 265.008 65.1172C265.086 64.7422 265.125 64.3574 265.125 63.9629V62.6562C265.125 62.2695 265.08 61.9258 264.99 61.625C264.904 61.3242 264.783 61.0723 264.627 60.8691C264.475 60.666 264.301 60.5117 264.105 60.4062C263.91 60.3008 263.703 60.248 263.484 60.248C263.234 60.248 263.01 60.2988 262.811 60.4004C262.615 60.498 262.449 60.6367 262.312 60.8164C262.18 60.9961 262.078 61.207 262.008 61.4492C261.938 61.6914 261.902 61.9551 261.902 62.2402C261.902 62.4941 261.934 62.7402 261.996 62.9785C262.059 63.2168 262.154 63.4316 262.283 63.623C262.412 63.8145 262.572 63.9668 262.764 64.0801C262.959 64.1895 263.188 64.2441 263.449 64.2441C263.691 64.2441 263.918 64.1973 264.129 64.1035C264.344 64.0059 264.533 63.875 264.697 63.7109C264.865 63.543 264.998 63.3535 265.096 63.1426C265.197 62.9316 265.256 62.7109 265.271 62.4805H265.787C265.787 62.8047 265.723 63.125 265.594 63.4414C265.469 63.7539 265.293 64.0391 265.066 64.2969C264.84 64.5547 264.574 64.7617 264.27 64.918C263.965 65.0703 263.633 65.1465 263.273 65.1465C262.852 65.1465 262.486 65.0645 262.178 64.9004C261.869 64.7363 261.615 64.5176 261.416 64.2441C261.221 63.9707 261.074 63.666 260.977 63.3301C260.883 62.9902 260.836 62.6465 260.836 62.2988C260.836 61.8926 260.893 61.5117 261.006 61.1562C261.119 60.8008 261.287 60.4883 261.51 60.2188C261.732 59.9453 262.008 59.7324 262.336 59.5801C262.668 59.4277 263.051 59.3516 263.484 59.3516C263.973 59.3516 264.389 59.4492 264.732 59.6445C265.076 59.8398 265.355 60.1016 265.57 60.4297C265.789 60.7578 265.949 61.127 266.051 61.5371C266.152 61.9473 266.203 62.3691 266.203 62.8027V63.1953C266.203 63.6367 266.174 64.0859 266.115 64.543C266.061 64.9961 265.953 65.4297 265.793 65.8438C265.637 66.2578 265.408 66.6289 265.107 66.957C264.807 67.2812 264.414 67.5391 263.93 67.7305C263.449 67.918 262.855 68.0117 262.148 68.0117H262.037V67.0918Z" fill="#272F3F"/>
<path d="M59 154.418L141.136 139L220.137 146" stroke="#F24216" stroke-width="2" stroke-linecap="round" stroke-linejoin="round" stroke-dasharray="1 4"/>
<g clip-path="url(#clip0_2170_5704)">
<path d="M16.5 210H28.5" stroke="#F24216" stroke-width="2" stroke-linecap="round" stroke-linejoin="round" stroke-dasharray="1 4"/>
<path d="M40.21 211.262H41.358V214.244H40.21V211.262ZM44.452 211.262H45.6V214.244H44.452V211.262ZM37.76 205.298H48.036V206.25H37.76V205.298ZM37.2 213.684H48.666V214.65H37.2V213.684ZM42.898 207.076C45.46 207.076 47.042 207.944 47.042 209.456C47.042 210.94 45.46 211.808 42.898 211.808C40.336 211.808 38.768 210.94 38.768 209.456C38.768 207.944 40.336 207.076 42.898 207.076ZM42.898 207.986C41.05 207.986 39.93 208.532 39.93 209.456C39.93 210.366 41.05 210.898 42.898 210.898C44.746 210.898 45.866 210.366 45.866 209.456C45.866 208.532 44.746 207.986 42.898 207.986ZM42.338 203.632H43.486V205.872H42.338V203.632ZM52.8789 209.12H54.0409V211.458H52.8789V209.12ZM56.9109 209.12H58.0589V211.458H56.9109V209.12ZM55.5109 203.59C58.2969 203.59 59.9629 204.36 59.9629 205.774C59.9629 207.188 58.2969 207.972 55.5109 207.972C52.7109 207.972 51.0589 207.188 51.0589 205.774C51.0589 204.36 52.7109 203.59 55.5109 203.59ZM55.5109 204.472C53.4389 204.472 52.2489 204.948 52.2489 205.774C52.2489 206.614 53.4389 207.09 55.5109 207.09C57.5689 207.09 58.7589 206.614 58.7589 205.774C58.7589 204.948 57.5689 204.472 55.5109 204.472ZM49.7849 208.728H61.2229V209.666H49.7849V208.728ZM51.1709 210.898H59.7669V213.754H52.3469V215.294H51.1989V212.914H58.6189V211.794H51.1709V210.898ZM51.1989 215.042H60.1449V215.952H51.1989V215.042Z" fill="black" fill-opacity="0.6"/>
<path d="M86.5 208C86.5 205.791 88.2909 204 90.5 204H94.5C96.7091 204 98.5 205.791 98.5 208V212C98.5 214.209 96.7091 216 94.5 216H90.5C88.2909 216 86.5 214.209 86.5 212V208Z" fill="#37A6FB"/>
<path d="M116.44 203.45H117.602V213.096H116.44V203.45ZM114.298 206.796H116.93V207.748H114.298V206.796ZM114.298 209.47H116.93V210.408H114.298V209.47ZM107.214 204.976H114.298V205.914H107.214V204.976ZM110.798 206.614C112.478 206.614 113.654 207.58 113.654 209.036C113.654 210.478 112.478 211.458 110.798 211.458C109.104 211.458 107.928 210.478 107.928 209.036C107.928 207.58 109.104 206.614 110.798 206.614ZM110.798 207.524C109.748 207.524 109.034 208.14 109.034 209.036C109.034 209.932 109.748 210.534 110.798 210.534C111.848 210.534 112.562 209.932 112.562 209.036C112.562 208.14 111.848 207.524 110.798 207.524ZM110.224 203.422H111.386V205.578H110.224V203.422ZM109.468 214.86H117.91V215.812H109.468V214.86ZM109.468 212.27H110.63V215.322H109.468V212.27ZM129.473 203.436H130.579V216.092H129.473V203.436ZM127.471 208.532H129.907V209.512H127.471V208.532ZM126.715 203.702H127.807V215.462H126.715V203.702ZM122.403 205.396H123.313V206.852C123.313 209.89 122.319 212.326 120.373 213.488L119.659 212.592C121.479 211.584 122.403 209.428 122.403 206.852V205.396ZM122.613 205.396H123.523V206.852C123.523 209.176 124.461 211.234 126.239 212.144L125.553 213.04C123.621 211.976 122.613 209.638 122.613 206.852V205.396ZM119.953 204.92H125.833V205.886H119.953V204.92ZM141.05 203.436H142.212V210.31H141.05V203.436ZM141.89 206.348H144.088V207.314H141.89V206.348ZM137.536 204.192H138.782C138.782 207.384 136.57 209.526 132.86 210.436L132.412 209.484C135.688 208.7 137.536 206.978 137.536 204.766V204.192ZM132.972 204.192H138.236V205.144H132.972V204.192ZM133.77 210.968H134.862V212.48H137.032V210.968H138.11V215.91H133.77V210.968ZM134.862 213.376V215.014H137.032V213.376H134.862ZM140.378 210.842H141.288V211.892C141.288 213.53 140.476 215.28 138.796 216.036L138.18 215.168C139.636 214.51 140.378 213.11 140.378 211.892V210.842ZM140.588 210.842H141.484V211.864C141.484 213.096 142.212 214.524 143.668 215.168L143.038 216.036C141.358 215.28 140.588 213.53 140.588 211.864V210.842Z" fill="black" fill-opacity="0.6"/>
<path d="M169.5 208C169.5 205.791 171.291 204 173.5 204H177.5C179.709 204 181.5 205.791 181.5 208V212C181.5 214.209 179.709 216 177.5 216H173.5C171.291 216 169.5 214.209 169.5 212V208Z" fill="#0060A9"/>
<path d="M199.412 203.436H200.574V216.092H199.412V203.436ZM195.702 204.794H196.85C196.85 208.462 195.198 211.668 190.97 213.74L190.354 212.802C194.008 211.038 195.702 208.35 195.702 204.99V204.794ZM190.928 204.794H196.206V205.746H190.928V204.794ZM212.417 203.436H213.537V216.092H212.417V203.436ZM210.275 208.504H212.711V209.47H210.275V208.504ZM209.547 203.716H210.639V215.448H209.547V203.716ZM203.247 212.004H204.073C205.921 212.004 207.181 211.934 208.651 211.626L208.763 212.592C207.251 212.914 205.977 212.97 204.073 212.97H203.247V212.004ZM203.247 204.976H207.951V205.928H204.395V212.438H203.247V204.976ZM224.05 203.436H225.212V210.31H224.05V203.436ZM224.89 206.348H227.088V207.314H224.89V206.348ZM220.536 204.192H221.782C221.782 207.384 219.57 209.526 215.86 210.436L215.412 209.484C218.688 208.7 220.536 206.978 220.536 204.766V204.192ZM215.972 204.192H221.236V205.144H215.972V204.192ZM216.77 210.968H217.862V212.48H220.032V210.968H221.11V215.91H216.77V210.968ZM217.862 213.376V215.014H220.032V213.376H217.862ZM223.378 210.842H224.288V211.892C224.288 213.53 223.476 215.28 221.796 216.036L221.18 215.168C222.636 214.51 223.378 213.11 223.378 211.892V210.842ZM223.588 210.842H224.484V211.864C224.484 213.096 225.212 214.524 226.668 215.168L226.038 216.036C224.358 215.28 223.588 213.53 223.588 211.864V210.842Z" fill="black" fill-opacity="0.6"/>
<path d="M252.5 208C252.5 205.791 254.291 204 256.5 204H260.5C262.709 204 264.5 205.791 264.5 208V212C264.5 214.209 262.709 216 260.5 216H256.5C254.291 216 252.5 214.209 252.5 212V208Z" fill="#B8B8B8"/>
<path d="M273.2 213.516H284.666V214.482H273.2V213.516ZM278.324 210.492H279.486V213.796H278.324V210.492ZM274.544 204.332H275.692V206.586H282.146V204.332H283.294V210.8H274.544V204.332ZM275.692 207.524V209.848H282.146V207.524H275.692ZM292.547 206.712H295.403V207.678H292.547V206.712ZM295.039 203.436H296.201V210.982H295.039V203.436ZM292.043 211.36C294.647 211.36 296.257 212.242 296.257 213.726C296.257 215.224 294.647 216.078 292.043 216.078C289.425 216.078 287.815 215.224 287.815 213.726C287.815 212.242 289.425 211.36 292.043 211.36ZM292.043 212.27C290.139 212.27 288.977 212.802 288.977 213.726C288.977 214.636 290.139 215.168 292.043 215.168C293.947 215.168 295.109 214.636 295.109 213.726C295.109 212.802 293.947 212.27 292.043 212.27ZM289.019 204.71H289.971V205.732C289.971 208.07 288.543 210.072 286.443 210.856L285.841 209.932C287.717 209.246 289.019 207.552 289.019 205.732V204.71ZM289.243 204.71H290.181V205.732C290.181 207.37 291.413 208.938 293.247 209.582L292.659 210.506C290.601 209.764 289.243 207.86 289.243 205.732V204.71ZM286.191 204.36H292.953V205.312H286.191V204.36ZM307.05 203.436H308.212V210.31H307.05V203.436ZM307.89 206.348H310.088V207.314H307.89V206.348ZM303.536 204.192H304.782C304.782 207.384 302.57 209.526 298.86 210.436L298.412 209.484C301.688 208.7 303.536 206.978 303.536 204.766V204.192ZM298.972 204.192H304.236V205.144H298.972V204.192ZM299.77 210.968H300.862V212.48H303.032V210.968H304.11V215.91H299.77V210.968ZM300.862 213.376V215.014H303.032V213.376H300.862ZM306.378 210.842H307.288V211.892C307.288 213.53 306.476 215.28 304.796 216.036L304.18 215.168C305.636 214.51 306.378 213.11 306.378 211.892V210.842ZM306.588 210.842H307.484V211.864C307.484 213.096 308.212 214.524 309.668 215.168L309.038 216.036C307.358 215.28 306.588 213.53 306.588 211.864V210.842Z" fill="black" fill-opacity="0.6"/>
</g>
<defs>
<clipPath id="clip0_2170_5704">
<rect width="328" height="12" fill="white" transform="translate(0 204)"/>
</clipPath>
</defs>
</svg>
