<svg width="328" height="216" viewBox="0 0 328 216" fill="none" xmlns="http://www.w3.org/2000/svg">
<path d="M7.37895 9.67773C7.37895 9.43164 7.34086 9.21191 7.26469 9.01855C7.19437 8.81934 7.06254 8.64062 6.86918 8.48242C6.68168 8.31836 6.41508 8.16016 6.06937 8.00781C5.72953 7.84961 5.29008 7.68555 4.75102 7.51562C4.15336 7.32812 3.59672 7.11719 3.08109 6.88281C2.56547 6.64844 2.11137 6.37598 1.71879 6.06543C1.33207 5.75488 1.03031 5.39746 0.813516 4.99316C0.596719 4.58301 0.48832 4.1084 0.48832 3.56934C0.48832 3.04199 0.599648 2.56152 0.822305 2.12793C1.05082 1.69434 1.37309 1.32227 1.7891 1.01172C2.20512 0.695312 2.69437 0.452148 3.25687 0.282227C3.82523 0.112305 4.45219 0.0273438 5.13773 0.0273438C6.08695 0.0273438 6.90727 0.200195 7.59867 0.545898C8.29594 0.891602 8.835 1.36035 9.21586 1.95215C9.59672 2.54395 9.78715 3.20898 9.78715 3.94727H7.37895C7.37895 3.54883 7.29398 3.19727 7.12406 2.89258C6.96 2.58789 6.70805 2.34766 6.3682 2.17188C6.03422 1.99609 5.61234 1.9082 5.10258 1.9082C4.61039 1.9082 4.20023 1.98145 3.87211 2.12793C3.54984 2.27441 3.30668 2.47363 3.14262 2.72559C2.98441 2.97754 2.90531 3.25879 2.90531 3.56934C2.90531 3.80371 2.96098 4.01465 3.0723 4.20215C3.18363 4.38379 3.35062 4.55664 3.57328 4.7207C3.79594 4.87891 4.07133 5.02832 4.39945 5.16895C4.73344 5.30371 5.12016 5.43848 5.55961 5.57324C6.26273 5.78418 6.87797 6.01855 7.40531 6.27637C7.93852 6.53418 8.3809 6.82715 8.73246 7.15527C9.08988 7.4834 9.35648 7.85254 9.53227 8.2627C9.71391 8.67285 9.80473 9.13867 9.80473 9.66016C9.80473 10.2109 9.69633 10.7031 9.47953 11.1367C9.26273 11.5703 8.95219 11.9395 8.54789 12.2441C8.14359 12.5488 7.65727 12.7803 7.08891 12.9385C6.52641 13.0967 5.89652 13.1758 5.19926 13.1758C4.57816 13.1758 3.96293 13.0938 3.35355 12.9297C2.75004 12.7598 2.20219 12.5078 1.71 12.1738C1.21781 11.834 0.825234 11.4062 0.532266 10.8906C0.239297 10.3691 0.0928125 9.75977 0.0928125 9.0625H2.51859C2.51859 9.4668 2.58305 9.8125 2.71195 10.0996C2.84672 10.3809 3.03422 10.6123 3.27445 10.7939C3.52055 10.9697 3.80766 11.0986 4.13578 11.1807C4.46391 11.2627 4.8184 11.3037 5.19926 11.3037C5.69145 11.3037 6.09574 11.2363 6.41215 11.1016C6.73441 10.9609 6.97465 10.7676 7.13285 10.5215C7.29691 10.2754 7.37895 9.99414 7.37895 9.67773ZM16.6212 0.203125V13H14.213V0.203125H16.6212ZM20.5938 0.203125V2.11035H10.2843V0.203125H20.5938Z" fill="#242424"/>
<rect y="52" width="280" height="1" fill="black" fill-opacity="0.12"/>
<rect y="94.3333" width="280" height="1" fill="black" fill-opacity="0.12"/>
<rect y="136.667" width="280" height="1" fill="black" fill-opacity="0.12"/>
<rect y="179" width="280" height="1" fill="black" fill-opacity="0.24"/>
<path d="M298.291 54.2012H299.064C299.443 54.2012 299.756 54.1387 300.002 54.0137C300.252 53.8848 300.438 53.7109 300.559 53.4922C300.684 53.2695 300.746 53.0195 300.746 52.7422C300.746 52.4141 300.691 52.1387 300.582 51.916C300.473 51.6934 300.309 51.5254 300.09 51.4121C299.871 51.2988 299.594 51.2422 299.258 51.2422C298.953 51.2422 298.684 51.3027 298.449 51.4238C298.219 51.541 298.037 51.709 297.904 51.9277C297.775 52.1465 297.711 52.4043 297.711 52.7012H296.627C296.627 52.2676 296.736 51.873 296.955 51.5176C297.174 51.1621 297.48 50.8789 297.875 50.668C298.273 50.457 298.734 50.3516 299.258 50.3516C299.773 50.3516 300.225 50.4434 300.611 50.627C300.998 50.8066 301.299 51.0762 301.514 51.4355C301.729 51.791 301.836 52.2344 301.836 52.7656C301.836 52.9805 301.785 53.2109 301.684 53.457C301.586 53.6992 301.432 53.9258 301.221 54.1367C301.014 54.3477 300.744 54.5215 300.412 54.6582C300.08 54.791 299.682 54.8574 299.217 54.8574H298.291V54.2012ZM298.291 55.0918V54.4414H299.217C299.76 54.4414 300.209 54.5059 300.564 54.6348C300.92 54.7637 301.199 54.9355 301.402 55.1504C301.609 55.3652 301.754 55.6016 301.836 55.8594C301.922 56.1133 301.965 56.3672 301.965 56.6211C301.965 57.0195 301.896 57.373 301.76 57.6816C301.627 57.9902 301.438 58.252 301.191 58.4668C300.949 58.6816 300.664 58.8438 300.336 58.9531C300.008 59.0625 299.65 59.1172 299.264 59.1172C298.893 59.1172 298.543 59.0645 298.215 58.959C297.891 58.8535 297.604 58.7012 297.354 58.502C297.104 58.2988 296.908 58.0508 296.768 57.7578C296.627 57.4609 296.557 57.123 296.557 56.7441H297.641C297.641 57.041 297.705 57.3008 297.834 57.5234C297.967 57.7461 298.154 57.9199 298.396 58.0449C298.643 58.166 298.932 58.2266 299.264 58.2266C299.596 58.2266 299.881 58.1699 300.119 58.0566C300.361 57.9395 300.547 57.7637 300.676 57.5293C300.809 57.2949 300.875 57 300.875 56.6445C300.875 56.2891 300.801 55.998 300.652 55.7715C300.504 55.541 300.293 55.3711 300.02 55.2617C299.75 55.1484 299.432 55.0918 299.064 55.0918H298.291ZM308.574 54.0547V55.3555C308.574 56.0547 308.512 56.6445 308.387 57.125C308.262 57.6055 308.082 57.9922 307.848 58.2852C307.614 58.5781 307.33 58.791 306.998 58.9238C306.67 59.0527 306.299 59.1172 305.885 59.1172C305.557 59.1172 305.254 59.0762 304.977 58.9941C304.699 58.9121 304.449 58.7812 304.227 58.6016C304.008 58.418 303.821 58.1797 303.664 57.8867C303.508 57.5938 303.389 57.2383 303.307 56.8203C303.225 56.4023 303.184 55.9141 303.184 55.3555V54.0547C303.184 53.3555 303.246 52.7695 303.371 52.2969C303.5 51.8242 303.682 51.4453 303.916 51.1602C304.151 50.8711 304.432 50.6641 304.76 50.5391C305.092 50.4141 305.463 50.3516 305.873 50.3516C306.205 50.3516 306.51 50.3926 306.787 50.4746C307.069 50.5527 307.319 50.6797 307.537 50.8555C307.756 51.0273 307.942 51.2578 308.094 51.5469C308.25 51.832 308.369 52.1816 308.451 52.5957C308.533 53.0098 308.574 53.4961 308.574 54.0547ZM307.485 55.5312V53.873C307.485 53.4902 307.461 53.1543 307.414 52.8652C307.371 52.5723 307.307 52.3223 307.221 52.1152C307.135 51.9082 307.026 51.7402 306.893 51.6113C306.764 51.4824 306.614 51.3887 306.442 51.3301C306.274 51.2676 306.084 51.2363 305.873 51.2363C305.615 51.2363 305.387 51.2852 305.188 51.3828C304.989 51.4766 304.821 51.627 304.684 51.834C304.551 52.041 304.449 52.3125 304.379 52.6484C304.309 52.9844 304.274 53.3926 304.274 53.873V55.5312C304.274 55.9141 304.295 56.252 304.338 56.5449C304.385 56.8379 304.453 57.0918 304.543 57.3066C304.633 57.5176 304.742 57.6914 304.871 57.8281C305 57.9648 305.149 58.0664 305.317 58.1328C305.489 58.1953 305.678 58.2266 305.885 58.2266C306.151 58.2266 306.383 58.1758 306.582 58.0742C306.781 57.9727 306.948 57.8145 307.08 57.5996C307.217 57.3809 307.319 57.1016 307.385 56.7617C307.451 56.418 307.485 56.0078 307.485 55.5312ZM315.084 54.0547V55.3555C315.084 56.0547 315.022 56.6445 314.897 57.125C314.772 57.6055 314.592 57.9922 314.358 58.2852C314.124 58.5781 313.84 58.791 313.508 58.9238C313.18 59.0527 312.809 59.1172 312.395 59.1172C312.067 59.1172 311.764 59.0762 311.487 58.9941C311.209 58.9121 310.959 58.7812 310.737 58.6016C310.518 58.418 310.331 58.1797 310.174 57.8867C310.018 57.5938 309.899 57.2383 309.817 56.8203C309.735 56.4023 309.694 55.9141 309.694 55.3555V54.0547C309.694 53.3555 309.756 52.7695 309.881 52.2969C310.01 51.8242 310.192 51.4453 310.426 51.1602C310.661 50.8711 310.942 50.6641 311.27 50.5391C311.602 50.4141 311.973 50.3516 312.383 50.3516C312.715 50.3516 313.02 50.3926 313.297 50.4746C313.579 50.5527 313.829 50.6797 314.047 50.8555C314.266 51.0273 314.452 51.2578 314.604 51.5469C314.76 51.832 314.879 52.1816 314.961 52.5957C315.043 53.0098 315.084 53.4961 315.084 54.0547ZM313.995 55.5312V53.873C313.995 53.4902 313.971 53.1543 313.924 52.8652C313.881 52.5723 313.817 52.3223 313.731 52.1152C313.645 51.9082 313.536 51.7402 313.403 51.6113C313.274 51.4824 313.124 51.3887 312.952 51.3301C312.784 51.2676 312.594 51.2363 312.383 51.2363C312.125 51.2363 311.897 51.2852 311.698 51.3828C311.499 51.4766 311.331 51.627 311.194 51.834C311.061 52.041 310.959 52.3125 310.889 52.6484C310.819 52.9844 310.784 53.3926 310.784 53.873V55.5312C310.784 55.9141 310.805 56.252 310.848 56.5449C310.895 56.8379 310.963 57.0918 311.053 57.3066C311.143 57.5176 311.252 57.6914 311.381 57.8281C311.51 57.9648 311.659 58.0664 311.827 58.1328C311.999 58.1953 312.188 58.2266 312.395 58.2266C312.661 58.2266 312.893 58.1758 313.092 58.0742C313.291 57.9727 313.458 57.8145 313.59 57.5996C313.727 57.3809 313.829 57.1016 313.895 56.7617C313.961 56.418 313.995 56.0078 313.995 55.5312Z" fill="black" fill-opacity="0.6"/>
<path d="M302.299 99.1094V100H296.715V99.2207L299.51 96.1094C299.854 95.7266 300.119 95.4023 300.307 95.1367C300.498 94.8672 300.631 94.627 300.705 94.416C300.783 94.2012 300.822 93.9824 300.822 93.7598C300.822 93.4785 300.764 93.2246 300.646 92.998C300.533 92.7676 300.365 92.584 300.143 92.4473C299.92 92.3105 299.65 92.2422 299.334 92.2422C298.955 92.2422 298.639 92.3164 298.385 92.4648C298.135 92.6094 297.947 92.8125 297.822 93.0742C297.697 93.3359 297.635 93.6367 297.635 93.9766H296.551C296.551 93.4961 296.656 93.0566 296.867 92.6582C297.078 92.2598 297.391 91.9434 297.805 91.709C298.219 91.4707 298.729 91.3516 299.334 91.3516C299.873 91.3516 300.334 91.4473 300.717 91.6387C301.1 91.8262 301.393 92.0918 301.596 92.4355C301.803 92.7754 301.906 93.1738 301.906 93.6309C301.906 93.8809 301.863 94.1348 301.777 94.3926C301.695 94.6465 301.58 94.9004 301.432 95.1543C301.287 95.4082 301.117 95.6582 300.922 95.9043C300.73 96.1504 300.525 96.3926 300.307 96.6309L298.021 99.1094H302.299ZM308.574 95.0547V96.3555C308.574 97.0547 308.512 97.6445 308.387 98.125C308.262 98.6055 308.082 98.9922 307.848 99.2852C307.614 99.5781 307.33 99.791 306.998 99.9238C306.67 100.053 306.299 100.117 305.885 100.117C305.557 100.117 305.254 100.076 304.977 99.9941C304.699 99.9121 304.449 99.7812 304.227 99.6016C304.008 99.418 303.821 99.1797 303.664 98.8867C303.508 98.5938 303.389 98.2383 303.307 97.8203C303.225 97.4023 303.184 96.9141 303.184 96.3555V95.0547C303.184 94.3555 303.246 93.7695 303.371 93.2969C303.5 92.8242 303.682 92.4453 303.916 92.1602C304.151 91.8711 304.432 91.6641 304.76 91.5391C305.092 91.4141 305.463 91.3516 305.873 91.3516C306.205 91.3516 306.51 91.3926 306.787 91.4746C307.069 91.5527 307.319 91.6797 307.537 91.8555C307.756 92.0273 307.942 92.2578 308.094 92.5469C308.25 92.832 308.369 93.1816 308.451 93.5957C308.533 94.0098 308.574 94.4961 308.574 95.0547ZM307.485 96.5312V94.873C307.485 94.4902 307.461 94.1543 307.414 93.8652C307.371 93.5723 307.307 93.3223 307.221 93.1152C307.135 92.9082 307.026 92.7402 306.893 92.6113C306.764 92.4824 306.614 92.3887 306.442 92.3301C306.274 92.2676 306.084 92.2363 305.873 92.2363C305.615 92.2363 305.387 92.2852 305.188 92.3828C304.989 92.4766 304.821 92.627 304.684 92.834C304.551 93.041 304.449 93.3125 304.379 93.6484C304.309 93.9844 304.274 94.3926 304.274 94.873V96.5312C304.274 96.9141 304.295 97.252 304.338 97.5449C304.385 97.8379 304.453 98.0918 304.543 98.3066C304.633 98.5176 304.742 98.6914 304.871 98.8281C305 98.9648 305.149 99.0664 305.317 99.1328C305.489 99.1953 305.678 99.2266 305.885 99.2266C306.151 99.2266 306.383 99.1758 306.582 99.0742C306.781 98.9727 306.948 98.8145 307.08 98.5996C307.217 98.3809 307.319 98.1016 307.385 97.7617C307.451 97.418 307.485 97.0078 307.485 96.5312ZM315.084 95.0547V96.3555C315.084 97.0547 315.022 97.6445 314.897 98.125C314.772 98.6055 314.592 98.9922 314.358 99.2852C314.124 99.5781 313.84 99.791 313.508 99.9238C313.18 100.053 312.809 100.117 312.395 100.117C312.067 100.117 311.764 100.076 311.487 99.9941C311.209 99.9121 310.959 99.7812 310.737 99.6016C310.518 99.418 310.331 99.1797 310.174 98.8867C310.018 98.5938 309.899 98.2383 309.817 97.8203C309.735 97.4023 309.694 96.9141 309.694 96.3555V95.0547C309.694 94.3555 309.756 93.7695 309.881 93.2969C310.01 92.8242 310.192 92.4453 310.426 92.1602C310.661 91.8711 310.942 91.6641 311.27 91.5391C311.602 91.4141 311.973 91.3516 312.383 91.3516C312.715 91.3516 313.02 91.3926 313.297 91.4746C313.579 91.5527 313.829 91.6797 314.047 91.8555C314.266 92.0273 314.452 92.2578 314.604 92.5469C314.76 92.832 314.879 93.1816 314.961 93.5957C315.043 94.0098 315.084 94.4961 315.084 95.0547ZM313.995 96.5312V94.873C313.995 94.4902 313.971 94.1543 313.924 93.8652C313.881 93.5723 313.817 93.3223 313.731 93.1152C313.645 92.9082 313.536 92.7402 313.403 92.6113C313.274 92.4824 313.124 92.3887 312.952 92.3301C312.784 92.2676 312.594 92.2363 312.383 92.2363C312.125 92.2363 311.897 92.2852 311.698 92.3828C311.499 92.4766 311.331 92.627 311.194 92.834C311.061 93.041 310.959 93.3125 310.889 93.6484C310.819 93.9844 310.784 94.3926 310.784 94.873V96.5312C310.784 96.9141 310.805 97.252 310.848 97.5449C310.895 97.8379 310.963 98.0918 311.053 98.3066C311.143 98.5176 311.252 98.6914 311.381 98.8281C311.51 98.9648 311.659 99.0664 311.827 99.1328C311.999 99.1953 312.188 99.2266 312.395 99.2266C312.661 99.2266 312.893 99.1758 313.092 99.0742C313.291 98.9727 313.458 98.8145 313.59 98.5996C313.727 98.3809 313.829 98.1016 313.895 97.7617C313.961 97.418 313.995 97.0078 313.995 96.5312Z" fill="black" fill-opacity="0.6"/>
<path d="M300.271 132.422V141H299.188V133.775L297.002 134.572V133.594L300.102 132.422H300.271ZM308.574 136.055V137.355C308.574 138.055 308.512 138.645 308.387 139.125C308.262 139.605 308.082 139.992 307.848 140.285C307.614 140.578 307.33 140.791 306.998 140.924C306.67 141.053 306.299 141.117 305.885 141.117C305.557 141.117 305.254 141.076 304.977 140.994C304.699 140.912 304.449 140.781 304.227 140.602C304.008 140.418 303.821 140.18 303.664 139.887C303.508 139.594 303.389 139.238 303.307 138.82C303.225 138.402 303.184 137.914 303.184 137.355V136.055C303.184 135.355 303.246 134.77 303.371 134.297C303.5 133.824 303.682 133.445 303.916 133.16C304.151 132.871 304.432 132.664 304.76 132.539C305.092 132.414 305.463 132.352 305.873 132.352C306.205 132.352 306.51 132.393 306.787 132.475C307.069 132.553 307.319 132.68 307.537 132.855C307.756 133.027 307.942 133.258 308.094 133.547C308.25 133.832 308.369 134.182 308.451 134.596C308.533 135.01 308.574 135.496 308.574 136.055ZM307.485 137.531V135.873C307.485 135.49 307.461 135.154 307.414 134.865C307.371 134.572 307.307 134.322 307.221 134.115C307.135 133.908 307.026 133.74 306.893 133.611C306.764 133.482 306.614 133.389 306.442 133.33C306.274 133.268 306.084 133.236 305.873 133.236C305.615 133.236 305.387 133.285 305.188 133.383C304.989 133.477 304.821 133.627 304.684 133.834C304.551 134.041 304.449 134.312 304.379 134.648C304.309 134.984 304.274 135.393 304.274 135.873V137.531C304.274 137.914 304.295 138.252 304.338 138.545C304.385 138.838 304.453 139.092 304.543 139.307C304.633 139.518 304.742 139.691 304.871 139.828C305 139.965 305.149 140.066 305.317 140.133C305.489 140.195 305.678 140.227 305.885 140.227C306.151 140.227 306.383 140.176 306.582 140.074C306.781 139.973 306.948 139.814 307.08 139.6C307.217 139.381 307.319 139.102 307.385 138.762C307.451 138.418 307.485 138.008 307.485 137.531ZM315.084 136.055V137.355C315.084 138.055 315.022 138.645 314.897 139.125C314.772 139.605 314.592 139.992 314.358 140.285C314.124 140.578 313.84 140.791 313.508 140.924C313.18 141.053 312.809 141.117 312.395 141.117C312.067 141.117 311.764 141.076 311.487 140.994C311.209 140.912 310.959 140.781 310.737 140.602C310.518 140.418 310.331 140.18 310.174 139.887C310.018 139.594 309.899 139.238 309.817 138.82C309.735 138.402 309.694 137.914 309.694 137.355V136.055C309.694 135.355 309.756 134.77 309.881 134.297C310.01 133.824 310.192 133.445 310.426 133.16C310.661 132.871 310.942 132.664 311.27 132.539C311.602 132.414 311.973 132.352 312.383 132.352C312.715 132.352 313.02 132.393 313.297 132.475C313.579 132.553 313.829 132.68 314.047 132.855C314.266 133.027 314.452 133.258 314.604 133.547C314.76 133.832 314.879 134.182 314.961 134.596C315.043 135.01 315.084 135.496 315.084 136.055ZM313.995 137.531V135.873C313.995 135.49 313.971 135.154 313.924 134.865C313.881 134.572 313.817 134.322 313.731 134.115C313.645 133.908 313.536 133.74 313.403 133.611C313.274 133.482 313.124 133.389 312.952 133.33C312.784 133.268 312.594 133.236 312.383 133.236C312.125 133.236 311.897 133.285 311.698 133.383C311.499 133.477 311.331 133.627 311.194 133.834C311.061 134.041 310.959 134.312 310.889 134.648C310.819 134.984 310.784 135.393 310.784 135.873V137.531C310.784 137.914 310.805 138.252 310.848 138.545C310.895 138.838 310.963 139.092 311.053 139.307C311.143 139.518 311.252 139.691 311.381 139.828C311.51 139.965 311.659 140.066 311.827 140.133C311.999 140.195 312.188 140.227 312.395 140.227C312.661 140.227 312.893 140.176 313.092 140.074C313.291 139.973 313.458 139.814 313.59 139.6C313.727 139.381 313.829 139.102 313.895 138.762C313.961 138.418 313.995 138.008 313.995 137.531Z" fill="black" fill-opacity="0.6"/>
<path d="M302.064 177.055V178.355C302.064 179.055 302.002 179.645 301.877 180.125C301.752 180.605 301.572 180.992 301.338 181.285C301.104 181.578 300.82 181.791 300.488 181.924C300.16 182.053 299.789 182.117 299.375 182.117C299.047 182.117 298.744 182.076 298.467 181.994C298.189 181.912 297.939 181.781 297.717 181.602C297.498 181.418 297.311 181.18 297.154 180.887C296.998 180.594 296.879 180.238 296.797 179.82C296.715 179.402 296.674 178.914 296.674 178.355V177.055C296.674 176.355 296.736 175.77 296.861 175.297C296.99 174.824 297.172 174.445 297.406 174.16C297.641 173.871 297.922 173.664 298.25 173.539C298.582 173.414 298.953 173.352 299.363 173.352C299.695 173.352 300 173.393 300.277 173.475C300.559 173.553 300.809 173.68 301.027 173.855C301.246 174.027 301.432 174.258 301.584 174.547C301.74 174.832 301.859 175.182 301.941 175.596C302.023 176.01 302.064 176.496 302.064 177.055ZM300.975 178.531V176.873C300.975 176.49 300.951 176.154 300.904 175.865C300.861 175.572 300.797 175.322 300.711 175.115C300.625 174.908 300.516 174.74 300.383 174.611C300.254 174.482 300.104 174.389 299.932 174.33C299.764 174.268 299.574 174.236 299.363 174.236C299.105 174.236 298.877 174.285 298.678 174.383C298.479 174.477 298.311 174.627 298.174 174.834C298.041 175.041 297.939 175.312 297.869 175.648C297.799 175.984 297.764 176.393 297.764 176.873V178.531C297.764 178.914 297.785 179.252 297.828 179.545C297.875 179.838 297.943 180.092 298.033 180.307C298.123 180.518 298.232 180.691 298.361 180.828C298.49 180.965 298.639 181.066 298.807 181.133C298.979 181.195 299.168 181.227 299.375 181.227C299.641 181.227 299.873 181.176 300.072 181.074C300.271 180.973 300.438 180.814 300.57 180.6C300.707 180.381 300.809 180.102 300.875 179.762C300.941 179.418 300.975 179.008 300.975 178.531Z" fill="black" fill-opacity="0.6"/>
<rect width="40" height="56" transform="translate(40 124)" fill="#15AD36"/>
<rect width="40" height="72" transform="translate(120 108)" fill="#038A20"/>
<rect width="40" height="89" transform="translate(200 91)" fill="#B8B8B8"/>
<path d="M60.3335 99.5H108.333C109.162 99.5 109.833 100.172 109.833 101V118C109.833 118.828 109.162 119.5 108.333 119.5H60.3335C59.5051 119.5 58.8335 118.828 58.8335 118V101C58.8335 100.172 59.5051 99.5 60.3335 99.5Z" fill="white"/>
<path d="M60.3335 99.5H108.333C109.162 99.5 109.833 100.172 109.833 101V118C109.833 118.828 109.162 119.5 108.333 119.5H60.3335C59.5051 119.5 58.8335 118.828 58.8335 118V101C58.8335 100.172 59.5051 99.5 60.3335 99.5Z" stroke="#D8DEE9"/>
<path d="M72.9183 113.109V114H67.3343V113.221L70.1292 110.109C70.4729 109.727 70.7386 109.402 70.9261 109.137C71.1175 108.867 71.2503 108.627 71.3245 108.416C71.4026 108.201 71.4417 107.982 71.4417 107.76C71.4417 107.479 71.3831 107.225 71.2659 106.998C71.1526 106.768 70.9847 106.584 70.762 106.447C70.5394 106.311 70.2698 106.242 69.9534 106.242C69.5745 106.242 69.2581 106.316 69.0042 106.465C68.7542 106.609 68.5667 106.812 68.4417 107.074C68.3167 107.336 68.2542 107.637 68.2542 107.977H67.1702C67.1702 107.496 67.2757 107.057 67.4866 106.658C67.6976 106.26 68.0101 105.943 68.4241 105.709C68.8382 105.471 69.3479 105.352 69.9534 105.352C70.4925 105.352 70.9534 105.447 71.3362 105.639C71.719 105.826 72.012 106.092 72.2151 106.436C72.4222 106.775 72.5257 107.174 72.5257 107.631C72.5257 107.881 72.4827 108.135 72.3968 108.393C72.3147 108.646 72.1995 108.9 72.0511 109.154C71.9065 109.408 71.7366 109.658 71.5413 109.904C71.3499 110.15 71.1448 110.393 70.9261 110.631L68.6409 113.109H72.9183ZM75.2095 109.939L74.3423 109.717L74.7701 105.469H79.147V106.471H75.69L75.4322 108.791C75.5884 108.701 75.7857 108.617 76.024 108.539C76.2662 108.461 76.5435 108.422 76.856 108.422C77.2505 108.422 77.604 108.49 77.9165 108.627C78.229 108.76 78.4947 108.951 78.7134 109.201C78.9361 109.451 79.106 109.752 79.2232 110.104C79.3404 110.455 79.399 110.848 79.399 111.281C79.399 111.691 79.3423 112.068 79.229 112.412C79.1197 112.756 78.9537 113.057 78.731 113.314C78.5083 113.568 78.2271 113.766 77.8872 113.906C77.5513 114.047 77.1548 114.117 76.6978 114.117C76.354 114.117 76.0279 114.07 75.7193 113.977C75.4146 113.879 75.1412 113.732 74.899 113.537C74.6607 113.338 74.4654 113.092 74.313 112.799C74.1646 112.502 74.0708 112.154 74.0318 111.756H75.063C75.1099 112.076 75.2037 112.346 75.3443 112.564C75.4849 112.783 75.6685 112.949 75.8951 113.062C76.1255 113.172 76.3931 113.227 76.6978 113.227C76.9556 113.227 77.1841 113.182 77.3833 113.092C77.5826 113.002 77.7505 112.873 77.8872 112.705C78.024 112.537 78.1275 112.334 78.1978 112.096C78.272 111.857 78.3091 111.59 78.3091 111.293C78.3091 111.023 78.272 110.773 78.1978 110.543C78.1236 110.312 78.0122 110.111 77.8638 109.939C77.7193 109.768 77.5415 109.635 77.3306 109.541C77.1197 109.443 76.8775 109.395 76.604 109.395C76.2408 109.395 75.9654 109.443 75.7779 109.541C75.5943 109.639 75.4048 109.771 75.2095 109.939ZM85.7273 111.691C85.7273 112.211 85.6062 112.652 85.364 113.016C85.1258 113.375 84.8015 113.648 84.3914 113.836C83.9851 114.023 83.5262 114.117 83.0144 114.117C82.5027 114.117 82.0418 114.023 81.6316 113.836C81.2215 113.648 80.8972 113.375 80.659 113.016C80.4207 112.652 80.3015 112.211 80.3015 111.691C80.3015 111.352 80.366 111.041 80.4949 110.76C80.6277 110.475 80.8133 110.227 81.0515 110.016C81.2937 109.805 81.5789 109.643 81.907 109.529C82.239 109.412 82.6043 109.354 83.0027 109.354C83.5262 109.354 83.993 109.455 84.4031 109.658C84.8133 109.857 85.1355 110.133 85.3699 110.484C85.6082 110.836 85.7273 111.238 85.7273 111.691ZM84.6375 111.668C84.6375 111.352 84.5691 111.072 84.4324 110.83C84.2957 110.584 84.1043 110.393 83.8582 110.256C83.6121 110.119 83.3269 110.051 83.0027 110.051C82.6707 110.051 82.3836 110.119 82.1414 110.256C81.9031 110.393 81.7176 110.584 81.5847 110.83C81.4519 111.072 81.3855 111.352 81.3855 111.668C81.3855 111.996 81.45 112.277 81.5789 112.512C81.7117 112.742 81.8992 112.92 82.1414 113.045C82.3875 113.166 82.6785 113.227 83.0144 113.227C83.3504 113.227 83.6394 113.166 83.8816 113.045C84.1238 112.92 84.3094 112.742 84.4383 112.512C84.5711 112.277 84.6375 111.996 84.6375 111.668ZM85.5281 107.689C85.5281 108.104 85.4187 108.477 85.2 108.809C84.9812 109.141 84.6824 109.402 84.3035 109.594C83.9246 109.785 83.4949 109.881 83.0144 109.881C82.5262 109.881 82.0906 109.785 81.7078 109.594C81.3289 109.402 81.032 109.141 80.8172 108.809C80.6023 108.477 80.4949 108.104 80.4949 107.689C80.4949 107.193 80.6023 106.771 80.8172 106.424C81.0359 106.076 81.3347 105.811 81.7137 105.627C82.0926 105.443 82.5242 105.352 83.0086 105.352C83.4969 105.352 83.9305 105.443 84.3094 105.627C84.6883 105.811 84.9851 106.076 85.2 106.424C85.4187 106.771 85.5281 107.193 85.5281 107.689ZM84.4441 107.707C84.4441 107.422 84.3836 107.17 84.2625 106.951C84.1414 106.732 83.9734 106.561 83.7586 106.436C83.5437 106.307 83.2937 106.242 83.0086 106.242C82.7234 106.242 82.4734 106.303 82.2586 106.424C82.0476 106.541 81.8816 106.709 81.7605 106.928C81.6433 107.146 81.5847 107.406 81.5847 107.707C81.5847 108 81.6433 108.256 81.7605 108.475C81.8816 108.693 82.0496 108.863 82.2644 108.984C82.4793 109.105 82.7293 109.166 83.0144 109.166C83.2996 109.166 83.5476 109.105 83.7586 108.984C83.9734 108.863 84.1414 108.693 84.2625 108.475C84.3836 108.256 84.4441 108 84.4441 107.707ZM86.9932 113.426C86.9932 113.242 87.0498 113.088 87.1631 112.963C87.2803 112.834 87.4483 112.77 87.667 112.77C87.8858 112.77 88.0518 112.834 88.1651 112.963C88.2822 113.088 88.3408 113.242 88.3408 113.426C88.3408 113.605 88.2822 113.758 88.1651 113.883C88.0518 114.008 87.8858 114.07 87.667 114.07C87.4483 114.07 87.2803 114.008 87.1631 113.883C87.0498 113.758 86.9932 113.605 86.9932 113.426ZM93.9426 105.457H94.0364V106.377H93.9426C93.3684 106.377 92.888 106.471 92.5012 106.658C92.1145 106.842 91.8079 107.09 91.5813 107.402C91.3547 107.711 91.1907 108.059 91.0891 108.445C90.9915 108.832 90.9426 109.225 90.9426 109.623V110.877C90.9426 111.256 90.9876 111.592 91.0774 111.885C91.1672 112.174 91.2903 112.418 91.4465 112.617C91.6028 112.816 91.7786 112.967 91.9739 113.068C92.1731 113.17 92.3801 113.221 92.595 113.221C92.845 113.221 93.0676 113.174 93.263 113.08C93.4583 112.982 93.6223 112.848 93.7551 112.676C93.8919 112.5 93.9954 112.293 94.0657 112.055C94.136 111.816 94.1712 111.555 94.1712 111.27C94.1712 111.016 94.1399 110.771 94.0774 110.537C94.0149 110.299 93.9192 110.088 93.7903 109.904C93.6614 109.717 93.4993 109.57 93.304 109.465C93.1126 109.355 92.884 109.301 92.6184 109.301C92.3176 109.301 92.0364 109.375 91.7747 109.523C91.5169 109.668 91.304 109.859 91.136 110.098C90.9719 110.332 90.8782 110.588 90.8547 110.865L90.2805 110.859C90.3352 110.422 90.4368 110.049 90.5852 109.74C90.7376 109.428 90.9251 109.174 91.1477 108.979C91.3743 108.779 91.6262 108.635 91.9036 108.545C92.1848 108.451 92.4817 108.404 92.7942 108.404C93.22 108.404 93.5872 108.484 93.8958 108.645C94.2044 108.805 94.4583 109.02 94.6575 109.289C94.8567 109.555 95.0032 109.855 95.0969 110.191C95.1946 110.523 95.2434 110.865 95.2434 111.217C95.2434 111.619 95.1868 111.996 95.0735 112.348C94.9602 112.699 94.7903 113.008 94.5637 113.273C94.3411 113.539 94.0657 113.746 93.7376 113.895C93.4094 114.043 93.0286 114.117 92.595 114.117C92.134 114.117 91.7317 114.023 91.388 113.836C91.0442 113.645 90.759 113.391 90.5325 113.074C90.3059 112.758 90.136 112.406 90.0227 112.02C89.9094 111.633 89.8528 111.24 89.8528 110.842V110.332C89.8528 109.73 89.9133 109.141 90.0344 108.562C90.1555 107.984 90.3645 107.461 90.6614 106.992C90.9622 106.523 91.3782 106.15 91.9094 105.873C92.4407 105.596 93.1184 105.457 93.9426 105.457ZM97.3706 113.092H97.4819C98.1069 113.092 98.6147 113.004 99.0054 112.828C99.396 112.652 99.6968 112.416 99.9077 112.119C100.119 111.822 100.263 111.488 100.341 111.117C100.419 110.742 100.458 110.357 100.458 109.963V108.656C100.458 108.27 100.414 107.926 100.324 107.625C100.238 107.324 100.117 107.072 99.9604 106.869C99.8081 106.666 99.6343 106.512 99.439 106.406C99.2437 106.301 99.0366 106.248 98.8179 106.248C98.5679 106.248 98.3433 106.299 98.144 106.4C97.9487 106.498 97.7827 106.637 97.646 106.816C97.5132 106.996 97.4116 107.207 97.3413 107.449C97.271 107.691 97.2358 107.955 97.2358 108.24C97.2358 108.494 97.2671 108.74 97.3296 108.979C97.3921 109.217 97.4878 109.432 97.6167 109.623C97.7456 109.814 97.9058 109.967 98.0972 110.08C98.2925 110.189 98.521 110.244 98.7827 110.244C99.0249 110.244 99.2515 110.197 99.4624 110.104C99.6772 110.006 99.8667 109.875 100.031 109.711C100.199 109.543 100.332 109.354 100.429 109.143C100.531 108.932 100.589 108.711 100.605 108.48H101.121C101.121 108.805 101.056 109.125 100.927 109.441C100.802 109.754 100.626 110.039 100.4 110.297C100.173 110.555 99.9077 110.762 99.603 110.918C99.2983 111.07 98.9663 111.146 98.6069 111.146C98.1851 111.146 97.8198 111.064 97.5112 110.9C97.2026 110.736 96.9487 110.518 96.7495 110.244C96.5542 109.971 96.4077 109.666 96.3101 109.33C96.2163 108.99 96.1694 108.646 96.1694 108.299C96.1694 107.893 96.2261 107.512 96.3394 107.156C96.4526 106.801 96.6206 106.488 96.8433 106.219C97.0659 105.945 97.3413 105.732 97.6694 105.58C98.0015 105.428 98.3843 105.352 98.8179 105.352C99.3062 105.352 99.7222 105.449 100.066 105.645C100.41 105.84 100.689 106.102 100.904 106.43C101.123 106.758 101.283 107.127 101.384 107.537C101.486 107.947 101.537 108.369 101.537 108.803V109.195C101.537 109.637 101.507 110.086 101.449 110.543C101.394 110.996 101.287 111.43 101.126 111.844C100.97 112.258 100.742 112.629 100.441 112.957C100.14 113.281 99.7476 113.539 99.2632 113.73C98.7827 113.918 98.189 114.012 97.4819 114.012H97.3706V113.092Z" fill="#272F3F"/>
<path d="M144.333 83.5H192.333C193.162 83.5 193.833 84.1716 193.833 85V102C193.833 102.828 193.162 103.5 192.333 103.5H144.333C143.505 103.5 142.833 102.828 142.833 102V85C142.833 84.1716 143.505 83.5 144.333 83.5Z" fill="white"/>
<path d="M144.333 83.5H192.333C193.162 83.5 193.833 84.1716 193.833 85V102C193.833 102.828 193.162 103.5 192.333 103.5H144.333C143.505 103.5 142.833 102.828 142.833 102V85C142.833 84.1716 143.505 83.5 144.333 83.5Z" stroke="#D8DEE9"/>
<path d="M156.918 97.1094V98H151.334V97.2207L154.129 94.1094C154.473 93.7266 154.739 93.4023 154.926 93.1367C155.117 92.8672 155.25 92.627 155.325 92.416C155.403 92.2012 155.442 91.9824 155.442 91.7598C155.442 91.4785 155.383 91.2246 155.266 90.998C155.153 90.7676 154.985 90.584 154.762 90.4473C154.539 90.3105 154.27 90.2422 153.953 90.2422C153.575 90.2422 153.258 90.3164 153.004 90.4648C152.754 90.6094 152.567 90.8125 152.442 91.0742C152.317 91.3359 152.254 91.6367 152.254 91.9766H151.17C151.17 91.4961 151.276 91.0566 151.487 90.6582C151.698 90.2598 152.01 89.9434 152.424 89.709C152.838 89.4707 153.348 89.3516 153.953 89.3516C154.492 89.3516 154.953 89.4473 155.336 89.6387C155.719 89.8262 156.012 90.0918 156.215 90.4355C156.422 90.7754 156.526 91.1738 156.526 91.6309C156.526 91.8809 156.483 92.1348 156.397 92.3926C156.315 92.6465 156.2 92.9004 156.051 93.1543C155.907 93.4082 155.737 93.6582 155.541 93.9043C155.35 94.1504 155.145 94.3926 154.926 94.6309L152.641 97.1094H156.918ZM163.217 95.6914C163.217 96.2109 163.096 96.6523 162.854 97.0156C162.616 97.375 162.292 97.6484 161.881 97.8359C161.475 98.0234 161.016 98.1172 160.504 98.1172C159.993 98.1172 159.532 98.0234 159.122 97.8359C158.711 97.6484 158.387 97.375 158.149 97.0156C157.911 96.6523 157.792 96.2109 157.792 95.6914C157.792 95.3516 157.856 95.041 157.985 94.7598C158.118 94.4746 158.303 94.2266 158.542 94.0156C158.784 93.8047 159.069 93.6426 159.397 93.5293C159.729 93.4121 160.094 93.3535 160.493 93.3535C161.016 93.3535 161.483 93.4551 161.893 93.6582C162.303 93.8574 162.626 94.1328 162.86 94.4844C163.098 94.8359 163.217 95.2383 163.217 95.6914ZM162.127 95.668C162.127 95.3516 162.059 95.0723 161.922 94.8301C161.786 94.584 161.594 94.3926 161.348 94.2559C161.102 94.1191 160.817 94.0508 160.493 94.0508C160.161 94.0508 159.874 94.1191 159.631 94.2559C159.393 94.3926 159.208 94.584 159.075 94.8301C158.942 95.0723 158.876 95.3516 158.876 95.668C158.876 95.9961 158.94 96.2773 159.069 96.5117C159.202 96.7422 159.389 96.9199 159.631 97.0449C159.877 97.166 160.168 97.2266 160.504 97.2266C160.84 97.2266 161.129 97.166 161.372 97.0449C161.614 96.9199 161.799 96.7422 161.928 96.5117C162.061 96.2773 162.127 95.9961 162.127 95.668ZM163.018 91.6895C163.018 92.1035 162.909 92.4766 162.69 92.8086C162.471 93.1406 162.172 93.4023 161.793 93.5938C161.415 93.7852 160.985 93.8809 160.504 93.8809C160.016 93.8809 159.581 93.7852 159.198 93.5938C158.819 93.4023 158.522 93.1406 158.307 92.8086C158.092 92.4766 157.985 92.1035 157.985 91.6895C157.985 91.1934 158.092 90.7715 158.307 90.4238C158.526 90.0762 158.825 89.8105 159.204 89.627C159.583 89.4434 160.014 89.3516 160.499 89.3516C160.987 89.3516 161.42 89.4434 161.799 89.627C162.178 89.8105 162.475 90.0762 162.69 90.4238C162.909 90.7715 163.018 91.1934 163.018 91.6895ZM161.934 91.707C161.934 91.4219 161.874 91.1699 161.752 90.9512C161.631 90.7324 161.463 90.5605 161.249 90.4355C161.034 90.3066 160.784 90.2422 160.499 90.2422C160.213 90.2422 159.963 90.3027 159.749 90.4238C159.538 90.541 159.372 90.709 159.251 90.9277C159.133 91.1465 159.075 91.4062 159.075 91.707C159.075 92 159.133 92.2559 159.251 92.4746C159.372 92.6934 159.54 92.8633 159.754 92.9844C159.969 93.1055 160.219 93.166 160.504 93.166C160.79 93.166 161.038 93.1055 161.249 92.9844C161.463 92.8633 161.631 92.6934 161.752 92.4746C161.874 92.2559 161.934 92 161.934 91.707ZM169.862 89.4688V90.0781L166.329 98H165.186L168.714 90.3594H164.096V89.4688H169.862ZM170.993 97.4258C170.993 97.2422 171.05 97.0879 171.163 96.9629C171.28 96.834 171.448 96.7695 171.667 96.7695C171.886 96.7695 172.052 96.834 172.165 96.9629C172.282 97.0879 172.341 97.2422 172.341 97.4258C172.341 97.6055 172.282 97.7578 172.165 97.8828C172.052 98.0078 171.886 98.0703 171.667 98.0703C171.448 98.0703 171.28 98.0078 171.163 97.8828C171.05 97.7578 170.993 97.6055 170.993 97.4258ZM179.296 89.4688V90.0781L175.763 98H174.62L178.148 90.3594H173.531V89.4688H179.296ZM181.664 93.9395L180.796 93.7168L181.224 89.4688H185.601V90.4707H182.144L181.886 92.791C182.042 92.7012 182.24 92.6172 182.478 92.5391C182.72 92.4609 182.998 92.4219 183.31 92.4219C183.705 92.4219 184.058 92.4902 184.371 92.627C184.683 92.7598 184.949 92.9512 185.167 93.2012C185.39 93.4512 185.56 93.752 185.677 94.1035C185.794 94.4551 185.853 94.8477 185.853 95.2812C185.853 95.6914 185.796 96.0684 185.683 96.4121C185.574 96.7559 185.408 97.0566 185.185 97.3145C184.962 97.5684 184.681 97.7656 184.341 97.9062C184.005 98.0469 183.609 98.1172 183.152 98.1172C182.808 98.1172 182.482 98.0703 182.173 97.9766C181.869 97.8789 181.595 97.7324 181.353 97.5371C181.115 97.3379 180.919 97.0918 180.767 96.7988C180.619 96.502 180.525 96.1543 180.486 95.7559H181.517C181.564 96.0762 181.658 96.3457 181.798 96.5645C181.939 96.7832 182.123 96.9492 182.349 97.0625C182.58 97.1719 182.847 97.2266 183.152 97.2266C183.41 97.2266 183.638 97.1816 183.837 97.0918C184.037 97.002 184.205 96.873 184.341 96.7051C184.478 96.5371 184.582 96.334 184.652 96.0957C184.726 95.8574 184.763 95.5898 184.763 95.293C184.763 95.0234 184.726 94.7734 184.652 94.543C184.578 94.3125 184.466 94.1113 184.318 93.9395C184.173 93.7676 183.996 93.6348 183.785 93.541C183.574 93.4434 183.332 93.3945 183.058 93.3945C182.695 93.3945 182.419 93.4434 182.232 93.541C182.048 93.6387 181.859 93.7715 181.664 93.9395Z" fill="#272F3F"/>
<path d="M223.333 66.5H271.333C272.162 66.5 272.833 67.1716 272.833 68V85C272.833 85.8284 272.162 86.5 271.333 86.5H223.333C222.505 86.5 221.833 85.8284 221.833 85V68C221.833 67.1716 222.505 66.5 223.333 66.5Z" fill="white"/>
<path d="M223.333 66.5H271.333C272.162 66.5 272.833 67.1716 272.833 68V85C272.833 85.8284 272.162 86.5 271.333 86.5H223.333C222.505 86.5 221.833 85.8284 221.833 85V68C221.833 67.1716 222.505 66.5 223.333 66.5Z" stroke="#D8DEE9"/>
<path d="M235.918 80.1094V81H230.334V80.2207L233.129 77.1094C233.473 76.7266 233.739 76.4023 233.926 76.1367C234.117 75.8672 234.25 75.627 234.325 75.416C234.403 75.2012 234.442 74.9824 234.442 74.7598C234.442 74.4785 234.383 74.2246 234.266 73.998C234.153 73.7676 233.985 73.584 233.762 73.4473C233.539 73.3105 233.27 73.2422 232.953 73.2422C232.575 73.2422 232.258 73.3164 232.004 73.4648C231.754 73.6094 231.567 73.8125 231.442 74.0742C231.317 74.3359 231.254 74.6367 231.254 74.9766H230.17C230.17 74.4961 230.276 74.0566 230.487 73.6582C230.698 73.2598 231.01 72.9434 231.424 72.709C231.838 72.4707 232.348 72.3516 232.953 72.3516C233.492 72.3516 233.953 72.4473 234.336 72.6387C234.719 72.8262 235.012 73.0918 235.215 73.4355C235.422 73.7754 235.526 74.1738 235.526 74.6309C235.526 74.8809 235.483 75.1348 235.397 75.3926C235.315 75.6465 235.2 75.9004 235.051 76.1543C234.907 76.4082 234.737 76.6582 234.541 76.9043C234.35 77.1504 234.145 77.3926 233.926 77.6309L231.641 80.1094H235.918ZM242.217 78.6914C242.217 79.2109 242.096 79.6523 241.854 80.0156C241.616 80.375 241.292 80.6484 240.881 80.8359C240.475 81.0234 240.016 81.1172 239.504 81.1172C238.993 81.1172 238.532 81.0234 238.122 80.8359C237.711 80.6484 237.387 80.375 237.149 80.0156C236.911 79.6523 236.792 79.2109 236.792 78.6914C236.792 78.3516 236.856 78.041 236.985 77.7598C237.118 77.4746 237.303 77.2266 237.542 77.0156C237.784 76.8047 238.069 76.6426 238.397 76.5293C238.729 76.4121 239.094 76.3535 239.493 76.3535C240.016 76.3535 240.483 76.4551 240.893 76.6582C241.303 76.8574 241.626 77.1328 241.86 77.4844C242.098 77.8359 242.217 78.2383 242.217 78.6914ZM241.127 78.668C241.127 78.3516 241.059 78.0723 240.922 77.8301C240.786 77.584 240.594 77.3926 240.348 77.2559C240.102 77.1191 239.817 77.0508 239.493 77.0508C239.161 77.0508 238.874 77.1191 238.631 77.2559C238.393 77.3926 238.208 77.584 238.075 77.8301C237.942 78.0723 237.876 78.3516 237.876 78.668C237.876 78.9961 237.94 79.2773 238.069 79.5117C238.202 79.7422 238.389 79.9199 238.631 80.0449C238.877 80.166 239.168 80.2266 239.504 80.2266C239.84 80.2266 240.129 80.166 240.372 80.0449C240.614 79.9199 240.799 79.7422 240.928 79.5117C241.061 79.2773 241.127 78.9961 241.127 78.668ZM242.018 74.6895C242.018 75.1035 241.909 75.4766 241.69 75.8086C241.471 76.1406 241.172 76.4023 240.793 76.5938C240.415 76.7852 239.985 76.8809 239.504 76.8809C239.016 76.8809 238.581 76.7852 238.198 76.5938C237.819 76.4023 237.522 76.1406 237.307 75.8086C237.092 75.4766 236.985 75.1035 236.985 74.6895C236.985 74.1934 237.092 73.7715 237.307 73.4238C237.526 73.0762 237.825 72.8105 238.204 72.627C238.583 72.4434 239.014 72.3516 239.499 72.3516C239.987 72.3516 240.42 72.4434 240.799 72.627C241.178 72.8105 241.475 73.0762 241.69 73.4238C241.909 73.7715 242.018 74.1934 242.018 74.6895ZM240.934 74.707C240.934 74.4219 240.874 74.1699 240.752 73.9512C240.631 73.7324 240.463 73.5605 240.249 73.4355C240.034 73.3066 239.784 73.2422 239.499 73.2422C239.213 73.2422 238.963 73.3027 238.749 73.4238C238.538 73.541 238.372 73.709 238.251 73.9277C238.133 74.1465 238.075 74.4062 238.075 74.707C238.075 75 238.133 75.2559 238.251 75.4746C238.372 75.6934 238.54 75.8633 238.754 75.9844C238.969 76.1055 239.219 76.166 239.504 76.166C239.79 76.166 240.038 76.1055 240.249 75.9844C240.463 75.8633 240.631 75.6934 240.752 75.4746C240.874 75.2559 240.934 75 240.934 74.707ZM244.72 76.9395L243.852 76.7168L244.28 72.4688H248.657V73.4707H245.2L244.942 75.791C245.098 75.7012 245.296 75.6172 245.534 75.5391C245.776 75.4609 246.053 75.4219 246.366 75.4219C246.761 75.4219 247.114 75.4902 247.427 75.627C247.739 75.7598 248.005 75.9512 248.223 76.2012C248.446 76.4512 248.616 76.752 248.733 77.1035C248.85 77.4551 248.909 77.8477 248.909 78.2812C248.909 78.6914 248.852 79.0684 248.739 79.4121C248.63 79.7559 248.464 80.0566 248.241 80.3145C248.018 80.5684 247.737 80.7656 247.397 80.9062C247.061 81.0469 246.665 81.1172 246.208 81.1172C245.864 81.1172 245.538 81.0703 245.229 80.9766C244.925 80.8789 244.651 80.7324 244.409 80.5371C244.171 80.3379 243.975 80.0918 243.823 79.7988C243.675 79.502 243.581 79.1543 243.542 78.7559H244.573C244.62 79.0762 244.714 79.3457 244.854 79.5645C244.995 79.7832 245.178 79.9492 245.405 80.0625C245.636 80.1719 245.903 80.2266 246.208 80.2266C246.466 80.2266 246.694 80.1816 246.893 80.0918C247.093 80.002 247.261 79.873 247.397 79.7051C247.534 79.5371 247.637 79.334 247.708 79.0957C247.782 78.8574 247.819 78.5898 247.819 78.293C247.819 78.0234 247.782 77.7734 247.708 77.543C247.634 77.3125 247.522 77.1113 247.374 76.9395C247.229 76.7676 247.052 76.6348 246.841 76.541C246.63 76.4434 246.387 76.3945 246.114 76.3945C245.751 76.3945 245.475 76.4434 245.288 76.541C245.104 76.6387 244.915 76.7715 244.72 76.9395ZM249.993 80.4258C249.993 80.2422 250.05 80.0879 250.163 79.9629C250.28 79.834 250.448 79.7695 250.667 79.7695C250.886 79.7695 251.052 79.834 251.165 79.9629C251.282 80.0879 251.341 80.2422 251.341 80.4258C251.341 80.6055 251.282 80.7578 251.165 80.8828C251.052 81.0078 250.886 81.0703 250.667 81.0703C250.448 81.0703 250.28 81.0078 250.163 80.8828C250.05 80.7578 249.993 80.6055 249.993 80.4258ZM258.296 72.4688V73.0781L254.763 81H253.62L257.148 73.3594H252.531V72.4688H258.296ZM260.371 80.0918H260.482C261.107 80.0918 261.615 80.0039 262.005 79.8281C262.396 79.6523 262.697 79.416 262.908 79.1191C263.119 78.8223 263.263 78.4883 263.341 78.1172C263.419 77.7422 263.458 77.3574 263.458 76.9629V75.6562C263.458 75.2695 263.414 74.9258 263.324 74.625C263.238 74.3242 263.117 74.0723 262.96 73.8691C262.808 73.666 262.634 73.5117 262.439 73.4062C262.244 73.3008 262.037 73.248 261.818 73.248C261.568 73.248 261.343 73.2988 261.144 73.4004C260.949 73.498 260.783 73.6367 260.646 73.8164C260.513 73.9961 260.412 74.207 260.341 74.4492C260.271 74.6914 260.236 74.9551 260.236 75.2402C260.236 75.4941 260.267 75.7402 260.33 75.9785C260.392 76.2168 260.488 76.4316 260.617 76.623C260.746 76.8145 260.906 76.9668 261.097 77.0801C261.292 77.1895 261.521 77.2441 261.783 77.2441C262.025 77.2441 262.251 77.1973 262.462 77.1035C262.677 77.0059 262.867 76.875 263.031 76.7109C263.199 76.543 263.332 76.3535 263.429 76.1426C263.531 75.9316 263.589 75.7109 263.605 75.4805H264.121C264.121 75.8047 264.056 76.125 263.927 76.4414C263.802 76.7539 263.626 77.0391 263.4 77.2969C263.173 77.5547 262.908 77.7617 262.603 77.918C262.298 78.0703 261.966 78.1465 261.607 78.1465C261.185 78.1465 260.82 78.0645 260.511 77.9004C260.203 77.7363 259.949 77.5176 259.75 77.2441C259.554 76.9707 259.408 76.666 259.31 76.3301C259.216 75.9902 259.169 75.6465 259.169 75.2988C259.169 74.8926 259.226 74.5117 259.339 74.1562C259.453 73.8008 259.621 73.4883 259.843 73.2188C260.066 72.9453 260.341 72.7324 260.669 72.5801C261.001 72.4277 261.384 72.3516 261.818 72.3516C262.306 72.3516 262.722 72.4492 263.066 72.6445C263.41 72.8398 263.689 73.1016 263.904 73.4297C264.123 73.7578 264.283 74.127 264.384 74.5371C264.486 74.9473 264.537 75.3691 264.537 75.8027V76.1953C264.537 76.6367 264.507 77.0859 264.449 77.543C264.394 77.9961 264.287 78.4297 264.126 78.8438C263.97 79.2578 263.742 79.6289 263.441 79.957C263.14 80.2812 262.748 80.5391 262.263 80.7305C261.783 80.918 261.189 81.0117 260.482 81.0117H260.371V80.0918Z" fill="#272F3F"/>
<path d="M59.6665 154.418L141.803 146H220.803" stroke="#F24216" stroke-width="2" stroke-linecap="round" stroke-linejoin="round" stroke-dasharray="1 4"/>
<g clip-path="url(#clip0_2170_5659)">
<path d="M16.5 210H28.5" stroke="#F24216" stroke-width="2" stroke-linecap="round" stroke-linejoin="round" stroke-dasharray="1 4"/>
<path d="M40.21 211.262H41.358V214.244H40.21V211.262ZM44.452 211.262H45.6V214.244H44.452V211.262ZM37.76 205.298H48.036V206.25H37.76V205.298ZM37.2 213.684H48.666V214.65H37.2V213.684ZM42.898 207.076C45.46 207.076 47.042 207.944 47.042 209.456C47.042 210.94 45.46 211.808 42.898 211.808C40.336 211.808 38.768 210.94 38.768 209.456C38.768 207.944 40.336 207.076 42.898 207.076ZM42.898 207.986C41.05 207.986 39.93 208.532 39.93 209.456C39.93 210.366 41.05 210.898 42.898 210.898C44.746 210.898 45.866 210.366 45.866 209.456C45.866 208.532 44.746 207.986 42.898 207.986ZM42.338 203.632H43.486V205.872H42.338V203.632ZM52.8789 209.12H54.0409V211.458H52.8789V209.12ZM56.9109 209.12H58.0589V211.458H56.9109V209.12ZM55.5109 203.59C58.2969 203.59 59.9629 204.36 59.9629 205.774C59.9629 207.188 58.2969 207.972 55.5109 207.972C52.7109 207.972 51.0589 207.188 51.0589 205.774C51.0589 204.36 52.7109 203.59 55.5109 203.59ZM55.5109 204.472C53.4389 204.472 52.2489 204.948 52.2489 205.774C52.2489 206.614 53.4389 207.09 55.5109 207.09C57.5689 207.09 58.7589 206.614 58.7589 205.774C58.7589 204.948 57.5689 204.472 55.5109 204.472ZM49.7849 208.728H61.2229V209.666H49.7849V208.728ZM51.1709 210.898H59.7669V213.754H52.3469V215.294H51.1989V212.914H58.6189V211.794H51.1709V210.898ZM51.1989 215.042H60.1449V215.952H51.1989V215.042Z" fill="black" fill-opacity="0.6"/>
<path d="M86.5 208C86.5 205.791 88.2909 204 90.5 204H94.5C96.7091 204 98.5 205.791 98.5 208V212C98.5 214.209 96.7091 216 94.5 216H90.5C88.2909 216 86.5 214.209 86.5 212V208Z" fill="#15AD36"/>
<path d="M116.44 203.45H117.602V213.096H116.44V203.45ZM114.298 206.796H116.93V207.748H114.298V206.796ZM114.298 209.47H116.93V210.408H114.298V209.47ZM107.214 204.976H114.298V205.914H107.214V204.976ZM110.798 206.614C112.478 206.614 113.654 207.58 113.654 209.036C113.654 210.478 112.478 211.458 110.798 211.458C109.104 211.458 107.928 210.478 107.928 209.036C107.928 207.58 109.104 206.614 110.798 206.614ZM110.798 207.524C109.748 207.524 109.034 208.14 109.034 209.036C109.034 209.932 109.748 210.534 110.798 210.534C111.848 210.534 112.562 209.932 112.562 209.036C112.562 208.14 111.848 207.524 110.798 207.524ZM110.224 203.422H111.386V205.578H110.224V203.422ZM109.468 214.86H117.91V215.812H109.468V214.86ZM109.468 212.27H110.63V215.322H109.468V212.27ZM129.473 203.436H130.579V216.092H129.473V203.436ZM127.471 208.532H129.907V209.512H127.471V208.532ZM126.715 203.702H127.807V215.462H126.715V203.702ZM122.403 205.396H123.313V206.852C123.313 209.89 122.319 212.326 120.373 213.488L119.659 212.592C121.479 211.584 122.403 209.428 122.403 206.852V205.396ZM122.613 205.396H123.523V206.852C123.523 209.176 124.461 211.234 126.239 212.144L125.553 213.04C123.621 211.976 122.613 209.638 122.613 206.852V205.396ZM119.953 204.92H125.833V205.886H119.953V204.92ZM141.05 203.436H142.212V210.31H141.05V203.436ZM141.89 206.348H144.088V207.314H141.89V206.348ZM137.536 204.192H138.782C138.782 207.384 136.57 209.526 132.86 210.436L132.412 209.484C135.688 208.7 137.536 206.978 137.536 204.766V204.192ZM132.972 204.192H138.236V205.144H132.972V204.192ZM133.77 210.968H134.862V212.48H137.032V210.968H138.11V215.91H133.77V210.968ZM134.862 213.376V215.014H137.032V213.376H134.862ZM140.378 210.842H141.288V211.892C141.288 213.53 140.476 215.28 138.796 216.036L138.18 215.168C139.636 214.51 140.378 213.11 140.378 211.892V210.842ZM140.588 210.842H141.484V211.864C141.484 213.096 142.212 214.524 143.668 215.168L143.038 216.036C141.358 215.28 140.588 213.53 140.588 211.864V210.842Z" fill="black" fill-opacity="0.6"/>
<path d="M169.5 208C169.5 205.791 171.291 204 173.5 204H177.5C179.709 204 181.5 205.791 181.5 208V212C181.5 214.209 179.709 216 177.5 216H173.5C171.291 216 169.5 214.209 169.5 212V208Z" fill="#038A20"/>
<path d="M199.412 203.436H200.574V216.092H199.412V203.436ZM195.702 204.794H196.85C196.85 208.462 195.198 211.668 190.97 213.74L190.354 212.802C194.008 211.038 195.702 208.35 195.702 204.99V204.794ZM190.928 204.794H196.206V205.746H190.928V204.794ZM212.417 203.436H213.537V216.092H212.417V203.436ZM210.275 208.504H212.711V209.47H210.275V208.504ZM209.547 203.716H210.639V215.448H209.547V203.716ZM203.247 212.004H204.073C205.921 212.004 207.181 211.934 208.651 211.626L208.763 212.592C207.251 212.914 205.977 212.97 204.073 212.97H203.247V212.004ZM203.247 204.976H207.951V205.928H204.395V212.438H203.247V204.976ZM224.05 203.436H225.212V210.31H224.05V203.436ZM224.89 206.348H227.088V207.314H224.89V206.348ZM220.536 204.192H221.782C221.782 207.384 219.57 209.526 215.86 210.436L215.412 209.484C218.688 208.7 220.536 206.978 220.536 204.766V204.192ZM215.972 204.192H221.236V205.144H215.972V204.192ZM216.77 210.968H217.862V212.48H220.032V210.968H221.11V215.91H216.77V210.968ZM217.862 213.376V215.014H220.032V213.376H217.862ZM223.378 210.842H224.288V211.892C224.288 213.53 223.476 215.28 221.796 216.036L221.18 215.168C222.636 214.51 223.378 213.11 223.378 211.892V210.842ZM223.588 210.842H224.484V211.864C224.484 213.096 225.212 214.524 226.668 215.168L226.038 216.036C224.358 215.28 223.588 213.53 223.588 211.864V210.842Z" fill="black" fill-opacity="0.6"/>
<path d="M252.5 208C252.5 205.791 254.291 204 256.5 204H260.5C262.709 204 264.5 205.791 264.5 208V212C264.5 214.209 262.709 216 260.5 216H256.5C254.291 216 252.5 214.209 252.5 212V208Z" fill="#B8B8B8"/>
<path d="M273.2 213.516H284.666V214.482H273.2V213.516ZM278.324 210.492H279.486V213.796H278.324V210.492ZM274.544 204.332H275.692V206.586H282.146V204.332H283.294V210.8H274.544V204.332ZM275.692 207.524V209.848H282.146V207.524H275.692ZM292.547 206.712H295.403V207.678H292.547V206.712ZM295.039 203.436H296.201V210.982H295.039V203.436ZM292.043 211.36C294.647 211.36 296.257 212.242 296.257 213.726C296.257 215.224 294.647 216.078 292.043 216.078C289.425 216.078 287.815 215.224 287.815 213.726C287.815 212.242 289.425 211.36 292.043 211.36ZM292.043 212.27C290.139 212.27 288.977 212.802 288.977 213.726C288.977 214.636 290.139 215.168 292.043 215.168C293.947 215.168 295.109 214.636 295.109 213.726C295.109 212.802 293.947 212.27 292.043 212.27ZM289.019 204.71H289.971V205.732C289.971 208.07 288.543 210.072 286.443 210.856L285.841 209.932C287.717 209.246 289.019 207.552 289.019 205.732V204.71ZM289.243 204.71H290.181V205.732C290.181 207.37 291.413 208.938 293.247 209.582L292.659 210.506C290.601 209.764 289.243 207.86 289.243 205.732V204.71ZM286.191 204.36H292.953V205.312H286.191V204.36ZM307.05 203.436H308.212V210.31H307.05V203.436ZM307.89 206.348H310.088V207.314H307.89V206.348ZM303.536 204.192H304.782C304.782 207.384 302.57 209.526 298.86 210.436L298.412 209.484C301.688 208.7 303.536 206.978 303.536 204.766V204.192ZM298.972 204.192H304.236V205.144H298.972V204.192ZM299.77 210.968H300.862V212.48H303.032V210.968H304.11V215.91H299.77V210.968ZM300.862 213.376V215.014H303.032V213.376H300.862ZM306.378 210.842H307.288V211.892C307.288 213.53 306.476 215.28 304.796 216.036L304.18 215.168C305.636 214.51 306.378 213.11 306.378 211.892V210.842ZM306.588 210.842H307.484V211.864C307.484 213.096 308.212 214.524 309.668 215.168L309.038 216.036C307.358 215.28 306.588 213.53 306.588 211.864V210.842Z" fill="black" fill-opacity="0.6"/>
</g>
<defs>
<clipPath id="clip0_2170_5659">
<rect width="328" height="12" fill="white" transform="translate(0 204)"/>
</clipPath>
</defs>
</svg>
