<svg width="280" height="64" viewBox="0 0 280 64" fill="none" xmlns="http://www.w3.org/2000/svg">
<path d="M4 0.5H276C277.933 0.5 279.5 2.067 279.5 4V60C279.5 61.933 277.933 63.5 276 63.5H3.99999C2.067 63.5 0.5 61.933 0.5 60V4C0.5 2.067 2.067 0.5 4 0.5Z" fill="white"/>
<path d="M4 0.5H276C277.933 0.5 279.5 2.067 279.5 4V60C279.5 61.933 277.933 63.5 276 63.5H3.99999C2.067 63.5 0.5 61.933 0.5 60V4C0.5 2.067 2.067 0.5 4 0.5Z" stroke="#D8DEE9"/>
<g clip-path="url(#clip0_2035_6611)">
<path fill-rule="evenodd" clip-rule="evenodd" d="M31.4997 38.3819C31.4997 38.8454 31.8187 39.2484 32.2697 39.3549C32.7212 39.4619 33.1867 39.2439 33.3942 38.8289C34.5132 36.5909 36.3192 32.9789 37.0852 31.4469C37.2402 31.1369 37.2237 30.7689 37.0412 30.4744C36.8592 30.1794 36.5372 29.9999 36.1907 29.9999C35.3207 29.9999 33.9372 29.9999 32.9997 29.9999C32.7237 29.9999 32.4997 29.7759 32.4997 29.4999V25.6179C32.4997 25.1544 32.1807 24.7514 31.7297 24.6449C31.2782 24.5379 30.8127 24.7559 30.6052 25.1709C29.4862 27.4089 27.6802 31.0209 26.9142 32.5529C26.7592 32.8629 26.7757 33.2309 26.9582 33.5254C27.1402 33.8204 27.4622 33.9999 27.8087 33.9999H30.9997C31.2757 33.9999 31.4997 34.2239 31.4997 34.4999V38.3819Z" fill="#FAB832"/>
</g>
<path d="M51.72 25.8H53.355V27.3C53.355 30.06 52.11 32.43 49.455 33.345L48.39 31.785C50.745 31.035 51.72 29.175 51.72 27.3V25.8ZM52.11 25.8H53.73V27.315C53.73 29.055 54.675 30.795 56.91 31.53L55.89 33.075C53.31 32.22 52.11 29.925 52.11 27.315V25.8ZM57.54 24.945H59.535V35.1H57.54V24.945ZM58.965 28.965H61.38V30.615H58.965V28.965ZM50.58 37.005H60.03V38.595H50.58V37.005ZM50.58 34.14H52.59V37.845H50.58V34.14ZM62.1138 35.58H74.6838V37.215H62.1138V35.58ZM67.3338 32.49H69.3138V36.015H67.3338V32.49ZM67.2588 25.71H68.9988V26.715C68.9988 29.67 66.8538 32.28 63.2238 32.94L62.3988 31.275C65.5638 30.765 67.2588 28.635 67.2588 26.715V25.71ZM67.6488 25.71H69.3888V26.715C69.3888 28.68 71.0838 30.765 74.2638 31.275L73.4388 32.94C69.7938 32.265 67.6488 29.715 67.6488 26.715V25.71Z" fill="#767676"/>
<rect width="1" height="16" transform="translate(103 24)" fill="#D8DEE9"/>
<path d="M134.938 33.6875V35.8945H124.693L124.557 34.1855L130.484 24.7812H132.721L130.299 28.834L127.35 33.6875H134.938ZM133.326 24.7812V39H130.514V24.7812H133.326ZM136.115 37.6426C136.115 37.2259 136.258 36.8776 136.545 36.5977C136.837 36.3177 137.225 36.1777 137.707 36.1777C138.188 36.1777 138.573 36.3177 138.859 36.5977C139.152 36.8776 139.298 37.2259 139.298 37.6426C139.298 38.0592 139.152 38.4076 138.859 38.6875C138.573 38.9674 138.188 39.1074 137.707 39.1074C137.225 39.1074 136.837 38.9674 136.545 38.6875C136.258 38.4076 136.115 38.0592 136.115 37.6426ZM143.708 32.5254L141.462 31.9883L142.273 24.7812H150.261V27.0566H144.587L144.236 30.2109C144.424 30.1003 144.711 29.9831 145.095 29.8594C145.479 29.7292 145.909 29.6641 146.384 29.6641C147.074 29.6641 147.686 29.7715 148.22 29.9863C148.754 30.2012 149.206 30.5137 149.577 30.9238C149.955 31.334 150.241 31.8353 150.437 32.4277C150.632 33.0202 150.73 33.6908 150.73 34.4395C150.73 35.071 150.632 35.6732 150.437 36.2461C150.241 36.8125 149.945 37.3203 149.548 37.7695C149.151 38.2122 148.653 38.5605 148.054 38.8145C147.455 39.0684 146.745 39.1953 145.925 39.1953C145.313 39.1953 144.721 39.1042 144.148 38.9219C143.581 38.7396 143.07 38.4694 142.614 38.1113C142.165 37.7533 141.804 37.3203 141.53 36.8125C141.264 36.2982 141.124 35.7122 141.111 35.0547H143.904C143.943 35.4583 144.047 35.8066 144.216 36.0996C144.392 36.3861 144.623 36.6074 144.909 36.7637C145.196 36.9199 145.531 36.998 145.915 36.998C146.273 36.998 146.579 36.9297 146.833 36.793C147.087 36.6562 147.292 36.4674 147.448 36.2266C147.605 35.9792 147.719 35.6927 147.79 35.3672C147.868 35.0352 147.907 34.6771 147.907 34.293C147.907 33.9089 147.862 33.5605 147.771 33.248C147.68 32.9355 147.54 32.6654 147.351 32.4375C147.162 32.2096 146.921 32.0339 146.628 31.9102C146.342 31.7865 146.006 31.7246 145.622 31.7246C145.101 31.7246 144.698 31.806 144.411 31.9688C144.131 32.1315 143.897 32.3171 143.708 32.5254Z" fill="#242424"/>
<path d="M156.615 32.5605V32.1094C156.615 31.7852 156.686 31.4902 156.826 31.2246C156.967 30.959 157.168 30.7461 157.43 30.5859C157.691 30.4258 158.002 30.3457 158.361 30.3457C158.729 30.3457 159.041 30.4258 159.299 30.5859C159.561 30.7461 159.762 30.959 159.902 31.2246C160.043 31.4902 160.113 31.7852 160.113 32.1094V32.5605C160.113 32.877 160.043 33.168 159.902 33.4336C159.766 33.6992 159.566 33.9121 159.305 34.0723C159.047 34.2324 158.736 34.3125 158.373 34.3125C158.01 34.3125 157.695 34.2324 157.43 34.0723C157.168 33.9121 156.967 33.6992 156.826 33.4336C156.686 33.168 156.615 32.877 156.615 32.5605ZM157.43 32.1094V32.5605C157.43 32.7402 157.463 32.9102 157.529 33.0703C157.6 33.2305 157.705 33.3613 157.846 33.4629C157.986 33.5605 158.162 33.6094 158.373 33.6094C158.584 33.6094 158.758 33.5605 158.895 33.4629C159.031 33.3613 159.133 33.2305 159.199 33.0703C159.266 32.9102 159.299 32.7402 159.299 32.5605V32.1094C159.299 31.9258 159.264 31.7539 159.193 31.5938C159.127 31.4297 159.023 31.2988 158.883 31.2012C158.746 31.0996 158.572 31.0488 158.361 31.0488C158.154 31.0488 157.98 31.0996 157.84 31.2012C157.703 31.2988 157.6 31.4297 157.529 31.5938C157.463 31.7539 157.43 31.9258 157.43 32.1094ZM160.77 37.3652V36.9082C160.77 36.5879 160.84 36.2949 160.98 36.0293C161.121 35.7637 161.322 35.5508 161.584 35.3906C161.846 35.2305 162.156 35.1504 162.516 35.1504C162.883 35.1504 163.195 35.2305 163.453 35.3906C163.715 35.5508 163.916 35.7637 164.057 36.0293C164.197 36.2949 164.268 36.5879 164.268 36.9082V37.3652C164.268 37.6855 164.197 37.9785 164.057 38.2441C163.92 38.5098 163.721 38.7227 163.459 38.8828C163.201 39.043 162.891 39.123 162.527 39.123C162.164 39.123 161.852 39.043 161.59 38.8828C161.328 38.7227 161.125 38.5098 160.98 38.2441C160.84 37.9785 160.77 37.6855 160.77 37.3652ZM161.584 36.9082V37.3652C161.584 37.5449 161.617 37.7168 161.684 37.8809C161.754 38.041 161.859 38.1719 162 38.2734C162.141 38.3711 162.316 38.4199 162.527 38.4199C162.738 38.4199 162.912 38.3711 163.049 38.2734C163.189 38.1719 163.293 38.041 163.359 37.8809C163.426 37.7207 163.459 37.5488 163.459 37.3652V36.9082C163.459 36.7246 163.424 36.5527 163.354 36.3926C163.287 36.2324 163.184 36.1035 163.043 36.0059C162.906 35.9043 162.73 35.8535 162.516 35.8535C162.309 35.8535 162.135 35.9043 161.994 36.0059C161.857 36.1035 161.754 36.2324 161.684 36.3926C161.617 36.5527 161.584 36.7246 161.584 36.9082ZM162.785 31.6816L158.619 38.3496L158.01 37.9629L162.176 31.2949L162.785 31.6816Z" fill="#242424"/>
<defs>
<clipPath id="clip0_2035_6611">
<rect width="16" height="16" fill="white" transform="translate(24 24)"/>
</clipPath>
</defs>
</svg>
