<svg width="280" height="64" viewBox="0 0 280 64" fill="none" xmlns="http://www.w3.org/2000/svg">
<path d="M4 0.5H276C277.933 0.5 279.5 2.067 279.5 4V60C279.5 61.933 277.933 63.5 276 63.5H3.99999C2.067 63.5 0.5 61.933 0.5 60V4C0.5 2.067 2.067 0.5 4 0.5Z" fill="white"/>
<path d="M4 0.5H276C277.933 0.5 279.5 2.067 279.5 4V60C279.5 61.933 277.933 63.5 276 63.5H3.99999C2.067 63.5 0.5 61.933 0.5 60V4C0.5 2.067 2.067 0.5 4 0.5Z" stroke="#D8DEE9"/>
<g clip-path="url(#clip0_2035_6610)">
<path fill-rule="evenodd" clip-rule="evenodd" d="M31.4997 38.3819C31.4997 38.8454 31.8187 39.2484 32.2697 39.3549C32.7212 39.4619 33.1867 39.2439 33.3942 38.8289C34.5132 36.5909 36.3192 32.9789 37.0852 31.4469C37.2402 31.1369 37.2237 30.7689 37.0412 30.4744C36.8592 30.1794 36.5372 29.9999 36.1907 29.9999C35.3207 29.9999 33.9372 29.9999 32.9997 29.9999C32.7237 29.9999 32.4997 29.7759 32.4997 29.4999V25.6179C32.4997 25.1544 32.1807 24.7514 31.7297 24.6449C31.2782 24.5379 30.8127 24.7559 30.6052 25.1709C29.4862 27.4089 27.6802 31.0209 26.9142 32.5529C26.7592 32.8629 26.7757 33.2309 26.9582 33.5254C27.1402 33.8204 27.4622 33.9999 27.8087 33.9999H30.9997C31.2757 33.9999 31.4997 34.2239 31.4997 34.4999V38.3819Z" fill="#FAB832"/>
</g>
<path d="M49.365 37.5V26.4H51.615L54.84 32.325L55.965 34.725H56.04C55.92 33.57 55.74 32.085 55.74 30.825V26.4H57.855V37.5H55.59L52.38 31.56L51.255 29.19H51.18C51.285 30.375 51.465 31.77 51.465 33.06V37.5H49.365ZM64.7104 37.71C61.7554 37.71 59.7454 35.52 59.7454 31.905C59.7454 28.29 61.7554 26.205 64.7104 26.205C67.6504 26.205 69.6604 28.305 69.6604 31.905C69.6604 35.52 67.6504 37.71 64.7104 37.71ZM64.7104 35.79C66.3604 35.79 67.4104 34.275 67.4104 31.905C67.4104 29.535 66.3604 28.11 64.7104 28.11C63.0454 28.11 62.0104 29.535 62.0104 31.905C62.0104 34.275 63.0454 35.79 64.7104 35.79ZM70.0371 37.5L72.6771 33.135L70.2171 29.115H72.5721L73.4271 30.585C73.6521 31.08 73.9071 31.545 74.1621 32.025H74.2371C74.4321 31.545 74.6421 31.08 74.8521 30.585L75.5421 29.115H77.8221L75.3621 33.375L78.0021 37.5H75.6321L74.7021 35.955C74.4321 35.475 74.1621 34.965 73.8771 34.5H73.8021C73.5621 34.965 73.3371 35.46 73.0971 35.955L72.3321 37.5H70.0371Z" fill="#767676"/>
<rect width="1" height="16" transform="translate(103 24)" fill="#D8DEE9"/>
<path d="M131.832 24.752V39H129.02V27.9941L125.641 29.0684V26.8516L131.529 24.752H131.832ZM145.822 33.6875V35.8945H135.578L135.441 34.1855L141.369 24.7812H143.605L141.183 28.834L138.234 33.6875H145.822ZM144.211 24.7812V39H141.398V24.7812H144.211ZM146.999 37.6426C146.999 37.2259 147.142 36.8776 147.429 36.5977C147.722 36.3177 148.109 36.1777 148.591 36.1777C149.073 36.1777 149.457 36.3177 149.743 36.5977C150.036 36.8776 150.183 37.2259 150.183 37.6426C150.183 38.0592 150.036 38.4076 149.743 38.6875C149.457 38.9674 149.073 39.1074 148.591 39.1074C148.109 39.1074 147.722 38.9674 147.429 38.6875C147.142 38.4076 146.999 38.0592 146.999 37.6426ZM154.593 32.5254L152.346 31.9883L153.157 24.7812H161.145V27.0566H155.471L155.12 30.2109C155.309 30.1003 155.595 29.9831 155.979 29.8594C156.363 29.7292 156.793 29.6641 157.268 29.6641C157.958 29.6641 158.57 29.7715 159.104 29.9863C159.638 30.2012 160.091 30.5137 160.462 30.9238C160.839 31.334 161.126 31.8353 161.321 32.4277C161.516 33.0202 161.614 33.6908 161.614 34.4395C161.614 35.071 161.516 35.6732 161.321 36.2461C161.126 36.8125 160.83 37.3203 160.432 37.7695C160.035 38.2122 159.537 38.5605 158.938 38.8145C158.339 39.0684 157.63 39.1953 156.809 39.1953C156.197 39.1953 155.605 39.1042 155.032 38.9219C154.466 38.7396 153.955 38.4694 153.499 38.1113C153.05 37.7533 152.688 37.3203 152.415 36.8125C152.148 36.2982 152.008 35.7122 151.995 35.0547H154.788C154.827 35.4583 154.931 35.8066 155.1 36.0996C155.276 36.3861 155.507 36.6074 155.794 36.7637C156.08 36.9199 156.415 36.998 156.8 36.998C157.158 36.998 157.464 36.9297 157.718 36.793C157.971 36.6562 158.177 36.4674 158.333 36.2266C158.489 35.9792 158.603 35.6927 158.675 35.3672C158.753 35.0352 158.792 34.6771 158.792 34.293C158.792 33.9089 158.746 33.5605 158.655 33.248C158.564 32.9355 158.424 32.6654 158.235 32.4375C158.046 32.2096 157.805 32.0339 157.513 31.9102C157.226 31.7865 156.891 31.7246 156.507 31.7246C155.986 31.7246 155.582 31.806 155.296 31.9688C155.016 32.1315 154.781 32.3171 154.593 32.5254ZM172.557 36.8027V39H162.83V37.125L167.43 32.1934C167.892 31.679 168.257 31.2266 168.524 30.8359C168.791 30.4388 168.983 30.084 169.1 29.7715C169.224 29.4525 169.286 29.1497 169.286 28.8633C169.286 28.4336 169.214 28.0658 169.071 27.7598C168.927 27.4473 168.716 27.2064 168.436 27.0371C168.162 26.8678 167.824 26.7832 167.42 26.7832C166.991 26.7832 166.62 26.8874 166.307 27.0957C166.001 27.304 165.767 27.5938 165.604 27.9648C165.448 28.3359 165.37 28.7559 165.37 29.2246H162.547C162.547 28.3783 162.749 27.6035 163.153 26.9004C163.556 26.1908 164.126 25.6276 164.862 25.2109C165.597 24.7878 166.47 24.5762 167.479 24.5762C168.475 24.5762 169.315 24.7389 169.998 25.0645C170.689 25.3835 171.209 25.8457 171.561 26.4512C171.919 27.0501 172.098 27.7663 172.098 28.5996C172.098 29.0684 172.023 29.5273 171.873 29.9766C171.724 30.4193 171.509 30.862 171.229 31.3047C170.955 31.7409 170.623 32.1836 170.233 32.6328C169.842 33.082 169.409 33.5475 168.934 34.0293L166.463 36.8027H172.557Z" fill="#242424"/>
<path d="M182.137 35.6543H179.857V34.7344H182.137C182.578 34.7344 182.936 34.6641 183.209 34.5234C183.482 34.3828 183.682 34.1875 183.807 33.9375C183.936 33.6875 184 33.4023 184 33.082C184 32.7891 183.936 32.5137 183.807 32.2559C183.682 31.998 183.482 31.791 183.209 31.6348C182.936 31.4746 182.578 31.3945 182.137 31.3945H180.121V39H178.99V30.4688H182.137C182.781 30.4688 183.326 30.5801 183.771 30.8027C184.217 31.0254 184.555 31.334 184.785 31.7285C185.016 32.1191 185.131 32.5664 185.131 33.0703C185.131 33.6172 185.016 34.084 184.785 34.4707C184.555 34.8574 184.217 35.1523 183.771 35.3555C183.326 35.5547 182.781 35.6543 182.137 35.6543ZM189.467 35.6543H187.188V34.7344H189.467C189.908 34.7344 190.266 34.6641 190.539 34.5234C190.813 34.3828 191.012 34.1875 191.137 33.9375C191.266 33.6875 191.33 33.4023 191.33 33.082C191.33 32.7891 191.266 32.5137 191.137 32.2559C191.012 31.998 190.813 31.791 190.539 31.6348C190.266 31.4746 189.908 31.3945 189.467 31.3945H187.451V39H186.321V30.4688H189.467C190.112 30.4688 190.656 30.5801 191.102 30.8027C191.547 31.0254 191.885 31.334 192.115 31.7285C192.346 32.1191 192.461 32.5664 192.461 33.0703C192.461 33.6172 192.346 34.084 192.115 34.4707C191.885 34.8574 191.547 35.1523 191.102 35.3555C190.656 35.5547 190.112 35.6543 189.467 35.6543ZM194.008 30.4688H195.104L197.899 37.4238L200.688 30.4688H201.79L198.321 39H197.465L194.008 30.4688ZM193.651 30.4688H194.618L194.776 35.6719V39H193.651V30.4688ZM201.174 30.4688H202.141V39H201.016V35.6719L201.174 30.4688Z" fill="#242424"/>
<defs>
<clipPath id="clip0_2035_6610">
<rect width="16" height="16" fill="white" transform="translate(24 24)"/>
</clipPath>
</defs>
</svg>
