<svg width="280" height="64" viewBox="0 0 280 64" fill="none" xmlns="http://www.w3.org/2000/svg">
<path d="M4 0.5H276C277.933 0.5 279.5 2.067 279.5 4V60C279.5 61.933 277.933 63.5 276 63.5H3.99999C2.067 63.5 0.5 61.933 0.5 60V4C0.5 2.067 2.067 0.5 4 0.5Z" fill="white"/>
<path d="M4 0.5H276C277.933 0.5 279.5 2.067 279.5 4V60C279.5 61.933 277.933 63.5 276 63.5H3.99999C2.067 63.5 0.5 61.933 0.5 60V4C0.5 2.067 2.067 0.5 4 0.5Z" stroke="#D8DEE9"/>
<g clip-path="url(#clip0_2035_6615)">
<path fill-rule="evenodd" clip-rule="evenodd" d="M31.4997 38.3819C31.4997 38.8454 31.8187 39.2484 32.2697 39.3549C32.7212 39.4619 33.1867 39.2439 33.3942 38.8289C34.5132 36.5909 36.3192 32.9789 37.0852 31.4469C37.2402 31.1369 37.2237 30.7689 37.0412 30.4744C36.8592 30.1794 36.5372 29.9999 36.1907 29.9999C35.3207 29.9999 33.9372 29.9999 32.9997 29.9999C32.7237 29.9999 32.4997 29.7759 32.4997 29.4999V25.6179C32.4997 25.1544 32.1807 24.7514 31.7297 24.6449C31.2782 24.5379 30.8127 24.7559 30.6052 25.1709C29.4862 27.4089 27.6802 31.0209 26.9142 32.5529C26.7592 32.8629 26.7757 33.2309 26.9582 33.5254C27.1402 33.8204 27.4622 33.9999 27.8087 33.9999H30.9997C31.2757 33.9999 31.4997 34.2239 31.4997 34.4999V38.3819Z" fill="#FAB832"/>
</g>
<path d="M51.435 33.72H53.475V38.835H51.435V33.72ZM56.235 33.72H58.275V38.835H56.235V33.72ZM48.6 32.67H61.185V34.275H48.6V32.67ZM54.855 25.41C57.825 25.41 59.88 26.625 59.88 28.53C59.88 30.405 57.825 31.62 54.855 31.62C51.9 31.62 49.845 30.405 49.845 28.53C49.845 26.625 51.9 25.41 54.855 25.41ZM54.855 27C53.04 27 51.885 27.54 51.885 28.53C51.885 29.505 53.04 30.045 54.855 30.045C56.685 30.045 57.825 29.505 57.825 28.53C57.825 27.54 56.685 27 54.855 27ZM72.4638 26.805H74.8788V28.44H72.4638V26.805ZM72.4638 29.73H74.8788V31.365H72.4638V29.73ZM71.0388 24.945H73.0338V33.315H71.0388V24.945ZM62.5938 31.125H63.7638C66.4938 31.125 68.1738 31.065 70.0938 30.705L70.2738 32.295C68.3238 32.67 66.5688 32.745 63.7638 32.745H62.5938V31.125ZM62.5788 25.77H68.9238V29.94H64.5738V32.1H62.5938V28.455H66.9588V27.345H62.5788V25.77ZM68.4738 33.555C71.3688 33.555 73.1688 34.545 73.1688 36.21C73.1688 37.875 71.3688 38.835 68.4738 38.835C65.5788 38.835 63.7638 37.875 63.7638 36.21C63.7638 34.545 65.5788 33.555 68.4738 33.555ZM68.4738 35.085C66.6738 35.085 65.7288 35.445 65.7288 36.21C65.7288 36.975 66.6738 37.335 68.4738 37.335C70.2738 37.335 71.2188 36.975 71.2188 36.21C71.2188 35.445 70.2738 35.085 68.4738 35.085Z" fill="#767676"/>
<rect width="1" height="16" transform="translate(103 24)" fill="#D8DEE9"/>
<path d="M134.703 36.8027V39H124.977V37.125L129.576 32.1934C130.038 31.679 130.403 31.2266 130.67 30.8359C130.937 30.4388 131.129 30.084 131.246 29.7715C131.37 29.4525 131.432 29.1497 131.432 28.8633C131.432 28.4336 131.36 28.0658 131.217 27.7598C131.074 27.4473 130.862 27.2064 130.582 27.0371C130.309 26.8678 129.97 26.7832 129.566 26.7832C129.137 26.7832 128.766 26.8874 128.453 27.0957C128.147 27.304 127.913 27.5938 127.75 27.9648C127.594 28.3359 127.516 28.7559 127.516 29.2246H124.693C124.693 28.3783 124.895 27.6035 125.299 26.9004C125.702 26.1908 126.272 25.6276 127.008 25.2109C127.743 24.7878 128.616 24.5762 129.625 24.5762C130.621 24.5762 131.461 24.7389 132.145 25.0645C132.835 25.3835 133.355 25.8457 133.707 26.4512C134.065 27.0501 134.244 27.7663 134.244 28.5996C134.244 29.0684 134.169 29.5273 134.02 29.9766C133.87 30.4193 133.655 30.862 133.375 31.3047C133.102 31.7409 132.77 32.1836 132.379 32.6328C131.988 33.082 131.555 33.5475 131.08 34.0293L128.609 36.8027H134.703ZM143.117 24.6348H143.527V26.8809H143.361C142.619 26.8809 141.958 26.9915 141.379 27.2129C140.799 27.4342 140.308 27.75 139.904 28.1602C139.507 28.5638 139.201 29.0521 138.986 29.625C138.778 30.1979 138.673 30.8392 138.673 31.5488V33.9121C138.673 34.4199 138.722 34.8691 138.82 35.2598C138.924 35.6439 139.071 35.9661 139.259 36.2266C139.455 36.4805 139.683 36.6725 139.943 36.8027C140.203 36.9264 140.496 36.9883 140.822 36.9883C141.128 36.9883 141.405 36.9232 141.652 36.793C141.906 36.6628 142.121 36.4805 142.296 36.2461C142.479 36.0052 142.615 35.7253 142.707 35.4062C142.804 35.0807 142.853 34.7259 142.853 34.3418C142.853 33.9577 142.804 33.6029 142.707 33.2773C142.615 32.9518 142.479 32.6719 142.296 32.4375C142.114 32.1966 141.893 32.0111 141.632 31.8809C141.372 31.7507 141.079 31.6855 140.754 31.6855C140.311 31.6855 139.92 31.7897 139.582 31.998C139.25 32.1999 138.989 32.4603 138.8 32.7793C138.612 33.0983 138.511 33.4336 138.498 33.7852L137.648 33.2383C137.668 32.737 137.772 32.2617 137.961 31.8125C138.156 31.3633 138.423 30.9661 138.761 30.6211C139.106 30.2695 139.52 29.9961 140.002 29.8008C140.483 29.599 141.027 29.498 141.632 29.498C142.296 29.498 142.879 29.625 143.38 29.8789C143.888 30.1328 144.311 30.4811 144.65 30.9238C144.989 31.3665 145.242 31.8776 145.412 32.457C145.581 33.0365 145.666 33.6549 145.666 34.3125C145.666 35.0026 145.552 35.6439 145.324 36.2363C145.102 36.8288 144.78 37.3464 144.357 37.7891C143.94 38.2318 143.439 38.5768 142.853 38.8242C142.267 39.0716 141.61 39.1953 140.88 39.1953C140.125 39.1953 139.438 39.0586 138.82 38.7852C138.208 38.5052 137.681 38.1146 137.238 37.6133C136.795 37.112 136.453 36.5163 136.212 35.8262C135.978 35.1361 135.861 34.3809 135.861 33.5605V32.4668C135.861 31.321 136.027 30.2728 136.359 29.3223C136.698 28.3652 137.183 27.5384 137.814 26.8418C138.446 26.1387 139.207 25.5951 140.099 25.2109C140.991 24.8268 141.997 24.6348 143.117 24.6348ZM156.404 24.7812V26.2949L150.905 39H147.937L153.435 26.9785H146.355V24.7812H156.404ZM157.884 37.6426C157.884 37.2259 158.027 36.8776 158.313 36.5977C158.606 36.3177 158.994 36.1777 159.475 36.1777C159.957 36.1777 160.341 36.3177 160.628 36.5977C160.921 36.8776 161.067 37.2259 161.067 37.6426C161.067 38.0592 160.921 38.4076 160.628 38.6875C160.341 38.9674 159.957 39.1074 159.475 39.1074C158.994 39.1074 158.606 38.9674 158.313 38.6875C158.027 38.4076 157.884 38.0592 157.884 37.6426ZM165.477 32.5254L163.231 31.9883L164.041 24.7812H172.03V27.0566H166.356L166.004 30.2109C166.193 30.1003 166.48 29.9831 166.864 29.8594C167.248 29.7292 167.677 29.6641 168.153 29.6641C168.843 29.6641 169.455 29.7715 169.989 29.9863C170.523 30.2012 170.975 30.5137 171.346 30.9238C171.724 31.334 172.01 31.8353 172.205 32.4277C172.401 33.0202 172.498 33.6908 172.498 34.4395C172.498 35.071 172.401 35.6732 172.205 36.2461C172.01 36.8125 171.714 37.3203 171.317 37.7695C170.92 38.2122 170.422 38.5605 169.823 38.8145C169.224 39.0684 168.514 39.1953 167.694 39.1953C167.082 39.1953 166.489 39.1042 165.916 38.9219C165.35 38.7396 164.839 38.4694 164.383 38.1113C163.934 37.7533 163.573 37.3203 163.299 36.8125C163.032 36.2982 162.892 35.7122 162.879 35.0547H165.672C165.711 35.4583 165.815 35.8066 165.985 36.0996C166.161 36.3861 166.392 36.6074 166.678 36.7637C166.965 36.9199 167.3 36.998 167.684 36.998C168.042 36.998 168.348 36.9297 168.602 36.793C168.856 36.6562 169.061 36.4674 169.217 36.2266C169.373 35.9792 169.487 35.6927 169.559 35.3672C169.637 35.0352 169.676 34.6771 169.676 34.293C169.676 33.9089 169.631 33.5605 169.539 33.248C169.448 32.9355 169.308 32.6654 169.12 32.4375C168.931 32.2096 168.69 32.0339 168.397 31.9102C168.11 31.7865 167.775 31.7246 167.391 31.7246C166.87 31.7246 166.467 31.806 166.18 31.9688C165.9 32.1315 165.666 32.3171 165.477 32.5254ZM183.295 35.1035C183.295 35.9954 183.087 36.7474 182.67 37.3594C182.253 37.9648 181.68 38.4238 180.951 38.7363C180.229 39.0423 179.408 39.1953 178.49 39.1953C177.572 39.1953 176.749 39.0423 176.02 38.7363C175.29 38.4238 174.714 37.9648 174.291 37.3594C173.868 36.7474 173.656 35.9954 173.656 35.1035C173.656 34.5046 173.777 33.9642 174.018 33.4824C174.258 32.9941 174.594 32.5775 175.023 32.2324C175.46 31.8809 175.971 31.6139 176.557 31.4316C177.143 31.2428 177.781 31.1484 178.471 31.1484C179.395 31.1484 180.222 31.3112 180.951 31.6367C181.68 31.9622 182.253 32.4212 182.67 33.0137C183.087 33.6061 183.295 34.3027 183.295 35.1035ZM180.463 34.918C180.463 34.4818 180.378 34.1074 180.209 33.7949C180.046 33.4759 179.815 33.2318 179.516 33.0625C179.216 32.8932 178.868 32.8086 178.471 32.8086C178.074 32.8086 177.725 32.8932 177.426 33.0625C177.126 33.2318 176.892 33.4759 176.723 33.7949C176.56 34.1074 176.479 34.4818 176.479 34.918C176.479 35.3477 176.56 35.7188 176.723 36.0312C176.892 36.3438 177.126 36.5846 177.426 36.7539C177.732 36.9167 178.087 36.998 178.49 36.998C178.894 36.998 179.242 36.9167 179.535 36.7539C179.835 36.5846 180.062 36.3438 180.219 36.0312C180.382 35.7188 180.463 35.3477 180.463 34.918ZM182.992 28.5508C182.992 29.2734 182.8 29.9147 182.416 30.4746C182.032 31.028 181.498 31.4609 180.814 31.7734C180.137 32.0859 179.363 32.2422 178.49 32.2422C177.611 32.2422 176.83 32.0859 176.146 31.7734C175.463 31.4609 174.929 31.028 174.545 30.4746C174.161 29.9147 173.969 29.2734 173.969 28.5508C173.969 27.6914 174.161 26.9688 174.545 26.3828C174.936 25.7904 175.469 25.3411 176.146 25.0352C176.83 24.7292 177.605 24.5762 178.471 24.5762C179.35 24.5762 180.128 24.7292 180.805 25.0352C181.488 25.3411 182.022 25.7904 182.406 26.3828C182.797 26.9688 182.992 27.6914 182.992 28.5508ZM180.18 28.6777C180.18 28.2936 180.111 27.9616 179.975 27.6816C179.838 27.3952 179.643 27.1738 179.389 27.0176C179.141 26.8613 178.835 26.7832 178.471 26.7832C178.119 26.7832 177.816 26.8581 177.562 27.0078C177.315 27.1576 177.123 27.3757 176.986 27.6621C176.856 27.9421 176.791 28.2806 176.791 28.6777C176.791 29.0618 176.856 29.4004 176.986 29.6934C177.123 29.9798 177.318 30.2044 177.572 30.3672C177.826 30.5299 178.132 30.6113 178.49 30.6113C178.848 30.6113 179.151 30.5299 179.398 30.3672C179.652 30.2044 179.844 29.9798 179.975 29.6934C180.111 29.4004 180.18 29.0618 180.18 28.6777Z" fill="#242424"/>
<path d="M193.518 37.3184C193.518 37.1621 193.482 37.0176 193.412 36.8848C193.346 36.748 193.207 36.625 192.996 36.5156C192.789 36.4023 192.477 36.3047 192.059 36.2227C191.707 36.1484 191.389 36.0605 191.104 35.959C190.822 35.8574 190.582 35.7344 190.383 35.5898C190.188 35.4453 190.037 35.2754 189.932 35.0801C189.826 34.8848 189.773 34.6562 189.773 34.3945C189.773 34.1445 189.828 33.9082 189.938 33.6855C190.051 33.4629 190.209 33.2656 190.412 33.0938C190.619 32.9219 190.867 32.7871 191.156 32.6895C191.445 32.5918 191.768 32.543 192.123 32.543C192.631 32.543 193.064 32.6328 193.424 32.8125C193.783 32.9922 194.059 33.2324 194.25 33.5332C194.441 33.8301 194.537 34.1602 194.537 34.5234H193.453C193.453 34.3477 193.4 34.1777 193.295 34.0137C193.193 33.8457 193.043 33.707 192.844 33.5977C192.648 33.4883 192.408 33.4336 192.123 33.4336C191.822 33.4336 191.578 33.4805 191.391 33.5742C191.207 33.6641 191.072 33.7793 190.986 33.9199C190.904 34.0605 190.863 34.209 190.863 34.3652C190.863 34.4824 190.883 34.5879 190.922 34.6816C190.965 34.7715 191.039 34.8555 191.145 34.9336C191.25 35.0078 191.398 35.0781 191.59 35.1445C191.781 35.2109 192.025 35.2773 192.322 35.3438C192.842 35.4609 193.27 35.6016 193.605 35.7656C193.941 35.9297 194.191 36.1309 194.355 36.3691C194.52 36.6074 194.602 36.8965 194.602 37.2363C194.602 37.5137 194.543 37.7676 194.426 37.998C194.312 38.2285 194.146 38.4277 193.928 38.5957C193.713 38.7598 193.455 38.8887 193.154 38.9824C192.857 39.0723 192.523 39.1172 192.152 39.1172C191.594 39.1172 191.121 39.0176 190.734 38.8184C190.348 38.6191 190.055 38.3613 189.855 38.0449C189.656 37.7285 189.557 37.3945 189.557 37.043H190.646C190.662 37.3398 190.748 37.5762 190.904 37.752C191.061 37.9238 191.252 38.0469 191.479 38.1211C191.705 38.1914 191.93 38.2266 192.152 38.2266C192.449 38.2266 192.697 38.1875 192.896 38.1094C193.1 38.0312 193.254 37.9238 193.359 37.7871C193.465 37.6504 193.518 37.4941 193.518 37.3184ZM196.864 33.9199V39H195.774V32.6602H196.805L196.864 33.9199ZM196.641 35.5898L196.137 35.5723C196.141 35.1387 196.198 34.7383 196.307 34.3711C196.416 34 196.578 33.6777 196.793 33.4043C197.008 33.1309 197.276 32.9199 197.596 32.7715C197.916 32.6191 198.287 32.543 198.709 32.543C199.006 32.543 199.28 32.5859 199.53 32.6719C199.78 32.7539 199.996 32.8848 200.18 33.0645C200.364 33.2441 200.506 33.4746 200.608 33.7559C200.709 34.0371 200.76 34.377 200.76 34.7754V39H199.676V34.8281C199.676 34.4961 199.619 34.2305 199.506 34.0312C199.397 33.832 199.24 33.6875 199.037 33.5977C198.834 33.5039 198.596 33.457 198.323 33.457C198.002 33.457 197.735 33.5137 197.52 33.627C197.305 33.7402 197.133 33.8965 197.004 34.0957C196.875 34.2949 196.781 34.5234 196.723 34.7812C196.668 35.0352 196.641 35.3047 196.641 35.5898ZM200.748 34.9922L200.022 35.2148C200.026 34.8672 200.082 34.5332 200.192 34.2129C200.305 33.8926 200.467 33.6074 200.678 33.3574C200.893 33.1074 201.156 32.9102 201.469 32.7656C201.781 32.6172 202.139 32.543 202.541 32.543C202.881 32.543 203.182 32.5879 203.444 32.6777C203.709 32.7676 203.932 32.9062 204.112 33.0938C204.295 33.2773 204.434 33.5137 204.528 33.8027C204.621 34.0918 204.668 34.4355 204.668 34.834V39H203.578V34.8223C203.578 34.4668 203.522 34.1914 203.408 33.9961C203.299 33.7969 203.143 33.6582 202.94 33.5801C202.74 33.498 202.502 33.457 202.225 33.457C201.987 33.457 201.776 33.498 201.592 33.5801C201.408 33.6621 201.254 33.7754 201.129 33.9199C201.004 34.0605 200.908 34.2227 200.842 34.4062C200.78 34.5898 200.748 34.7852 200.748 34.9922ZM209.245 34.3418V35.0918H205.741V34.459L207.428 32.8711C207.604 32.707 207.743 32.5605 207.844 32.4316C207.946 32.3027 208.018 32.1875 208.061 32.0859C208.108 31.9805 208.131 31.8848 208.131 31.7988C208.131 31.6113 208.069 31.457 207.944 31.3359C207.819 31.2148 207.641 31.1543 207.411 31.1543C207.118 31.1543 206.901 31.2285 206.76 31.377C206.624 31.5254 206.555 31.7109 206.555 31.9336H205.629C205.629 31.6523 205.7 31.3965 205.84 31.166C205.981 30.9355 206.182 30.752 206.444 30.6152C206.706 30.4746 207.02 30.4043 207.387 30.4043C207.739 30.4043 208.04 30.4609 208.29 30.5742C208.54 30.6875 208.731 30.8477 208.864 31.0547C208.997 31.2578 209.063 31.502 209.063 31.7871C209.063 31.9941 209.016 32.1875 208.922 32.3672C208.833 32.5469 208.704 32.7266 208.536 32.9062C208.368 33.0859 208.168 33.2793 207.938 33.4863L206.913 34.3418H209.245ZM214.009 30.4688L210.452 39.7324H209.52L213.083 30.4688H214.009ZM218.644 37.3184C218.644 37.1621 218.608 37.0176 218.538 36.8848C218.472 36.748 218.333 36.625 218.122 36.5156C217.915 36.4023 217.603 36.3047 217.185 36.2227C216.833 36.1484 216.515 36.0605 216.229 35.959C215.948 35.8574 215.708 35.7344 215.509 35.5898C215.313 35.4453 215.163 35.2754 215.058 35.0801C214.952 34.8848 214.899 34.6562 214.899 34.3945C214.899 34.1445 214.954 33.9082 215.063 33.6855C215.177 33.4629 215.335 33.2656 215.538 33.0938C215.745 32.9219 215.993 32.7871 216.282 32.6895C216.571 32.5918 216.894 32.543 217.249 32.543C217.757 32.543 218.19 32.6328 218.55 32.8125C218.909 32.9922 219.185 33.2324 219.376 33.5332C219.567 33.8301 219.663 34.1602 219.663 34.5234H218.579C218.579 34.3477 218.526 34.1777 218.421 34.0137C218.319 33.8457 218.169 33.707 217.97 33.5977C217.774 33.4883 217.534 33.4336 217.249 33.4336C216.948 33.4336 216.704 33.4805 216.517 33.5742C216.333 33.6641 216.198 33.7793 216.112 33.9199C216.03 34.0605 215.989 34.209 215.989 34.3652C215.989 34.4824 216.009 34.5879 216.048 34.6816C216.091 34.7715 216.165 34.8555 216.27 34.9336C216.376 35.0078 216.524 35.0781 216.716 35.1445C216.907 35.2109 217.151 35.2773 217.448 35.3438C217.968 35.4609 218.395 35.6016 218.731 35.7656C219.067 35.9297 219.317 36.1309 219.481 36.3691C219.645 36.6074 219.728 36.8965 219.728 37.2363C219.728 37.5137 219.669 37.7676 219.552 37.998C219.438 38.2285 219.272 38.4277 219.054 38.5957C218.839 38.7598 218.581 38.8887 218.28 38.9824C217.983 39.0723 217.649 39.1172 217.278 39.1172C216.72 39.1172 216.247 39.0176 215.86 38.8184C215.474 38.6191 215.181 38.3613 214.981 38.0449C214.782 37.7285 214.683 37.3945 214.683 37.043H215.772C215.788 37.3398 215.874 37.5762 216.03 37.752C216.186 37.9238 216.378 38.0469 216.604 38.1211C216.831 38.1914 217.056 38.2266 217.278 38.2266C217.575 38.2266 217.823 38.1875 218.022 38.1094C218.226 38.0312 218.38 37.9238 218.485 37.7871C218.591 37.6504 218.644 37.4941 218.644 37.3184ZM221.989 33.9199V39H220.9V32.6602H221.931L221.989 33.9199ZM221.767 35.5898L221.263 35.5723C221.267 35.1387 221.323 34.7383 221.433 34.3711C221.542 34 221.704 33.6777 221.919 33.4043C222.134 33.1309 222.402 32.9199 222.722 32.7715C223.042 32.6191 223.413 32.543 223.835 32.543C224.132 32.543 224.405 32.5859 224.655 32.6719C224.905 32.7539 225.122 32.8848 225.306 33.0645C225.489 33.2441 225.632 33.4746 225.734 33.7559C225.835 34.0371 225.886 34.377 225.886 34.7754V39H224.802V34.8281C224.802 34.4961 224.745 34.2305 224.632 34.0312C224.523 33.832 224.366 33.6875 224.163 33.5977C223.96 33.5039 223.722 33.457 223.448 33.457C223.128 33.457 222.861 33.5137 222.646 33.627C222.431 33.7402 222.259 33.8965 222.13 34.0957C222.001 34.2949 221.907 34.5234 221.849 34.7812C221.794 35.0352 221.767 35.3047 221.767 35.5898ZM225.874 34.9922L225.148 35.2148C225.152 34.8672 225.208 34.5332 225.318 34.2129C225.431 33.8926 225.593 33.6074 225.804 33.3574C226.019 33.1074 226.282 32.9102 226.595 32.7656C226.907 32.6172 227.265 32.543 227.667 32.543C228.007 32.543 228.308 32.5879 228.57 32.6777C228.835 32.7676 229.058 32.9062 229.237 33.0938C229.421 33.2773 229.56 33.5137 229.654 33.8027C229.747 34.0918 229.794 34.4355 229.794 34.834V39H228.704V34.8223C228.704 34.4668 228.648 34.1914 228.534 33.9961C228.425 33.7969 228.269 33.6582 228.066 33.5801C227.866 33.498 227.628 33.457 227.351 33.457C227.112 33.457 226.902 33.498 226.718 33.5801C226.534 33.6621 226.38 33.7754 226.255 33.9199C226.13 34.0605 226.034 34.2227 225.968 34.4062C225.905 34.5898 225.874 34.7852 225.874 34.9922Z" fill="#242424"/>
<defs>
<clipPath id="clip0_2035_6615">
<rect width="16" height="16" fill="white" transform="translate(24 24)"/>
</clipPath>
</defs>
</svg>
