<svg width="280" height="64" viewBox="0 0 280 64" fill="none" xmlns="http://www.w3.org/2000/svg">
<path d="M0.5 4C0.5 2.067 2.067 0.5 4 0.5H276C277.933 0.5 279.5 2.067 279.5 4V60C279.5 61.933 277.933 63.5 276 63.5H3.99999C2.067 63.5 0.5 61.933 0.5 60V4Z" fill="white"/>
<path d="M0.5 4C0.5 2.067 2.067 0.5 4 0.5H276C277.933 0.5 279.5 2.067 279.5 4V60C279.5 61.933 277.933 63.5 276 63.5H3.99999C2.067 63.5 0.5 61.933 0.5 60V4Z" stroke="#D8DEE9"/>
<g clip-path="url(#clip0_2035_6613)">
<path fill-rule="evenodd" clip-rule="evenodd" d="M31.4997 38.3819C31.4997 38.8454 31.8187 39.2484 32.2697 39.3549C32.7212 39.4619 33.1867 39.2439 33.3942 38.8289C34.5132 36.5909 36.3192 32.9789 37.0852 31.4469C37.2402 31.1369 37.2237 30.7689 37.0412 30.4744C36.8592 30.1794 36.5372 29.9999 36.1907 29.9999C35.3207 29.9999 33.9372 29.9999 32.9997 29.9999C32.7237 29.9999 32.4997 29.7759 32.4997 29.4999V25.6179C32.4997 25.1544 32.1807 24.7514 31.7297 24.6449C31.2782 24.5379 30.8127 24.7559 30.6052 25.1709C29.4862 27.4089 27.6802 31.0209 26.9142 32.5529C26.7592 32.8629 26.7757 33.2309 26.9582 33.5254C27.1402 33.8204 27.4622 33.9999 27.8087 33.9999H30.9997C31.2757 33.9999 31.4997 34.2239 31.4997 34.4999V38.3819Z" fill="#FAB832"/>
</g>
<path d="M52.68 37.71C51.18 37.71 49.71 37.14 48.63 36.105L49.905 34.575C50.685 35.31 51.75 35.79 52.725 35.79C53.88 35.79 54.48 35.295 54.48 34.53C54.48 33.705 53.805 33.435 52.815 33.015L51.33 32.385C50.22 31.935 49.08 31.02 49.08 29.415C49.08 27.6 50.685 26.205 52.92 26.205C54.21 26.205 55.5 26.715 56.4 27.63L55.29 29.025C54.57 28.44 53.835 28.11 52.92 28.11C51.945 28.11 51.33 28.545 51.33 29.265C51.33 30.06 52.125 30.36 53.07 30.735L54.525 31.335C55.86 31.89 56.745 32.76 56.745 34.35C56.745 36.165 55.23 37.71 52.68 37.71ZM60.3004 37.71C58.8004 37.71 57.8254 36.66 57.8254 35.22C57.8254 33.435 59.2804 32.49 62.6554 32.115C62.6104 31.29 62.2654 30.675 61.2304 30.675C60.4504 30.675 59.6854 31.005 58.9204 31.47L58.1254 30C59.1154 29.4 60.3004 28.905 61.6354 28.905C63.7654 28.905 64.8604 30.165 64.8604 32.61V37.5H63.0604L62.8954 36.615H62.8354C62.1004 37.245 61.2604 37.71 60.3004 37.71ZM61.0204 35.985C61.6504 35.985 62.1154 35.7 62.6554 35.175V33.48C60.6004 33.735 59.9254 34.29 59.9254 35.055C59.9254 35.7 60.3754 35.985 61.0204 35.985ZM65.8477 37.5L68.4877 33.135L66.0277 29.115H68.3827L69.2377 30.585C69.4627 31.08 69.7177 31.545 69.9727 32.025H70.0477C70.2427 31.545 70.4527 31.08 70.6627 30.585L71.3527 29.115H73.6327L71.1727 33.375L73.8127 37.5H71.4427L70.5127 35.955C70.2427 35.475 69.9727 34.965 69.6877 34.5H69.6127C69.3727 34.965 69.1477 35.46 68.9077 35.955L68.1427 37.5H65.8477Z" fill="#767676"/>
<rect width="1" height="16" transform="translate(103 24)" fill="#D8DEE9"/>
<path d="M134.557 35.1035C134.557 35.9954 134.348 36.7474 133.932 37.3594C133.515 37.9648 132.942 38.4238 132.213 38.7363C131.49 39.0423 130.67 39.1953 129.752 39.1953C128.834 39.1953 128.01 39.0423 127.281 38.7363C126.552 38.4238 125.976 37.9648 125.553 37.3594C125.13 36.7474 124.918 35.9954 124.918 35.1035C124.918 34.5046 125.038 33.9642 125.279 33.4824C125.52 32.9941 125.855 32.5775 126.285 32.2324C126.721 31.8809 127.232 31.6139 127.818 31.4316C128.404 31.2428 129.042 31.1484 129.732 31.1484C130.657 31.1484 131.484 31.3112 132.213 31.6367C132.942 31.9622 133.515 32.4212 133.932 33.0137C134.348 33.6061 134.557 34.3027 134.557 35.1035ZM131.725 34.918C131.725 34.4818 131.64 34.1074 131.471 33.7949C131.308 33.4759 131.077 33.2318 130.777 33.0625C130.478 32.8932 130.13 32.8086 129.732 32.8086C129.335 32.8086 128.987 32.8932 128.688 33.0625C128.388 33.2318 128.154 33.4759 127.984 33.7949C127.822 34.1074 127.74 34.4818 127.74 34.918C127.74 35.3477 127.822 35.7188 127.984 36.0312C128.154 36.3438 128.388 36.5846 128.688 36.7539C128.993 36.9167 129.348 36.998 129.752 36.998C130.156 36.998 130.504 36.9167 130.797 36.7539C131.096 36.5846 131.324 36.3438 131.48 36.0312C131.643 35.7188 131.725 35.3477 131.725 34.918ZM134.254 28.5508C134.254 29.2734 134.062 29.9147 133.678 30.4746C133.294 31.028 132.76 31.4609 132.076 31.7734C131.399 32.0859 130.624 32.2422 129.752 32.2422C128.873 32.2422 128.092 32.0859 127.408 31.7734C126.725 31.4609 126.191 31.028 125.807 30.4746C125.423 29.9147 125.23 29.2734 125.23 28.5508C125.23 27.6914 125.423 26.9688 125.807 26.3828C126.197 25.7904 126.731 25.3411 127.408 25.0352C128.092 24.7292 128.867 24.5762 129.732 24.5762C130.611 24.5762 131.389 24.7292 132.066 25.0352C132.75 25.3411 133.284 25.7904 133.668 26.3828C134.059 26.9688 134.254 27.6914 134.254 28.5508ZM131.441 28.6777C131.441 28.2936 131.373 27.9616 131.236 27.6816C131.1 27.3952 130.904 27.1738 130.65 27.0176C130.403 26.8613 130.097 26.7832 129.732 26.7832C129.381 26.7832 129.078 26.8581 128.824 27.0078C128.577 27.1576 128.385 27.3757 128.248 27.6621C128.118 27.9421 128.053 28.2806 128.053 28.6777C128.053 29.0618 128.118 29.4004 128.248 29.6934C128.385 29.9798 128.58 30.2044 128.834 30.3672C129.088 30.5299 129.394 30.6113 129.752 30.6113C130.11 30.6113 130.413 30.5299 130.66 30.3672C130.914 30.2044 131.106 29.9798 131.236 29.6934C131.373 29.4004 131.441 29.0618 131.441 28.6777ZM136.115 37.6426C136.115 37.2259 136.258 36.8776 136.545 36.5977C136.837 36.3177 137.225 36.1777 137.707 36.1777C138.188 36.1777 138.573 36.3177 138.859 36.5977C139.152 36.8776 139.298 37.2259 139.298 37.6426C139.298 38.0592 139.152 38.4076 138.859 38.6875C138.573 38.9674 138.188 39.1074 137.707 39.1074C137.225 39.1074 136.837 38.9674 136.545 38.6875C136.258 38.4076 136.115 38.0592 136.115 37.6426ZM143.708 32.5254L141.462 31.9883L142.273 24.7812H150.261V27.0566H144.587L144.236 30.2109C144.424 30.1003 144.711 29.9831 145.095 29.8594C145.479 29.7292 145.909 29.6641 146.384 29.6641C147.074 29.6641 147.686 29.7715 148.22 29.9863C148.754 30.2012 149.206 30.5137 149.577 30.9238C149.955 31.334 150.241 31.8353 150.437 32.4277C150.632 33.0202 150.73 33.6908 150.73 34.4395C150.73 35.071 150.632 35.6732 150.437 36.2461C150.241 36.8125 149.945 37.3203 149.548 37.7695C149.151 38.2122 148.653 38.5605 148.054 38.8145C147.455 39.0684 146.745 39.1953 145.925 39.1953C145.313 39.1953 144.721 39.1042 144.148 38.9219C143.581 38.7396 143.07 38.4694 142.614 38.1113C142.165 37.7533 141.804 37.3203 141.53 36.8125C141.264 36.2982 141.124 35.7122 141.111 35.0547H143.904C143.943 35.4583 144.047 35.8066 144.216 36.0996C144.392 36.3861 144.623 36.6074 144.909 36.7637C145.196 36.9199 145.531 36.998 145.915 36.998C146.273 36.998 146.579 36.9297 146.833 36.793C147.087 36.6562 147.292 36.4674 147.448 36.2266C147.605 35.9792 147.719 35.6927 147.79 35.3672C147.868 35.0352 147.907 34.6771 147.907 34.293C147.907 33.9089 147.862 33.5605 147.771 33.248C147.68 32.9355 147.54 32.6654 147.351 32.4375C147.162 32.2096 146.921 32.0339 146.628 31.9102C146.342 31.7865 146.006 31.7246 145.622 31.7246C145.101 31.7246 144.698 31.806 144.411 31.9688C144.131 32.1315 143.897 32.3171 143.708 32.5254Z" fill="#242424"/>
<path d="M160.137 35.6543H157.857V34.7344H160.137C160.578 34.7344 160.936 34.6641 161.209 34.5234C161.482 34.3828 161.682 34.1875 161.807 33.9375C161.936 33.6875 162 33.4023 162 33.082C162 32.7891 161.936 32.5137 161.807 32.2559C161.682 31.998 161.482 31.791 161.209 31.6348C160.936 31.4746 160.578 31.3945 160.137 31.3945H158.121V39H156.99V30.4688H160.137C160.781 30.4688 161.326 30.5801 161.771 30.8027C162.217 31.0254 162.555 31.334 162.785 31.7285C163.016 32.1191 163.131 32.5664 163.131 33.0703C163.131 33.6172 163.016 34.084 162.785 34.4707C162.555 34.8574 162.217 35.1523 161.771 35.3555C161.326 35.5547 160.781 35.6543 160.137 35.6543ZM167.467 35.6543H165.188V34.7344H167.467C167.908 34.7344 168.266 34.6641 168.539 34.5234C168.813 34.3828 169.012 34.1875 169.137 33.9375C169.266 33.6875 169.33 33.4023 169.33 33.082C169.33 32.7891 169.266 32.5137 169.137 32.2559C169.012 31.998 168.813 31.791 168.539 31.6348C168.266 31.4746 167.908 31.3945 167.467 31.3945H165.451V39H164.321V30.4688H167.467C168.112 30.4688 168.656 30.5801 169.102 30.8027C169.547 31.0254 169.885 31.334 170.115 31.7285C170.346 32.1191 170.461 32.5664 170.461 33.0703C170.461 33.6172 170.346 34.084 170.115 34.4707C169.885 34.8574 169.547 35.1523 169.102 35.3555C168.656 35.5547 168.112 35.6543 167.467 35.6543ZM172.008 30.4688H173.104L175.899 37.4238L178.688 30.4688H179.79L176.321 39H175.465L172.008 30.4688ZM171.651 30.4688H172.618L172.776 35.6719V39H171.651V30.4688ZM179.174 30.4688H180.141V39H179.016V35.6719L179.174 30.4688Z" fill="#242424"/>
<defs>
<clipPath id="clip0_2035_6613">
<rect width="16" height="16" fill="white" transform="translate(24 24)"/>
</clipPath>
</defs>
</svg>
