<svg width="280" height="64" viewBox="0 0 280 64" fill="none" xmlns="http://www.w3.org/2000/svg">
<path d="M4 0.5H276C277.933 0.5 279.5 2.067 279.5 4V60C279.5 61.933 277.933 63.5 276 63.5H3.99999C2.067 63.5 0.5 61.933 0.5 60V4C0.5 2.067 2.067 0.5 4 0.5Z" fill="white"/>
<path d="M4 0.5H276C277.933 0.5 279.5 2.067 279.5 4V60C279.5 61.933 277.933 63.5 276 63.5H3.99999C2.067 63.5 0.5 61.933 0.5 60V4C0.5 2.067 2.067 0.5 4 0.5Z" stroke="#D8DEE9"/>
<g clip-path="url(#clip0_2035_6614)">
<path fill-rule="evenodd" clip-rule="evenodd" d="M31.4997 38.3819C31.4997 38.8454 31.8187 39.2484 32.2697 39.3549C32.7212 39.4619 33.1867 39.2439 33.3942 38.8289C34.5132 36.5909 36.3192 32.9789 37.0852 31.4469C37.2402 31.1369 37.2237 30.7689 37.0412 30.4744C36.8592 30.1794 36.5372 29.9999 36.1907 29.9999C35.3207 29.9999 33.9372 29.9999 32.9997 29.9999C32.7237 29.9999 32.4997 29.7759 32.4997 29.4999V25.6179C32.4997 25.1544 32.1807 24.7514 31.7297 24.6449C31.2782 24.5379 30.8127 24.7559 30.6052 25.1709C29.4862 27.4089 27.6802 31.0209 26.9142 32.5529C26.7592 32.8629 26.7757 33.2309 26.9582 33.5254C27.1402 33.8204 27.4622 33.9999 27.8087 33.9999H30.9997C31.2757 33.9999 31.4997 34.2239 31.4997 34.4999V38.3819Z" fill="#FAB832"/>
</g>
<path d="M49.365 37.5V26.4H52.41C55.8 26.4 57.885 28.155 57.885 31.905C57.885 35.64 55.8 37.5 52.53 37.5H49.365ZM51.585 35.715H52.26C54.345 35.715 55.62 34.605 55.62 31.905C55.62 29.205 54.345 28.17 52.26 28.17H51.585V35.715ZM64.033 37.71C61.318 37.71 59.713 36.195 59.713 32.52V26.4H61.918V32.715C61.918 35.01 62.728 35.79 64.033 35.79C65.338 35.79 66.193 35.01 66.193 32.715V26.4H68.323V32.52C68.323 36.195 66.748 37.71 64.033 37.71ZM73.7597 37.71C72.2597 37.71 70.7897 37.14 69.7097 36.105L70.9847 34.575C71.7647 35.31 72.8297 35.79 73.8047 35.79C74.9597 35.79 75.5597 35.295 75.5597 34.53C75.5597 33.705 74.8847 33.435 73.8947 33.015L72.4097 32.385C71.2997 31.935 70.1597 31.02 70.1597 29.415C70.1597 27.6 71.7647 26.205 73.9997 26.205C75.2897 26.205 76.5797 26.715 77.4797 27.63L76.3697 29.025C75.6497 28.44 74.9147 28.11 73.9997 28.11C73.0247 28.11 72.4097 28.545 72.4097 29.265C72.4097 30.06 73.2047 30.36 74.1497 30.735L75.6047 31.335C76.9397 31.89 77.8247 32.76 77.8247 34.35C77.8247 36.165 76.3097 37.71 73.7597 37.71ZM81.2852 37.5V28.245H78.1502V26.4H86.6402V28.245H83.5052V37.5H81.2852Z" fill="#767676"/>
<rect width="1" height="16" transform="translate(103 24)" fill="#D8DEE9"/>
<path d="M131.832 24.752V39H129.02V27.9941L125.641 29.0684V26.8516L131.529 24.752H131.832ZM138.507 32.5254L136.261 31.9883L137.072 24.7812H145.06V27.0566H139.386L139.035 30.2109C139.224 30.1003 139.51 29.9831 139.894 29.8594C140.278 29.7292 140.708 29.6641 141.183 29.6641C141.873 29.6641 142.485 29.7715 143.019 29.9863C143.553 30.2012 144.005 30.5137 144.377 30.9238C144.754 31.334 145.041 31.8353 145.236 32.4277C145.431 33.0202 145.529 33.6908 145.529 34.4395C145.529 35.071 145.431 35.6732 145.236 36.2461C145.041 36.8125 144.744 37.3203 144.347 37.7695C143.95 38.2122 143.452 38.5605 142.853 38.8145C142.254 39.0684 141.545 39.1953 140.724 39.1953C140.112 39.1953 139.52 39.1042 138.947 38.9219C138.38 38.7396 137.869 38.4694 137.414 38.1113C136.964 37.7533 136.603 37.3203 136.33 36.8125C136.063 36.2982 135.923 35.7122 135.91 35.0547H138.703C138.742 35.4583 138.846 35.8066 139.015 36.0996C139.191 36.3861 139.422 36.6074 139.709 36.7637C139.995 36.9199 140.33 36.998 140.714 36.998C141.073 36.998 141.379 36.9297 141.632 36.793C141.886 36.6562 142.091 36.4674 142.248 36.2266C142.404 35.9792 142.518 35.6927 142.589 35.3672C142.668 35.0352 142.707 34.6771 142.707 34.293C142.707 33.9089 142.661 33.5605 142.57 33.248C142.479 32.9355 142.339 32.6654 142.15 32.4375C141.961 32.2096 141.72 32.0339 141.427 31.9102C141.141 31.7865 140.806 31.7246 140.421 31.7246C139.901 31.7246 139.497 31.806 139.211 31.9688C138.931 32.1315 138.696 32.3171 138.507 32.5254Z" fill="#242424"/>
<path d="M155.518 37.3184C155.518 37.1621 155.482 37.0176 155.412 36.8848C155.346 36.748 155.207 36.625 154.996 36.5156C154.789 36.4023 154.477 36.3047 154.059 36.2227C153.707 36.1484 153.389 36.0605 153.104 35.959C152.822 35.8574 152.582 35.7344 152.383 35.5898C152.188 35.4453 152.037 35.2754 151.932 35.0801C151.826 34.8848 151.773 34.6562 151.773 34.3945C151.773 34.1445 151.828 33.9082 151.938 33.6855C152.051 33.4629 152.209 33.2656 152.412 33.0938C152.619 32.9219 152.867 32.7871 153.156 32.6895C153.445 32.5918 153.768 32.543 154.123 32.543C154.631 32.543 155.064 32.6328 155.424 32.8125C155.783 32.9922 156.059 33.2324 156.25 33.5332C156.441 33.8301 156.537 34.1602 156.537 34.5234H155.453C155.453 34.3477 155.4 34.1777 155.295 34.0137C155.193 33.8457 155.043 33.707 154.844 33.5977C154.648 33.4883 154.408 33.4336 154.123 33.4336C153.822 33.4336 153.578 33.4805 153.391 33.5742C153.207 33.6641 153.072 33.7793 152.986 33.9199C152.904 34.0605 152.863 34.209 152.863 34.3652C152.863 34.4824 152.883 34.5879 152.922 34.6816C152.965 34.7715 153.039 34.8555 153.145 34.9336C153.25 35.0078 153.398 35.0781 153.59 35.1445C153.781 35.2109 154.025 35.2773 154.322 35.3438C154.842 35.4609 155.27 35.6016 155.605 35.7656C155.941 35.9297 156.191 36.1309 156.355 36.3691C156.52 36.6074 156.602 36.8965 156.602 37.2363C156.602 37.5137 156.543 37.7676 156.426 37.998C156.312 38.2285 156.146 38.4277 155.928 38.5957C155.713 38.7598 155.455 38.8887 155.154 38.9824C154.857 39.0723 154.523 39.1172 154.152 39.1172C153.594 39.1172 153.121 39.0176 152.734 38.8184C152.348 38.6191 152.055 38.3613 151.855 38.0449C151.656 37.7285 151.557 37.3945 151.557 37.043H152.646C152.662 37.3398 152.748 37.5762 152.904 37.752C153.061 37.9238 153.252 38.0469 153.479 38.1211C153.705 38.1914 153.93 38.2266 154.152 38.2266C154.449 38.2266 154.697 38.1875 154.896 38.1094C155.1 38.0312 155.254 37.9238 155.359 37.7871C155.465 37.6504 155.518 37.4941 155.518 37.3184ZM158.864 33.9199V39H157.774V32.6602H158.805L158.864 33.9199ZM158.641 35.5898L158.137 35.5723C158.141 35.1387 158.198 34.7383 158.307 34.3711C158.416 34 158.578 33.6777 158.793 33.4043C159.008 33.1309 159.276 32.9199 159.596 32.7715C159.916 32.6191 160.287 32.543 160.709 32.543C161.006 32.543 161.28 32.5859 161.53 32.6719C161.78 32.7539 161.996 32.8848 162.18 33.0645C162.364 33.2441 162.506 33.4746 162.608 33.7559C162.709 34.0371 162.76 34.377 162.76 34.7754V39H161.676V34.8281C161.676 34.4961 161.619 34.2305 161.506 34.0312C161.397 33.832 161.24 33.6875 161.037 33.5977C160.834 33.5039 160.596 33.457 160.323 33.457C160.002 33.457 159.735 33.5137 159.52 33.627C159.305 33.7402 159.133 33.8965 159.004 34.0957C158.875 34.2949 158.781 34.5234 158.723 34.7812C158.668 35.0352 158.641 35.3047 158.641 35.5898ZM162.748 34.9922L162.022 35.2148C162.026 34.8672 162.082 34.5332 162.192 34.2129C162.305 33.8926 162.467 33.6074 162.678 33.3574C162.893 33.1074 163.156 32.9102 163.469 32.7656C163.781 32.6172 164.139 32.543 164.541 32.543C164.881 32.543 165.182 32.5879 165.444 32.6777C165.709 32.7676 165.932 32.9062 166.112 33.0938C166.295 33.2773 166.434 33.5137 166.528 33.8027C166.621 34.0918 166.668 34.4355 166.668 34.834V39H165.578V34.8223C165.578 34.4668 165.522 34.1914 165.408 33.9961C165.299 33.7969 165.143 33.6582 164.94 33.5801C164.74 33.498 164.502 33.457 164.225 33.457C163.987 33.457 163.776 33.498 163.592 33.5801C163.408 33.6621 163.254 33.7754 163.129 33.9199C163.004 34.0605 162.908 34.2227 162.842 34.4062C162.78 34.5898 162.748 34.7852 162.748 34.9922ZM171.245 34.3418V35.0918H167.741V34.459L169.428 32.8711C169.604 32.707 169.743 32.5605 169.844 32.4316C169.946 32.3027 170.018 32.1875 170.061 32.0859C170.108 31.9805 170.131 31.8848 170.131 31.7988C170.131 31.6113 170.069 31.457 169.944 31.3359C169.819 31.2148 169.641 31.1543 169.411 31.1543C169.118 31.1543 168.901 31.2285 168.76 31.377C168.624 31.5254 168.555 31.7109 168.555 31.9336H167.629C167.629 31.6523 167.7 31.3965 167.84 31.166C167.981 30.9355 168.182 30.752 168.444 30.6152C168.706 30.4746 169.02 30.4043 169.387 30.4043C169.739 30.4043 170.04 30.4609 170.29 30.5742C170.54 30.6875 170.731 30.8477 170.864 31.0547C170.997 31.2578 171.063 31.502 171.063 31.7871C171.063 31.9941 171.016 32.1875 170.922 32.3672C170.833 32.5469 170.704 32.7266 170.536 32.9062C170.368 33.0859 170.168 33.2793 169.938 33.4863L168.913 34.3418H171.245ZM176.009 30.4688L172.452 39.7324H171.52L175.083 30.4688H176.009ZM180.644 37.3184C180.644 37.1621 180.608 37.0176 180.538 36.8848C180.472 36.748 180.333 36.625 180.122 36.5156C179.915 36.4023 179.603 36.3047 179.185 36.2227C178.833 36.1484 178.515 36.0605 178.229 35.959C177.948 35.8574 177.708 35.7344 177.509 35.5898C177.313 35.4453 177.163 35.2754 177.058 35.0801C176.952 34.8848 176.899 34.6562 176.899 34.3945C176.899 34.1445 176.954 33.9082 177.063 33.6855C177.177 33.4629 177.335 33.2656 177.538 33.0938C177.745 32.9219 177.993 32.7871 178.282 32.6895C178.571 32.5918 178.894 32.543 179.249 32.543C179.757 32.543 180.19 32.6328 180.55 32.8125C180.909 32.9922 181.185 33.2324 181.376 33.5332C181.567 33.8301 181.663 34.1602 181.663 34.5234H180.579C180.579 34.3477 180.526 34.1777 180.421 34.0137C180.319 33.8457 180.169 33.707 179.97 33.5977C179.774 33.4883 179.534 33.4336 179.249 33.4336C178.948 33.4336 178.704 33.4805 178.517 33.5742C178.333 33.6641 178.198 33.7793 178.112 33.9199C178.03 34.0605 177.989 34.209 177.989 34.3652C177.989 34.4824 178.009 34.5879 178.048 34.6816C178.091 34.7715 178.165 34.8555 178.27 34.9336C178.376 35.0078 178.524 35.0781 178.716 35.1445C178.907 35.2109 179.151 35.2773 179.448 35.3438C179.968 35.4609 180.395 35.6016 180.731 35.7656C181.067 35.9297 181.317 36.1309 181.481 36.3691C181.645 36.6074 181.728 36.8965 181.728 37.2363C181.728 37.5137 181.669 37.7676 181.552 37.998C181.438 38.2285 181.272 38.4277 181.054 38.5957C180.839 38.7598 180.581 38.8887 180.28 38.9824C179.983 39.0723 179.649 39.1172 179.278 39.1172C178.72 39.1172 178.247 39.0176 177.86 38.8184C177.474 38.6191 177.181 38.3613 176.981 38.0449C176.782 37.7285 176.683 37.3945 176.683 37.043H177.772C177.788 37.3398 177.874 37.5762 178.03 37.752C178.186 37.9238 178.378 38.0469 178.604 38.1211C178.831 38.1914 179.056 38.2266 179.278 38.2266C179.575 38.2266 179.823 38.1875 180.022 38.1094C180.226 38.0312 180.38 37.9238 180.485 37.7871C180.591 37.6504 180.644 37.4941 180.644 37.3184ZM183.989 33.9199V39H182.9V32.6602H183.931L183.989 33.9199ZM183.767 35.5898L183.263 35.5723C183.267 35.1387 183.323 34.7383 183.433 34.3711C183.542 34 183.704 33.6777 183.919 33.4043C184.134 33.1309 184.402 32.9199 184.722 32.7715C185.042 32.6191 185.413 32.543 185.835 32.543C186.132 32.543 186.405 32.5859 186.655 32.6719C186.905 32.7539 187.122 32.8848 187.306 33.0645C187.489 33.2441 187.632 33.4746 187.734 33.7559C187.835 34.0371 187.886 34.377 187.886 34.7754V39H186.802V34.8281C186.802 34.4961 186.745 34.2305 186.632 34.0312C186.523 33.832 186.366 33.6875 186.163 33.5977C185.96 33.5039 185.722 33.457 185.448 33.457C185.128 33.457 184.861 33.5137 184.646 33.627C184.431 33.7402 184.259 33.8965 184.13 34.0957C184.001 34.2949 183.907 34.5234 183.849 34.7812C183.794 35.0352 183.767 35.3047 183.767 35.5898ZM187.874 34.9922L187.148 35.2148C187.152 34.8672 187.208 34.5332 187.318 34.2129C187.431 33.8926 187.593 33.6074 187.804 33.3574C188.019 33.1074 188.282 32.9102 188.595 32.7656C188.907 32.6172 189.265 32.543 189.667 32.543C190.007 32.543 190.308 32.5879 190.57 32.6777C190.835 32.7676 191.058 32.9062 191.237 33.0938C191.421 33.2773 191.56 33.5137 191.654 33.8027C191.747 34.0918 191.794 34.4355 191.794 34.834V39H190.704V34.8223C190.704 34.4668 190.648 34.1914 190.534 33.9961C190.425 33.7969 190.269 33.6582 190.066 33.5801C189.866 33.498 189.628 33.457 189.351 33.457C189.112 33.457 188.902 33.498 188.718 33.5801C188.534 33.6621 188.38 33.7754 188.255 33.9199C188.13 34.0605 188.034 34.2227 187.968 34.4062C187.905 34.5898 187.874 34.7852 187.874 34.9922Z" fill="#242424"/>
<defs>
<clipPath id="clip0_2035_6614">
<rect width="16" height="16" fill="white" transform="translate(24 24)"/>
</clipPath>
</defs>
</svg>
