<svg width="280" height="64" viewBox="0 0 280 64" fill="none" xmlns="http://www.w3.org/2000/svg">
<path d="M4 0.5H276C277.933 0.5 279.5 2.067 279.5 4V60C279.5 61.933 277.933 63.5 276 63.5H3.99999C2.067 63.5 0.5 61.933 0.5 60V4C0.5 2.067 2.067 0.5 4 0.5Z" fill="white"/>
<path d="M4 0.5H276C277.933 0.5 279.5 2.067 279.5 4V60C279.5 61.933 277.933 63.5 276 63.5H3.99999C2.067 63.5 0.5 61.933 0.5 60V4C0.5 2.067 2.067 0.5 4 0.5Z" stroke="#D8DEE9"/>
<g clip-path="url(#clip0_2035_6612)">
<path fill-rule="evenodd" clip-rule="evenodd" d="M31.4997 38.3819C31.4997 38.8454 31.8187 39.2484 32.2697 39.3549C32.7212 39.4619 33.1867 39.2439 33.3942 38.8289C34.5132 36.5909 36.3192 32.9789 37.0852 31.4469C37.2402 31.1369 37.2237 30.7689 37.0412 30.4744C36.8592 30.1794 36.5372 29.9999 36.1907 29.9999C35.3207 29.9999 33.9372 29.9999 32.9997 29.9999C32.7237 29.9999 32.4997 29.7759 32.4997 29.4999V25.6179C32.4997 25.1544 32.1807 24.7514 31.7297 24.6449C31.2782 24.5379 30.8127 24.7559 30.6052 25.1709C29.4862 27.4089 27.6802 31.0209 26.9142 32.5529C26.7592 32.8629 26.7757 33.2309 26.9582 33.5254C27.1402 33.8204 27.4622 33.9999 27.8087 33.9999H30.9997C31.2757 33.9999 31.4997 34.2239 31.4997 34.4999V38.3819Z" fill="#FAB832"/>
</g>
<path d="M48.6 32.085H61.155V33.675H48.6V32.085ZM53.865 30.135H55.86V32.805H53.865V30.135ZM50.115 37.005H59.745V38.595H50.115V37.005ZM50.115 34.56H52.11V37.545H50.115V34.56ZM54.885 25.29C57.9 25.29 59.91 26.4 59.91 28.155C59.91 29.94 57.9 31.02 54.885 31.02C51.855 31.02 49.86 29.94 49.86 28.155C49.86 26.4 51.855 25.29 54.885 25.29ZM54.885 26.88C53.01 26.88 51.915 27.315 51.915 28.155C51.915 29.01 53.01 29.43 54.885 29.43C56.76 29.43 57.855 29.01 57.855 28.155C57.855 27.315 56.76 26.88 54.885 26.88ZM63.5688 31.14H73.3338V32.73H63.5688V31.14ZM62.1138 35.64H74.6838V37.275H62.1138V35.64ZM67.3788 31.86H69.3738V36.165H67.3788V31.86ZM63.5688 25.89H73.2288V27.495H65.5638V31.83H63.5688V25.89Z" fill="#767676"/>
<rect width="1" height="16" transform="translate(103 24)" fill="#D8DEE9"/>
<path d="M126.969 36.8613H127.154C127.936 36.8613 128.606 36.7669 129.166 36.5781C129.732 36.3828 130.198 36.1029 130.562 35.7383C130.927 35.3737 131.197 34.9277 131.373 34.4004C131.549 33.8665 131.637 33.2611 131.637 32.584V29.8887C131.637 29.3743 131.585 28.9219 131.48 28.5312C131.383 28.1406 131.24 27.8184 131.051 27.5645C130.868 27.304 130.654 27.1087 130.406 26.9785C130.165 26.8483 129.898 26.7832 129.605 26.7832C129.293 26.7832 129.016 26.8613 128.775 27.0176C128.535 27.1673 128.329 27.3724 128.16 27.6328C127.997 27.8932 127.87 28.1927 127.779 28.5312C127.695 28.8633 127.652 29.2116 127.652 29.5762C127.652 29.9408 127.695 30.2891 127.779 30.6211C127.864 30.9466 127.991 31.2363 128.16 31.4902C128.329 31.7376 128.541 31.9362 128.795 32.0859C129.049 32.2292 129.348 32.3008 129.693 32.3008C130.025 32.3008 130.322 32.2389 130.582 32.1152C130.849 31.985 131.074 31.8158 131.256 31.6074C131.445 31.3991 131.588 31.168 131.686 30.9141C131.79 30.6602 131.842 30.403 131.842 30.1426L132.77 30.6504C132.77 31.1061 132.672 31.5553 132.477 31.998C132.281 32.4408 132.008 32.8444 131.656 33.209C131.311 33.5671 130.911 33.8535 130.455 34.0684C129.999 34.2832 129.511 34.3906 128.99 34.3906C128.326 34.3906 127.737 34.2702 127.223 34.0293C126.708 33.7819 126.272 33.4434 125.914 33.0137C125.562 32.5775 125.296 32.0697 125.113 31.4902C124.931 30.9108 124.84 30.2826 124.84 29.6055C124.84 28.9154 124.951 28.2676 125.172 27.6621C125.4 27.0566 125.722 26.5228 126.139 26.0605C126.562 25.5983 127.066 25.237 127.652 24.9766C128.245 24.7096 128.902 24.5762 129.625 24.5762C130.348 24.5762 131.005 24.7161 131.598 24.9961C132.19 25.276 132.698 25.6732 133.121 26.1875C133.544 26.6953 133.87 27.304 134.098 28.0137C134.332 28.7233 134.449 29.5111 134.449 30.377V31.3535C134.449 32.278 134.348 33.1374 134.146 33.9316C133.951 34.7259 133.655 35.4453 133.258 36.0898C132.867 36.7279 132.379 37.2747 131.793 37.7305C131.214 38.1862 130.54 38.5345 129.771 38.7754C129.003 39.0163 128.144 39.1367 127.193 39.1367H126.969V36.8613ZM145.519 24.7812V26.2949L140.021 39H137.052L142.55 26.9785H135.47V24.7812H145.519ZM146.999 37.6426C146.999 37.2259 147.142 36.8776 147.429 36.5977C147.722 36.3177 148.109 36.1777 148.591 36.1777C149.073 36.1777 149.457 36.3177 149.743 36.5977C150.036 36.8776 150.183 37.2259 150.183 37.6426C150.183 38.0592 150.036 38.4076 149.743 38.6875C149.457 38.9674 149.073 39.1074 148.591 39.1074C148.109 39.1074 147.722 38.9674 147.429 38.6875C147.142 38.4076 146.999 38.0592 146.999 37.6426ZM161.516 30.6406V33.1016C161.516 34.1693 161.402 35.0905 161.175 35.8652C160.947 36.6335 160.618 37.265 160.188 37.7598C159.765 38.248 159.261 38.6094 158.675 38.8438C158.089 39.0781 157.438 39.1953 156.721 39.1953C156.149 39.1953 155.615 39.1237 155.12 38.9805C154.625 38.8307 154.179 38.5996 153.782 38.2871C153.391 37.9746 153.053 37.5807 152.766 37.1055C152.486 36.6237 152.272 36.0508 152.122 35.3867C151.972 34.7227 151.897 33.9609 151.897 33.1016V30.6406C151.897 29.5729 152.011 28.6582 152.239 27.8965C152.473 27.1283 152.802 26.5 153.225 26.0117C153.655 25.5234 154.163 25.1654 154.749 24.9375C155.335 24.7031 155.986 24.5859 156.702 24.5859C157.275 24.5859 157.805 24.6608 158.294 24.8105C158.789 24.9538 159.235 25.1784 159.632 25.4844C160.029 25.7904 160.367 26.1842 160.647 26.666C160.927 27.1413 161.142 27.7109 161.292 28.375C161.442 29.0326 161.516 29.7878 161.516 30.6406ZM158.694 33.4727V30.2598C158.694 29.7454 158.665 29.2962 158.606 28.9121C158.554 28.528 158.473 28.2025 158.362 27.9355C158.251 27.6621 158.115 27.4408 157.952 27.2715C157.789 27.1022 157.604 26.9785 157.395 26.9004C157.187 26.8223 156.956 26.7832 156.702 26.7832C156.383 26.7832 156.1 26.8451 155.852 26.9688C155.611 27.0924 155.406 27.291 155.237 27.5645C155.068 27.8314 154.938 28.1895 154.846 28.6387C154.762 29.0814 154.72 29.6217 154.72 30.2598V33.4727C154.72 33.987 154.746 34.4395 154.798 34.8301C154.856 35.2207 154.941 35.556 155.052 35.8359C155.169 36.1094 155.305 36.334 155.462 36.5098C155.624 36.679 155.81 36.8027 156.018 36.8809C156.233 36.959 156.468 36.998 156.721 36.998C157.034 36.998 157.311 36.9362 157.552 36.8125C157.799 36.6823 158.007 36.4805 158.177 36.207C158.352 35.9271 158.483 35.5625 158.567 35.1133C158.652 34.6641 158.694 34.1172 158.694 33.4727ZM172.489 24.7812V26.2949L166.991 39H164.022L169.52 26.9785H162.44V24.7812H172.489Z" fill="#242424"/>
<path d="M178.768 31.8691C178.768 31.5918 178.836 31.3379 178.973 31.1074C179.109 30.877 179.291 30.6934 179.518 30.5566C179.744 30.416 179.992 30.3457 180.262 30.3457C180.531 30.3457 180.777 30.416 181 30.5566C181.223 30.6934 181.4 30.877 181.533 31.1074C181.666 31.3379 181.732 31.5918 181.732 31.8691C181.732 32.1465 181.666 32.4004 181.533 32.6309C181.4 32.8574 181.223 33.0391 181 33.1758C180.777 33.3086 180.531 33.375 180.262 33.375C179.992 33.375 179.744 33.3086 179.518 33.1758C179.291 33.0391 179.109 32.8574 178.973 32.6309C178.836 32.4004 178.768 32.1465 178.768 31.8691ZM179.494 31.8691C179.494 32.084 179.568 32.2637 179.717 32.4082C179.869 32.5527 180.051 32.625 180.262 32.625C180.473 32.625 180.648 32.5527 180.789 32.4082C180.934 32.2637 181.006 32.084 181.006 31.8691C181.006 31.6504 180.934 31.4668 180.789 31.3184C180.648 31.1699 180.473 31.0957 180.262 31.0957C180.051 31.0957 179.869 31.1699 179.717 31.3184C179.568 31.4668 179.494 31.6504 179.494 31.8691ZM188.389 36.2871H189.514C189.455 36.8262 189.301 37.3086 189.051 37.7344C188.801 38.1602 188.448 38.498 187.99 38.748C187.533 38.9941 186.963 39.1172 186.28 39.1172C185.78 39.1172 185.324 39.0234 184.914 38.8359C184.508 38.6484 184.158 38.3828 183.865 38.0391C183.573 37.6914 183.346 37.2754 183.186 36.791C183.03 36.3027 182.951 35.7598 182.951 35.1621V34.3125C182.951 33.7148 183.03 33.1738 183.186 32.6895C183.346 32.2012 183.574 31.7832 183.871 31.4355C184.172 31.0879 184.533 30.8203 184.955 30.6328C185.377 30.4453 185.852 30.3516 186.379 30.3516C187.024 30.3516 187.569 30.4727 188.014 30.7148C188.459 30.957 188.805 31.293 189.051 31.7227C189.301 32.1484 189.455 32.6426 189.514 33.2051H188.389C188.334 32.8066 188.233 32.4648 188.084 32.1797C187.936 31.8906 187.725 31.668 187.451 31.5117C187.178 31.3555 186.821 31.2773 186.379 31.2773C186 31.2773 185.666 31.3496 185.377 31.4941C185.092 31.6387 184.852 31.8438 184.656 32.1094C184.465 32.375 184.321 32.6934 184.223 33.0645C184.125 33.4355 184.076 33.8477 184.076 34.3008V35.1621C184.076 35.5801 184.119 35.9727 184.205 36.3398C184.295 36.707 184.43 37.0293 184.61 37.3066C184.789 37.584 185.018 37.8027 185.295 37.9629C185.573 38.1191 185.901 38.1973 186.28 38.1973C186.76 38.1973 187.143 38.1211 187.428 37.9688C187.713 37.8164 187.928 37.5977 188.073 37.3125C188.221 37.0273 188.326 36.6855 188.389 36.2871Z" fill="#242424"/>
<defs>
<clipPath id="clip0_2035_6612">
<rect width="16" height="16" fill="white" transform="translate(24 24)"/>
</clipPath>
</defs>
</svg>
