<svg width="74" height="40" viewBox="0 0 74 40" fill="none" xmlns="http://www.w3.org/2000/svg">
<path d="M40.3664 4.36623C40.1091 4.38738 42.1324 -1.00932 35.6077 0.168014C18.3601 3.28055 6.17081 14.7684 3.60464 18.0572C1.03847 21.3459 -6.82218 35.0615 13.9504 33.4577C34.7265 31.8538 46.2037 19.9324 47.8005 17.7364C54.0291 9.15312 51.5898 3.46385 40.3664 4.36976V4.36623ZM36.1153 1.56037C36.1153 1.56037 40.1937 0.622733 38.5228 4.66233C38.5228 4.66233 28.3639 5.62464 14.1936 14.0211C14.1936 14.0211 21.5713 3.78109 36.1188 1.5639L36.1153 1.56037ZM30.708 27.9975C20.8558 31.6705 11.5005 30.9832 9.80856 26.4536C8.12011 21.924 14.7364 15.276 24.5852 11.5994C34.4374 7.92291 43.7926 8.6138 45.4811 13.1434C47.1731 17.6729 40.5532 24.3245 30.7045 28.0011L30.708 27.9975Z" fill="#DF134C"/>
<path d="M51.2056 40L55.573 15.2407H62.0131L61.5443 17.8809C62.6335 16.767 63.5853 16.0127 64.3995 15.6179C65.4958 15.0892 66.6555 14.8248 67.8716 14.8248C70.2756 14.8248 71.9711 15.7413 72.9581 17.5778C73.9486 19.4143 74.206 21.6843 73.7301 24.3915C73.2049 27.3771 72.0839 29.6578 70.3743 31.2299C68.6647 32.8021 66.719 33.5881 64.53 33.5881C63.4689 33.5881 62.5313 33.4048 61.7241 33.0453C60.9134 32.6857 60.226 32.1464 59.6655 31.4308L58.1533 40H51.2056ZM60.8816 24.2399C60.6314 25.6534 60.7477 26.7074 61.2235 27.3948C61.6994 28.0821 62.3938 28.4241 63.3103 28.4241C64.1105 28.4241 64.8366 28.0962 65.4958 27.4371C66.155 26.7779 66.6203 25.664 66.8987 24.0884C67.1525 22.6361 67.0573 21.5751 66.6167 20.8912C66.1726 20.2109 65.5451 19.8725 64.7344 19.8725C63.8532 19.8725 63.06 20.218 62.3551 20.9018C61.6465 21.5856 61.1566 22.6995 60.8851 24.2399H60.8816Z" fill="#0060A9"/>
<path d="M24.2327 15.2302H30.842L31.7514 26.3549L37.3314 15.2302H43.4613L45.259 26.4466L50.1129 15.2302H56.6834L46.9757 33.0488H40.8987L39.1785 22.3259L33.7994 33.0488H27.6977L24.2327 15.2302Z" fill="#0060A9"/>
</svg>
